M48
;DRILL file {KiCad 4.0.5+dfsg1-4+deb9u1} date Tue Sep 27 17:28:02 2022
;FORMAT={-:-/ absolute / metric / decimal}
FMAT,2
METRIC,TZ
T1C0.400
T2C0.800
T3C1.000
T4C2.500
%
G90
G05
M71
T1
X127.Y-120.65
X167.64Y-104.14
T2
X165.1Y-95.25
X167.005Y-116.205
X167.005Y-119.705
X170.1Y-95.25
T3
X127.Y-76.2
X127.Y-78.74
X127.Y-81.28
X127.Y-83.82
X130.81Y-100.33
X130.81Y-104.14
X130.81Y-127.
X133.35Y-91.44
X133.35Y-111.76
X135.89Y-91.44
X135.89Y-111.76
X138.43Y-91.44
X138.43Y-111.76
X138.43Y-118.11
X138.43Y-120.65
X138.43Y-127.
X140.97Y-91.44
X140.97Y-100.33
X140.97Y-104.14
X140.97Y-111.76
X143.51Y-91.44
X143.51Y-111.76
X143.51Y-118.11
X143.51Y-120.65
X146.05Y-91.44
X146.05Y-111.76
X146.05Y-127.
X148.59Y-91.44
X148.59Y-111.76
X148.59Y-118.11
X148.59Y-120.65
X148.59Y-127.
X151.13Y-91.44
X151.13Y-96.52
X151.13Y-100.33
X151.13Y-104.14
X151.13Y-107.95
X151.13Y-111.76
X151.13Y-127.
X153.67Y-91.44
X153.67Y-111.76
X153.67Y-118.11
X153.67Y-120.65
X153.67Y-127.
X156.21Y-91.44
X156.21Y-111.76
X158.75Y-96.52
X158.75Y-100.33
X158.75Y-104.14
X158.75Y-107.95
X158.75Y-118.11
X158.75Y-120.65
X161.29Y-127.
X165.1Y-110.49
X167.64Y-110.49
X168.91Y-127.
X173.99Y-93.98
X173.99Y-96.52
X173.993Y-110.49
X173.993Y-120.65
T4
X125.984Y-69.088
X125.984Y-128.524
X174.752Y-69.088
X174.752Y-128.524
T0
M30
