G04 #@! TF.FileFunction,Soldermask,Bot*
%FSLAX46Y46*%
G04 Gerber Fmt 4.6, Leading zero omitted, Abs format (unit mm)*
G04 Created by KiCad (PCBNEW 4.0.5+dfsg1-4) date Thu Jul 16 18:06:26 2020*
%MOMM*%
%LPD*%
G01*
G04 APERTURE LIST*
%ADD10C,0.150000*%
%ADD11C,2.398980*%
%ADD12R,2.400000X2.400000*%
%ADD13C,2.400000*%
%ADD14R,2.432000X2.127200*%
%ADD15O,2.432000X2.127200*%
%ADD16R,2.127200X2.432000*%
%ADD17O,2.127200X2.432000*%
%ADD18R,1.700000X1.700000*%
%ADD19C,1.700000*%
%ADD20R,2.432000X2.432000*%
%ADD21O,2.432000X2.432000*%
%ADD22R,2.398980X2.398980*%
G04 APERTURE END LIST*
D10*
X123952000Y-67056000D02*
X123952000Y-130556000D01*
X176784000Y-67056000D02*
X123952000Y-67056000D01*
X176784000Y-130556000D02*
X176784000Y-67056000D01*
X123952000Y-130556000D02*
X176784000Y-130556000D01*
D11*
X158750000Y-96520000D03*
X151130000Y-96520000D03*
X151130000Y-100330000D03*
X158750000Y-100330000D03*
X151130000Y-107950000D03*
X158750000Y-107950000D03*
X151130000Y-104140000D03*
X158750000Y-104140000D03*
X130810000Y-127000000D03*
X138430000Y-127000000D03*
X130810000Y-100330000D03*
X140970000Y-100330000D03*
X130810000Y-104140000D03*
X140970000Y-104140000D03*
D12*
X138430000Y-120650000D03*
D13*
X138430000Y-118110000D03*
D12*
X143510000Y-120650000D03*
D13*
X143510000Y-118110000D03*
D12*
X148590000Y-120650000D03*
D13*
X148590000Y-118110000D03*
D12*
X153670000Y-120650000D03*
D13*
X153670000Y-118110000D03*
D12*
X158750000Y-120650000D03*
D13*
X158750000Y-118110000D03*
D14*
X127000000Y-76200000D03*
D15*
X127000000Y-78740000D03*
X127000000Y-81280000D03*
X127000000Y-83820000D03*
D16*
X133350000Y-111760000D03*
D17*
X135890000Y-111760000D03*
X138430000Y-111760000D03*
X140970000Y-111760000D03*
X143510000Y-111760000D03*
X146050000Y-111760000D03*
X148590000Y-111760000D03*
X151130000Y-111760000D03*
X153670000Y-111760000D03*
X156210000Y-111760000D03*
D16*
X156210000Y-91440000D03*
D17*
X153670000Y-91440000D03*
X151130000Y-91440000D03*
X148590000Y-91440000D03*
X146050000Y-91440000D03*
X143510000Y-91440000D03*
X140970000Y-91440000D03*
X138430000Y-91440000D03*
X135890000Y-91440000D03*
X133350000Y-91440000D03*
D18*
X165100000Y-95250000D03*
D19*
X170100000Y-95250000D03*
D20*
X165100000Y-110490000D03*
D21*
X167640000Y-110490000D03*
D20*
X173990000Y-96520000D03*
D21*
X173990000Y-93980000D03*
D19*
X167005000Y-119705000D03*
D18*
X167005000Y-116205000D03*
D16*
X146050000Y-127000000D03*
D17*
X148590000Y-127000000D03*
X151130000Y-127000000D03*
X153670000Y-127000000D03*
D11*
X168910000Y-127000000D03*
X161290000Y-127000000D03*
X173992540Y-120650000D03*
D22*
X173992540Y-110490000D03*
M02*
