%FSLAX45Y45*%
G04 Gerber Fmt 4.5, Leading zero omitted, Abs format (unit mm)*
G04 Created by KiCad (PCBNEW 4.0.5+dfsg1-4) date Wed Jul 15 16:21:23 2020*
%MOMM*%
%LPD*%
G01*
G04 APERTURE LIST*
%ADD10C,0.127000*%
%ADD11C,0.150000*%
%ADD12C,0.200000*%
%ADD13C,0.300000*%
G04 APERTURE END LIST*
D10*
D11*
X12395200Y-6705600D02*
X12395200Y-13055600D01*
X17678400Y-6705600D02*
X12395200Y-6705600D01*
X17678400Y-13055600D02*
X17678400Y-6705600D01*
X12395200Y-13055600D02*
X17678400Y-13055600D01*
D12*
X12680000Y-12045000D02*
X12720000Y-12085000D01*
X12720000Y-12045000D02*
X12680000Y-12085000D01*
X16744000Y-10394000D02*
X16784000Y-10434000D01*
X16784000Y-10394000D02*
X16744000Y-10434000D01*
X16550000Y-9525000D02*
G75*
G03X16550000Y-9525000I-40000J0D01*
G01*
X16740500Y-11620500D02*
G75*
G03X16740500Y-11620500I-40000J0D01*
G01*
X16740500Y-11970500D02*
G75*
G03X16740500Y-11970500I-40000J0D01*
G01*
X17050000Y-9525000D02*
G75*
G03X17050000Y-9525000I-40000J0D01*
G01*
X13081000Y-9982962D02*
X13081000Y-10083038D01*
X13030962Y-10033000D02*
X13131038Y-10033000D01*
X13081000Y-10363962D02*
X13081000Y-10464038D01*
X13030962Y-10414000D02*
X13131038Y-10414000D01*
X13081000Y-12649962D02*
X13081000Y-12750038D01*
X13030962Y-12700000D02*
X13131038Y-12700000D01*
X13843000Y-11760962D02*
X13843000Y-11861038D01*
X13792962Y-11811000D02*
X13893038Y-11811000D01*
X13843000Y-12014962D02*
X13843000Y-12115038D01*
X13792962Y-12065000D02*
X13893038Y-12065000D01*
X13843000Y-12649962D02*
X13843000Y-12750038D01*
X13792962Y-12700000D02*
X13893038Y-12700000D01*
X14097000Y-9982962D02*
X14097000Y-10083038D01*
X14046962Y-10033000D02*
X14147038Y-10033000D01*
X14097000Y-10363962D02*
X14097000Y-10464038D01*
X14046962Y-10414000D02*
X14147038Y-10414000D01*
X14351000Y-11760962D02*
X14351000Y-11861038D01*
X14300962Y-11811000D02*
X14401038Y-11811000D01*
X14351000Y-12014962D02*
X14351000Y-12115038D01*
X14300962Y-12065000D02*
X14401038Y-12065000D01*
X14859000Y-11760962D02*
X14859000Y-11861038D01*
X14808962Y-11811000D02*
X14909038Y-11811000D01*
X14859000Y-12014962D02*
X14859000Y-12115038D01*
X14808962Y-12065000D02*
X14909038Y-12065000D01*
X15113000Y-9601962D02*
X15113000Y-9702038D01*
X15062962Y-9652000D02*
X15163038Y-9652000D01*
X15113000Y-9982962D02*
X15113000Y-10083038D01*
X15062962Y-10033000D02*
X15163038Y-10033000D01*
X15113000Y-10363962D02*
X15113000Y-10464038D01*
X15062962Y-10414000D02*
X15163038Y-10414000D01*
X15113000Y-10744962D02*
X15113000Y-10845038D01*
X15062962Y-10795000D02*
X15163038Y-10795000D01*
X15367000Y-11760962D02*
X15367000Y-11861038D01*
X15316962Y-11811000D02*
X15417038Y-11811000D01*
X15367000Y-12014962D02*
X15367000Y-12115038D01*
X15316962Y-12065000D02*
X15417038Y-12065000D01*
X15875000Y-9601962D02*
X15875000Y-9702038D01*
X15824962Y-9652000D02*
X15925038Y-9652000D01*
X15875000Y-9982962D02*
X15875000Y-10083038D01*
X15824962Y-10033000D02*
X15925038Y-10033000D01*
X15875000Y-10363962D02*
X15875000Y-10464038D01*
X15824962Y-10414000D02*
X15925038Y-10414000D01*
X15875000Y-10744962D02*
X15875000Y-10845038D01*
X15824962Y-10795000D02*
X15925038Y-10795000D01*
X15875000Y-11760962D02*
X15875000Y-11861038D01*
X15824962Y-11811000D02*
X15925038Y-11811000D01*
X15875000Y-12014962D02*
X15875000Y-12115038D01*
X15824962Y-12065000D02*
X15925038Y-12065000D01*
X16129000Y-12649962D02*
X16129000Y-12750038D01*
X16078962Y-12700000D02*
X16179038Y-12700000D01*
X16891000Y-12649962D02*
X16891000Y-12750038D01*
X16840962Y-12700000D02*
X16941038Y-12700000D01*
X17399254Y-10998962D02*
X17399254Y-11099038D01*
X17349216Y-11049000D02*
X17449292Y-11049000D01*
X12735921Y-7655921D02*
X12735921Y-7584079D01*
X12664079Y-7584079D01*
X12664079Y-7655921D01*
X12735921Y-7655921D01*
X12735921Y-7909921D02*
X12735921Y-7838079D01*
X12664079Y-7838079D01*
X12664079Y-7909921D01*
X12735921Y-7909921D01*
X12735921Y-8163921D02*
X12735921Y-8092079D01*
X12664079Y-8092079D01*
X12664079Y-8163921D01*
X12735921Y-8163921D01*
X12735921Y-8417921D02*
X12735921Y-8346079D01*
X12664079Y-8346079D01*
X12664079Y-8417921D01*
X12735921Y-8417921D01*
X13370921Y-9179921D02*
X13370921Y-9108079D01*
X13299079Y-9108079D01*
X13299079Y-9179921D01*
X13370921Y-9179921D01*
X13370921Y-11211921D02*
X13370921Y-11140079D01*
X13299079Y-11140079D01*
X13299079Y-11211921D01*
X13370921Y-11211921D01*
X13624921Y-9179921D02*
X13624921Y-9108079D01*
X13553079Y-9108079D01*
X13553079Y-9179921D01*
X13624921Y-9179921D01*
X13624921Y-11211921D02*
X13624921Y-11140079D01*
X13553079Y-11140079D01*
X13553079Y-11211921D01*
X13624921Y-11211921D01*
X13878921Y-9179921D02*
X13878921Y-9108079D01*
X13807079Y-9108079D01*
X13807079Y-9179921D01*
X13878921Y-9179921D01*
X13878921Y-11211921D02*
X13878921Y-11140079D01*
X13807079Y-11140079D01*
X13807079Y-11211921D01*
X13878921Y-11211921D01*
X14132921Y-9179921D02*
X14132921Y-9108079D01*
X14061079Y-9108079D01*
X14061079Y-9179921D01*
X14132921Y-9179921D01*
X14132921Y-11211921D02*
X14132921Y-11140079D01*
X14061079Y-11140079D01*
X14061079Y-11211921D01*
X14132921Y-11211921D01*
X14386921Y-9179921D02*
X14386921Y-9108079D01*
X14315079Y-9108079D01*
X14315079Y-9179921D01*
X14386921Y-9179921D01*
X14386921Y-11211921D02*
X14386921Y-11140079D01*
X14315079Y-11140079D01*
X14315079Y-11211921D01*
X14386921Y-11211921D01*
X14640921Y-9179921D02*
X14640921Y-9108079D01*
X14569079Y-9108079D01*
X14569079Y-9179921D01*
X14640921Y-9179921D01*
X14640921Y-11211921D02*
X14640921Y-11140079D01*
X14569079Y-11140079D01*
X14569079Y-11211921D01*
X14640921Y-11211921D01*
X14640921Y-12735921D02*
X14640921Y-12664079D01*
X14569079Y-12664079D01*
X14569079Y-12735921D01*
X14640921Y-12735921D01*
X14894921Y-9179921D02*
X14894921Y-9108079D01*
X14823079Y-9108079D01*
X14823079Y-9179921D01*
X14894921Y-9179921D01*
X14894921Y-11211921D02*
X14894921Y-11140079D01*
X14823079Y-11140079D01*
X14823079Y-11211921D01*
X14894921Y-11211921D01*
X14894921Y-12735921D02*
X14894921Y-12664079D01*
X14823079Y-12664079D01*
X14823079Y-12735921D01*
X14894921Y-12735921D01*
X15148921Y-9179921D02*
X15148921Y-9108079D01*
X15077079Y-9108079D01*
X15077079Y-9179921D01*
X15148921Y-9179921D01*
X15148921Y-11211921D02*
X15148921Y-11140079D01*
X15077079Y-11140079D01*
X15077079Y-11211921D01*
X15148921Y-11211921D01*
X15148921Y-12735921D02*
X15148921Y-12664079D01*
X15077079Y-12664079D01*
X15077079Y-12735921D01*
X15148921Y-12735921D01*
X15402921Y-9179921D02*
X15402921Y-9108079D01*
X15331079Y-9108079D01*
X15331079Y-9179921D01*
X15402921Y-9179921D01*
X15402921Y-11211921D02*
X15402921Y-11140079D01*
X15331079Y-11140079D01*
X15331079Y-11211921D01*
X15402921Y-11211921D01*
X15402921Y-12735921D02*
X15402921Y-12664079D01*
X15331079Y-12664079D01*
X15331079Y-12735921D01*
X15402921Y-12735921D01*
X15656921Y-9179921D02*
X15656921Y-9108079D01*
X15585079Y-9108079D01*
X15585079Y-9179921D01*
X15656921Y-9179921D01*
X15656921Y-11211921D02*
X15656921Y-11140079D01*
X15585079Y-11140079D01*
X15585079Y-11211921D01*
X15656921Y-11211921D01*
X16545921Y-11084921D02*
X16545921Y-11013079D01*
X16474079Y-11013079D01*
X16474079Y-11084921D01*
X16545921Y-11084921D01*
X16799921Y-11084921D02*
X16799921Y-11013079D01*
X16728079Y-11013079D01*
X16728079Y-11084921D01*
X16799921Y-11084921D01*
X17434921Y-9433921D02*
X17434921Y-9362079D01*
X17363079Y-9362079D01*
X17363079Y-9433921D01*
X17434921Y-9433921D01*
X17434921Y-9687921D02*
X17434921Y-9616079D01*
X17363079Y-9616079D01*
X17363079Y-9687921D01*
X17434921Y-9687921D01*
X17399254Y-12128500D02*
X17462754Y-12065000D01*
X17399254Y-12001500D01*
X17335754Y-12065000D01*
X17399254Y-12128500D01*
X12473400Y-6783800D02*
X12723400Y-7033800D01*
X12723400Y-6783800D02*
X12473400Y-7033800D01*
X12723400Y-6908800D02*
G75*
G03X12723400Y-6908800I-125000J0D01*
G01*
X12473400Y-12727400D02*
X12723400Y-12977400D01*
X12723400Y-12727400D02*
X12473400Y-12977400D01*
X12723400Y-12852400D02*
G75*
G03X12723400Y-12852400I-125000J0D01*
G01*
X17350200Y-6783800D02*
X17600200Y-7033800D01*
X17600200Y-6783800D02*
X17350200Y-7033800D01*
X17600200Y-6908800D02*
G75*
G03X17600200Y-6908800I-125000J0D01*
G01*
X17350200Y-12727400D02*
X17600200Y-12977400D01*
X17600200Y-12727400D02*
X17350200Y-12977400D01*
X17600200Y-12852400D02*
G75*
G03X17600200Y-12852400I-125000J0D01*
G01*
D13*
X12659128Y-13528814D02*
X12659128Y-13228814D01*
X12730557Y-13228814D01*
X12773414Y-13243100D01*
X12801986Y-13271671D01*
X12816271Y-13300243D01*
X12830557Y-13357386D01*
X12830557Y-13400243D01*
X12816271Y-13457386D01*
X12801986Y-13485957D01*
X12773414Y-13514529D01*
X12730557Y-13528814D01*
X12659128Y-13528814D01*
X12959128Y-13528814D02*
X12959128Y-13328814D01*
X12959128Y-13385957D02*
X12973414Y-13357386D01*
X12987700Y-13343100D01*
X13016271Y-13328814D01*
X13044843Y-13328814D01*
X13144843Y-13528814D02*
X13144843Y-13328814D01*
X13144843Y-13228814D02*
X13130557Y-13243100D01*
X13144843Y-13257386D01*
X13159128Y-13243100D01*
X13144843Y-13228814D01*
X13144843Y-13257386D01*
X13330557Y-13528814D02*
X13301986Y-13514529D01*
X13287700Y-13485957D01*
X13287700Y-13228814D01*
X13487700Y-13528814D02*
X13459128Y-13514529D01*
X13444843Y-13485957D01*
X13444843Y-13228814D01*
X13830557Y-13528814D02*
X13830557Y-13228814D01*
X13930557Y-13443100D01*
X14030557Y-13228814D01*
X14030557Y-13528814D01*
X14301986Y-13528814D02*
X14301986Y-13371671D01*
X14287700Y-13343100D01*
X14259128Y-13328814D01*
X14201986Y-13328814D01*
X14173414Y-13343100D01*
X14301986Y-13514529D02*
X14273414Y-13528814D01*
X14201986Y-13528814D01*
X14173414Y-13514529D01*
X14159128Y-13485957D01*
X14159128Y-13457386D01*
X14173414Y-13428814D01*
X14201986Y-13414529D01*
X14273414Y-13414529D01*
X14301986Y-13400243D01*
X14444843Y-13328814D02*
X14444843Y-13628814D01*
X14444843Y-13343100D02*
X14473414Y-13328814D01*
X14530557Y-13328814D01*
X14559128Y-13343100D01*
X14573414Y-13357386D01*
X14587700Y-13385957D01*
X14587700Y-13471671D01*
X14573414Y-13500243D01*
X14559128Y-13514529D01*
X14530557Y-13528814D01*
X14473414Y-13528814D01*
X14444843Y-13514529D01*
X14716271Y-13500243D02*
X14730557Y-13514529D01*
X14716271Y-13528814D01*
X14701986Y-13514529D01*
X14716271Y-13500243D01*
X14716271Y-13528814D01*
X14716271Y-13343100D02*
X14730557Y-13357386D01*
X14716271Y-13371671D01*
X14701986Y-13357386D01*
X14716271Y-13343100D01*
X14716271Y-13371671D01*
X12347700Y-14003100D02*
X12387700Y-14043100D01*
X12387700Y-14003100D02*
X12347700Y-14043100D01*
X12716271Y-13858814D02*
X12744843Y-13858814D01*
X12773414Y-13873100D01*
X12787700Y-13887386D01*
X12801986Y-13915957D01*
X12816271Y-13973100D01*
X12816271Y-14044529D01*
X12801986Y-14101671D01*
X12787700Y-14130243D01*
X12773414Y-14144529D01*
X12744843Y-14158814D01*
X12716271Y-14158814D01*
X12687700Y-14144529D01*
X12673414Y-14130243D01*
X12659128Y-14101671D01*
X12644843Y-14044529D01*
X12644843Y-13973100D01*
X12659128Y-13915957D01*
X12673414Y-13887386D01*
X12687700Y-13873100D01*
X12716271Y-13858814D01*
X12944843Y-14130243D02*
X12959128Y-14144529D01*
X12944843Y-14158814D01*
X12930557Y-14144529D01*
X12944843Y-14130243D01*
X12944843Y-14158814D01*
X13216271Y-13958814D02*
X13216271Y-14158814D01*
X13144843Y-13844529D02*
X13073414Y-14058814D01*
X13259128Y-14058814D01*
X13430557Y-13858814D02*
X13459128Y-13858814D01*
X13487700Y-13873100D01*
X13501986Y-13887386D01*
X13516271Y-13915957D01*
X13530557Y-13973100D01*
X13530557Y-14044529D01*
X13516271Y-14101671D01*
X13501986Y-14130243D01*
X13487700Y-14144529D01*
X13459128Y-14158814D01*
X13430557Y-14158814D01*
X13401986Y-14144529D01*
X13387700Y-14130243D01*
X13373414Y-14101671D01*
X13359128Y-14044529D01*
X13359128Y-13973100D01*
X13373414Y-13915957D01*
X13387700Y-13887386D01*
X13401986Y-13873100D01*
X13430557Y-13858814D01*
X13659128Y-14158814D02*
X13659128Y-13958814D01*
X13659128Y-13987386D02*
X13673414Y-13973100D01*
X13701986Y-13958814D01*
X13744843Y-13958814D01*
X13773414Y-13973100D01*
X13787700Y-14001671D01*
X13787700Y-14158814D01*
X13787700Y-14001671D02*
X13801986Y-13973100D01*
X13830557Y-13958814D01*
X13873414Y-13958814D01*
X13901986Y-13973100D01*
X13916271Y-14001671D01*
X13916271Y-14158814D01*
X14059128Y-14158814D02*
X14059128Y-13958814D01*
X14059128Y-13987386D02*
X14073414Y-13973100D01*
X14101986Y-13958814D01*
X14144843Y-13958814D01*
X14173414Y-13973100D01*
X14187700Y-14001671D01*
X14187700Y-14158814D01*
X14187700Y-14001671D02*
X14201986Y-13973100D01*
X14230557Y-13958814D01*
X14273414Y-13958814D01*
X14301986Y-13973100D01*
X14316271Y-14001671D01*
X14316271Y-14158814D01*
X14901986Y-13844529D02*
X14644843Y-14230243D01*
X15287700Y-13858814D02*
X15316271Y-13858814D01*
X15344843Y-13873100D01*
X15359128Y-13887386D01*
X15373414Y-13915957D01*
X15387700Y-13973100D01*
X15387700Y-14044529D01*
X15373414Y-14101671D01*
X15359128Y-14130243D01*
X15344843Y-14144529D01*
X15316271Y-14158814D01*
X15287700Y-14158814D01*
X15259128Y-14144529D01*
X15244843Y-14130243D01*
X15230557Y-14101671D01*
X15216271Y-14044529D01*
X15216271Y-13973100D01*
X15230557Y-13915957D01*
X15244843Y-13887386D01*
X15259128Y-13873100D01*
X15287700Y-13858814D01*
X15516271Y-14130243D02*
X15530557Y-14144529D01*
X15516271Y-14158814D01*
X15501986Y-14144529D01*
X15516271Y-14130243D01*
X15516271Y-14158814D01*
X15716271Y-13858814D02*
X15744843Y-13858814D01*
X15773414Y-13873100D01*
X15787700Y-13887386D01*
X15801985Y-13915957D01*
X15816271Y-13973100D01*
X15816271Y-14044529D01*
X15801985Y-14101671D01*
X15787700Y-14130243D01*
X15773414Y-14144529D01*
X15744843Y-14158814D01*
X15716271Y-14158814D01*
X15687700Y-14144529D01*
X15673414Y-14130243D01*
X15659128Y-14101671D01*
X15644843Y-14044529D01*
X15644843Y-13973100D01*
X15659128Y-13915957D01*
X15673414Y-13887386D01*
X15687700Y-13873100D01*
X15716271Y-13858814D01*
X16101985Y-14158814D02*
X15930557Y-14158814D01*
X16016271Y-14158814D02*
X16016271Y-13858814D01*
X15987700Y-13901671D01*
X15959128Y-13930243D01*
X15930557Y-13944529D01*
X16359128Y-13858814D02*
X16301985Y-13858814D01*
X16273414Y-13873100D01*
X16259128Y-13887386D01*
X16230557Y-13930243D01*
X16216271Y-13987386D01*
X16216271Y-14101671D01*
X16230557Y-14130243D01*
X16244843Y-14144529D01*
X16273414Y-14158814D01*
X16330557Y-14158814D01*
X16359128Y-14144529D01*
X16373414Y-14130243D01*
X16387700Y-14101671D01*
X16387700Y-14030243D01*
X16373414Y-14001671D01*
X16359128Y-13987386D01*
X16330557Y-13973100D01*
X16273414Y-13973100D01*
X16244843Y-13987386D01*
X16230557Y-14001671D01*
X16216271Y-14030243D01*
X16501986Y-13858814D02*
X16501986Y-13915957D01*
X16616271Y-13858814D02*
X16616271Y-13915957D01*
X17059128Y-14273100D02*
X17044843Y-14258814D01*
X17016271Y-14215957D01*
X17001986Y-14187386D01*
X16987700Y-14144529D01*
X16973414Y-14073100D01*
X16973414Y-14015957D01*
X16987700Y-13944529D01*
X17001986Y-13901671D01*
X17016271Y-13873100D01*
X17044843Y-13830243D01*
X17059128Y-13815957D01*
X17159128Y-13887386D02*
X17173414Y-13873100D01*
X17201986Y-13858814D01*
X17273414Y-13858814D01*
X17301986Y-13873100D01*
X17316271Y-13887386D01*
X17330557Y-13915957D01*
X17330557Y-13944529D01*
X17316271Y-13987386D01*
X17144843Y-14158814D01*
X17330557Y-14158814D01*
X17687700Y-14158814D02*
X17687700Y-13858814D01*
X17816271Y-14158814D02*
X17816271Y-14001671D01*
X17801986Y-13973100D01*
X17773414Y-13958814D01*
X17730557Y-13958814D01*
X17701986Y-13973100D01*
X17687700Y-13987386D01*
X18001986Y-14158814D02*
X17973414Y-14144529D01*
X17959128Y-14130243D01*
X17944843Y-14101671D01*
X17944843Y-14015957D01*
X17959128Y-13987386D01*
X17973414Y-13973100D01*
X18001986Y-13958814D01*
X18044843Y-13958814D01*
X18073414Y-13973100D01*
X18087700Y-13987386D01*
X18101986Y-14015957D01*
X18101986Y-14101671D01*
X18087700Y-14130243D01*
X18073414Y-14144529D01*
X18044843Y-14158814D01*
X18001986Y-14158814D01*
X18273414Y-14158814D02*
X18244843Y-14144529D01*
X18230557Y-14115957D01*
X18230557Y-13858814D01*
X18501986Y-14144529D02*
X18473414Y-14158814D01*
X18416271Y-14158814D01*
X18387700Y-14144529D01*
X18373414Y-14115957D01*
X18373414Y-14001671D01*
X18387700Y-13973100D01*
X18416271Y-13958814D01*
X18473414Y-13958814D01*
X18501986Y-13973100D01*
X18516271Y-14001671D01*
X18516271Y-14030243D01*
X18373414Y-14058814D01*
X18630557Y-14144529D02*
X18659129Y-14158814D01*
X18716271Y-14158814D01*
X18744843Y-14144529D01*
X18759129Y-14115957D01*
X18759129Y-14101671D01*
X18744843Y-14073100D01*
X18716271Y-14058814D01*
X18673414Y-14058814D01*
X18644843Y-14044529D01*
X18630557Y-14015957D01*
X18630557Y-14001671D01*
X18644843Y-13973100D01*
X18673414Y-13958814D01*
X18716271Y-13958814D01*
X18744843Y-13973100D01*
X18859128Y-14273100D02*
X18873414Y-14258814D01*
X18901986Y-14215957D01*
X18916271Y-14187386D01*
X18930557Y-14144529D01*
X18944843Y-14073100D01*
X18944843Y-14015957D01*
X18930557Y-13944529D01*
X18916271Y-13901671D01*
X18901986Y-13873100D01*
X18873414Y-13830243D01*
X18859128Y-13815957D01*
X12387700Y-14419100D02*
G75*
G03X12387700Y-14419100I-40000J0D01*
G01*
X12716271Y-14254814D02*
X12744843Y-14254814D01*
X12773414Y-14269100D01*
X12787700Y-14283386D01*
X12801986Y-14311957D01*
X12816271Y-14369100D01*
X12816271Y-14440529D01*
X12801986Y-14497671D01*
X12787700Y-14526243D01*
X12773414Y-14540529D01*
X12744843Y-14554814D01*
X12716271Y-14554814D01*
X12687700Y-14540529D01*
X12673414Y-14526243D01*
X12659128Y-14497671D01*
X12644843Y-14440529D01*
X12644843Y-14369100D01*
X12659128Y-14311957D01*
X12673414Y-14283386D01*
X12687700Y-14269100D01*
X12716271Y-14254814D01*
X12944843Y-14526243D02*
X12959128Y-14540529D01*
X12944843Y-14554814D01*
X12930557Y-14540529D01*
X12944843Y-14526243D01*
X12944843Y-14554814D01*
X13130557Y-14383386D02*
X13101986Y-14369100D01*
X13087700Y-14354814D01*
X13073414Y-14326243D01*
X13073414Y-14311957D01*
X13087700Y-14283386D01*
X13101986Y-14269100D01*
X13130557Y-14254814D01*
X13187700Y-14254814D01*
X13216271Y-14269100D01*
X13230557Y-14283386D01*
X13244843Y-14311957D01*
X13244843Y-14326243D01*
X13230557Y-14354814D01*
X13216271Y-14369100D01*
X13187700Y-14383386D01*
X13130557Y-14383386D01*
X13101986Y-14397671D01*
X13087700Y-14411957D01*
X13073414Y-14440529D01*
X13073414Y-14497671D01*
X13087700Y-14526243D01*
X13101986Y-14540529D01*
X13130557Y-14554814D01*
X13187700Y-14554814D01*
X13216271Y-14540529D01*
X13230557Y-14526243D01*
X13244843Y-14497671D01*
X13244843Y-14440529D01*
X13230557Y-14411957D01*
X13216271Y-14397671D01*
X13187700Y-14383386D01*
X13430557Y-14254814D02*
X13459128Y-14254814D01*
X13487700Y-14269100D01*
X13501986Y-14283386D01*
X13516271Y-14311957D01*
X13530557Y-14369100D01*
X13530557Y-14440529D01*
X13516271Y-14497671D01*
X13501986Y-14526243D01*
X13487700Y-14540529D01*
X13459128Y-14554814D01*
X13430557Y-14554814D01*
X13401986Y-14540529D01*
X13387700Y-14526243D01*
X13373414Y-14497671D01*
X13359128Y-14440529D01*
X13359128Y-14369100D01*
X13373414Y-14311957D01*
X13387700Y-14283386D01*
X13401986Y-14269100D01*
X13430557Y-14254814D01*
X13659128Y-14554814D02*
X13659128Y-14354814D01*
X13659128Y-14383386D02*
X13673414Y-14369100D01*
X13701986Y-14354814D01*
X13744843Y-14354814D01*
X13773414Y-14369100D01*
X13787700Y-14397671D01*
X13787700Y-14554814D01*
X13787700Y-14397671D02*
X13801986Y-14369100D01*
X13830557Y-14354814D01*
X13873414Y-14354814D01*
X13901986Y-14369100D01*
X13916271Y-14397671D01*
X13916271Y-14554814D01*
X14059128Y-14554814D02*
X14059128Y-14354814D01*
X14059128Y-14383386D02*
X14073414Y-14369100D01*
X14101986Y-14354814D01*
X14144843Y-14354814D01*
X14173414Y-14369100D01*
X14187700Y-14397671D01*
X14187700Y-14554814D01*
X14187700Y-14397671D02*
X14201986Y-14369100D01*
X14230557Y-14354814D01*
X14273414Y-14354814D01*
X14301986Y-14369100D01*
X14316271Y-14397671D01*
X14316271Y-14554814D01*
X14901986Y-14240529D02*
X14644843Y-14626243D01*
X15287700Y-14254814D02*
X15316271Y-14254814D01*
X15344843Y-14269100D01*
X15359128Y-14283386D01*
X15373414Y-14311957D01*
X15387700Y-14369100D01*
X15387700Y-14440529D01*
X15373414Y-14497671D01*
X15359128Y-14526243D01*
X15344843Y-14540529D01*
X15316271Y-14554814D01*
X15287700Y-14554814D01*
X15259128Y-14540529D01*
X15244843Y-14526243D01*
X15230557Y-14497671D01*
X15216271Y-14440529D01*
X15216271Y-14369100D01*
X15230557Y-14311957D01*
X15244843Y-14283386D01*
X15259128Y-14269100D01*
X15287700Y-14254814D01*
X15516271Y-14526243D02*
X15530557Y-14540529D01*
X15516271Y-14554814D01*
X15501986Y-14540529D01*
X15516271Y-14526243D01*
X15516271Y-14554814D01*
X15716271Y-14254814D02*
X15744843Y-14254814D01*
X15773414Y-14269100D01*
X15787700Y-14283386D01*
X15801985Y-14311957D01*
X15816271Y-14369100D01*
X15816271Y-14440529D01*
X15801985Y-14497671D01*
X15787700Y-14526243D01*
X15773414Y-14540529D01*
X15744843Y-14554814D01*
X15716271Y-14554814D01*
X15687700Y-14540529D01*
X15673414Y-14526243D01*
X15659128Y-14497671D01*
X15644843Y-14440529D01*
X15644843Y-14369100D01*
X15659128Y-14311957D01*
X15673414Y-14283386D01*
X15687700Y-14269100D01*
X15716271Y-14254814D01*
X15916271Y-14254814D02*
X16101985Y-14254814D01*
X16001985Y-14369100D01*
X16044843Y-14369100D01*
X16073414Y-14383386D01*
X16087700Y-14397671D01*
X16101985Y-14426243D01*
X16101985Y-14497671D01*
X16087700Y-14526243D01*
X16073414Y-14540529D01*
X16044843Y-14554814D01*
X15959128Y-14554814D01*
X15930557Y-14540529D01*
X15916271Y-14526243D01*
X16387700Y-14554814D02*
X16216271Y-14554814D01*
X16301985Y-14554814D02*
X16301985Y-14254814D01*
X16273414Y-14297671D01*
X16244843Y-14326243D01*
X16216271Y-14340529D01*
X16501986Y-14254814D02*
X16501986Y-14311957D01*
X16616271Y-14254814D02*
X16616271Y-14311957D01*
X17059128Y-14669100D02*
X17044843Y-14654814D01*
X17016271Y-14611957D01*
X17001986Y-14583386D01*
X16987700Y-14540529D01*
X16973414Y-14469100D01*
X16973414Y-14411957D01*
X16987700Y-14340529D01*
X17001986Y-14297671D01*
X17016271Y-14269100D01*
X17044843Y-14226243D01*
X17059128Y-14211957D01*
X17301986Y-14354814D02*
X17301986Y-14554814D01*
X17230557Y-14240529D02*
X17159128Y-14454814D01*
X17344843Y-14454814D01*
X17687700Y-14554814D02*
X17687700Y-14254814D01*
X17816271Y-14554814D02*
X17816271Y-14397671D01*
X17801986Y-14369100D01*
X17773414Y-14354814D01*
X17730557Y-14354814D01*
X17701986Y-14369100D01*
X17687700Y-14383386D01*
X18001986Y-14554814D02*
X17973414Y-14540529D01*
X17959128Y-14526243D01*
X17944843Y-14497671D01*
X17944843Y-14411957D01*
X17959128Y-14383386D01*
X17973414Y-14369100D01*
X18001986Y-14354814D01*
X18044843Y-14354814D01*
X18073414Y-14369100D01*
X18087700Y-14383386D01*
X18101986Y-14411957D01*
X18101986Y-14497671D01*
X18087700Y-14526243D01*
X18073414Y-14540529D01*
X18044843Y-14554814D01*
X18001986Y-14554814D01*
X18273414Y-14554814D02*
X18244843Y-14540529D01*
X18230557Y-14511957D01*
X18230557Y-14254814D01*
X18501986Y-14540529D02*
X18473414Y-14554814D01*
X18416271Y-14554814D01*
X18387700Y-14540529D01*
X18373414Y-14511957D01*
X18373414Y-14397671D01*
X18387700Y-14369100D01*
X18416271Y-14354814D01*
X18473414Y-14354814D01*
X18501986Y-14369100D01*
X18516271Y-14397671D01*
X18516271Y-14426243D01*
X18373414Y-14454814D01*
X18630557Y-14540529D02*
X18659129Y-14554814D01*
X18716271Y-14554814D01*
X18744843Y-14540529D01*
X18759129Y-14511957D01*
X18759129Y-14497671D01*
X18744843Y-14469100D01*
X18716271Y-14454814D01*
X18673414Y-14454814D01*
X18644843Y-14440529D01*
X18630557Y-14411957D01*
X18630557Y-14397671D01*
X18644843Y-14369100D01*
X18673414Y-14354814D01*
X18716271Y-14354814D01*
X18744843Y-14369100D01*
X18859128Y-14669100D02*
X18873414Y-14654814D01*
X18901986Y-14611957D01*
X18916271Y-14583386D01*
X18930557Y-14540529D01*
X18944843Y-14469100D01*
X18944843Y-14411957D01*
X18930557Y-14340529D01*
X18916271Y-14297671D01*
X18901986Y-14269100D01*
X18873414Y-14226243D01*
X18859128Y-14211957D01*
X12337662Y-14765062D02*
X12337662Y-14865138D01*
X12287624Y-14815100D02*
X12387700Y-14815100D01*
X12816271Y-14950814D02*
X12644843Y-14950814D01*
X12730557Y-14950814D02*
X12730557Y-14650814D01*
X12701986Y-14693671D01*
X12673414Y-14722243D01*
X12644843Y-14736529D01*
X12944843Y-14922243D02*
X12959128Y-14936529D01*
X12944843Y-14950814D01*
X12930557Y-14936529D01*
X12944843Y-14922243D01*
X12944843Y-14950814D01*
X13144843Y-14650814D02*
X13173414Y-14650814D01*
X13201986Y-14665100D01*
X13216271Y-14679386D01*
X13230557Y-14707957D01*
X13244843Y-14765100D01*
X13244843Y-14836529D01*
X13230557Y-14893671D01*
X13216271Y-14922243D01*
X13201986Y-14936529D01*
X13173414Y-14950814D01*
X13144843Y-14950814D01*
X13116271Y-14936529D01*
X13101986Y-14922243D01*
X13087700Y-14893671D01*
X13073414Y-14836529D01*
X13073414Y-14765100D01*
X13087700Y-14707957D01*
X13101986Y-14679386D01*
X13116271Y-14665100D01*
X13144843Y-14650814D01*
X13430557Y-14650814D02*
X13459128Y-14650814D01*
X13487700Y-14665100D01*
X13501986Y-14679386D01*
X13516271Y-14707957D01*
X13530557Y-14765100D01*
X13530557Y-14836529D01*
X13516271Y-14893671D01*
X13501986Y-14922243D01*
X13487700Y-14936529D01*
X13459128Y-14950814D01*
X13430557Y-14950814D01*
X13401986Y-14936529D01*
X13387700Y-14922243D01*
X13373414Y-14893671D01*
X13359128Y-14836529D01*
X13359128Y-14765100D01*
X13373414Y-14707957D01*
X13387700Y-14679386D01*
X13401986Y-14665100D01*
X13430557Y-14650814D01*
X13659128Y-14950814D02*
X13659128Y-14750814D01*
X13659128Y-14779386D02*
X13673414Y-14765100D01*
X13701986Y-14750814D01*
X13744843Y-14750814D01*
X13773414Y-14765100D01*
X13787700Y-14793671D01*
X13787700Y-14950814D01*
X13787700Y-14793671D02*
X13801986Y-14765100D01*
X13830557Y-14750814D01*
X13873414Y-14750814D01*
X13901986Y-14765100D01*
X13916271Y-14793671D01*
X13916271Y-14950814D01*
X14059128Y-14950814D02*
X14059128Y-14750814D01*
X14059128Y-14779386D02*
X14073414Y-14765100D01*
X14101986Y-14750814D01*
X14144843Y-14750814D01*
X14173414Y-14765100D01*
X14187700Y-14793671D01*
X14187700Y-14950814D01*
X14187700Y-14793671D02*
X14201986Y-14765100D01*
X14230557Y-14750814D01*
X14273414Y-14750814D01*
X14301986Y-14765100D01*
X14316271Y-14793671D01*
X14316271Y-14950814D01*
X14901986Y-14636529D02*
X14644843Y-15022243D01*
X15287700Y-14650814D02*
X15316271Y-14650814D01*
X15344843Y-14665100D01*
X15359128Y-14679386D01*
X15373414Y-14707957D01*
X15387700Y-14765100D01*
X15387700Y-14836529D01*
X15373414Y-14893671D01*
X15359128Y-14922243D01*
X15344843Y-14936529D01*
X15316271Y-14950814D01*
X15287700Y-14950814D01*
X15259128Y-14936529D01*
X15244843Y-14922243D01*
X15230557Y-14893671D01*
X15216271Y-14836529D01*
X15216271Y-14765100D01*
X15230557Y-14707957D01*
X15244843Y-14679386D01*
X15259128Y-14665100D01*
X15287700Y-14650814D01*
X15516271Y-14922243D02*
X15530557Y-14936529D01*
X15516271Y-14950814D01*
X15501986Y-14936529D01*
X15516271Y-14922243D01*
X15516271Y-14950814D01*
X15716271Y-14650814D02*
X15744843Y-14650814D01*
X15773414Y-14665100D01*
X15787700Y-14679386D01*
X15801985Y-14707957D01*
X15816271Y-14765100D01*
X15816271Y-14836529D01*
X15801985Y-14893671D01*
X15787700Y-14922243D01*
X15773414Y-14936529D01*
X15744843Y-14950814D01*
X15716271Y-14950814D01*
X15687700Y-14936529D01*
X15673414Y-14922243D01*
X15659128Y-14893671D01*
X15644843Y-14836529D01*
X15644843Y-14765100D01*
X15659128Y-14707957D01*
X15673414Y-14679386D01*
X15687700Y-14665100D01*
X15716271Y-14650814D01*
X15916271Y-14650814D02*
X16101985Y-14650814D01*
X16001985Y-14765100D01*
X16044843Y-14765100D01*
X16073414Y-14779386D01*
X16087700Y-14793671D01*
X16101985Y-14822243D01*
X16101985Y-14893671D01*
X16087700Y-14922243D01*
X16073414Y-14936529D01*
X16044843Y-14950814D01*
X15959128Y-14950814D01*
X15930557Y-14936529D01*
X15916271Y-14922243D01*
X16244843Y-14950814D02*
X16301985Y-14950814D01*
X16330557Y-14936529D01*
X16344843Y-14922243D01*
X16373414Y-14879386D01*
X16387700Y-14822243D01*
X16387700Y-14707957D01*
X16373414Y-14679386D01*
X16359128Y-14665100D01*
X16330557Y-14650814D01*
X16273414Y-14650814D01*
X16244843Y-14665100D01*
X16230557Y-14679386D01*
X16216271Y-14707957D01*
X16216271Y-14779386D01*
X16230557Y-14807957D01*
X16244843Y-14822243D01*
X16273414Y-14836529D01*
X16330557Y-14836529D01*
X16359128Y-14822243D01*
X16373414Y-14807957D01*
X16387700Y-14779386D01*
X16501986Y-14650814D02*
X16501986Y-14707957D01*
X16616271Y-14650814D02*
X16616271Y-14707957D01*
X17059128Y-15065100D02*
X17044843Y-15050814D01*
X17016271Y-15007957D01*
X17001986Y-14979386D01*
X16987700Y-14936529D01*
X16973414Y-14865100D01*
X16973414Y-14807957D01*
X16987700Y-14736529D01*
X17001986Y-14693671D01*
X17016271Y-14665100D01*
X17044843Y-14622243D01*
X17059128Y-14607957D01*
X17159128Y-14679386D02*
X17173414Y-14665100D01*
X17201986Y-14650814D01*
X17273414Y-14650814D01*
X17301986Y-14665100D01*
X17316271Y-14679386D01*
X17330557Y-14707957D01*
X17330557Y-14736529D01*
X17316271Y-14779386D01*
X17144843Y-14950814D01*
X17330557Y-14950814D01*
X17430557Y-14650814D02*
X17630557Y-14650814D01*
X17501986Y-14950814D01*
X17973414Y-14950814D02*
X17973414Y-14650814D01*
X18101986Y-14950814D02*
X18101986Y-14793671D01*
X18087700Y-14765100D01*
X18059128Y-14750814D01*
X18016271Y-14750814D01*
X17987700Y-14765100D01*
X17973414Y-14779386D01*
X18287700Y-14950814D02*
X18259128Y-14936529D01*
X18244843Y-14922243D01*
X18230557Y-14893671D01*
X18230557Y-14807957D01*
X18244843Y-14779386D01*
X18259128Y-14765100D01*
X18287700Y-14750814D01*
X18330557Y-14750814D01*
X18359128Y-14765100D01*
X18373414Y-14779386D01*
X18387700Y-14807957D01*
X18387700Y-14893671D01*
X18373414Y-14922243D01*
X18359128Y-14936529D01*
X18330557Y-14950814D01*
X18287700Y-14950814D01*
X18559128Y-14950814D02*
X18530557Y-14936529D01*
X18516271Y-14907957D01*
X18516271Y-14650814D01*
X18787700Y-14936529D02*
X18759129Y-14950814D01*
X18701986Y-14950814D01*
X18673414Y-14936529D01*
X18659129Y-14907957D01*
X18659129Y-14793671D01*
X18673414Y-14765100D01*
X18701986Y-14750814D01*
X18759129Y-14750814D01*
X18787700Y-14765100D01*
X18801986Y-14793671D01*
X18801986Y-14822243D01*
X18659129Y-14850814D01*
X18916271Y-14936529D02*
X18944843Y-14950814D01*
X19001986Y-14950814D01*
X19030557Y-14936529D01*
X19044843Y-14907957D01*
X19044843Y-14893671D01*
X19030557Y-14865100D01*
X19001986Y-14850814D01*
X18959129Y-14850814D01*
X18930557Y-14836529D01*
X18916271Y-14807957D01*
X18916271Y-14793671D01*
X18930557Y-14765100D01*
X18959129Y-14750814D01*
X19001986Y-14750814D01*
X19030557Y-14765100D01*
X19144843Y-15065100D02*
X19159129Y-15050814D01*
X19187700Y-15007957D01*
X19201986Y-14979386D01*
X19216271Y-14936529D01*
X19230557Y-14865100D01*
X19230557Y-14807957D01*
X19216271Y-14736529D01*
X19201986Y-14693671D01*
X19187700Y-14665100D01*
X19159129Y-14622243D01*
X19144843Y-14607957D01*
X12372821Y-15247021D02*
X12372821Y-15175179D01*
X12300978Y-15175179D01*
X12300978Y-15247021D01*
X12372821Y-15247021D01*
X12816271Y-15346814D02*
X12644843Y-15346814D01*
X12730557Y-15346814D02*
X12730557Y-15046814D01*
X12701986Y-15089671D01*
X12673414Y-15118243D01*
X12644843Y-15132529D01*
X12944843Y-15318243D02*
X12959128Y-15332529D01*
X12944843Y-15346814D01*
X12930557Y-15332529D01*
X12944843Y-15318243D01*
X12944843Y-15346814D01*
X13144843Y-15046814D02*
X13173414Y-15046814D01*
X13201986Y-15061100D01*
X13216271Y-15075386D01*
X13230557Y-15103957D01*
X13244843Y-15161100D01*
X13244843Y-15232529D01*
X13230557Y-15289671D01*
X13216271Y-15318243D01*
X13201986Y-15332529D01*
X13173414Y-15346814D01*
X13144843Y-15346814D01*
X13116271Y-15332529D01*
X13101986Y-15318243D01*
X13087700Y-15289671D01*
X13073414Y-15232529D01*
X13073414Y-15161100D01*
X13087700Y-15103957D01*
X13101986Y-15075386D01*
X13116271Y-15061100D01*
X13144843Y-15046814D01*
X13359128Y-15075386D02*
X13373414Y-15061100D01*
X13401986Y-15046814D01*
X13473414Y-15046814D01*
X13501986Y-15061100D01*
X13516271Y-15075386D01*
X13530557Y-15103957D01*
X13530557Y-15132529D01*
X13516271Y-15175386D01*
X13344843Y-15346814D01*
X13530557Y-15346814D01*
X13659128Y-15346814D02*
X13659128Y-15146814D01*
X13659128Y-15175386D02*
X13673414Y-15161100D01*
X13701986Y-15146814D01*
X13744843Y-15146814D01*
X13773414Y-15161100D01*
X13787700Y-15189671D01*
X13787700Y-15346814D01*
X13787700Y-15189671D02*
X13801986Y-15161100D01*
X13830557Y-15146814D01*
X13873414Y-15146814D01*
X13901986Y-15161100D01*
X13916271Y-15189671D01*
X13916271Y-15346814D01*
X14059128Y-15346814D02*
X14059128Y-15146814D01*
X14059128Y-15175386D02*
X14073414Y-15161100D01*
X14101986Y-15146814D01*
X14144843Y-15146814D01*
X14173414Y-15161100D01*
X14187700Y-15189671D01*
X14187700Y-15346814D01*
X14187700Y-15189671D02*
X14201986Y-15161100D01*
X14230557Y-15146814D01*
X14273414Y-15146814D01*
X14301986Y-15161100D01*
X14316271Y-15189671D01*
X14316271Y-15346814D01*
X14901986Y-15032529D02*
X14644843Y-15418243D01*
X15287700Y-15046814D02*
X15316271Y-15046814D01*
X15344843Y-15061100D01*
X15359128Y-15075386D01*
X15373414Y-15103957D01*
X15387700Y-15161100D01*
X15387700Y-15232529D01*
X15373414Y-15289671D01*
X15359128Y-15318243D01*
X15344843Y-15332529D01*
X15316271Y-15346814D01*
X15287700Y-15346814D01*
X15259128Y-15332529D01*
X15244843Y-15318243D01*
X15230557Y-15289671D01*
X15216271Y-15232529D01*
X15216271Y-15161100D01*
X15230557Y-15103957D01*
X15244843Y-15075386D01*
X15259128Y-15061100D01*
X15287700Y-15046814D01*
X15516271Y-15318243D02*
X15530557Y-15332529D01*
X15516271Y-15346814D01*
X15501986Y-15332529D01*
X15516271Y-15318243D01*
X15516271Y-15346814D01*
X15716271Y-15046814D02*
X15744843Y-15046814D01*
X15773414Y-15061100D01*
X15787700Y-15075386D01*
X15801985Y-15103957D01*
X15816271Y-15161100D01*
X15816271Y-15232529D01*
X15801985Y-15289671D01*
X15787700Y-15318243D01*
X15773414Y-15332529D01*
X15744843Y-15346814D01*
X15716271Y-15346814D01*
X15687700Y-15332529D01*
X15673414Y-15318243D01*
X15659128Y-15289671D01*
X15644843Y-15232529D01*
X15644843Y-15161100D01*
X15659128Y-15103957D01*
X15673414Y-15075386D01*
X15687700Y-15061100D01*
X15716271Y-15046814D01*
X16073414Y-15146814D02*
X16073414Y-15346814D01*
X16001985Y-15032529D02*
X15930557Y-15246814D01*
X16116271Y-15246814D01*
X16287700Y-15046814D02*
X16316271Y-15046814D01*
X16344843Y-15061100D01*
X16359128Y-15075386D01*
X16373414Y-15103957D01*
X16387700Y-15161100D01*
X16387700Y-15232529D01*
X16373414Y-15289671D01*
X16359128Y-15318243D01*
X16344843Y-15332529D01*
X16316271Y-15346814D01*
X16287700Y-15346814D01*
X16259128Y-15332529D01*
X16244843Y-15318243D01*
X16230557Y-15289671D01*
X16216271Y-15232529D01*
X16216271Y-15161100D01*
X16230557Y-15103957D01*
X16244843Y-15075386D01*
X16259128Y-15061100D01*
X16287700Y-15046814D01*
X16501986Y-15046814D02*
X16501986Y-15103957D01*
X16616271Y-15046814D02*
X16616271Y-15103957D01*
X17059128Y-15461100D02*
X17044843Y-15446814D01*
X17016271Y-15403957D01*
X17001986Y-15375386D01*
X16987700Y-15332529D01*
X16973414Y-15261100D01*
X16973414Y-15203957D01*
X16987700Y-15132529D01*
X17001986Y-15089671D01*
X17016271Y-15061100D01*
X17044843Y-15018243D01*
X17059128Y-15003957D01*
X17144843Y-15046814D02*
X17330557Y-15046814D01*
X17230557Y-15161100D01*
X17273414Y-15161100D01*
X17301986Y-15175386D01*
X17316271Y-15189671D01*
X17330557Y-15218243D01*
X17330557Y-15289671D01*
X17316271Y-15318243D01*
X17301986Y-15332529D01*
X17273414Y-15346814D01*
X17187700Y-15346814D01*
X17159128Y-15332529D01*
X17144843Y-15318243D01*
X17444843Y-15075386D02*
X17459128Y-15061100D01*
X17487700Y-15046814D01*
X17559128Y-15046814D01*
X17587700Y-15061100D01*
X17601986Y-15075386D01*
X17616271Y-15103957D01*
X17616271Y-15132529D01*
X17601986Y-15175386D01*
X17430557Y-15346814D01*
X17616271Y-15346814D01*
X17973414Y-15346814D02*
X17973414Y-15046814D01*
X18101986Y-15346814D02*
X18101986Y-15189671D01*
X18087700Y-15161100D01*
X18059128Y-15146814D01*
X18016271Y-15146814D01*
X17987700Y-15161100D01*
X17973414Y-15175386D01*
X18287700Y-15346814D02*
X18259128Y-15332529D01*
X18244843Y-15318243D01*
X18230557Y-15289671D01*
X18230557Y-15203957D01*
X18244843Y-15175386D01*
X18259128Y-15161100D01*
X18287700Y-15146814D01*
X18330557Y-15146814D01*
X18359128Y-15161100D01*
X18373414Y-15175386D01*
X18387700Y-15203957D01*
X18387700Y-15289671D01*
X18373414Y-15318243D01*
X18359128Y-15332529D01*
X18330557Y-15346814D01*
X18287700Y-15346814D01*
X18559128Y-15346814D02*
X18530557Y-15332529D01*
X18516271Y-15303957D01*
X18516271Y-15046814D01*
X18787700Y-15332529D02*
X18759129Y-15346814D01*
X18701986Y-15346814D01*
X18673414Y-15332529D01*
X18659129Y-15303957D01*
X18659129Y-15189671D01*
X18673414Y-15161100D01*
X18701986Y-15146814D01*
X18759129Y-15146814D01*
X18787700Y-15161100D01*
X18801986Y-15189671D01*
X18801986Y-15218243D01*
X18659129Y-15246814D01*
X18916271Y-15332529D02*
X18944843Y-15346814D01*
X19001986Y-15346814D01*
X19030557Y-15332529D01*
X19044843Y-15303957D01*
X19044843Y-15289671D01*
X19030557Y-15261100D01*
X19001986Y-15246814D01*
X18959129Y-15246814D01*
X18930557Y-15232529D01*
X18916271Y-15203957D01*
X18916271Y-15189671D01*
X18930557Y-15161100D01*
X18959129Y-15146814D01*
X19001986Y-15146814D01*
X19030557Y-15161100D01*
X19144843Y-15461100D02*
X19159129Y-15446814D01*
X19187700Y-15403957D01*
X19201986Y-15375386D01*
X19216271Y-15332529D01*
X19230557Y-15261100D01*
X19230557Y-15203957D01*
X19216271Y-15132529D01*
X19201986Y-15089671D01*
X19187700Y-15061100D01*
X19159129Y-15018243D01*
X19144843Y-15003957D01*
X12324200Y-15670600D02*
X12387700Y-15607100D01*
X12324200Y-15543600D01*
X12260700Y-15607100D01*
X12324200Y-15670600D01*
X12816271Y-15742814D02*
X12644843Y-15742814D01*
X12730557Y-15742814D02*
X12730557Y-15442814D01*
X12701986Y-15485671D01*
X12673414Y-15514243D01*
X12644843Y-15528529D01*
X12944843Y-15714243D02*
X12959128Y-15728529D01*
X12944843Y-15742814D01*
X12930557Y-15728529D01*
X12944843Y-15714243D01*
X12944843Y-15742814D01*
X13073414Y-15471386D02*
X13087700Y-15457100D01*
X13116271Y-15442814D01*
X13187700Y-15442814D01*
X13216271Y-15457100D01*
X13230557Y-15471386D01*
X13244843Y-15499957D01*
X13244843Y-15528529D01*
X13230557Y-15571386D01*
X13059128Y-15742814D01*
X13244843Y-15742814D01*
X13344843Y-15442814D02*
X13544843Y-15442814D01*
X13416271Y-15742814D01*
X13659128Y-15742814D02*
X13659128Y-15542814D01*
X13659128Y-15571386D02*
X13673414Y-15557100D01*
X13701986Y-15542814D01*
X13744843Y-15542814D01*
X13773414Y-15557100D01*
X13787700Y-15585671D01*
X13787700Y-15742814D01*
X13787700Y-15585671D02*
X13801986Y-15557100D01*
X13830557Y-15542814D01*
X13873414Y-15542814D01*
X13901986Y-15557100D01*
X13916271Y-15585671D01*
X13916271Y-15742814D01*
X14059128Y-15742814D02*
X14059128Y-15542814D01*
X14059128Y-15571386D02*
X14073414Y-15557100D01*
X14101986Y-15542814D01*
X14144843Y-15542814D01*
X14173414Y-15557100D01*
X14187700Y-15585671D01*
X14187700Y-15742814D01*
X14187700Y-15585671D02*
X14201986Y-15557100D01*
X14230557Y-15542814D01*
X14273414Y-15542814D01*
X14301986Y-15557100D01*
X14316271Y-15585671D01*
X14316271Y-15742814D01*
X14901986Y-15428529D02*
X14644843Y-15814243D01*
X15287700Y-15442814D02*
X15316271Y-15442814D01*
X15344843Y-15457100D01*
X15359128Y-15471386D01*
X15373414Y-15499957D01*
X15387700Y-15557100D01*
X15387700Y-15628529D01*
X15373414Y-15685671D01*
X15359128Y-15714243D01*
X15344843Y-15728529D01*
X15316271Y-15742814D01*
X15287700Y-15742814D01*
X15259128Y-15728529D01*
X15244843Y-15714243D01*
X15230557Y-15685671D01*
X15216271Y-15628529D01*
X15216271Y-15557100D01*
X15230557Y-15499957D01*
X15244843Y-15471386D01*
X15259128Y-15457100D01*
X15287700Y-15442814D01*
X15516271Y-15714243D02*
X15530557Y-15728529D01*
X15516271Y-15742814D01*
X15501986Y-15728529D01*
X15516271Y-15714243D01*
X15516271Y-15742814D01*
X15716271Y-15442814D02*
X15744843Y-15442814D01*
X15773414Y-15457100D01*
X15787700Y-15471386D01*
X15801985Y-15499957D01*
X15816271Y-15557100D01*
X15816271Y-15628529D01*
X15801985Y-15685671D01*
X15787700Y-15714243D01*
X15773414Y-15728529D01*
X15744843Y-15742814D01*
X15716271Y-15742814D01*
X15687700Y-15728529D01*
X15673414Y-15714243D01*
X15659128Y-15685671D01*
X15644843Y-15628529D01*
X15644843Y-15557100D01*
X15659128Y-15499957D01*
X15673414Y-15471386D01*
X15687700Y-15457100D01*
X15716271Y-15442814D01*
X16087700Y-15442814D02*
X15944843Y-15442814D01*
X15930557Y-15585671D01*
X15944843Y-15571386D01*
X15973414Y-15557100D01*
X16044843Y-15557100D01*
X16073414Y-15571386D01*
X16087700Y-15585671D01*
X16101985Y-15614243D01*
X16101985Y-15685671D01*
X16087700Y-15714243D01*
X16073414Y-15728529D01*
X16044843Y-15742814D01*
X15973414Y-15742814D01*
X15944843Y-15728529D01*
X15930557Y-15714243D01*
X16287700Y-15442814D02*
X16316271Y-15442814D01*
X16344843Y-15457100D01*
X16359128Y-15471386D01*
X16373414Y-15499957D01*
X16387700Y-15557100D01*
X16387700Y-15628529D01*
X16373414Y-15685671D01*
X16359128Y-15714243D01*
X16344843Y-15728529D01*
X16316271Y-15742814D01*
X16287700Y-15742814D01*
X16259128Y-15728529D01*
X16244843Y-15714243D01*
X16230557Y-15685671D01*
X16216271Y-15628529D01*
X16216271Y-15557100D01*
X16230557Y-15499957D01*
X16244843Y-15471386D01*
X16259128Y-15457100D01*
X16287700Y-15442814D01*
X16501986Y-15442814D02*
X16501986Y-15499957D01*
X16616271Y-15442814D02*
X16616271Y-15499957D01*
X17059128Y-15857100D02*
X17044843Y-15842814D01*
X17016271Y-15799957D01*
X17001986Y-15771386D01*
X16987700Y-15728529D01*
X16973414Y-15657100D01*
X16973414Y-15599957D01*
X16987700Y-15528529D01*
X17001986Y-15485671D01*
X17016271Y-15457100D01*
X17044843Y-15414243D01*
X17059128Y-15399957D01*
X17330557Y-15742814D02*
X17159128Y-15742814D01*
X17244843Y-15742814D02*
X17244843Y-15442814D01*
X17216271Y-15485671D01*
X17187700Y-15514243D01*
X17159128Y-15528529D01*
X17687700Y-15742814D02*
X17687700Y-15442814D01*
X17816271Y-15742814D02*
X17816271Y-15585671D01*
X17801986Y-15557100D01*
X17773414Y-15542814D01*
X17730557Y-15542814D01*
X17701986Y-15557100D01*
X17687700Y-15571386D01*
X18001986Y-15742814D02*
X17973414Y-15728529D01*
X17959128Y-15714243D01*
X17944843Y-15685671D01*
X17944843Y-15599957D01*
X17959128Y-15571386D01*
X17973414Y-15557100D01*
X18001986Y-15542814D01*
X18044843Y-15542814D01*
X18073414Y-15557100D01*
X18087700Y-15571386D01*
X18101986Y-15599957D01*
X18101986Y-15685671D01*
X18087700Y-15714243D01*
X18073414Y-15728529D01*
X18044843Y-15742814D01*
X18001986Y-15742814D01*
X18273414Y-15742814D02*
X18244843Y-15728529D01*
X18230557Y-15699957D01*
X18230557Y-15442814D01*
X18501986Y-15728529D02*
X18473414Y-15742814D01*
X18416271Y-15742814D01*
X18387700Y-15728529D01*
X18373414Y-15699957D01*
X18373414Y-15585671D01*
X18387700Y-15557100D01*
X18416271Y-15542814D01*
X18473414Y-15542814D01*
X18501986Y-15557100D01*
X18516271Y-15585671D01*
X18516271Y-15614243D01*
X18373414Y-15642814D01*
X18616271Y-15857100D02*
X18630557Y-15842814D01*
X18659129Y-15799957D01*
X18673414Y-15771386D01*
X18687700Y-15728529D01*
X18701986Y-15657100D01*
X18701986Y-15599957D01*
X18687700Y-15528529D01*
X18673414Y-15485671D01*
X18659129Y-15457100D01*
X18630557Y-15414243D01*
X18616271Y-15399957D01*
X12137700Y-15878100D02*
X12387700Y-16128100D01*
X12387700Y-15878100D02*
X12137700Y-16128100D01*
X12387700Y-16003100D02*
G75*
G03X12387700Y-16003100I-125000J0D01*
G01*
X12644843Y-15867386D02*
X12659128Y-15853100D01*
X12687700Y-15838814D01*
X12759128Y-15838814D01*
X12787700Y-15853100D01*
X12801986Y-15867386D01*
X12816271Y-15895957D01*
X12816271Y-15924529D01*
X12801986Y-15967386D01*
X12630557Y-16138814D01*
X12816271Y-16138814D01*
X12944843Y-16110243D02*
X12959128Y-16124529D01*
X12944843Y-16138814D01*
X12930557Y-16124529D01*
X12944843Y-16110243D01*
X12944843Y-16138814D01*
X13230557Y-15838814D02*
X13087700Y-15838814D01*
X13073414Y-15981671D01*
X13087700Y-15967386D01*
X13116271Y-15953100D01*
X13187700Y-15953100D01*
X13216271Y-15967386D01*
X13230557Y-15981671D01*
X13244843Y-16010243D01*
X13244843Y-16081671D01*
X13230557Y-16110243D01*
X13216271Y-16124529D01*
X13187700Y-16138814D01*
X13116271Y-16138814D01*
X13087700Y-16124529D01*
X13073414Y-16110243D01*
X13430557Y-15838814D02*
X13459128Y-15838814D01*
X13487700Y-15853100D01*
X13501986Y-15867386D01*
X13516271Y-15895957D01*
X13530557Y-15953100D01*
X13530557Y-16024529D01*
X13516271Y-16081671D01*
X13501986Y-16110243D01*
X13487700Y-16124529D01*
X13459128Y-16138814D01*
X13430557Y-16138814D01*
X13401986Y-16124529D01*
X13387700Y-16110243D01*
X13373414Y-16081671D01*
X13359128Y-16024529D01*
X13359128Y-15953100D01*
X13373414Y-15895957D01*
X13387700Y-15867386D01*
X13401986Y-15853100D01*
X13430557Y-15838814D01*
X13659128Y-16138814D02*
X13659128Y-15938814D01*
X13659128Y-15967386D02*
X13673414Y-15953100D01*
X13701986Y-15938814D01*
X13744843Y-15938814D01*
X13773414Y-15953100D01*
X13787700Y-15981671D01*
X13787700Y-16138814D01*
X13787700Y-15981671D02*
X13801986Y-15953100D01*
X13830557Y-15938814D01*
X13873414Y-15938814D01*
X13901986Y-15953100D01*
X13916271Y-15981671D01*
X13916271Y-16138814D01*
X14059128Y-16138814D02*
X14059128Y-15938814D01*
X14059128Y-15967386D02*
X14073414Y-15953100D01*
X14101986Y-15938814D01*
X14144843Y-15938814D01*
X14173414Y-15953100D01*
X14187700Y-15981671D01*
X14187700Y-16138814D01*
X14187700Y-15981671D02*
X14201986Y-15953100D01*
X14230557Y-15938814D01*
X14273414Y-15938814D01*
X14301986Y-15953100D01*
X14316271Y-15981671D01*
X14316271Y-16138814D01*
X14901986Y-15824529D02*
X14644843Y-16210243D01*
X15287700Y-15838814D02*
X15316271Y-15838814D01*
X15344843Y-15853100D01*
X15359128Y-15867386D01*
X15373414Y-15895957D01*
X15387700Y-15953100D01*
X15387700Y-16024529D01*
X15373414Y-16081671D01*
X15359128Y-16110243D01*
X15344843Y-16124529D01*
X15316271Y-16138814D01*
X15287700Y-16138814D01*
X15259128Y-16124529D01*
X15244843Y-16110243D01*
X15230557Y-16081671D01*
X15216271Y-16024529D01*
X15216271Y-15953100D01*
X15230557Y-15895957D01*
X15244843Y-15867386D01*
X15259128Y-15853100D01*
X15287700Y-15838814D01*
X15516271Y-16110243D02*
X15530557Y-16124529D01*
X15516271Y-16138814D01*
X15501986Y-16124529D01*
X15516271Y-16110243D01*
X15516271Y-16138814D01*
X15716271Y-15838814D02*
X15744843Y-15838814D01*
X15773414Y-15853100D01*
X15787700Y-15867386D01*
X15801985Y-15895957D01*
X15816271Y-15953100D01*
X15816271Y-16024529D01*
X15801985Y-16081671D01*
X15787700Y-16110243D01*
X15773414Y-16124529D01*
X15744843Y-16138814D01*
X15716271Y-16138814D01*
X15687700Y-16124529D01*
X15673414Y-16110243D01*
X15659128Y-16081671D01*
X15644843Y-16024529D01*
X15644843Y-15953100D01*
X15659128Y-15895957D01*
X15673414Y-15867386D01*
X15687700Y-15853100D01*
X15716271Y-15838814D01*
X15959128Y-16138814D02*
X16016271Y-16138814D01*
X16044843Y-16124529D01*
X16059128Y-16110243D01*
X16087700Y-16067386D01*
X16101985Y-16010243D01*
X16101985Y-15895957D01*
X16087700Y-15867386D01*
X16073414Y-15853100D01*
X16044843Y-15838814D01*
X15987700Y-15838814D01*
X15959128Y-15853100D01*
X15944843Y-15867386D01*
X15930557Y-15895957D01*
X15930557Y-15967386D01*
X15944843Y-15995957D01*
X15959128Y-16010243D01*
X15987700Y-16024529D01*
X16044843Y-16024529D01*
X16073414Y-16010243D01*
X16087700Y-15995957D01*
X16101985Y-15967386D01*
X16273414Y-15967386D02*
X16244843Y-15953100D01*
X16230557Y-15938814D01*
X16216271Y-15910243D01*
X16216271Y-15895957D01*
X16230557Y-15867386D01*
X16244843Y-15853100D01*
X16273414Y-15838814D01*
X16330557Y-15838814D01*
X16359128Y-15853100D01*
X16373414Y-15867386D01*
X16387700Y-15895957D01*
X16387700Y-15910243D01*
X16373414Y-15938814D01*
X16359128Y-15953100D01*
X16330557Y-15967386D01*
X16273414Y-15967386D01*
X16244843Y-15981671D01*
X16230557Y-15995957D01*
X16216271Y-16024529D01*
X16216271Y-16081671D01*
X16230557Y-16110243D01*
X16244843Y-16124529D01*
X16273414Y-16138814D01*
X16330557Y-16138814D01*
X16359128Y-16124529D01*
X16373414Y-16110243D01*
X16387700Y-16081671D01*
X16387700Y-16024529D01*
X16373414Y-15995957D01*
X16359128Y-15981671D01*
X16330557Y-15967386D01*
X16501986Y-15838814D02*
X16501986Y-15895957D01*
X16616271Y-15838814D02*
X16616271Y-15895957D01*
X17059128Y-16253100D02*
X17044843Y-16238814D01*
X17016271Y-16195957D01*
X17001986Y-16167386D01*
X16987700Y-16124529D01*
X16973414Y-16053100D01*
X16973414Y-15995957D01*
X16987700Y-15924529D01*
X17001986Y-15881671D01*
X17016271Y-15853100D01*
X17044843Y-15810243D01*
X17059128Y-15795957D01*
X17301986Y-15938814D02*
X17301986Y-16138814D01*
X17230557Y-15824529D02*
X17159128Y-16038814D01*
X17344843Y-16038814D01*
X17687700Y-16138814D02*
X17687700Y-15838814D01*
X17816271Y-16138814D02*
X17816271Y-15981671D01*
X17801986Y-15953100D01*
X17773414Y-15938814D01*
X17730557Y-15938814D01*
X17701986Y-15953100D01*
X17687700Y-15967386D01*
X18001986Y-16138814D02*
X17973414Y-16124529D01*
X17959128Y-16110243D01*
X17944843Y-16081671D01*
X17944843Y-15995957D01*
X17959128Y-15967386D01*
X17973414Y-15953100D01*
X18001986Y-15938814D01*
X18044843Y-15938814D01*
X18073414Y-15953100D01*
X18087700Y-15967386D01*
X18101986Y-15995957D01*
X18101986Y-16081671D01*
X18087700Y-16110243D01*
X18073414Y-16124529D01*
X18044843Y-16138814D01*
X18001986Y-16138814D01*
X18273414Y-16138814D02*
X18244843Y-16124529D01*
X18230557Y-16095957D01*
X18230557Y-15838814D01*
X18501986Y-16124529D02*
X18473414Y-16138814D01*
X18416271Y-16138814D01*
X18387700Y-16124529D01*
X18373414Y-16095957D01*
X18373414Y-15981671D01*
X18387700Y-15953100D01*
X18416271Y-15938814D01*
X18473414Y-15938814D01*
X18501986Y-15953100D01*
X18516271Y-15981671D01*
X18516271Y-16010243D01*
X18373414Y-16038814D01*
X18630557Y-16124529D02*
X18659129Y-16138814D01*
X18716271Y-16138814D01*
X18744843Y-16124529D01*
X18759129Y-16095957D01*
X18759129Y-16081671D01*
X18744843Y-16053100D01*
X18716271Y-16038814D01*
X18673414Y-16038814D01*
X18644843Y-16024529D01*
X18630557Y-15995957D01*
X18630557Y-15981671D01*
X18644843Y-15953100D01*
X18673414Y-15938814D01*
X18716271Y-15938814D01*
X18744843Y-15953100D01*
X18859128Y-16253100D02*
X18873414Y-16238814D01*
X18901986Y-16195957D01*
X18916271Y-16167386D01*
X18930557Y-16124529D01*
X18944843Y-16053100D01*
X18944843Y-15995957D01*
X18930557Y-15924529D01*
X18916271Y-15881671D01*
X18901986Y-15853100D01*
X18873414Y-15810243D01*
X18859128Y-15795957D01*
M02*
