M48
;DRILL file {KiCad 4.0.5+dfsg1-4} date Mon Jul  6 07:59:49 2020
;FORMAT={-:-/ absolute / metric / decimal}
FMAT,2
METRIC,TZ
T1C0.800
T2C1.000
T3C2.500
%
G90
G05
M71
T1
X133.35Y-127.
X138.43Y-118.11
X138.43Y-120.65
X138.43Y-127.
X140.97Y-76.2
X140.97Y-81.28
X142.24Y-124.46
X143.51Y-118.11
X143.51Y-120.65
X144.78Y-76.2
X144.78Y-81.28
X148.59Y-118.11
X148.59Y-120.65
X153.67Y-118.11
X153.67Y-120.65
X154.94Y-76.21
X154.94Y-80.01
X157.48Y-124.46
X158.75Y-118.11
X158.75Y-120.65
X161.29Y-78.105
X161.29Y-82.55
X165.1Y-88.9
X166.37Y-104.14
X166.37Y-107.95
X166.37Y-111.76
X166.37Y-115.57
X166.37Y-119.38
X167.6Y-88.9
X171.45Y-104.14
X171.45Y-107.95
X171.45Y-111.76
X171.45Y-115.57
X171.45Y-119.38
T2
X130.81Y-87.63
X130.81Y-107.95
X133.35Y-69.85
X133.35Y-87.63
X133.35Y-107.95
X135.89Y-69.85
X135.89Y-87.63
X135.89Y-107.95
X138.43Y-69.85
X138.43Y-87.63
X138.43Y-107.95
X140.97Y-69.85
X140.97Y-87.63
X140.97Y-107.95
X143.51Y-87.63
X143.51Y-107.95
X146.05Y-87.63
X146.05Y-107.95
X146.05Y-127.
X148.59Y-87.63
X148.59Y-107.95
X148.59Y-127.
X151.13Y-87.63
X151.13Y-107.95
X151.13Y-127.
X153.67Y-87.63
X153.67Y-107.95
X153.67Y-127.
X166.37Y-77.47
X166.37Y-82.55
X171.45Y-77.47
X171.45Y-80.01
X171.45Y-86.36
X171.45Y-88.9
T3
X125.984Y-69.088
X125.984Y-128.524
X174.752Y-69.088
X174.752Y-128.524
T0
M30
