M48
; DRILL file {KiCad 5.1.5+dfsg1-2build2} date 2024. márc. 17., vasárnap, 19:22:43 CET
; FORMAT={-:-/ absolute / inch / decimal}
; #@! TF.CreationDate,2024-03-17T19:22:43+01:00
; #@! TF.GenerationSoftware,Kicad,Pcbnew,5.1.5+dfsg1-2build2
; #@! TF.FileFunction,Plated,1,2,PTH
FMAT,2
INCH
T1C0.0157
T2C0.0315
T3C0.0394
%
G90
G05
T1
X5.0Y-4.75
T2
X6.575Y-4.575
X6.575Y-4.7128
X6.5Y-3.75
X6.6969Y-3.75
T3
X6.05Y-4.65
X6.05Y-4.75
X6.8501Y-4.35
X6.8501Y-4.75
X5.75Y-5.0
X5.85Y-5.0
X5.95Y-5.0
X6.05Y-5.0
X5.15Y-4.1
X5.55Y-4.1
X5.15Y-3.95
X5.55Y-3.95
X5.95Y-3.95
X6.25Y-3.95
X5.25Y-4.4
X5.35Y-4.4
X5.45Y-4.4
X5.55Y-4.4
X5.65Y-4.4
X5.75Y-4.4
X5.85Y-4.4
X5.95Y-4.4
X6.05Y-4.4
X6.15Y-4.4
X5.45Y-4.65
X5.45Y-4.75
X5.25Y-3.6
X5.35Y-3.6
X5.45Y-3.6
X5.55Y-3.6
X5.65Y-3.6
X5.75Y-3.6
X5.85Y-3.6
X5.95Y-3.6
X6.05Y-3.6
X6.15Y-3.6
X5.15Y-5.0
X5.45Y-5.0
X5.95Y-3.8
X6.25Y-3.8
X6.85Y-3.7
X6.85Y-3.8
X5.95Y-4.25
X6.25Y-4.25
X6.25Y-4.65
X6.25Y-4.75
X6.5Y-4.35
X6.6Y-4.35
X6.35Y-5.0
X6.65Y-5.0
X5.65Y-4.65
X5.65Y-4.75
X5.85Y-4.65
X5.85Y-4.75
X5.95Y-4.1
X6.25Y-4.1
T0
M30
