G04 #@! TF.FileFunction,Legend,Top*
%FSLAX46Y46*%
G04 Gerber Fmt 4.6, Leading zero omitted, Abs format (unit mm)*
G04 Created by KiCad (PCBNEW 4.0.5+dfsg1-4) date Wed Jul 15 17:22:11 2020*
%MOMM*%
%LPD*%
G01*
G04 APERTURE LIST*
%ADD10C,0.150000*%
%ADD11C,0.300000*%
%ADD12C,0.200000*%
G04 APERTURE END LIST*
D10*
D11*
X159505001Y-85768571D02*
X159505001Y-84268571D01*
X159862144Y-84268571D01*
X160076429Y-84340000D01*
X160219287Y-84482857D01*
X160290715Y-84625714D01*
X160362144Y-84911429D01*
X160362144Y-85125714D01*
X160290715Y-85411429D01*
X160219287Y-85554286D01*
X160076429Y-85697143D01*
X159862144Y-85768571D01*
X159505001Y-85768571D01*
X161005001Y-84768571D02*
X161005001Y-85768571D01*
X161005001Y-84911429D02*
X161076429Y-84840000D01*
X161219287Y-84768571D01*
X161433572Y-84768571D01*
X161576429Y-84840000D01*
X161647858Y-84982857D01*
X161647858Y-85768571D01*
X162362144Y-85625714D02*
X162433572Y-85697143D01*
X162362144Y-85768571D01*
X162290715Y-85697143D01*
X162362144Y-85625714D01*
X162362144Y-85768571D01*
X163076430Y-85625714D02*
X163147858Y-85697143D01*
X163076430Y-85768571D01*
X163005001Y-85697143D01*
X163076430Y-85625714D01*
X163076430Y-85768571D01*
X163076430Y-84840000D02*
X163147858Y-84911429D01*
X163076430Y-84982857D01*
X163005001Y-84911429D01*
X163076430Y-84840000D01*
X163076430Y-84982857D01*
X165647859Y-84268571D02*
X164933573Y-84268571D01*
X164862144Y-84982857D01*
X164933573Y-84911429D01*
X165076430Y-84840000D01*
X165433573Y-84840000D01*
X165576430Y-84911429D01*
X165647859Y-84982857D01*
X165719287Y-85125714D01*
X165719287Y-85482857D01*
X165647859Y-85625714D01*
X165576430Y-85697143D01*
X165433573Y-85768571D01*
X165076430Y-85768571D01*
X164933573Y-85697143D01*
X164862144Y-85625714D01*
X166433572Y-85768571D02*
X166719287Y-85768571D01*
X166862144Y-85697143D01*
X166933572Y-85625714D01*
X167076430Y-85411429D01*
X167147858Y-85125714D01*
X167147858Y-84554286D01*
X167076430Y-84411429D01*
X167005001Y-84340000D01*
X166862144Y-84268571D01*
X166576430Y-84268571D01*
X166433572Y-84340000D01*
X166362144Y-84411429D01*
X166290715Y-84554286D01*
X166290715Y-84911429D01*
X166362144Y-85054286D01*
X166433572Y-85125714D01*
X166576430Y-85197143D01*
X166862144Y-85197143D01*
X167005001Y-85125714D01*
X167076430Y-85054286D01*
X167147858Y-84911429D01*
X168862143Y-84197143D02*
X167576429Y-86125714D01*
X170147858Y-85768571D02*
X169290715Y-85768571D01*
X169719287Y-85768571D02*
X169719287Y-84268571D01*
X169576430Y-84482857D01*
X169433572Y-84625714D01*
X169290715Y-84697143D01*
X170719286Y-84411429D02*
X170790715Y-84340000D01*
X170933572Y-84268571D01*
X171290715Y-84268571D01*
X171433572Y-84340000D01*
X171505001Y-84411429D01*
X171576429Y-84554286D01*
X171576429Y-84697143D01*
X171505001Y-84911429D01*
X170647858Y-85768571D01*
X171576429Y-85768571D01*
X173290714Y-84197143D02*
X172005000Y-86125714D01*
X173647858Y-84268571D02*
X174576429Y-84268571D01*
X174076429Y-84840000D01*
X174290715Y-84840000D01*
X174433572Y-84911429D01*
X174505001Y-84982857D01*
X174576429Y-85125714D01*
X174576429Y-85482857D01*
X174505001Y-85625714D01*
X174433572Y-85697143D01*
X174290715Y-85768571D01*
X173862143Y-85768571D01*
X173719286Y-85697143D01*
X173647858Y-85625714D01*
X128623572Y-120058571D02*
X128623572Y-118558571D01*
X129123572Y-119630000D01*
X129623572Y-118558571D01*
X129623572Y-120058571D01*
X130337858Y-120058571D02*
X130337858Y-118558571D01*
X130837858Y-119630000D01*
X131337858Y-118558571D01*
X131337858Y-120058571D01*
X131909287Y-118558571D02*
X132909287Y-118558571D01*
X132266430Y-120058571D01*
X133480715Y-120058571D02*
X133480715Y-118558571D01*
X133837858Y-118558571D01*
X134052143Y-118630000D01*
X134195001Y-118772857D01*
X134266429Y-118915714D01*
X134337858Y-119201429D01*
X134337858Y-119415714D01*
X134266429Y-119701429D01*
X134195001Y-119844286D01*
X134052143Y-119987143D01*
X133837858Y-120058571D01*
X133480715Y-120058571D01*
D10*
X123952000Y-67056000D02*
X123952000Y-130556000D01*
X176784000Y-67056000D02*
X123952000Y-67056000D01*
X176784000Y-130556000D02*
X176784000Y-67056000D01*
X123952000Y-130556000D02*
X176784000Y-130556000D01*
D12*
X125984000Y-122936000D02*
X174752000Y-122936000D01*
X174752000Y-86995000D02*
X125857000Y-86995000D01*
D10*
X157480000Y-97790000D02*
X152400000Y-97790000D01*
X152400000Y-97790000D02*
X152400000Y-95250000D01*
X152400000Y-95250000D02*
X157480000Y-95250000D01*
X157480000Y-95250000D02*
X157480000Y-97790000D01*
X152400000Y-99060000D02*
X157480000Y-99060000D01*
X157480000Y-99060000D02*
X157480000Y-101600000D01*
X157480000Y-101600000D02*
X152400000Y-101600000D01*
X152400000Y-101600000D02*
X152400000Y-99060000D01*
X152400000Y-106680000D02*
X157480000Y-106680000D01*
X157480000Y-106680000D02*
X157480000Y-109220000D01*
X157480000Y-109220000D02*
X152400000Y-109220000D01*
X152400000Y-109220000D02*
X152400000Y-106680000D01*
X152400000Y-102870000D02*
X157480000Y-102870000D01*
X157480000Y-102870000D02*
X157480000Y-105410000D01*
X157480000Y-105410000D02*
X152400000Y-105410000D01*
X152400000Y-105410000D02*
X152400000Y-102870000D01*
X132080000Y-125730000D02*
X137160000Y-125730000D01*
X137160000Y-125730000D02*
X137160000Y-128270000D01*
X137160000Y-128270000D02*
X132080000Y-128270000D01*
X132080000Y-128270000D02*
X132080000Y-125730000D01*
X133350000Y-99060000D02*
X138430000Y-99060000D01*
X138430000Y-99060000D02*
X138430000Y-101600000D01*
X138430000Y-101600000D02*
X133350000Y-101600000D01*
X133350000Y-101600000D02*
X133350000Y-99060000D01*
X133350000Y-100330000D02*
X132080000Y-100330000D01*
X138430000Y-100330000D02*
X139700000Y-100330000D01*
X133350000Y-102870000D02*
X138430000Y-102870000D01*
X138430000Y-102870000D02*
X138430000Y-105410000D01*
X138430000Y-105410000D02*
X133350000Y-105410000D01*
X133350000Y-105410000D02*
X133350000Y-102870000D01*
X133350000Y-104140000D02*
X132080000Y-104140000D01*
X138430000Y-104140000D02*
X139700000Y-104140000D01*
X139744000Y-120849000D02*
X139544000Y-120849000D01*
X137150000Y-120849000D02*
X137330000Y-120849000D01*
X137460357Y-117621256D02*
G75*
G03X137144000Y-120849000I1003643J-1727744D01*
G01*
X137330932Y-118296994D02*
G75*
G03X137330000Y-120400000I1133068J-1052006D01*
G01*
X139770726Y-120836220D02*
G75*
G03X139424000Y-117599000I-1306726J1497220D01*
G01*
X139543253Y-120362889D02*
G75*
G03X139524000Y-118315000I-1079253J1013889D01*
G01*
X144824000Y-120849000D02*
X144624000Y-120849000D01*
X142230000Y-120849000D02*
X142410000Y-120849000D01*
X142540357Y-117621256D02*
G75*
G03X142224000Y-120849000I1003643J-1727744D01*
G01*
X142410932Y-118296994D02*
G75*
G03X142410000Y-120400000I1133068J-1052006D01*
G01*
X144850726Y-120836220D02*
G75*
G03X144504000Y-117599000I-1306726J1497220D01*
G01*
X144623253Y-120362889D02*
G75*
G03X144604000Y-118315000I-1079253J1013889D01*
G01*
X149904000Y-120849000D02*
X149704000Y-120849000D01*
X147310000Y-120849000D02*
X147490000Y-120849000D01*
X147620357Y-117621256D02*
G75*
G03X147304000Y-120849000I1003643J-1727744D01*
G01*
X147490932Y-118296994D02*
G75*
G03X147490000Y-120400000I1133068J-1052006D01*
G01*
X149930726Y-120836220D02*
G75*
G03X149584000Y-117599000I-1306726J1497220D01*
G01*
X149703253Y-120362889D02*
G75*
G03X149684000Y-118315000I-1079253J1013889D01*
G01*
X154984000Y-120849000D02*
X154784000Y-120849000D01*
X152390000Y-120849000D02*
X152570000Y-120849000D01*
X152700357Y-117621256D02*
G75*
G03X152384000Y-120849000I1003643J-1727744D01*
G01*
X152570932Y-118296994D02*
G75*
G03X152570000Y-120400000I1133068J-1052006D01*
G01*
X155010726Y-120836220D02*
G75*
G03X154664000Y-117599000I-1306726J1497220D01*
G01*
X154783253Y-120362889D02*
G75*
G03X154764000Y-118315000I-1079253J1013889D01*
G01*
X160064000Y-120849000D02*
X159864000Y-120849000D01*
X157470000Y-120849000D02*
X157650000Y-120849000D01*
X157780357Y-117621256D02*
G75*
G03X157464000Y-120849000I1003643J-1727744D01*
G01*
X157650932Y-118296994D02*
G75*
G03X157650000Y-120400000I1133068J-1052006D01*
G01*
X160090726Y-120836220D02*
G75*
G03X159744000Y-117599000I-1306726J1497220D01*
G01*
X159863253Y-120362889D02*
G75*
G03X159844000Y-118315000I-1079253J1013889D01*
G01*
X128270000Y-77470000D02*
X128270000Y-85090000D01*
X125730000Y-77470000D02*
X125730000Y-85090000D01*
X125450000Y-74650000D02*
X125450000Y-76200000D01*
X128270000Y-85090000D02*
X125730000Y-85090000D01*
X125730000Y-77470000D02*
X128270000Y-77470000D01*
X128550000Y-76200000D02*
X128550000Y-74650000D01*
X128550000Y-74650000D02*
X125450000Y-74650000D01*
X134620000Y-113030000D02*
X157480000Y-113030000D01*
X157480000Y-113030000D02*
X157480000Y-110490000D01*
X157480000Y-110490000D02*
X134620000Y-110490000D01*
X131800000Y-113310000D02*
X133350000Y-113310000D01*
X134620000Y-113030000D02*
X134620000Y-110490000D01*
X133350000Y-110210000D02*
X131800000Y-110210000D01*
X131800000Y-110210000D02*
X131800000Y-113310000D01*
X154940000Y-90170000D02*
X132080000Y-90170000D01*
X132080000Y-90170000D02*
X132080000Y-92710000D01*
X132080000Y-92710000D02*
X154940000Y-92710000D01*
X157760000Y-89890000D02*
X156210000Y-89890000D01*
X154940000Y-90170000D02*
X154940000Y-92710000D01*
X156210000Y-92990000D02*
X157760000Y-92990000D01*
X157760000Y-92990000D02*
X157760000Y-89890000D01*
X164100000Y-93000000D02*
X171100000Y-93000000D01*
X171100000Y-93000000D02*
X171100000Y-97500000D01*
X171100000Y-97500000D02*
X164100000Y-97500000D01*
X164100000Y-97500000D02*
X164100000Y-93000000D01*
X163550000Y-112040000D02*
X165100000Y-112040000D01*
X168910000Y-111760000D02*
X166370000Y-111760000D01*
X166370000Y-111760000D02*
X166370000Y-109220000D01*
X165100000Y-108940000D02*
X163550000Y-108940000D01*
X163550000Y-108940000D02*
X163550000Y-112040000D01*
X166370000Y-109220000D02*
X168910000Y-109220000D01*
X168910000Y-109220000D02*
X168910000Y-111760000D01*
X175540000Y-98070000D02*
X175540000Y-96520000D01*
X175260000Y-92710000D02*
X175260000Y-95250000D01*
X175260000Y-95250000D02*
X172720000Y-95250000D01*
X172440000Y-96520000D02*
X172440000Y-98070000D01*
X172440000Y-98070000D02*
X175540000Y-98070000D01*
X172720000Y-95250000D02*
X172720000Y-92710000D01*
X172720000Y-92710000D02*
X175260000Y-92710000D01*
X171004000Y-118030000D02*
X163006000Y-118030000D01*
X170999000Y-118170000D02*
X163011000Y-118170000D01*
X170989000Y-118310000D02*
X163021000Y-118310000D01*
X170974000Y-118450000D02*
X163036000Y-118450000D01*
X170954000Y-118590000D02*
X163056000Y-118590000D01*
X170929000Y-118730000D02*
X167227000Y-118730000D01*
X166783000Y-118730000D02*
X163081000Y-118730000D01*
X170899000Y-118870000D02*
X167555000Y-118870000D01*
X166455000Y-118870000D02*
X163111000Y-118870000D01*
X170863000Y-119010000D02*
X167724000Y-119010000D01*
X166286000Y-119010000D02*
X163147000Y-119010000D01*
X170822000Y-119150000D02*
X167837000Y-119150000D01*
X166173000Y-119150000D02*
X163188000Y-119150000D01*
X170776000Y-119290000D02*
X167915000Y-119290000D01*
X166095000Y-119290000D02*
X163234000Y-119290000D01*
X170723000Y-119430000D02*
X167966000Y-119430000D01*
X166044000Y-119430000D02*
X163287000Y-119430000D01*
X170664000Y-119570000D02*
X167996000Y-119570000D01*
X166014000Y-119570000D02*
X163346000Y-119570000D01*
X170599000Y-119710000D02*
X168005000Y-119710000D01*
X166005000Y-119710000D02*
X163411000Y-119710000D01*
X170528000Y-119850000D02*
X167994000Y-119850000D01*
X166016000Y-119850000D02*
X163482000Y-119850000D01*
X170449000Y-119990000D02*
X167964000Y-119990000D01*
X166046000Y-119990000D02*
X163561000Y-119990000D01*
X170362000Y-120130000D02*
X167910000Y-120130000D01*
X166100000Y-120130000D02*
X163648000Y-120130000D01*
X170267000Y-120270000D02*
X167830000Y-120270000D01*
X166180000Y-120270000D02*
X163743000Y-120270000D01*
X170163000Y-120410000D02*
X167714000Y-120410000D01*
X166296000Y-120410000D02*
X163847000Y-120410000D01*
X170049000Y-120550000D02*
X167540000Y-120550000D01*
X166470000Y-120550000D02*
X163961000Y-120550000D01*
X169924000Y-120690000D02*
X167178000Y-120690000D01*
X166832000Y-120690000D02*
X164086000Y-120690000D01*
X169786000Y-120830000D02*
X164224000Y-120830000D01*
X169634000Y-120970000D02*
X164376000Y-120970000D01*
X169464000Y-121110000D02*
X164546000Y-121110000D01*
X169273000Y-121250000D02*
X164737000Y-121250000D01*
X169055000Y-121390000D02*
X164955000Y-121390000D01*
X168799000Y-121530000D02*
X165211000Y-121530000D01*
X168488000Y-121670000D02*
X165522000Y-121670000D01*
X168072000Y-121810000D02*
X165938000Y-121810000D01*
X167205000Y-121950000D02*
X166805000Y-121950000D01*
X168005000Y-119705000D02*
G75*
G03X168005000Y-119705000I-1000000J0D01*
G01*
X171042500Y-117955000D02*
G75*
G03X171042500Y-117955000I-4037500J0D01*
G01*
X147320000Y-125730000D02*
X154940000Y-125730000D01*
X147320000Y-128270000D02*
X154940000Y-128270000D01*
X144500000Y-128550000D02*
X146050000Y-128550000D01*
X154940000Y-125730000D02*
X154940000Y-128270000D01*
X147320000Y-128270000D02*
X147320000Y-125730000D01*
X146050000Y-125450000D02*
X144500000Y-125450000D01*
X144500000Y-125450000D02*
X144500000Y-128550000D01*
X167640000Y-128270000D02*
X162560000Y-128270000D01*
X162560000Y-128270000D02*
X162560000Y-125730000D01*
X162560000Y-125730000D02*
X167640000Y-125730000D01*
X167640000Y-125730000D02*
X167640000Y-128270000D01*
X173992540Y-118110000D02*
X173992540Y-119126000D01*
X173992540Y-113284000D02*
X173992540Y-112014000D01*
X175262540Y-113538000D02*
X172722540Y-113538000D01*
X175262540Y-113792000D02*
X172722540Y-113792000D01*
X175262540Y-114046000D02*
X172722540Y-114046000D01*
X175262540Y-113284000D02*
X172722540Y-113284000D01*
X175262540Y-114300000D02*
X172722540Y-113030000D01*
X175262540Y-113030000D02*
X172722540Y-114300000D01*
X175262540Y-114300000D02*
X172722540Y-114300000D01*
X175262540Y-113665000D02*
X172722540Y-113665000D01*
X172722540Y-113030000D02*
X175262540Y-113030000D01*
X175262540Y-113030000D02*
X175262540Y-118110000D01*
X175262540Y-118110000D02*
X172722540Y-118110000D01*
X172722540Y-118110000D02*
X172722540Y-113030000D01*
X140622381Y-122601905D02*
X139622381Y-122601905D01*
X140622381Y-122030476D02*
X140050952Y-122459048D01*
X139622381Y-122030476D02*
X140193810Y-122601905D01*
X145702381Y-122601905D02*
X144702381Y-122601905D01*
X145702381Y-122030476D02*
X145130952Y-122459048D01*
X144702381Y-122030476D02*
X145273810Y-122601905D01*
X150782381Y-122601905D02*
X149782381Y-122601905D01*
X150782381Y-122030476D02*
X150210952Y-122459048D01*
X149782381Y-122030476D02*
X150353810Y-122601905D01*
X155862381Y-122601905D02*
X154862381Y-122601905D01*
X155862381Y-122030476D02*
X155290952Y-122459048D01*
X154862381Y-122030476D02*
X155433810Y-122601905D01*
X160942381Y-122601905D02*
X159942381Y-122601905D01*
X160942381Y-122030476D02*
X160370952Y-122459048D01*
X159942381Y-122030476D02*
X160513810Y-122601905D01*
M02*
