G04 #@! TF.FileFunction,Soldermask,Bot*
%FSLAX46Y46*%
G04 Gerber Fmt 4.6, Leading zero omitted, Abs format (unit mm)*
G04 Created by KiCad (PCBNEW 4.0.5+dfsg1-4) date Mon Jul  6 07:59:05 2020*
%MOMM*%
%LPD*%
G01*
G04 APERTURE LIST*
%ADD10C,0.150000*%
%ADD11R,2.100000X2.100000*%
%ADD12O,2.200000X2.200000*%
%ADD13C,2.000000*%
%ADD14O,2.000000X2.000000*%
%ADD15C,2.200000*%
%ADD16R,2.200000X2.200000*%
%ADD17O,2.300000X2.500000*%
%ADD18R,2.300000X2.500000*%
%ADD19R,2.000000X2.000000*%
%ADD20O,3.200000X3.200000*%
%ADD21R,3.200000X3.200000*%
%ADD22O,2.100000X2.100000*%
%ADD23R,2.127200X2.432000*%
%ADD24O,2.127200X2.432000*%
%ADD25R,1.700000X1.700000*%
%ADD26C,1.700000*%
%ADD27C,2.398980*%
G04 APERTURE END LIST*
D10*
X123952000Y-67056000D02*
X123952000Y-130556000D01*
X176784000Y-67056000D02*
X123952000Y-67056000D01*
X176784000Y-130556000D02*
X176784000Y-67056000D01*
X123952000Y-130556000D02*
X176784000Y-130556000D01*
D11*
X171450000Y-77470000D03*
D12*
X171450000Y-80010000D03*
D13*
X138430000Y-127000000D03*
D14*
X133350000Y-127000000D03*
X166370000Y-119380000D03*
D13*
X171450000Y-119380000D03*
X171450000Y-115570000D03*
D14*
X166370000Y-115570000D03*
D13*
X171450000Y-104140000D03*
D14*
X166370000Y-104140000D03*
X166370000Y-107950000D03*
D13*
X171450000Y-107950000D03*
D14*
X144780000Y-81280000D03*
D13*
X144780000Y-76200000D03*
X140970000Y-76200000D03*
D14*
X140970000Y-81280000D03*
D15*
X158750000Y-118110000D03*
D16*
X158750000Y-120650000D03*
X153670000Y-120650000D03*
D15*
X153670000Y-118110000D03*
X148590000Y-118110000D03*
D16*
X148590000Y-120650000D03*
X143510000Y-120650000D03*
D15*
X143510000Y-118110000D03*
X138430000Y-118110000D03*
D16*
X138430000Y-120650000D03*
D14*
X166370000Y-111760000D03*
D13*
X171450000Y-111760000D03*
D17*
X153670000Y-87630000D03*
X153670000Y-107950000D03*
X151130000Y-87630000D03*
X151130000Y-107950000D03*
X148590000Y-87630000D03*
X148590000Y-107950000D03*
X146050000Y-87630000D03*
X146050000Y-107950000D03*
X143510000Y-87630000D03*
X143510000Y-107950000D03*
X140970000Y-87630000D03*
X140970000Y-107950000D03*
X138430000Y-87630000D03*
X138430000Y-107950000D03*
X135890000Y-87630000D03*
X135890000Y-107950000D03*
X133350000Y-87630000D03*
X133350000Y-107950000D03*
X130810000Y-87630000D03*
D18*
X130810000Y-107950000D03*
D13*
X167600000Y-88900000D03*
D19*
X165100000Y-88900000D03*
D20*
X166370000Y-77470000D03*
D21*
X166370000Y-82550000D03*
D22*
X171450000Y-88900000D03*
D11*
X171450000Y-86360000D03*
D23*
X146050000Y-127000000D03*
D24*
X148590000Y-127000000D03*
X151130000Y-127000000D03*
X153670000Y-127000000D03*
D23*
X133350000Y-69850000D03*
D24*
X135890000Y-69850000D03*
X138430000Y-69850000D03*
X140970000Y-69850000D03*
D25*
X154940000Y-80010000D03*
D26*
X154940000Y-76210000D03*
D27*
X161290000Y-82550000D03*
X161290000Y-78105000D03*
X157480000Y-124460000D03*
X142240000Y-124460000D03*
M02*
