G04 #@! TF.GenerationSoftware,KiCad,Pcbnew,5.1.5+dfsg1-2build2*
G04 #@! TF.CreationDate,2024-03-17T19:22:37+01:00*
G04 #@! TF.ProjectId,mm7d,6d6d3764-2e6b-4696-9361-645f70636258,231006*
G04 #@! TF.SameCoordinates,Original*
G04 #@! TF.FileFunction,Copper,L2,Bot*
G04 #@! TF.FilePolarity,Positive*
%FSLAX46Y46*%
G04 Gerber Fmt 4.6, Leading zero omitted, Abs format (unit mm)*
G04 Created by KiCad (PCBNEW 5.1.5+dfsg1-2build2) date 2024-03-17 19:22:37*
%MOMM*%
%LPD*%
G04 APERTURE LIST*
%ADD10C,0.300000*%
%ADD11C,0.150000*%
%ADD12C,1.998980*%
%ADD13R,2.000000X2.000000*%
%ADD14C,2.000000*%
%ADD15R,1.727200X2.032000*%
%ADD16O,1.727200X2.032000*%
%ADD17R,1.300000X1.300000*%
%ADD18C,1.300000*%
%ADD19R,2.032000X2.032000*%
%ADD20O,2.032000X2.032000*%
%ADD21R,1.998980X1.998980*%
%ADD22C,0.600000*%
%ADD23C,0.250000*%
%ADD24C,1.000000*%
%ADD25C,0.500000*%
G04 APERTURE END LIST*
D10*
X172041428Y-101568571D02*
X171970000Y-101640000D01*
X171898571Y-101782857D01*
X171898571Y-102140000D01*
X171970000Y-102282857D01*
X172041428Y-102354285D01*
X172184285Y-102425714D01*
X172327142Y-102425714D01*
X172541428Y-102354285D01*
X173398571Y-101497142D01*
X173398571Y-102425714D01*
X171898571Y-103354285D02*
X171898571Y-103497142D01*
X171970000Y-103640000D01*
X172041428Y-103711428D01*
X172184285Y-103782857D01*
X172470000Y-103854285D01*
X172827142Y-103854285D01*
X173112857Y-103782857D01*
X173255714Y-103711428D01*
X173327142Y-103640000D01*
X173398571Y-103497142D01*
X173398571Y-103354285D01*
X173327142Y-103211428D01*
X173255714Y-103140000D01*
X173112857Y-103068571D01*
X172827142Y-102997142D01*
X172470000Y-102997142D01*
X172184285Y-103068571D01*
X172041428Y-103140000D01*
X171970000Y-103211428D01*
X171898571Y-103354285D01*
X172041428Y-104425714D02*
X171970000Y-104497142D01*
X171898571Y-104640000D01*
X171898571Y-104997142D01*
X171970000Y-105140000D01*
X172041428Y-105211428D01*
X172184285Y-105282857D01*
X172327142Y-105282857D01*
X172541428Y-105211428D01*
X173398571Y-104354285D01*
X173398571Y-105282857D01*
X171898571Y-105782857D02*
X171898571Y-106711428D01*
X172470000Y-106211428D01*
X172470000Y-106425714D01*
X172541428Y-106568571D01*
X172612857Y-106640000D01*
X172755714Y-106711428D01*
X173112857Y-106711428D01*
X173255714Y-106640000D01*
X173327142Y-106568571D01*
X173398571Y-106425714D01*
X173398571Y-105997142D01*
X173327142Y-105854285D01*
X173255714Y-105782857D01*
D11*
X123952000Y-67056000D02*
X123952000Y-130556000D01*
X176784000Y-67056000D02*
X123952000Y-67056000D01*
X176784000Y-130556000D02*
X176784000Y-67056000D01*
X123952000Y-130556000D02*
X176784000Y-130556000D01*
D12*
X158750000Y-96520000D03*
X151130000Y-96520000D03*
X151130000Y-100330000D03*
X158750000Y-100330000D03*
X151130000Y-107950000D03*
X158750000Y-107950000D03*
X151130000Y-104140000D03*
X158750000Y-104140000D03*
X130810000Y-127000000D03*
X138430000Y-127000000D03*
X130810000Y-100330000D03*
X140970000Y-100330000D03*
X130810000Y-104140000D03*
X140970000Y-104140000D03*
D13*
X138430000Y-120650000D03*
D14*
X138430000Y-118110000D03*
D13*
X143510000Y-120650000D03*
D14*
X143510000Y-118110000D03*
D13*
X148590000Y-120650000D03*
D14*
X148590000Y-118110000D03*
D13*
X153670000Y-120650000D03*
D14*
X153670000Y-118110000D03*
D13*
X158750000Y-120650000D03*
D14*
X158750000Y-118110000D03*
D15*
X146050000Y-127000000D03*
D16*
X148590000Y-127000000D03*
X151130000Y-127000000D03*
X153670000Y-127000000D03*
D15*
X133350000Y-111760000D03*
D16*
X135890000Y-111760000D03*
X138430000Y-111760000D03*
X140970000Y-111760000D03*
X143510000Y-111760000D03*
X146050000Y-111760000D03*
X148590000Y-111760000D03*
X151130000Y-111760000D03*
X153670000Y-111760000D03*
X156210000Y-111760000D03*
D15*
X156210000Y-91440000D03*
D16*
X153670000Y-91440000D03*
X151130000Y-91440000D03*
X148590000Y-91440000D03*
X146050000Y-91440000D03*
X143510000Y-91440000D03*
X140970000Y-91440000D03*
X138430000Y-91440000D03*
X135890000Y-91440000D03*
X133350000Y-91440000D03*
D17*
X165100000Y-95250000D03*
D18*
X170100000Y-95250000D03*
D19*
X165100000Y-110490000D03*
D20*
X167640000Y-110490000D03*
D19*
X173990000Y-96520000D03*
D20*
X173990000Y-93980000D03*
D18*
X167005000Y-119705000D03*
D17*
X167005000Y-116205000D03*
D12*
X168910000Y-127000000D03*
X161290000Y-127000000D03*
X173992540Y-120650000D03*
D21*
X173992540Y-110490000D03*
D22*
X127000000Y-120650000D03*
D23*
X138430000Y-92706000D02*
X138430000Y-91440000D01*
D24*
X167640000Y-110490000D02*
X167640000Y-87630000D01*
X167640000Y-87630000D02*
X166370000Y-86360000D01*
X166370000Y-86360000D02*
X139700000Y-86360000D01*
X139700000Y-86360000D02*
X138430000Y-87630000D01*
X138430000Y-87630000D02*
X138430000Y-91440000D01*
D25*
X138430000Y-92710000D02*
X138430000Y-91440000D01*
X130810000Y-100330000D02*
X138430000Y-92710000D01*
D24*
X127000000Y-120650000D02*
X138430000Y-120650000D01*
D25*
X146050000Y-90170000D02*
X147320000Y-88900000D01*
X163830000Y-88900000D02*
X165100000Y-90170000D01*
X147320000Y-88900000D02*
X163830000Y-88900000D01*
X165100000Y-95250000D02*
X165100000Y-90170000D01*
X146050000Y-90170000D02*
X146050000Y-91440000D01*
X170100000Y-95250000D02*
X170180000Y-95250000D01*
X170180000Y-95250000D02*
X171450000Y-93980000D01*
X171450000Y-93980000D02*
X173990000Y-93980000D01*
X158750000Y-118110000D02*
X162560000Y-118110000D01*
X165100000Y-127000000D02*
X168910000Y-127000000D01*
X163830000Y-125730000D02*
X165100000Y-127000000D01*
X163830000Y-124460000D02*
X163830000Y-125730000D01*
X163830000Y-119380000D02*
X163830000Y-124460000D01*
X162560000Y-118110000D02*
X163830000Y-119380000D01*
X153670000Y-118110000D02*
X153670000Y-116840000D01*
X161290000Y-96520000D02*
X158750000Y-96520000D01*
X162560000Y-97790000D02*
X161290000Y-96520000D01*
X162560000Y-114300000D02*
X162560000Y-97790000D01*
X161290000Y-115570000D02*
X162560000Y-114300000D01*
X154940000Y-115570000D02*
X161290000Y-115570000D01*
X153670000Y-116840000D02*
X154940000Y-115570000D01*
X158750000Y-100330000D02*
X160020000Y-100330000D01*
X148590000Y-115570000D02*
X148590000Y-118110000D01*
X149860000Y-114300000D02*
X148590000Y-115570000D01*
X151130000Y-114300000D02*
X149860000Y-114300000D01*
X153670000Y-114300000D02*
X151130000Y-114300000D01*
X160020000Y-114300000D02*
X153670000Y-114300000D01*
X161290000Y-113030000D02*
X160020000Y-114300000D01*
X161290000Y-101600000D02*
X161290000Y-113030000D01*
X160020000Y-100330000D02*
X161290000Y-101600000D01*
X144780000Y-96520000D02*
X143510000Y-97790000D01*
X143510000Y-97790000D02*
X143510000Y-111760000D01*
X151130000Y-96520000D02*
X144780000Y-96520000D01*
X146050000Y-111760000D02*
X146050000Y-101600000D01*
X147320000Y-100330000D02*
X151130000Y-100330000D01*
X146050000Y-101600000D02*
X147320000Y-100330000D01*
X148590000Y-111760000D02*
X148590000Y-105410000D01*
X149860000Y-104140000D02*
X151130000Y-104140000D01*
X148590000Y-105410000D02*
X149860000Y-104140000D01*
X151130000Y-111760000D02*
X151130000Y-107950000D01*
X129540000Y-115570000D02*
X128270000Y-115570000D01*
X127000000Y-114300000D02*
X127000000Y-113030000D01*
X128270000Y-115570000D02*
X127000000Y-114300000D01*
X140970000Y-124460000D02*
X140970000Y-116840000D01*
X139700000Y-115570000D02*
X129540000Y-115570000D01*
X140970000Y-116840000D02*
X139700000Y-115570000D01*
X143510000Y-91440000D02*
X143510000Y-92710000D01*
X143510000Y-92710000D02*
X133985000Y-102235000D01*
X133985000Y-102235000D02*
X128270000Y-102235000D01*
X128270000Y-102235000D02*
X127000000Y-103505000D01*
X127000000Y-103505000D02*
X127000000Y-113030000D01*
X138430000Y-127000000D02*
X138430000Y-125730000D01*
X148590000Y-125730000D02*
X148590000Y-127000000D01*
X147320000Y-124460000D02*
X148590000Y-125730000D01*
X139700000Y-124460000D02*
X140970000Y-124460000D01*
X140970000Y-124460000D02*
X147320000Y-124460000D01*
X138430000Y-125730000D02*
X139700000Y-124460000D01*
X140970000Y-100330000D02*
X138430000Y-100330000D01*
X140970000Y-100330000D02*
X140970000Y-97790000D01*
X138430000Y-100330000D02*
X134620000Y-104140000D01*
X130810000Y-104140000D02*
X134620000Y-104140000D01*
X140970000Y-97790000D02*
X144780000Y-93980000D01*
X153670000Y-92710000D02*
X153670000Y-91440000D01*
X152400000Y-93980000D02*
X153670000Y-92710000D01*
X144780000Y-93980000D02*
X152400000Y-93980000D01*
M02*
