G04 #@! TF.FileFunction,Copper,L2,Bot*
%FSLAX46Y46*%
G04 Gerber Fmt 4.6, Leading zero omitted, Abs format (unit mm)*
G04 Created by KiCad (PCBNEW 4.0.5+dfsg1-4) date Wed Jul 15 17:22:11 2020*
%MOMM*%
%LPD*%
G01*
G04 APERTURE LIST*
%ADD10C,0.150000*%
%ADD11C,0.300000*%
%ADD12C,1.998980*%
%ADD13R,2.000000X2.000000*%
%ADD14C,2.000000*%
%ADD15R,2.032000X1.727200*%
%ADD16O,2.032000X1.727200*%
%ADD17R,1.727200X2.032000*%
%ADD18O,1.727200X2.032000*%
%ADD19R,1.300000X1.300000*%
%ADD20C,1.300000*%
%ADD21R,2.032000X2.032000*%
%ADD22O,2.032000X2.032000*%
%ADD23R,1.998980X1.998980*%
%ADD24C,2.500000*%
%ADD25C,0.600000*%
%ADD26C,1.000000*%
%ADD27C,0.500000*%
G04 APERTURE END LIST*
D10*
D11*
X135921428Y-95841429D02*
X135849999Y-95770000D01*
X135707142Y-95698571D01*
X135349999Y-95698571D01*
X135207142Y-95770000D01*
X135135713Y-95841429D01*
X135064285Y-95984286D01*
X135064285Y-96127143D01*
X135135713Y-96341429D01*
X135992856Y-97198571D01*
X135064285Y-97198571D01*
X134135714Y-95698571D02*
X133992857Y-95698571D01*
X133850000Y-95770000D01*
X133778571Y-95841429D01*
X133707142Y-95984286D01*
X133635714Y-96270000D01*
X133635714Y-96627143D01*
X133707142Y-96912857D01*
X133778571Y-97055714D01*
X133850000Y-97127143D01*
X133992857Y-97198571D01*
X134135714Y-97198571D01*
X134278571Y-97127143D01*
X134350000Y-97055714D01*
X134421428Y-96912857D01*
X134492857Y-96627143D01*
X134492857Y-96270000D01*
X134421428Y-95984286D01*
X134350000Y-95841429D01*
X134278571Y-95770000D01*
X134135714Y-95698571D01*
X133064286Y-95841429D02*
X132992857Y-95770000D01*
X132850000Y-95698571D01*
X132492857Y-95698571D01*
X132350000Y-95770000D01*
X132278571Y-95841429D01*
X132207143Y-95984286D01*
X132207143Y-96127143D01*
X132278571Y-96341429D01*
X133135714Y-97198571D01*
X132207143Y-97198571D01*
X131278572Y-95698571D02*
X131135715Y-95698571D01*
X130992858Y-95770000D01*
X130921429Y-95841429D01*
X130850000Y-95984286D01*
X130778572Y-96270000D01*
X130778572Y-96627143D01*
X130850000Y-96912857D01*
X130921429Y-97055714D01*
X130992858Y-97127143D01*
X131135715Y-97198571D01*
X131278572Y-97198571D01*
X131421429Y-97127143D01*
X131492858Y-97055714D01*
X131564286Y-96912857D01*
X131635715Y-96627143D01*
X131635715Y-96270000D01*
X131564286Y-95984286D01*
X131492858Y-95841429D01*
X131421429Y-95770000D01*
X131278572Y-95698571D01*
D10*
X123952000Y-67056000D02*
X123952000Y-130556000D01*
X176784000Y-67056000D02*
X123952000Y-67056000D01*
X176784000Y-130556000D02*
X176784000Y-67056000D01*
X123952000Y-130556000D02*
X176784000Y-130556000D01*
D12*
X158750000Y-96520000D03*
X151130000Y-96520000D03*
X151130000Y-100330000D03*
X158750000Y-100330000D03*
X151130000Y-107950000D03*
X158750000Y-107950000D03*
X151130000Y-104140000D03*
X158750000Y-104140000D03*
X130810000Y-127000000D03*
X138430000Y-127000000D03*
X130810000Y-100330000D03*
X140970000Y-100330000D03*
X130810000Y-104140000D03*
X140970000Y-104140000D03*
D13*
X138430000Y-120650000D03*
D14*
X138430000Y-118110000D03*
D13*
X143510000Y-120650000D03*
D14*
X143510000Y-118110000D03*
D13*
X148590000Y-120650000D03*
D14*
X148590000Y-118110000D03*
D13*
X153670000Y-120650000D03*
D14*
X153670000Y-118110000D03*
D13*
X158750000Y-120650000D03*
D14*
X158750000Y-118110000D03*
D15*
X127000000Y-76200000D03*
D16*
X127000000Y-78740000D03*
X127000000Y-81280000D03*
X127000000Y-83820000D03*
D17*
X133350000Y-111760000D03*
D18*
X135890000Y-111760000D03*
X138430000Y-111760000D03*
X140970000Y-111760000D03*
X143510000Y-111760000D03*
X146050000Y-111760000D03*
X148590000Y-111760000D03*
X151130000Y-111760000D03*
X153670000Y-111760000D03*
X156210000Y-111760000D03*
D17*
X156210000Y-91440000D03*
D18*
X153670000Y-91440000D03*
X151130000Y-91440000D03*
X148590000Y-91440000D03*
X146050000Y-91440000D03*
X143510000Y-91440000D03*
X140970000Y-91440000D03*
X138430000Y-91440000D03*
X135890000Y-91440000D03*
X133350000Y-91440000D03*
D19*
X165100000Y-95250000D03*
D20*
X170100000Y-95250000D03*
D21*
X165100000Y-110490000D03*
D22*
X167640000Y-110490000D03*
D21*
X173990000Y-96520000D03*
D22*
X173990000Y-93980000D03*
D20*
X167005000Y-119705000D03*
D19*
X167005000Y-116205000D03*
D17*
X146050000Y-127000000D03*
D18*
X148590000Y-127000000D03*
X151130000Y-127000000D03*
X153670000Y-127000000D03*
D12*
X168910000Y-127000000D03*
X161290000Y-127000000D03*
X173992540Y-120650000D03*
D23*
X173992540Y-110490000D03*
D24*
X174752000Y-69088000D03*
X125984000Y-69088000D03*
X174752000Y-128524000D03*
X125984000Y-128524000D03*
D25*
X167640000Y-104140000D03*
X127000000Y-120650000D03*
D26*
X167640000Y-104140000D02*
X167640000Y-110490000D01*
X127000000Y-120650000D02*
X138430000Y-120650000D01*
D27*
X146050000Y-90170000D02*
X147320000Y-88900000D01*
X163830000Y-88900000D02*
X165100000Y-90170000D01*
X147320000Y-88900000D02*
X163830000Y-88900000D01*
X165100000Y-95250000D02*
X165100000Y-90170000D01*
X146050000Y-90170000D02*
X146050000Y-91440000D01*
X170100000Y-95250000D02*
X170180000Y-95250000D01*
X170180000Y-95250000D02*
X171450000Y-93980000D01*
X171450000Y-93980000D02*
X173990000Y-93980000D01*
X158750000Y-118110000D02*
X162560000Y-118110000D01*
X165100000Y-127000000D02*
X168910000Y-127000000D01*
X163830000Y-125730000D02*
X165100000Y-127000000D01*
X163830000Y-124460000D02*
X163830000Y-125730000D01*
X163830000Y-119380000D02*
X163830000Y-124460000D01*
X162560000Y-118110000D02*
X163830000Y-119380000D01*
X153670000Y-118110000D02*
X153670000Y-116840000D01*
X161290000Y-96520000D02*
X158750000Y-96520000D01*
X162560000Y-97790000D02*
X161290000Y-96520000D01*
X162560000Y-114300000D02*
X162560000Y-97790000D01*
X161290000Y-115570000D02*
X162560000Y-114300000D01*
X154940000Y-115570000D02*
X161290000Y-115570000D01*
X153670000Y-116840000D02*
X154940000Y-115570000D01*
X158750000Y-100330000D02*
X160020000Y-100330000D01*
X148590000Y-115570000D02*
X148590000Y-118110000D01*
X149860000Y-114300000D02*
X148590000Y-115570000D01*
X151130000Y-114300000D02*
X149860000Y-114300000D01*
X153670000Y-114300000D02*
X151130000Y-114300000D01*
X160020000Y-114300000D02*
X153670000Y-114300000D01*
X161290000Y-113030000D02*
X160020000Y-114300000D01*
X161290000Y-101600000D02*
X161290000Y-113030000D01*
X160020000Y-100330000D02*
X161290000Y-101600000D01*
X144780000Y-96520000D02*
X143510000Y-97790000D01*
X143510000Y-97790000D02*
X143510000Y-111760000D01*
X151130000Y-96520000D02*
X144780000Y-96520000D01*
X146050000Y-111760000D02*
X146050000Y-101600000D01*
X147320000Y-100330000D02*
X151130000Y-100330000D01*
X146050000Y-101600000D02*
X147320000Y-100330000D01*
X148590000Y-111760000D02*
X148590000Y-105410000D01*
X149860000Y-104140000D02*
X151130000Y-104140000D01*
X148590000Y-105410000D02*
X149860000Y-104140000D01*
X151130000Y-111760000D02*
X151130000Y-107950000D01*
X129540000Y-115570000D02*
X128270000Y-115570000D01*
X127000000Y-114300000D02*
X127000000Y-113030000D01*
X128270000Y-115570000D02*
X127000000Y-114300000D01*
X140970000Y-124460000D02*
X140970000Y-116840000D01*
X139700000Y-115570000D02*
X129540000Y-115570000D01*
X140970000Y-116840000D02*
X139700000Y-115570000D01*
X143510000Y-91440000D02*
X143510000Y-92710000D01*
X143510000Y-92710000D02*
X133985000Y-102235000D01*
X133985000Y-102235000D02*
X128270000Y-102235000D01*
X128270000Y-102235000D02*
X127000000Y-103505000D01*
X127000000Y-103505000D02*
X127000000Y-113030000D01*
X138430000Y-127000000D02*
X138430000Y-125730000D01*
X148590000Y-125730000D02*
X148590000Y-127000000D01*
X147320000Y-124460000D02*
X148590000Y-125730000D01*
X139700000Y-124460000D02*
X140970000Y-124460000D01*
X140970000Y-124460000D02*
X147320000Y-124460000D01*
X138430000Y-125730000D02*
X139700000Y-124460000D01*
X130810000Y-100330000D02*
X128270000Y-100330000D01*
X127000000Y-99060000D02*
X127000000Y-83820000D01*
X128270000Y-100330000D02*
X127000000Y-99060000D01*
X140970000Y-100330000D02*
X138430000Y-100330000D01*
X140970000Y-100330000D02*
X140970000Y-97790000D01*
X138430000Y-100330000D02*
X134620000Y-104140000D01*
X130810000Y-104140000D02*
X134620000Y-104140000D01*
X140970000Y-97790000D02*
X144780000Y-93980000D01*
X153670000Y-92710000D02*
X153670000Y-91440000D01*
X152400000Y-93980000D02*
X153670000Y-92710000D01*
X144780000Y-93980000D02*
X152400000Y-93980000D01*
M02*
