G04 #@! TF.GenerationSoftware,KiCad,Pcbnew,5.1.5+dfsg1-2build2*
G04 #@! TF.CreationDate,2024-03-17T19:22:37+01:00*
G04 #@! TF.ProjectId,mm7d,6d6d3764-2e6b-4696-9361-645f70636258,231006*
G04 #@! TF.SameCoordinates,Original*
G04 #@! TF.FileFunction,Copper,L1,Top*
G04 #@! TF.FilePolarity,Positive*
%FSLAX46Y46*%
G04 Gerber Fmt 4.6, Leading zero omitted, Abs format (unit mm)*
G04 Created by KiCad (PCBNEW 5.1.5+dfsg1-2build2) date 2024-03-17 19:22:37*
%MOMM*%
%LPD*%
G04 APERTURE LIST*
%ADD10C,0.150000*%
%ADD11C,1.998980*%
%ADD12R,2.000000X2.000000*%
%ADD13C,2.000000*%
%ADD14R,1.727200X2.032000*%
%ADD15O,1.727200X2.032000*%
%ADD16R,1.300000X1.300000*%
%ADD17C,1.300000*%
%ADD18R,2.032000X2.032000*%
%ADD19O,2.032000X2.032000*%
%ADD20R,1.998980X1.998980*%
%ADD21C,0.600000*%
%ADD22C,1.000000*%
%ADD23C,0.500000*%
G04 APERTURE END LIST*
D10*
X123952000Y-67056000D02*
X123952000Y-130556000D01*
X176784000Y-67056000D02*
X123952000Y-67056000D01*
X176784000Y-130556000D02*
X176784000Y-67056000D01*
X123952000Y-130556000D02*
X176784000Y-130556000D01*
D11*
X158750000Y-96520000D03*
X151130000Y-96520000D03*
X151130000Y-100330000D03*
X158750000Y-100330000D03*
X151130000Y-107950000D03*
X158750000Y-107950000D03*
X151130000Y-104140000D03*
X158750000Y-104140000D03*
X130810000Y-127000000D03*
X138430000Y-127000000D03*
X130810000Y-100330000D03*
X140970000Y-100330000D03*
X130810000Y-104140000D03*
X140970000Y-104140000D03*
D12*
X138430000Y-120650000D03*
D13*
X138430000Y-118110000D03*
D12*
X143510000Y-120650000D03*
D13*
X143510000Y-118110000D03*
D12*
X148590000Y-120650000D03*
D13*
X148590000Y-118110000D03*
D12*
X153670000Y-120650000D03*
D13*
X153670000Y-118110000D03*
D12*
X158750000Y-120650000D03*
D13*
X158750000Y-118110000D03*
D14*
X146050000Y-127000000D03*
D15*
X148590000Y-127000000D03*
X151130000Y-127000000D03*
X153670000Y-127000000D03*
D14*
X133350000Y-111760000D03*
D15*
X135890000Y-111760000D03*
X138430000Y-111760000D03*
X140970000Y-111760000D03*
X143510000Y-111760000D03*
X146050000Y-111760000D03*
X148590000Y-111760000D03*
X151130000Y-111760000D03*
X153670000Y-111760000D03*
X156210000Y-111760000D03*
D14*
X156210000Y-91440000D03*
D15*
X153670000Y-91440000D03*
X151130000Y-91440000D03*
X148590000Y-91440000D03*
X146050000Y-91440000D03*
X143510000Y-91440000D03*
X140970000Y-91440000D03*
X138430000Y-91440000D03*
X135890000Y-91440000D03*
X133350000Y-91440000D03*
D16*
X165100000Y-95250000D03*
D17*
X170100000Y-95250000D03*
D18*
X165100000Y-110490000D03*
D19*
X167640000Y-110490000D03*
D18*
X173990000Y-96520000D03*
D19*
X173990000Y-93980000D03*
D17*
X167005000Y-119705000D03*
D16*
X167005000Y-116205000D03*
D11*
X168910000Y-127000000D03*
X161290000Y-127000000D03*
X173992540Y-120650000D03*
D20*
X173992540Y-110490000D03*
D21*
X127000000Y-120650000D03*
D22*
X167640000Y-110490000D02*
X167640000Y-115570000D01*
X167640000Y-115570000D02*
X167005000Y-116205000D01*
X167640000Y-110490000D02*
X173992540Y-110490000D01*
X143510000Y-120650000D02*
X138430000Y-120650000D01*
X148590000Y-120650000D02*
X143510000Y-120650000D01*
X153670000Y-120650000D02*
X148590000Y-120650000D01*
X133350000Y-91440000D02*
X133350000Y-93980000D01*
X133350000Y-93980000D02*
X132080000Y-95250000D01*
X132080000Y-95250000D02*
X128270000Y-95250000D01*
X128270000Y-95250000D02*
X127000000Y-96520000D01*
X127000000Y-96520000D02*
X127000000Y-106680000D01*
X140970000Y-104140000D02*
X140970000Y-105410000D01*
X127000000Y-106680000D02*
X127000000Y-120650000D01*
X139700000Y-106680000D02*
X127000000Y-106680000D01*
X140970000Y-105410000D02*
X139700000Y-106680000D01*
X165100000Y-120650000D02*
X158750000Y-120650000D01*
X158750000Y-120650000D02*
X153670000Y-120650000D01*
X165100000Y-110490000D02*
X165100000Y-107950000D01*
X173990000Y-105410000D02*
X173990000Y-96520000D01*
X172720000Y-106680000D02*
X173990000Y-105410000D01*
X166370000Y-106680000D02*
X172720000Y-106680000D01*
X165100000Y-107950000D02*
X166370000Y-106680000D01*
X153670000Y-127000000D02*
X153670000Y-120650000D01*
X165100000Y-110490000D02*
X165100000Y-120650000D01*
X167005000Y-119705000D02*
X167005000Y-120015000D01*
X167005000Y-120015000D02*
X167640000Y-120650000D01*
X167640000Y-120650000D02*
X173992540Y-120650000D01*
X165100000Y-120650000D02*
X166060000Y-120650000D01*
X166060000Y-120650000D02*
X167005000Y-119705000D01*
X130810000Y-127000000D02*
X130810000Y-115570000D01*
X138430000Y-113030000D02*
X138430000Y-111760000D01*
X137160000Y-114300000D02*
X138430000Y-113030000D01*
X132080000Y-114300000D02*
X137160000Y-114300000D01*
X130810000Y-115570000D02*
X132080000Y-114300000D01*
X146050000Y-129540000D02*
X160020000Y-129540000D01*
X161290000Y-128270000D02*
X161290000Y-127000000D01*
X160020000Y-129540000D02*
X161290000Y-128270000D01*
X130810000Y-127000000D02*
X130810000Y-129540000D01*
X146050000Y-129540000D02*
X146050000Y-127000000D01*
X130810000Y-129540000D02*
X146050000Y-129540000D01*
D23*
X143510000Y-118110000D02*
X143510000Y-116840000D01*
X161290000Y-104140000D02*
X158750000Y-104140000D01*
X162560000Y-105410000D02*
X161290000Y-104140000D01*
X162560000Y-114300000D02*
X162560000Y-105410000D01*
X161290000Y-115570000D02*
X162560000Y-114300000D01*
X144780000Y-115570000D02*
X161290000Y-115570000D01*
X143510000Y-116840000D02*
X144780000Y-115570000D01*
X158750000Y-107950000D02*
X160020000Y-107950000D01*
X138430000Y-115570000D02*
X138430000Y-118110000D01*
X139700000Y-114300000D02*
X138430000Y-115570000D01*
X149860000Y-114300000D02*
X139700000Y-114300000D01*
X160020000Y-114300000D02*
X149860000Y-114300000D01*
X161290000Y-113030000D02*
X160020000Y-114300000D01*
X161290000Y-109220000D02*
X161290000Y-113030000D01*
X160020000Y-107950000D02*
X161290000Y-109220000D01*
M02*
