<?xml version="1.0" standalone="no"?>
 <!DOCTYPE svg PUBLIC "-//W3C//DTD SVG 1.1//EN" 
 "http://www.w3.org/Graphics/SVG/1.1/DTD/svg11.dtd"> 
<svg xmlns="http://www.w3.org/2000/svg" version="1.1" 
    width="29.7002cm" height="21.0007cm" viewBox="0 0 116930 82680 ">
<title>SVG Picture created as mm7d-F.SilkS.svg date 2020/07/05 20:59:27 </title>
  <desc>Picture generated by PCBNEW </desc>
<g style="fill:#000000; fill-opacity:1;stroke:#000000; stroke-opacity:1;
stroke-linecap:round; stroke-linejoin:round; "
 transform="translate(0 0) scale(1 1)">
</g>
<g style="fill:#000000; fill-opacity:0.0; 
stroke:#000000; stroke-width:-0.000393701; stroke-opacity:1; 
stroke-linecap:round; stroke-linejoin:round;">
</g>
<g style="fill:#000000; fill-opacity:0.0; 
stroke:#000000; stroke-width:59.0551; stroke-opacity:1; 
stroke-linecap:round; stroke-linejoin:round;">
<rect x="69685.9" y="65357.2" width="42519.7" height="12598.4" rx="0" />
<rect x="3937.01" y="3937.01" width="109056" height="74806" rx="0" />
<rect x="4724.41" y="4724.41" width="107481" height="73231.2" rx="0" />
<path d="M23622 4724
L23622 3937
" />
<path d="M43307 4724
L43307 3937
" />
<path d="M62992 4724
L62992 3937
" />
<path d="M82677 4724
L82677 3937
" />
<path d="M102362 4724
L102362 3937
" />
<path d="M14169 4562
L13877 4562
" />
<path d="M14023 4562
L14023 4050
L13974 4123
L13925 4172
L13877 4196
" />
<path d="M33562 4099
L33586 4074
L33635 4050
L33757 4050
L33805 4074
L33830 4099
L33854 4147
L33854 4196
L33830 4269
L33537 4562
L33854 4562
" />
<path d="M53222 4050
L53539 4050
L53368 4245
L53442 4245
L53490 4269
L53515 4294
L53539 4342
L53539 4464
L53515 4513
L53490 4537
L53442 4562
L53295 4562
L53247 4537
L53222 4513
" />
<path d="M73175 4221
L73175 4562
" />
<path d="M73053 4026
L72932 4391
L73248 4391
" />
<path d="M92885 4050
L92641 4050
L92617 4294
L92641 4269
L92690 4245
L92812 4245
L92860 4269
L92885 4294
L92909 4342
L92909 4464
L92885 4513
L92860 4537
L92812 4562
L92690 4562
L92641 4537
L92617 4513
" />
<path d="M112545 4050
L112448 4050
L112399 4074
L112375 4099
L112326 4172
L112302 4269
L112302 4464
L112326 4513
L112350 4537
L112399 4562
L112497 4562
L112545 4537
L112570 4513
L112594 4464
L112594 4342
L112570 4294
L112545 4269
L112497 4245
L112399 4245
L112350 4269
L112326 4294
L112302 4342
" />
<path d="M23622 77955
L23622 78742
" />
<path d="M43307 77955
L43307 78742
" />
<path d="M62992 77955
L62992 78742
" />
<path d="M82677 77955
L82677 78742
" />
<path d="M102362 77955
L102362 78742
" />
<path d="M14169 78580
L13877 78580
" />
<path d="M14023 78580
L14023 78069
L13974 78142
L13925 78190
L13877 78215
" />
<path d="M33562 78117
L33586 78093
L33635 78069
L33757 78069
L33805 78093
L33830 78117
L33854 78166
L33854 78215
L33830 78288
L33537 78580
L33854 78580
" />
<path d="M53222 78069
L53539 78069
L53368 78263
L53442 78263
L53490 78288
L53515 78312
L53539 78361
L53539 78483
L53515 78532
L53490 78556
L53442 78580
L53295 78580
L53247 78556
L53222 78532
" />
<path d="M73175 78239
L73175 78580
" />
<path d="M73053 78044
L72932 78410
L73248 78410
" />
<path d="M92885 78069
L92641 78069
L92617 78312
L92641 78288
L92690 78263
L92812 78263
L92860 78288
L92885 78312
L92909 78361
L92909 78483
L92885 78532
L92860 78556
L92812 78580
L92690 78580
L92641 78556
L92617 78532
" />
<path d="M112545 78069
L112448 78069
L112399 78093
L112375 78117
L112326 78190
L112302 78288
L112302 78483
L112326 78532
L112350 78556
L112399 78580
L112497 78580
L112545 78556
L112570 78532
L112594 78483
L112594 78361
L112570 78312
L112545 78288
L112497 78263
L112399 78263
L112350 78288
L112326 78312
L112302 78361
" />
<path d="M3937 23622
L4724 23622
" />
<path d="M3937 43307
L4724 43307
" />
<path d="M3937 62992
L4724 62992
" />
<path d="M4208 13864
L4452 13864
" />
<path d="M4160 14011
L4330 13499
L4501 14011
" />
<path d="M4367 33428
L4440 33452
L4464 33476
L4489 33525
L4489 33598
L4464 33647
L4440 33671
L4391 33696
L4196 33696
L4196 33184
L4367 33184
L4416 33208
L4440 33233
L4464 33281
L4464 33330
L4440 33379
L4416 33403
L4367 33428
L4196 33428
" />
<path d="M4489 53332
L4464 53356
L4391 53381
L4342 53381
L4269 53356
L4221 53308
L4196 53259
L4172 53161
L4172 53088
L4196 52991
L4221 52942
L4269 52893
L4342 52869
L4391 52869
L4464 52893
L4489 52918
" />
<path d="M4196 73066
L4196 72554
L4318 72554
L4391 72578
L4440 72627
L4464 72676
L4489 72773
L4489 72846
L4464 72944
L4440 72993
L4391 73041
L4318 73066
L4196 73066
" />
<path d="M112992 23622
L112205 23622
" />
<path d="M112992 43307
L112205 43307
" />
<path d="M112992 62992
L112205 62992
" />
<path d="M112477 13864
L112721 13864
" />
<path d="M112428 14011
L112599 13499
L112769 14011
" />
<path d="M112635 33428
L112708 33452
L112733 33476
L112757 33525
L112757 33598
L112733 33647
L112708 33671
L112660 33696
L112465 33696
L112465 33184
L112635 33184
L112684 33208
L112708 33233
L112733 33281
L112733 33330
L112708 33379
L112684 33403
L112635 33428
L112465 33428
" />
<path d="M112757 53332
L112733 53356
L112660 53381
L112611 53381
L112538 53356
L112489 53308
L112465 53259
L112440 53161
L112440 53088
L112465 52991
L112489 52942
L112538 52893
L112611 52869
L112660 52869
L112733 52893
L112757 52918
" />
<path d="M112465 73066
L112465 72554
L112587 72554
L112660 72578
L112708 72627
L112733 72676
L112757 72773
L112757 72846
L112733 72944
L112708 72993
L112660 73041
L112587 73066
L112465 73066
" />
<path d="M78881 76293
L78881 75703
L79022 75703
L79106 75731
L79162 75787
L79190 75843
L79219 75956
L79219 76040
L79190 76153
L79162 76209
L79106 76265
L79022 76293
L78881 76293
" />
<path d="M79725 76293
L79725 75984
L79697 75928
L79640 75899
L79528 75899
L79472 75928
" />
<path d="M79725 76265
L79669 76293
L79528 76293
L79472 76265
L79444 76209
L79444 76153
L79472 76096
L79528 76068
L79669 76068
L79725 76040
" />
<path d="M79922 75899
L80147 75899
" />
<path d="M80006 75703
L80006 76209
L80034 76265
L80090 76293
L80147 76293
" />
<path d="M80568 76265
L80512 76293
L80400 76293
L80343 76265
L80315 76209
L80315 75984
L80343 75928
L80400 75899
L80512 75899
L80568 75928
L80597 75984
L80597 76040
L80315 76096
" />
<path d="M80850 76237
L80878 76265
L80850 76293
L80822 76265
L80850 76237
L80850 76293
" />
<path d="M80850 75928
L80878 75956
L80850 75984
L80822 75956
L80850 75928
L80850 75984
" />
<path d="M81553 75759
L81581 75731
L81637 75703
L81778 75703
L81834 75731
L81862 75759
L81890 75815
L81890 75871
L81862 75956
L81525 76293
L81890 76293
" />
<path d="M82256 75703
L82312 75703
L82368 75731
L82396 75759
L82424 75815
L82453 75928
L82453 76068
L82424 76181
L82396 76237
L82368 76265
L82312 76293
L82256 76293
L82199 76265
L82171 76237
L82143 76181
L82115 76068
L82115 75928
L82143 75815
L82171 75759
L82199 75731
L82256 75703
" />
<path d="M82678 75759
L82706 75731
L82762 75703
L82903 75703
L82959 75731
L82987 75759
L83015 75815
L83015 75871
L82987 75956
L82649 76293
L83015 76293
" />
<path d="M83381 75703
L83437 75703
L83493 75731
L83521 75759
L83549 75815
L83577 75928
L83577 76068
L83549 76181
L83521 76237
L83493 76265
L83437 76293
L83381 76293
L83324 76265
L83296 76237
L83268 76181
L83240 76068
L83240 75928
L83268 75815
L83296 75759
L83324 75731
L83381 75703
" />
<path d="M83831 76068
L84280 76068
" />
<path d="M84674 75703
L84730 75703
L84787 75731
L84815 75759
L84843 75815
L84871 75928
L84871 76068
L84843 76181
L84815 76237
L84787 76265
L84730 76293
L84674 76293
L84618 76265
L84590 76237
L84562 76181
L84534 76068
L84534 75928
L84562 75815
L84590 75759
L84618 75731
L84674 75703
" />
<path d="M85377 75703
L85265 75703
L85208 75731
L85180 75759
L85124 75843
L85096 75956
L85096 76181
L85124 76237
L85152 76265
L85208 76293
L85321 76293
L85377 76265
L85405 76237
L85433 76181
L85433 76040
L85405 75984
L85377 75956
L85321 75928
L85208 75928
L85152 75956
L85124 75984
L85096 76040
" />
<path d="M85687 76068
L86136 76068
" />
<path d="M86390 75759
L86418 75731
L86474 75703
L86615 75703
L86671 75731
L86699 75759
L86727 75815
L86727 75871
L86699 75956
L86361 76293
L86727 76293
" />
<path d="M87093 75703
L87149 75703
L87205 75731
L87233 75759
L87261 75815
L87289 75928
L87289 76068
L87261 76181
L87233 76237
L87205 76265
L87149 76293
L87093 76293
L87036 76265
L87008 76237
L86980 76181
L86952 76068
L86952 75928
L86980 75815
L87008 75759
L87036 75731
L87093 75703
" />
<path d="M69685 76577
L112205 76577
" />
<path d="M70220 77395
L70220 76805
" />
<path d="M70557 77395
L70304 77058
" />
<path d="M70557 76805
L70220 77142
" />
<path d="M70810 77395
L70810 77002
" />
<path d="M70810 76805
L70782 76833
L70810 76861
L70838 76833
L70810 76805
L70810 76861
" />
<path d="M71429 77339
L71401 77367
L71316 77395
L71260 77395
L71176 77367
L71120 77311
L71091 77255
L71063 77142
L71063 77058
L71091 76946
L71120 76889
L71176 76833
L71260 76805
L71316 76805
L71401 76833
L71429 76861
" />
<path d="M71935 77395
L71935 77086
L71907 77030
L71851 77002
L71738 77002
L71682 77030
" />
<path d="M71935 77367
L71879 77395
L71738 77395
L71682 77367
L71654 77311
L71654 77255
L71682 77199
L71738 77171
L71879 77171
L71935 77142
" />
<path d="M72469 77395
L72469 76805
" />
<path d="M72469 77367
L72413 77395
L72301 77395
L72244 77367
L72216 77339
L72188 77283
L72188 77114
L72216 77058
L72244 77030
L72301 77002
L72413 77002
L72469 77030
" />
<path d="M73201 77086
L73397 77086
" />
<path d="M73482 77395
L73201 77395
L73201 76805
L73482 76805
" />
<path d="M73735 77339
L73763 77367
L73735 77395
L73707 77367
L73735 77339
L73735 77395
" />
<path d="M74016 77395
L74016 76805
L74157 76805
L74241 76833
L74297 76889
L74325 76946
L74354 77058
L74354 77142
L74325 77255
L74297 77311
L74241 77367
L74157 77395
L74016 77395
" />
<path d="M74607 77339
L74635 77367
L74607 77395
L74579 77367
L74607 77339
L74607 77395
" />
<path d="M74860 77227
L75141 77227
" />
<path d="M74804 77395
L75000 76805
L75197 77395
" />
<path d="M75394 77339
L75422 77367
L75394 77395
L75366 77367
L75394 77339
L75394 77395
" />
<path d="M76575 77395
L76575 76805
" />
<path d="M76631 77171
L76800 77395
" />
<path d="M76800 77002
L76575 77227
" />
<path d="M77053 77395
L77053 77002
" />
<path d="M77053 76805
L77025 76833
L77053 76861
L77081 76833
L77053 76805
L77053 76861
" />
<path d="M77588 77367
L77531 77395
L77419 77395
L77363 77367
L77334 77339
L77306 77283
L77306 77114
L77334 77058
L77363 77030
L77419 77002
L77531 77002
L77588 77030
" />
<path d="M78094 77395
L78094 77086
L78066 77030
L78009 77002
L77897 77002
L77841 77030
" />
<path d="M78094 77367
L78037 77395
L77897 77395
L77841 77367
L77813 77311
L77813 77255
L77841 77199
L77897 77171
L78037 77171
L78094 77142
" />
<path d="M78628 77395
L78628 76805
" />
<path d="M78628 77367
L78572 77395
L78459 77395
L78403 77367
L78375 77339
L78347 77283
L78347 77114
L78375 77058
L78403 77030
L78459 77002
L78572 77002
L78628 77030
" />
<path d="M79612 77002
L79612 77395
" />
<path d="M79472 76777
L79331 77199
L79697 77199
" />
<path d="M79922 77339
L79950 77367
L79922 77395
L79894 77367
L79922 77339
L79922 77395
" />
<path d="M80315 76805
L80372 76805
L80428 76833
L80456 76861
L80484 76917
L80512 77030
L80512 77171
L80484 77283
L80456 77339
L80428 77367
L80372 77395
L80315 77395
L80259 77367
L80231 77339
L80203 77283
L80175 77171
L80175 77030
L80203 76917
L80231 76861
L80259 76833
L80315 76805
" />
<path d="M80765 77339
L80793 77367
L80765 77395
L80737 77367
L80765 77339
L80765 77395
" />
<path d="M81328 76805
L81046 76805
L81018 77086
L81046 77058
L81103 77030
L81243 77030
L81300 77058
L81328 77086
L81356 77142
L81356 77283
L81328 77339
L81300 77367
L81243 77395
L81103 77395
L81046 77367
L81018 77339
" />
<path d="M81609 77171
L82059 77171
" />
<path d="M81834 77395
L81834 76946
" />
<path d="M82593 77395
L82593 76805
" />
<path d="M82593 77367
L82537 77395
L82424 77395
L82368 77367
L82340 77339
L82312 77283
L82312 77114
L82340 77058
L82368 77030
L82424 77002
L82537 77002
L82593 77030
" />
<path d="M82790 77002
L83015 77002
" />
<path d="M82874 77395
L82874 76889
L82903 76833
L82959 76805
L83015 76805
" />
<path d="M83184 77367
L83240 77395
L83352 77395
L83409 77367
L83437 77311
L83437 77283
L83409 77227
L83352 77199
L83268 77199
L83212 77171
L83184 77114
L83184 77086
L83212 77030
L83268 77002
L83352 77002
L83409 77030
" />
<path d="M83943 77002
L83943 77480
L83915 77536
L83887 77564
L83831 77592
L83746 77592
L83690 77564
" />
<path d="M83943 77367
L83887 77395
L83774 77395
L83718 77367
L83690 77339
L83662 77283
L83662 77114
L83690 77058
L83718 77030
L83774 77002
L83887 77002
L83943 77030
" />
<path d="M84534 77395
L84196 77395
" />
<path d="M84365 77395
L84365 76805
L84309 76889
L84252 76946
L84196 76974
" />
<path d="M84787 77171
L85237 77171
" />
<path d="M85771 77002
L85771 77395
" />
<path d="M85630 76777
L85490 77199
L85855 77199
" />
<path d="M69685 75396
L112205 75396
" />
</g>
<g style="fill:#000000; fill-opacity:0.0; 
stroke:#000000; stroke-width:118.11; stroke-opacity:1; 
stroke-linecap:round; stroke-linejoin:round;">
<path d="M104022 76293
L103825 76012
" />
<path d="M103684 76293
L103684 75703
L103909 75703
L103965 75731
L103994 75759
L104022 75815
L104022 75899
L103994 75956
L103965 75984
L103909 76012
L103684 76012
" />
<path d="M104500 76265
L104444 76293
L104331 76293
L104275 76265
L104247 76209
L104247 75984
L104275 75928
L104331 75899
L104444 75899
L104500 75928
L104528 75984
L104528 76040
L104247 76096
" />
<path d="M104725 75899
L104865 76293
L105006 75899
" />
<path d="M105231 76237
L105259 76265
L105231 76293
L105203 76265
L105231 76237
L105231 76293
" />
<path d="M105231 75928
L105259 75956
L105231 75984
L105203 75956
L105231 75928
L105231 75984
" />
<path d="M105934 75759
L105962 75731
L106018 75703
L106159 75703
L106215 75731
L106243 75759
L106271 75815
L106271 75871
L106243 75956
L105906 76293
L106271 76293
" />
<path d="M106637 75703
L106693 75703
L106750 75731
L106778 75759
L106806 75815
L106834 75928
L106834 76068
L106806 76181
L106778 76237
L106750 76265
L106693 76293
L106637 76293
L106581 76265
L106553 76237
L106525 76181
L106496 76068
L106496 75928
L106525 75815
L106553 75759
L106581 75731
L106637 75703
" />
<path d="M107199 75703
L107256 75703
L107312 75731
L107340 75759
L107368 75815
L107396 75928
L107396 76068
L107368 76181
L107340 76237
L107312 76265
L107256 76293
L107199 76293
L107143 76265
L107115 76237
L107087 76181
L107059 76068
L107059 75928
L107087 75815
L107115 75759
L107143 75731
L107199 75703
" />
<path d="M107903 75703
L107790 75703
L107734 75731
L107706 75759
L107649 75843
L107621 75956
L107621 76181
L107649 76237
L107678 76265
L107734 76293
L107846 76293
L107903 76265
L107931 76237
L107959 76181
L107959 76040
L107931 75984
L107903 75956
L107846 75928
L107734 75928
L107678 75956
L107649 75984
L107621 76040
" />
<path d="M108184 75759
L108212 75731
L108268 75703
L108409 75703
L108465 75731
L108493 75759
L108521 75815
L108521 75871
L108493 75956
L108156 76293
L108521 76293
" />
<path d="M108887 75703
L108943 75703
L108999 75731
L109027 75759
L109055 75815
L109084 75928
L109084 76068
L109055 76181
L109027 76237
L108999 76265
L108943 76293
L108887 76293
L108831 76265
L108802 76237
L108774 76181
L108746 76068
L108746 75928
L108774 75815
L108802 75759
L108831 75731
L108887 75703
" />
</g>
<g style="fill:#000000; fill-opacity:0.0; 
stroke:#000000; stroke-width:59.0551; stroke-opacity:1; 
stroke-linecap:round; stroke-linejoin:round;">
<path d="M70192 76265
L70276 76293
L70417 76293
L70473 76265
L70501 76237
L70529 76181
L70529 76124
L70501 76068
L70473 76040
L70417 76012
L70304 75984
L70248 75956
L70220 75928
L70192 75871
L70192 75815
L70220 75759
L70248 75731
L70304 75703
L70445 75703
L70529 75731
" />
<path d="M70782 76293
L70782 75899
" />
<path d="M70782 75703
L70754 75731
L70782 75759
L70810 75731
L70782 75703
L70782 75759
" />
<path d="M71007 75899
L71316 75899
L71007 76293
L71316 76293
" />
<path d="M71766 76265
L71710 76293
L71598 76293
L71541 76265
L71513 76209
L71513 75984
L71541 75928
L71598 75899
L71710 75899
L71766 75928
L71795 75984
L71795 76040
L71513 76096
" />
<path d="M72048 76237
L72076 76265
L72048 76293
L72019 76265
L72048 76237
L72048 76293
" />
<path d="M72048 75928
L72076 75956
L72048 75984
L72019 75956
L72048 75928
L72048 75984
" />
<path d="M72751 76124
L73032 76124
" />
<path d="M72694 76293
L72891 75703
L73088 76293
" />
<path d="M73538 75899
L73538 76293
" />
<path d="M73397 75674
L73257 76096
L73622 76096
" />
<path d="M103684 77395
L103684 76805
" />
<path d="M104219 77395
L104219 76805
" />
<path d="M104219 77367
L104162 77395
L104050 77395
L103994 77367
L103965 77339
L103937 77283
L103937 77114
L103965 77058
L103994 77030
L104050 77002
L104162 77002
L104219 77030
" />
<path d="M104500 77339
L104528 77367
L104500 77395
L104472 77367
L104500 77339
L104500 77395
" />
<path d="M104500 77030
L104528 77058
L104500 77086
L104472 77058
L104500 77030
L104500 77086
" />
<path d="M105540 77395
L105203 77395
" />
<path d="M105372 77395
L105372 76805
L105315 76889
L105259 76946
L105203 76974
" />
<path d="M106215 76777
L105709 77536
" />
<path d="M106721 77395
L106384 77395
" />
<path d="M106553 77395
L106553 76805
L106496 76889
L106440 76946
L106384 76974
" />
<path d="M69685 73821
L112205 73821
" />
</g>
<g style="fill:#000000; fill-opacity:0.0; 
stroke:#000000; stroke-width:157.48; stroke-opacity:1; 
stroke-linecap:round; stroke-linejoin:round;">
<path d="M70257 74099
L70707 74099
" />
<path d="M70384 74886
L70482 74099
" />
<path d="M70871 74886
L70937 74361
" />
<path d="M70970 74099
L70927 74136
L70960 74174
L71002 74136
L70970 74099
L70960 74174
" />
<path d="M71199 74361
L71499 74361
" />
<path d="M71345 74099
L71260 74774
L71288 74849
L71359 74886
L71434 74886
" />
<path d="M71809 74886
L71738 74849
L71710 74774
L71795 74099
" />
<path d="M72413 74849
L72334 74886
L72184 74886
L72113 74849
L72085 74774
L72123 74474
L72169 74399
L72249 74361
L72399 74361
L72469 74399
L72498 74474
L72488 74549
L72104 74624
" />
<path d="M72793 74811
L72826 74849
L72783 74886
L72751 74849
L72793 74811
L72783 74886
" />
<path d="M72844 74399
L72877 74436
L72835 74474
L72802 74436
L72844 74399
L72835 74474
" />
<path d="M73758 74886
L73857 74099
L74049 74661
L74382 74099
L74283 74886
" />
<path d="M74658 74886
L74757 74099
L74949 74661
L75282 74099
L75183 74886
" />
<path d="M75582 74099
L76106 74099
L75671 74886
" />
<path d="M76308 74886
L76406 74099
L76594 74099
L76702 74136
L76767 74211
L76795 74286
L76814 74436
L76800 74549
L76744 74699
L76697 74774
L76613 74849
L76495 74886
L76308 74886
" />
<path d="M77686 74661
L78061 74661
" />
<path d="M77583 74886
L77944 74099
L78108 74886
" />
<path d="M78370 74886
L78436 74361
" />
<path d="M78469 74099
L78427 74136
L78459 74174
L78501 74136
L78469 74099
L78459 74174
" />
<path d="M78745 74886
L78811 74361
" />
<path d="M78792 74511
L78839 74436
L78881 74399
L78961 74361
L79036 74361
" />
<path d="M80236 74361
L80137 75149
" />
<path d="M80175 74849
L80095 74886
L79945 74886
L79875 74849
L79842 74811
L79814 74736
L79842 74511
L79889 74436
L79931 74399
L80011 74361
L80161 74361
L80231 74399
" />
<path d="M80948 74361
L80882 74886
" />
<path d="M80611 74361
L80559 74774
L80587 74849
L80657 74886
L80770 74886
L80850 74849
L80892 74811
" />
<path d="M81595 74886
L81646 74474
L81618 74399
L81548 74361
L81398 74361
L81318 74399
" />
<path d="M81600 74849
L81520 74886
L81332 74886
L81262 74849
L81234 74774
L81243 74699
L81290 74624
L81370 74586
L81557 74586
L81637 74549
" />
<path d="M82082 74886
L82012 74849
L81984 74774
L82068 74099
" />
<path d="M82382 74886
L82448 74361
" />
<path d="M82481 74099
L82438 74136
L82471 74174
L82513 74136
L82481 74099
L82471 74174
" />
<path d="M82710 74361
L83010 74361
" />
<path d="M82856 74099
L82771 74774
L82799 74849
L82870 74886
L82945 74886
" />
<path d="M83198 74361
L83320 74886
" />
<path d="M83573 74361
L83320 74886
L83221 75074
L83179 75111
L83099 75149
" />
<path d="M84407 74886
L84473 74361
" />
<path d="M84463 74436
L84505 74399
L84585 74361
L84698 74361
L84768 74399
L84796 74474
L84744 74886
" />
<path d="M84796 74474
L84843 74399
L84923 74361
L85035 74361
L85105 74399
L85133 74474
L85082 74886
" />
<path d="M85762 74849
L85682 74886
L85532 74886
L85462 74849
L85433 74774
L85471 74474
L85518 74399
L85597 74361
L85747 74361
L85818 74399
L85846 74474
L85837 74549
L85452 74624
" />
<path d="M86469 74886
L86521 74474
L86493 74399
L86422 74361
L86272 74361
L86193 74399
" />
<path d="M86474 74849
L86394 74886
L86207 74886
L86136 74849
L86108 74774
L86118 74699
L86165 74624
L86244 74586
L86432 74586
L86511 74549
" />
<path d="M86811 74849
L86882 74886
L87032 74886
L87111 74849
L87158 74774
L87163 74736
L87135 74661
L87064 74624
L86952 74624
L86882 74586
L86854 74511
L86858 74474
L86905 74399
L86985 74361
L87097 74361
L87168 74399
" />
<path d="M87885 74361
L87819 74886
" />
<path d="M87547 74361
L87496 74774
L87524 74849
L87594 74886
L87707 74886
L87786 74849
L87828 74811
" />
<path d="M88194 74886
L88260 74361
" />
<path d="M88241 74511
L88288 74436
L88330 74399
L88410 74361
L88485 74361
" />
<path d="M88681 74886
L88747 74361
" />
<path d="M88780 74099
L88738 74136
L88771 74174
L88813 74136
L88780 74099
L88771 74174
" />
<path d="M89122 74361
L89056 74886
" />
<path d="M89113 74436
L89155 74399
L89235 74361
L89347 74361
L89417 74399
L89445 74474
L89394 74886
" />
<path d="M90172 74361
L90092 74999
L90045 75074
L90003 75111
L89924 75149
L89811 75149
L89741 75111
" />
<path d="M90111 74849
L90031 74886
L89881 74886
L89811 74849
L89778 74811
L89750 74736
L89778 74511
L89825 74436
L89867 74399
L89947 74361
L90097 74361
L90167 74399
" />
<path d="M91419 74886
L91517 74099
" />
<path d="M91423 74849
L91344 74886
L91194 74886
L91123 74849
L91091 74811
L91062 74736
L91091 74511
L91137 74436
L91180 74399
L91259 74361
L91409 74361
L91480 74399
" />
<path d="M92098 74849
L92019 74886
L91869 74886
L91798 74849
L91770 74774
L91808 74474
L91855 74399
L91934 74361
L92084 74361
L92154 74399
L92183 74474
L92173 74549
L91789 74624
" />
<path d="M92459 74361
L92581 74886
L92834 74361
" />
<path d="M93068 74886
L93134 74361
" />
<path d="M93167 74099
L93125 74136
L93157 74174
L93200 74136
L93167 74099
L93157 74174
" />
<path d="M93786 74849
L93706 74886
L93556 74886
L93486 74849
L93453 74811
L93425 74736
L93453 74511
L93500 74436
L93542 74399
L93621 74361
L93771 74361
L93842 74399
" />
<path d="M94423 74849
L94343 74886
L94193 74886
L94123 74849
L94095 74774
L94132 74474
L94179 74399
L94259 74361
L94409 74361
L94479 74399
L94507 74474
L94498 74549
L94114 74624
" />
</g>
<g style="fill:#000000; fill-opacity:0.0; 
stroke:#000000; stroke-width:59.0551; stroke-opacity:1; 
stroke-linecap:round; stroke-linejoin:round;">
<path d="M70417 73070
L70220 73070
" />
<path d="M70220 73380
L70220 72789
L70501 72789
" />
<path d="M70726 73380
L70726 72986
" />
<path d="M70726 72789
L70698 72817
L70726 72845
L70754 72817
L70726 72789
L70726 72845
" />
<path d="M71091 73380
L71035 73352
L71007 73295
L71007 72789
" />
<path d="M71541 73352
L71485 73380
L71373 73380
L71316 73352
L71288 73295
L71288 73070
L71316 73014
L71373 72986
L71485 72986
L71541 73014
L71570 73070
L71570 73127
L71288 73183
" />
<path d="M71823 73323
L71851 73352
L71823 73380
L71795 73352
L71823 73323
L71823 73380
" />
<path d="M71823 73014
L71851 73042
L71823 73070
L71795 73042
L71823 73014
L71823 73070
" />
<path d="M72554 73380
L72554 72986
" />
<path d="M72554 73042
L72582 73014
L72638 72986
L72723 72986
L72779 73014
L72807 73070
L72807 73380
" />
<path d="M72807 73070
L72835 73014
L72891 72986
L72976 72986
L73032 73014
L73060 73070
L73060 73380
" />
<path d="M73341 73380
L73341 72986
" />
<path d="M73341 73042
L73369 73014
L73426 72986
L73510 72986
L73566 73014
L73594 73070
L73594 73380
" />
<path d="M73594 73070
L73622 73014
L73679 72986
L73763 72986
L73819 73014
L73847 73070
L73847 73380
" />
<path d="M74072 72789
L74466 72789
L74213 73380
" />
<path d="M74944 73380
L74944 72789
" />
<path d="M74944 73352
L74888 73380
L74775 73380
L74719 73352
L74691 73323
L74663 73267
L74663 73099
L74691 73042
L74719 73014
L74775 72986
L74888 72986
L74944 73014
" />
<path d="M75225 73323
L75253 73352
L75225 73380
L75197 73352
L75225 73323
L75225 73380
" />
<path d="M75507 73380
L75507 72789
" />
<path d="M75563 73155
L75732 73380
" />
<path d="M75732 72986
L75507 73211
" />
<path d="M75985 73380
L75985 72986
" />
<path d="M75985 72789
L75956 72817
L75985 72845
L76013 72817
L75985 72789
L75985 72845
" />
<path d="M76519 73352
L76463 73380
L76350 73380
L76294 73352
L76266 73323
L76238 73267
L76238 73099
L76266 73042
L76294 73014
L76350 72986
L76463 72986
L76519 73014
" />
<path d="M77025 73380
L77025 73070
L76997 73014
L76941 72986
L76828 72986
L76772 73014
" />
<path d="M77025 73352
L76969 73380
L76828 73380
L76772 73352
L76744 73295
L76744 73239
L76772 73183
L76828 73155
L76969 73155
L77025 73127
" />
<path d="M77559 73380
L77559 72789
" />
<path d="M77559 73352
L77503 73380
L77391 73380
L77334 73352
L77306 73323
L77278 73267
L77278 73099
L77306 73042
L77334 73014
L77391 72986
L77503 72986
L77559 73014
" />
<path d="M77700 73436
L78150 73436
" />
<path d="M78291 72986
L78291 73577
" />
<path d="M78291 73014
L78347 72986
L78459 72986
L78516 73014
L78544 73042
L78572 73099
L78572 73267
L78544 73323
L78516 73352
L78459 73380
L78347 73380
L78291 73352
" />
<path d="M79078 73352
L79022 73380
L78909 73380
L78853 73352
L78825 73323
L78797 73267
L78797 73099
L78825 73042
L78853 73014
L78909 72986
L79022 72986
L79078 73014
" />
<path d="M79331 73380
L79331 72789
" />
<path d="M79331 73014
L79387 72986
L79500 72986
L79556 73014
L79584 73042
L79612 73099
L79612 73267
L79584 73323
L79556 73352
L79500 73380
L79387 73380
L79331 73352
" />
<path d="M69685 71459
L112205 71459
" />
<path d="M70192 72289
L70276 72317
L70417 72317
L70473 72289
L70501 72260
L70529 72204
L70529 72148
L70501 72092
L70473 72064
L70417 72036
L70304 72007
L70248 71979
L70220 71951
L70192 71895
L70192 71839
L70220 71782
L70248 71754
L70304 71726
L70445 71726
L70529 71754
" />
<path d="M70782 72317
L70782 71726
" />
<path d="M71035 72317
L71035 72007
L71007 71951
L70951 71923
L70867 71923
L70810 71951
L70782 71979
" />
<path d="M71541 72289
L71485 72317
L71373 72317
L71316 72289
L71288 72232
L71288 72007
L71316 71951
L71373 71923
L71485 71923
L71541 71951
L71570 72007
L71570 72064
L71288 72120
" />
<path d="M72048 72289
L71991 72317
L71879 72317
L71823 72289
L71795 72232
L71795 72007
L71823 71951
L71879 71923
L71991 71923
L72048 71951
L72076 72007
L72076 72064
L71795 72120
" />
<path d="M72244 71923
L72469 71923
" />
<path d="M72329 71726
L72329 72232
L72357 72289
L72413 72317
L72469 72317
" />
<path d="M72666 72260
L72694 72289
L72666 72317
L72638 72289
L72666 72260
L72666 72317
" />
<path d="M72666 71951
L72694 71979
L72666 72007
L72638 71979
L72666 71951
L72666 72007
" />
</g>
<g style="fill:#000000; fill-opacity:0.0; 
stroke:#000000; stroke-width:118.11; stroke-opacity:1; 
stroke-linecap:round; stroke-linejoin:round;">
<path d="M70220 71136
L70220 70545
L70445 70545
L70501 70573
L70529 70601
L70557 70658
L70557 70742
L70529 70798
L70501 70826
L70445 70854
L70220 70854
" />
<path d="M70895 71136
L70838 71108
L70810 71079
L70782 71023
L70782 70854
L70810 70798
L70838 70770
L70895 70742
L70979 70742
L71035 70770
L71063 70798
L71091 70854
L71091 71023
L71063 71079
L71035 71108
L70979 71136
L70895 71136
" />
<path d="M71288 70742
L71598 70742
L71288 71136
L71598 71136
" />
<path d="M71795 71108
L71851 71136
L71963 71136
L72019 71108
L72048 71051
L72048 71023
L72019 70967
L71963 70939
L71879 70939
L71823 70911
L71795 70854
L71795 70826
L71823 70770
L71879 70742
L71963 70742
L72019 70770
" />
<path d="M72554 71136
L72554 70826
L72526 70770
L72469 70742
L72357 70742
L72301 70770
" />
<path d="M72554 71108
L72498 71136
L72357 71136
L72301 71108
L72273 71051
L72273 70995
L72301 70939
L72357 70911
L72498 70911
L72554 70883
" />
<path d="M72835 71136
L72835 70742
" />
<path d="M72835 70854
L72863 70798
L72891 70770
L72947 70742
L73004 70742
" />
<path d="M73594 70545
L73988 70545
L73594 71136
L73988 71136
" />
<path d="M74185 71108
L74241 71136
L74354 71136
L74410 71108
L74438 71051
L74438 71023
L74410 70967
L74354 70939
L74269 70939
L74213 70911
L74185 70854
L74185 70826
L74213 70770
L74269 70742
L74354 70742
L74410 70770
" />
<path d="M74775 71136
L74719 71108
L74691 71079
L74663 71023
L74663 70854
L74691 70798
L74719 70770
L74775 70742
L74860 70742
L74916 70770
L74944 70798
L74972 70854
L74972 71023
L74944 71079
L74916 71108
L74860 71136
L74775 71136
" />
<path d="M75310 71136
L75253 71108
L75225 71051
L75225 70545
" />
<path d="M75450 70742
L75675 70742
" />
<path d="M75535 70545
L75535 71051
L75563 71108
L75619 71136
L75675 71136
" />
<path d="M76322 70911
L76772 70911
" />
<path d="M77503 71136
L77503 70545
" />
<path d="M77756 71136
L77756 70826
L77728 70770
L77672 70742
L77588 70742
L77531 70770
L77503 70798
" />
<path d="M77953 70742
L78178 70742
" />
<path d="M78037 70545
L78037 71051
L78066 71108
L78122 71136
L78178 71136
" />
<path d="M78291 70742
L78516 70742
" />
<path d="M78375 70545
L78375 71051
L78403 71108
L78459 71136
L78516 71136
" />
<path d="M78712 70742
L78712 71332
" />
<path d="M78712 70770
L78769 70742
L78881 70742
L78937 70770
L78965 70798
L78994 70854
L78994 71023
L78965 71079
L78937 71108
L78881 71136
L78769 71136
L78712 71108
" />
<path d="M79247 71079
L79275 71108
L79247 71136
L79219 71108
L79247 71079
L79247 71136
" />
<path d="M79247 70770
L79275 70798
L79247 70826
L79219 70798
L79247 70770
L79247 70826
" />
<path d="M79950 70517
L79444 71276
" />
<path d="M80568 70517
L80062 71276
" />
<path d="M80709 70742
L80822 71136
L80934 70854
L81046 71136
L81159 70742
" />
<path d="M81328 70742
L81440 71136
L81553 70854
L81665 71136
L81778 70742
" />
<path d="M81946 70742
L82059 71136
L82171 70854
L82284 71136
L82396 70742
" />
<path d="M82621 71079
L82649 71108
L82621 71136
L82593 71108
L82621 71079
L82621 71136
" />
<path d="M82874 71108
L82931 71136
L83043 71136
L83099 71108
L83127 71051
L83127 71023
L83099 70967
L83043 70939
L82959 70939
L82903 70911
L82874 70854
L82874 70826
L82903 70770
L82959 70742
L83043 70742
L83099 70770
" />
<path d="M83324 70742
L83634 70742
L83324 71136
L83634 71136
" />
<path d="M84084 71108
L84027 71136
L83915 71136
L83859 71108
L83831 71051
L83831 70826
L83859 70770
L83915 70742
L84027 70742
L84084 70770
L84112 70826
L84112 70883
L83831 70939
" />
<path d="M84365 71136
L84365 70742
" />
<path d="M84365 70854
L84393 70798
L84421 70770
L84477 70742
L84534 70742
" />
<path d="M84983 71136
L84983 70826
L84955 70770
L84899 70742
L84787 70742
L84730 70770
" />
<path d="M84983 71108
L84927 71136
L84787 71136
L84730 71108
L84702 71051
L84702 70995
L84730 70939
L84787 70911
L84927 70911
L84983 70883
" />
<path d="M85180 70742
L85405 70742
" />
<path d="M85265 71136
L85265 70629
L85293 70573
L85349 70545
L85405 70545
" />
<path d="M85602 71136
L85602 70742
" />
<path d="M85602 70545
L85574 70573
L85602 70601
L85630 70573
L85602 70545
L85602 70601
" />
<path d="M85883 70742
L85883 71136
" />
<path d="M85883 70798
L85912 70770
L85968 70742
L86052 70742
L86108 70770
L86136 70826
L86136 71136
" />
<path d="M86671 70742
L86671 71220
L86643 71276
L86615 71304
L86558 71332
L86474 71332
L86418 71304
" />
<path d="M86671 71108
L86615 71136
L86502 71136
L86446 71108
L86418 71079
L86390 71023
L86390 70854
L86418 70798
L86446 70770
L86502 70742
L86615 70742
L86671 70770
" />
<path d="M87036 71136
L86980 71108
L86952 71079
L86924 71023
L86924 70854
L86952 70798
L86980 70770
L87036 70742
L87121 70742
L87177 70770
L87205 70798
L87233 70854
L87233 71023
L87205 71079
L87177 71108
L87121 71136
L87036 71136
" />
<path d="M87486 71136
L87486 70742
" />
<path d="M87486 70798
L87514 70770
L87571 70742
L87655 70742
L87711 70770
L87739 70826
L87739 71136
" />
<path d="M87739 70826
L87768 70770
L87824 70742
L87908 70742
L87964 70770
L87992 70826
L87992 71136
" />
<path d="M88274 71136
L88274 70545
" />
<path d="M88274 70770
L88330 70742
L88442 70742
L88499 70770
L88527 70798
L88555 70854
L88555 71023
L88527 71079
L88499 71108
L88442 71136
L88330 71136
L88274 71108
" />
<path d="M89061 71136
L89061 70826
L89033 70770
L88977 70742
L88864 70742
L88808 70770
" />
<path d="M89061 71108
L89005 71136
L88864 71136
L88808 71108
L88780 71051
L88780 70995
L88808 70939
L88864 70911
L89005 70911
L89061 70883
" />
<path d="M89342 71079
L89370 71108
L89342 71136
L89314 71108
L89342 71079
L89342 71136
" />
<path d="M89624 71136
L89624 70545
" />
<path d="M89877 71136
L89877 70826
L89849 70770
L89792 70742
L89708 70742
L89652 70770
L89624 70798
" />
<path d="M90411 70742
L90411 71136
" />
<path d="M90158 70742
L90158 71051
L90186 71108
L90242 71136
L90327 71136
L90383 71108
L90411 71079
" />
</g>
<g style="fill:#000000; fill-opacity:0.0; 
stroke:#000000; stroke-width:59.0551; stroke-opacity:1; 
stroke-linecap:round; stroke-linejoin:round;">
<path d="M70220 66411
L70220 65821
L70360 65821
L70445 65849
L70501 65905
L70529 65961
L70557 66074
L70557 66158
L70529 66271
L70501 66327
L70445 66383
L70360 66411
L70220 66411
" />
<path d="M70810 66411
L70810 66018
" />
<path d="M70810 66130
L70838 66074
L70867 66046
L70923 66018
L70979 66018
" />
<path d="M71429 66411
L71429 66102
L71401 66046
L71345 66018
L71232 66018
L71176 66046
" />
<path d="M71429 66383
L71373 66411
L71232 66411
L71176 66383
L71148 66327
L71148 66271
L71176 66214
L71232 66186
L71373 66186
L71429 66158
" />
<path d="M71654 66018
L71766 66411
L71879 66130
L71991 66411
L72104 66018
" />
<path d="M72779 66018
L72779 66411
" />
<path d="M72779 66074
L72807 66046
L72863 66018
L72947 66018
L73004 66046
L73032 66102
L73032 66411
" />
<path d="M73397 66411
L73341 66383
L73313 66355
L73285 66299
L73285 66130
L73313 66074
L73341 66046
L73397 66018
L73482 66018
L73538 66046
L73566 66074
L73594 66130
L73594 66299
L73566 66355
L73538 66383
L73482 66411
L73397 66411
" />
<path d="M73847 66355
L73876 66383
L73847 66411
L73819 66383
L73847 66355
L73847 66411
" />
<path d="M74129 66355
L74157 66383
L74129 66411
L74100 66383
L74129 66355
L74129 66411
" />
<path d="M74129 66046
L74157 66074
L74129 66102
L74100 66074
L74129 66046
L74129 66102
" />
<path d="M75141 65821
L74860 65821
L74832 66102
L74860 66074
L74916 66046
L75057 66046
L75113 66074
L75141 66102
L75169 66158
L75169 66299
L75141 66355
L75113 66383
L75057 66411
L74916 66411
L74860 66383
L74832 66355
" />
<path d="M75450 66411
L75563 66411
L75619 66383
L75647 66355
L75703 66271
L75732 66158
L75732 65933
L75703 65877
L75675 65849
L75619 65821
L75507 65821
L75450 65849
L75422 65877
L75394 65933
L75394 66074
L75422 66130
L75450 66158
L75507 66186
L75619 66186
L75675 66158
L75703 66130
L75732 66074
" />
<path d="M76406 65793
L75900 66552
" />
<path d="M76913 66411
L76575 66411
" />
<path d="M76744 66411
L76744 65821
L76688 65905
L76631 65961
L76575 65989
" />
<path d="M77138 65877
L77166 65849
L77222 65821
L77363 65821
L77419 65849
L77447 65877
L77475 65933
L77475 65989
L77447 66074
L77109 66411
L77475 66411
" />
<path d="M78150 65793
L77644 66552
" />
<path d="M78291 65821
L78656 65821
L78459 66046
L78544 66046
L78600 66074
L78628 66102
L78656 66158
L78656 66299
L78628 66355
L78600 66383
L78544 66411
L78375 66411
L78319 66383
L78291 66355
" />
<path d="M77559 75396
L77559 76577
" />
<path d="M102756 75396
L102756 77955
" />
<path d="M57197 27178
L57197 26784
" />
<path d="M57366 27178
L57366 26971
L57347 26934
L57309 26915
L57253 26915
L57216 26934
L57197 26953
" />
<path d="M57497 26915
L57647 26915
" />
<path d="M57553 26784
L57553 27121
L57572 27159
L57609 27178
L57647 27178
" />
<path d="M57722 26915
L57872 26915
" />
<path d="M57778 26784
L57778 27121
L57797 27159
L57834 27178
L57872 27178
" />
<path d="M58003 26915
L58003 27309
" />
<path d="M58003 26934
L58041 26915
L58116 26915
L58153 26934
L58172 26953
L58191 26990
L58191 27103
L58172 27140
L58153 27159
L58116 27178
L58041 27178
L58003 27159
" />
<path d="M58359 27140
L58378 27159
L58359 27178
L58341 27159
L58359 27140
L58359 27178
" />
<path d="M58359 26934
L58378 26953
L58359 26971
L58341 26953
L58359 26934
L58359 26971
" />
<path d="M58828 26765
L58491 27271
" />
<path d="M59240 26765
L58903 27271
" />
<path d="M59334 26915
L59409 27178
L59484 26990
L59559 27178
L59634 26915
" />
<path d="M59747 26915
L59822 27178
L59897 26990
L59972 27178
L60047 26915
" />
<path d="M60159 26915
L60234 27178
L60309 26990
L60384 27178
L60459 26915
" />
<path d="M60609 27140
L60628 27159
L60609 27178
L60590 27159
L60609 27140
L60609 27178
" />
<path d="M60778 27159
L60815 27178
L60890 27178
L60928 27159
L60946 27121
L60946 27103
L60928 27065
L60890 27046
L60834 27046
L60796 27028
L60778 26990
L60778 26971
L60796 26934
L60834 26915
L60890 26915
L60928 26934
" />
<path d="M61078 26915
L61284 26915
L61078 27178
L61284 27178
" />
<path d="M61584 27159
L61546 27178
L61471 27178
L61434 27159
L61415 27121
L61415 26971
L61434 26934
L61471 26915
L61546 26915
L61584 26934
L61603 26971
L61603 27009
L61415 27046
" />
<path d="M61771 27178
L61771 26915
" />
<path d="M61771 26990
L61790 26953
L61809 26934
L61846 26915
L61884 26915
" />
<path d="M62184 27178
L62184 26971
L62165 26934
L62128 26915
L62053 26915
L62015 26934
" />
<path d="M62184 27159
L62146 27178
L62053 27178
L62015 27159
L61996 27121
L61996 27084
L62015 27046
L62053 27028
L62146 27028
L62184 27009
" />
<path d="M62315 26915
L62465 26915
" />
<path d="M62371 27178
L62371 26840
L62390 26803
L62428 26784
L62465 26784
" />
<path d="M62596 27178
L62596 26915
" />
<path d="M62596 26784
L62577 26803
L62596 26821
L62615 26803
L62596 26784
L62596 26821
" />
<path d="M62784 26915
L62784 27178
" />
<path d="M62784 26953
L62802 26934
L62840 26915
L62896 26915
L62934 26934
L62952 26971
L62952 27178
" />
<path d="M63309 26915
L63309 27234
L63290 27271
L63271 27290
L63234 27309
L63177 27309
L63140 27290
" />
<path d="M63309 27159
L63271 27178
L63196 27178
L63159 27159
L63140 27140
L63121 27103
L63121 26990
L63140 26953
L63159 26934
L63196 26915
L63271 26915
L63309 26934
" />
<path d="M63552 27178
L63515 27159
L63496 27140
L63477 27103
L63477 26990
L63496 26953
L63515 26934
L63552 26915
L63609 26915
L63646 26934
L63665 26953
L63684 26990
L63684 27103
L63665 27140
L63646 27159
L63609 27178
L63552 27178
" />
<path d="M63852 27178
L63852 26915
" />
<path d="M63852 26953
L63871 26934
L63909 26915
L63965 26915
L64002 26934
L64021 26971
L64021 27178
" />
<path d="M64021 26971
L64040 26934
L64077 26915
L64134 26915
L64171 26934
L64190 26971
L64190 27178
" />
<path d="M64377 27178
L64377 26784
" />
<path d="M64377 26934
L64415 26915
L64490 26915
L64527 26934
L64546 26953
L64565 26990
L64565 27103
L64546 27140
L64527 27159
L64490 27178
L64415 27178
L64377 27159
" />
<path d="M64902 27178
L64902 26971
L64883 26934
L64846 26915
L64771 26915
L64733 26934
" />
<path d="M64902 27159
L64865 27178
L64771 27178
L64733 27159
L64715 27121
L64715 27084
L64733 27046
L64771 27028
L64865 27028
L64902 27009
" />
<path d="M65090 27140
L65108 27159
L65090 27178
L65071 27159
L65090 27140
L65090 27178
" />
<path d="M65277 27178
L65277 26784
" />
<path d="M65446 27178
L65446 26971
L65427 26934
L65390 26915
L65333 26915
L65296 26934
L65277 26953
" />
<path d="M65802 26915
L65802 27178
" />
<path d="M65633 26915
L65633 27121
L65652 27159
L65690 27178
L65746 27178
L65783 27159
L65802 27140
" />
<path d="M62031 50678
L62031 50284
L62125 50284
L62181 50303
L62218 50340
L62237 50378
L62256 50453
L62256 50509
L62237 50584
L62218 50621
L62181 50659
L62125 50678
L62031 50678
" />
<path d="M62425 50415
L62425 50678
" />
<path d="M62425 50453
L62443 50434
L62481 50415
L62537 50415
L62575 50434
L62593 50471
L62593 50678
" />
<path d="M62781 50640
L62800 50659
L62781 50678
L62762 50659
L62781 50640
L62781 50678
" />
<path d="M62968 50640
L62987 50659
L62968 50678
L62950 50659
L62968 50640
L62968 50678
" />
<path d="M62968 50434
L62987 50453
L62968 50471
L62950 50453
L62968 50434
L62968 50471
" />
<path d="M63643 50284
L63456 50284
L63437 50471
L63456 50453
L63493 50434
L63587 50434
L63625 50453
L63643 50471
L63662 50509
L63662 50603
L63643 50640
L63625 50659
L63587 50678
L63493 50678
L63456 50659
L63437 50640
" />
<path d="M63850 50678
L63925 50678
L63962 50659
L63981 50640
L64018 50584
L64037 50509
L64037 50359
L64018 50321
L64000 50303
L63962 50284
L63887 50284
L63850 50303
L63831 50321
L63812 50359
L63812 50453
L63831 50490
L63850 50509
L63887 50528
L63962 50528
L64000 50509
L64018 50490
L64037 50453
" />
<path d="M64487 50265
L64149 50771
" />
<path d="M64824 50678
L64599 50678
" />
<path d="M64712 50678
L64712 50284
L64674 50340
L64637 50378
L64599 50396
" />
<path d="M64974 50321
L64993 50303
L65031 50284
L65124 50284
L65162 50303
L65181 50321
L65199 50359
L65199 50396
L65181 50453
L64956 50678
L65199 50678
" />
<path d="M65649 50265
L65312 50771
" />
<path d="M65743 50284
L65987 50284
L65856 50434
L65912 50434
L65949 50453
L65968 50471
L65987 50509
L65987 50603
L65968 50640
L65949 50659
L65912 50678
L65799 50678
L65762 50659
L65743 50640
" />
</g>
<g style="fill:#000000; fill-opacity:0.0; 
stroke:#000000; stroke-width:78.7402; stroke-opacity:1; 
stroke-linecap:round; stroke-linejoin:round;">
<path d="M59500 49000
L61500 49000
" />
<path d="M63500 30750
L63500 32500
" />
</g>
<g style="fill:#000000; fill-opacity:0.0; 
stroke:#000000; stroke-width:59.0551; stroke-opacity:1; 
stroke-linecap:round; stroke-linejoin:round;">
<path d="M60850 32778
L61149 32778
" />
<path d="M61000 32928
L61000 32628
" />
<path d="M68350 34778
L68649 34778
" />
<path d="M68500 34928
L68500 34628
" />
<path d="M68350 33778
L68649 33778
" />
<path d="M68350 30278
L68649 30278
" />
<path d="M68350 31278
L68649 31278
" />
<path d="M68500 31428
L68500 31128
" />
<path d="M46800 52200
L46800 24800
" />
<path d="M70000 52200
L46800 52200
" />
<path d="M70000 24800
L70000 52200
" />
<path d="M48800 24800
L70000 24800
" />
<path d="M48800 24800
L46800 24800
" />
</g>
<g style="fill:#000000; fill-opacity:0.0; 
stroke:#000000; stroke-width:78.7402; stroke-opacity:1; 
stroke-linecap:round; stroke-linejoin:round;">
<path d="M48800 28550
L67800 28550
" />
<path d="M49050 48300
L68050 48300
" />
</g>
<g style="fill:#000000; fill-opacity:0.0; 
stroke:#000000; stroke-width:47.2441; stroke-opacity:1; 
stroke-linecap:round; stroke-linejoin:round;">
<path d="M66976 32023
L68023 32023
" />
<path d="M66976 31000
L66976 32023
" />
<path d="M68023 31000
L68023 32023
" />
<path d="M66976 31000
L68023 31000
" />
<path d="M66976 30500
L66976 29976
" />
<path d="M66976 29976
L67500 29976
" />
<circle cx="54500" cy="50500" r="539.37" /> 
<path d="M53960 50500
L52933 50500
" />
<path d="M66960 47000
L65933 47000
" />
<circle cx="67500" cy="47000" r="539.37" /> 
<circle cx="67500" cy="45500" r="539.37" /> 
<path d="M66960 45500
L65933 45500
" />
<circle cx="67500" cy="41000" r="539.37" /> 
<path d="M66960 41000
L65933 41000
" />
<path d="M66960 42500
L65933 42500
" />
<circle cx="67500" cy="42500" r="539.37" /> 
<path d="M57000 30539
L57000 31566
" />
<circle cx="57000" cy="30000" r="539.37" /> 
<circle cx="55500" cy="30000" r="539.37" /> 
<path d="M55500 30539
L55500 31566
" />
<path d="M62925 47614
L62986 47614
" />
<path d="M62013 47614
L62074 47614
" />
<path d="M62925.2 47409.8 A590.551 590.551 0.0 0 0 62925.1 46590.1 " />
<path d="M62074.9 46590.1 A590.551 590.551 0.0 0 0 62074.8 47409.8 " />
<path d="M62986.4 47614.2 A783.465 783.465 0.0 0 0 62924.6 46341.6 " />
<path d="M62075.4 46341.6 A783.465 783.465 0.0 0 0 62013.6 47614.2 " />
<path d="M60075.4 46341.6 A783.465 783.465 0.0 0 0 60013.6 47614.2 " />
<path d="M60986.4 47614.2 A783.465 783.465 0.0 0 0 60924.6 46341.6 " />
<path d="M60074.9 46590.1 A590.551 590.551 0.0 0 0 60074.8 47409.8 " />
<path d="M60925.2 47409.8 A590.551 590.551 0.0 0 0 60925.1 46590.1 " />
<path d="M60013 47614
L60074 47614
" />
<path d="M60925 47614
L60986 47614
" />
<path d="M58925 47614
L58986 47614
" />
<path d="M58013 47614
L58074 47614
" />
<path d="M58925.2 47409.8 A590.551 590.551 0.0 0 0 58925.1 46590.1 " />
<path d="M58074.9 46590.1 A590.551 590.551 0.0 0 0 58074.8 47409.8 " />
<path d="M58986.4 47614.2 A783.465 783.465 0.0 0 0 58924.6 46341.6 " />
<path d="M58075.4 46341.6 A783.465 783.465 0.0 0 0 58013.6 47614.2 " />
<path d="M56075.4 46341.6 A783.465 783.465 0.0 0 0 56013.6 47614.2 " />
<path d="M56986.4 47614.2 A783.465 783.465 0.0 0 0 56924.6 46341.6 " />
<path d="M56074.9 46590.1 A590.551 590.551 0.0 0 0 56074.8 47409.8 " />
<path d="M56925.2 47409.8 A590.551 590.551 0.0 0 0 56925.1 46590.1 " />
<path d="M56013 47614
L56074 47614
" />
<path d="M56925 47614
L56986 47614
" />
<path d="M54925 47614
L54986 47614
" />
<path d="M54013 47614
L54074 47614
" />
<path d="M54925.2 47409.8 A590.551 590.551 0.0 0 0 54925.1 46590.1 " />
<path d="M54074.9 46590.1 A590.551 590.551 0.0 0 0 54074.8 47409.8 " />
<path d="M54986.4 47614.2 A783.465 783.465 0.0 0 0 54924.6 46341.6 " />
<path d="M54075.4 46341.6 A783.465 783.465 0.0 0 0 54013.6 47614.2 " />
<path d="M66960 44000
L65933 44000
" />
<circle cx="67500" cy="44000" r="539.37" /> 
<path d="M50960 33960
L50960 35039
" />
<path d="M61039 33960
L50960 33960
" />
<path d="M61039 35039
L61039 33960
" />
<path d="M50960 35039
L61039 35039
" />
<path d="M50960 41960
L50960 43039
" />
<path d="M61039 41960
L50960 41960
" />
<path d="M61039 43039
L61039 41960
" />
<path d="M50960 43039
L61039 43039
" />
<path d="M48901 43598
L48901 42909
" />
<path d="M49590 43598
L48901 43598
" />
<path d="M50000 33452
L63000 33452
" />
<path d="M50000 43547
L63000 43547
" />
<path d="M64047 42500
L64047 34500
" />
<path d="M48952 42500
L48952 34500
" />
<path d="M63000 43547.2 A1047.24 1047.24 0.0 0 0 64047.2 42500 " />
<path d="M64047.2 34500 A1047.24 1047.24 0.0 0 0 63000 33452.8 " />
<path d="M50000 33452.8 A1047.24 1047.24 0.0 0 0 48952.8 34500 " />
<path d="M48952.8 42500 A1047.24 1047.24 0.0 0 0 50000 43547.2 " />
<path d="M64486 34320
L64486 34517
" />
<path d="M64387 34419
L64584 34419
" />
<path d="M66516 34888
L66516 35111
" />
<path d="M66500 34796
L66500 35203
" />
<path d="M66484 34733
L66484 35266
" />
<path d="M66468 34683
L66468 35316
" />
<path d="M66453 34639
L66453 35360
" />
<path d="M66437 34601
L66437 35398
" />
<path d="M66421 34567
L66421 35432
" />
<path d="M66405 34536
L66405 35463
" />
<path d="M66390 35409
L66390 35492
" />
<path d="M66390 34507
L66390 34590
" />
<path d="M66374 35409
L66374 35519
" />
<path d="M66374 34480
L66374 34590
" />
<path d="M66358 35409
L66358 35544
" />
<path d="M66358 34455
L66358 34590
" />
<path d="M66342 35409
L66342 35568
" />
<path d="M66342 34431
L66342 34590
" />
<path d="M66327 35409
L66327 35590
" />
<path d="M66327 34409
L66327 34590
" />
<path d="M66311 35409
L66311 35611
" />
<path d="M66311 34388
L66311 34590
" />
<path d="M66295 35409
L66295 35631
" />
<path d="M66295 34368
L66295 34590
" />
<path d="M66279 35409
L66279 35650
" />
<path d="M66279 34349
L66279 34590
" />
<path d="M66264 35409
L66264 35668
" />
<path d="M66264 34331
L66264 34590
" />
<path d="M66248 35409
L66248 35686
" />
<path d="M66248 34313
L66248 34590
" />
<path d="M66232 35409
L66232 35702
" />
<path d="M66232 34297
L66232 34590
" />
<path d="M66216 35409
L66216 35718
" />
<path d="M66216 34281
L66216 34590
" />
<path d="M66201 35409
L66201 35733
" />
<path d="M66201 34266
L66201 34590
" />
<path d="M66185 35409
L66185 35748
" />
<path d="M66185 34251
L66185 34590
" />
<path d="M66169 35409
L66169 35762
" />
<path d="M66169 34237
L66169 34590
" />
<path d="M66153 35409
L66153 35775
" />
<path d="M66153 34224
L66153 34590
" />
<path d="M66138 35409
L66138 35788
" />
<path d="M66138 34211
L66138 34590
" />
<path d="M66122 35409
L66122 35801
" />
<path d="M66122 34198
L66122 34590
" />
<path d="M66106 35409
L66106 35812
" />
<path d="M66106 34187
L66106 34590
" />
<path d="M66090 35409
L66090 35824
" />
<path d="M66090 34175
L66090 34590
" />
<path d="M66075 35409
L66075 35835
" />
<path d="M66075 34164
L66075 34590
" />
<path d="M66059 35409
L66059 35846
" />
<path d="M66059 34153
L66059 34590
" />
<path d="M66043 35409
L66043 35856
" />
<path d="M66043 34143
L66043 34590
" />
<path d="M66027 35409
L66027 35866
" />
<path d="M66027 34133
L66027 34590
" />
<path d="M66012 35409
L66012 35875
" />
<path d="M66012 34124
L66012 34590
" />
<path d="M65996 35409
L65996 35884
" />
<path d="M65996 34115
L65996 34590
" />
<path d="M65980 35409
L65980 35892
" />
<path d="M65980 34107
L65980 34590
" />
<path d="M65964 35409
L65964 35901
" />
<path d="M65964 34098
L65964 34590
" />
<path d="M65949 35409
L65949 35909
" />
<path d="M65949 34090
L65949 34590
" />
<path d="M65933 35409
L65933 35916
" />
<path d="M65933 34083
L65933 34590
" />
<path d="M65917 35409
L65917 35924
" />
<path d="M65917 34075
L65917 34590
" />
<path d="M65901 35409
L65901 35931
" />
<path d="M65901 34068
L65901 34590
" />
<path d="M65886 35409
L65886 35937
" />
<path d="M65886 34062
L65886 34590
" />
<path d="M65870 35409
L65870 35944
" />
<path d="M65870 34055
L65870 34590
" />
<path d="M65854 35409
L65854 35950
" />
<path d="M65854 34049
L65854 34590
" />
<path d="M65838 35409
L65838 35955
" />
<path d="M65838 34044
L65838 34590
" />
<path d="M65823 35409
L65823 35961
" />
<path d="M65823 34038
L65823 34590
" />
<path d="M65807 35409
L65807 35966
" />
<path d="M65807 34033
L65807 34590
" />
<path d="M65791 35409
L65791 35971
" />
<path d="M65791 34028
L65791 34590
" />
<path d="M65775 35409
L65775 35976
" />
<path d="M65775 34023
L65775 34590
" />
<path d="M65759 35409
L65759 35980
" />
<path d="M65759 34019
L65759 34590
" />
<path d="M65744 35409
L65744 35984
" />
<path d="M65744 34015
L65744 34590
" />
<path d="M65728 35409
L65728 35988
" />
<path d="M65728 34011
L65728 34590
" />
<path d="M65712 35409
L65712 35992
" />
<path d="M65712 34007
L65712 34590
" />
<path d="M65696 35409
L65696 35995
" />
<path d="M65696 34004
L65696 34590
" />
<path d="M65681 35409
L65681 35998
" />
<path d="M65681 34001
L65681 34590
" />
<path d="M65665 35409
L65665 36001
" />
<path d="M65665 33998
L65665 34590
" />
<path d="M65649 35409
L65649 36003
" />
<path d="M65649 33996
L65649 34590
" />
<path d="M65633 35409
L65633 36006
" />
<path d="M65633 33993
L65633 34590
" />
<path d="M65618 35409
L65618 36008
" />
<path d="M65618 33991
L65618 34590
" />
<path d="M65602 35409
L65602 36009
" />
<path d="M65602 33990
L65602 34590
" />
<path d="M65586 35409
L65586 36011
" />
<path d="M65586 33988
L65586 34590
" />
<path d="M65570 33987
L65570 36012
" />
<path d="M65555 33985
L65555 36014
" />
<path d="M65539 33985
L65539 36014
" />
<path d="M65523 33984
L65523 36015
" />
<path d="M65507 33984
L65507 36015
" />
<path d="M65492 33984
L65492 36015
" />
<circle cx="65492.1" cy="35000" r="1031.5" /> 
<path d="M65500 31356
L65500 31830
" />
<circle cx="65500" cy="30500" r="856.259" /> 
<path d="M66976 33476
L67500 33476
" />
<path d="M66976 34000
L66976 33476
" />
<path d="M66976 34500
L68023 34500
" />
<path d="M68023 34500
L68023 35523
" />
<path d="M66976 34500
L66976 35523
" />
<path d="M66976 35523
L68023 35523
" />
</g>
<g style="fill:#000000; fill-opacity:0.0; 
stroke:#000000; stroke-width:59.0551; stroke-opacity:1; 
stroke-linecap:round; stroke-linejoin:round;">
<path d="M58000 51000
L61000 51000
" />
<path d="M58000 50000
L61000 50000
" />
<path d="M56889 49889
L57500 49889
" />
<path d="M61000 51000
L61000 50000
" />
<path d="M58000 50000
L58000 51000
" />
<path d="M57500 51110
L56889 51110
" />
<path d="M56889 51110
L56889 49889
" />
<path d="M53000 27500
L56000 27500
" />
<path d="M53000 26500
L56000 26500
" />
<path d="M51889 26389
L52500 26389
" />
<path d="M56000 27500
L56000 26500
" />
<path d="M53000 26500
L53000 27500
" />
<path d="M52500 27610
L51889 27610
" />
<path d="M51889 27610
L51889 26389
" />
<path d="M59425 30722
L62574 30722
" />
<path d="M59427 30667
L62572 30667
" />
<path d="M59431 30612
L62568 30612
" />
<path d="M59437 30557
L62562 30557
" />
<path d="M59445 30501
L62554 30501
" />
<path d="M59455 30446
L62544 30446
" />
<path d="M59466 30391
L60931 30391
" />
<path d="M61068 30391
L62533 30391
" />
<path d="M59481 30336
L60789 30336
" />
<path d="M61210 30336
L62518 30336
" />
<path d="M59497 30281
L60720 30281
" />
<path d="M61279 30281
L62502 30281
" />
<path d="M59515 30226
L60675 30226
" />
<path d="M61324 30226
L62484 30226
" />
<path d="M59536 30171
L60643 30171
" />
<path d="M61356 30171
L62463 30171
" />
<path d="M59559 30116
L60622 30116
" />
<path d="M61377 30116
L62440 30116
" />
<path d="M59585 30061
L60610 30061
" />
<path d="M61389 30061
L62414 30061
" />
<path d="M59612 30005
L60606 30005
" />
<path d="M61393 30005
L62387 30005
" />
<path d="M59644 29950
L60609 29950
" />
<path d="M61390 29950
L62355 29950
" />
<path d="M59678 29895
L60621 29895
" />
<path d="M61378 29895
L62321 29895
" />
<path d="M59715 29840
L60641 29840
" />
<path d="M61358 29840
L62284 29840
" />
<path d="M59756 29785
L60672 29785
" />
<path d="M61327 29785
L62243 29785
" />
<path d="M59801 29730
L60716 29730
" />
<path d="M61283 29730
L62198 29730
" />
<path d="M59850 29675
L60783 29675
" />
<path d="M61216 29675
L62149 29675
" />
<path d="M59905 29620
L60912 29620
" />
<path d="M61087 29620
L62094 29620
" />
<path d="M59964 29564
L62035 29564
" />
<path d="M60031 29509
L61968 29509
" />
<path d="M60107 29454
L61892 29454
" />
<path d="M60192 29399
L61807 29399
" />
<path d="M60293 29344
L61706 29344
" />
<path d="M60416 29289
L61583 29289
" />
<path d="M60579 29234
L61420 29234
" />
<path d="M60921 29179
L61078 29179
" />
<circle cx="61000" cy="30003.9" r="393.701" /> 
<circle cx="61000" cy="30752" r="1589.57" /> 
<path d="M66229 31776
L65835 31776
" />
<path d="M66229 31551
L66004 31720
" />
<path d="M65835 31551
L66060 31776
" />
</g> 
</svg>
