<?xml version="1.0" standalone="no"?>
 <!DOCTYPE svg PUBLIC "-//W3C//DTD SVG 1.1//EN" 
 "http://www.w3.org/Graphics/SVG/1.1/DTD/svg11.dtd"> 
<svg xmlns="http://www.w3.org/2000/svg" version="1.1" 
    width="29.7002cm" height="21.0007cm" viewBox="0 0 116930 82680 ">
<title>SVG Picture created as wiring.svg date 2024/03/17 19:24:11 </title>
  <desc>Picture generated by Eeschema-SVG </desc>
<g style="fill:#000000; fill-opacity:1;stroke:#000000; stroke-opacity:1;
stroke-linecap:round; stroke-linejoin:round; "
 transform="translate(0 0) scale(1 1)">
</g>
<g style="fill:#000000; fill-opacity:0.0; 
stroke:#000000; stroke-width:-10; stroke-opacity:1; 
stroke-linecap:round; stroke-linejoin:round;">
</g>
<g style="fill:#840000; fill-opacity:0.0; 
stroke:#840000; stroke-width:-10; stroke-opacity:1; 
stroke-linecap:round; stroke-linejoin:round;">
</g>
<g style="fill:#840000; fill-opacity:0.0; 
stroke:#840000; stroke-width:100; stroke-opacity:1; 
stroke-linecap:round; stroke-linejoin:round;">
</g>
<g style="fill:#840000; fill-opacity:0.0; 
stroke:#840000; stroke-width:60; stroke-opacity:1; 
stroke-linecap:round; stroke-linejoin:round;">
<rect x="69690" y="65360" width="42520" height="12600" rx="0" />
</g>
<g style="fill:#840000; fill-opacity:0.0; 
stroke:#840000; stroke-width:100; stroke-opacity:1; 
stroke-linecap:round; stroke-linejoin:round;">
</g>
<g style="fill:#840000; fill-opacity:0.0; 
stroke:#840000; stroke-width:60; stroke-opacity:1; 
stroke-linecap:round; stroke-linejoin:round;">
<rect x="3940" y="3940" width="109050" height="74800" rx="0" />
</g>
<g style="fill:#840000; fill-opacity:0.0; 
stroke:#840000; stroke-width:100; stroke-opacity:1; 
stroke-linecap:round; stroke-linejoin:round;">
</g>
<g style="fill:#840000; fill-opacity:0.0; 
stroke:#840000; stroke-width:60; stroke-opacity:1; 
stroke-linecap:round; stroke-linejoin:round;">
<rect x="4720" y="4720" width="107490" height="73240" rx="0" />
</g>
<g style="fill:#840000; fill-opacity:0.0; 
stroke:#840000; stroke-width:100; stroke-opacity:1; 
stroke-linecap:round; stroke-linejoin:round;">
</g>
<g style="fill:#840000; fill-opacity:0.0; 
stroke:#840000; stroke-width:60; stroke-opacity:1; 
stroke-linecap:round; stroke-linejoin:round;">
<path d="M23620 4720
L23620 3940
" />
</g>
<g style="fill:#840000; fill-opacity:0.0; 
stroke:#840000; stroke-width:100; stroke-opacity:1; 
stroke-linecap:round; stroke-linejoin:round;">
</g>
<g style="fill:#840000; fill-opacity:0.0; 
stroke:#840000; stroke-width:60; stroke-opacity:1; 
stroke-linecap:round; stroke-linejoin:round;">
<path d="M43310 4720
L43310 3940
" />
</g>
<g style="fill:#840000; fill-opacity:0.0; 
stroke:#840000; stroke-width:100; stroke-opacity:1; 
stroke-linecap:round; stroke-linejoin:round;">
</g>
<g style="fill:#840000; fill-opacity:0.0; 
stroke:#840000; stroke-width:60; stroke-opacity:1; 
stroke-linecap:round; stroke-linejoin:round;">
<path d="M62990 4720
L62990 3940
" />
</g>
<g style="fill:#840000; fill-opacity:0.0; 
stroke:#840000; stroke-width:100; stroke-opacity:1; 
stroke-linecap:round; stroke-linejoin:round;">
</g>
<g style="fill:#840000; fill-opacity:0.0; 
stroke:#840000; stroke-width:60; stroke-opacity:1; 
stroke-linecap:round; stroke-linejoin:round;">
<path d="M82680 4720
L82680 3940
" />
</g>
<g style="fill:#840000; fill-opacity:0.0; 
stroke:#840000; stroke-width:100; stroke-opacity:1; 
stroke-linecap:round; stroke-linejoin:round;">
</g>
<g style="fill:#840000; fill-opacity:0.0; 
stroke:#840000; stroke-width:60; stroke-opacity:1; 
stroke-linecap:round; stroke-linejoin:round;">
<path d="M102360 4720
L102360 3940
" />
</g>
<g style="fill:#840000; fill-opacity:0.0; 
stroke:#840000; stroke-width:100; stroke-opacity:1; 
stroke-linecap:round; stroke-linejoin:round;">
</g>
<g style="fill:#840000; fill-opacity:0.0; 
stroke:#840000; stroke-width:60; stroke-opacity:1; 
stroke-linecap:round; stroke-linejoin:round;">
<text x="13780" y="4580"
textLength="550" font-size="680" lengthAdjust="spacingAndGlyphs"
text-anchor="start" opacity="0">1</text>
<path d="M14190 4560
L13900 4560
" />
<path d="M14050 4560
L14050 4050
L14000 4120
L13950 4170
L13900 4190
" />
</g>
<g style="fill:#840000; fill-opacity:0.0; 
stroke:#840000; stroke-width:100; stroke-opacity:1; 
stroke-linecap:round; stroke-linejoin:round;">
</g>
<g style="fill:#840000; fill-opacity:0.0; 
stroke:#840000; stroke-width:60; stroke-opacity:1; 
stroke-linecap:round; stroke-linejoin:round;">
<text x="33460" y="4580"
textLength="550" font-size="680" lengthAdjust="spacingAndGlyphs"
text-anchor="start" opacity="0">2</text>
<path d="M33580 4090
L33610 4070
L33660 4050
L33780 4050
L33830 4070
L33850 4090
L33870 4140
L33870 4190
L33850 4260
L33560 4560
L33870 4560
" />
</g>
<g style="fill:#840000; fill-opacity:0.0; 
stroke:#840000; stroke-width:100; stroke-opacity:1; 
stroke-linecap:round; stroke-linejoin:round;">
</g>
<g style="fill:#840000; fill-opacity:0.0; 
stroke:#840000; stroke-width:60; stroke-opacity:1; 
stroke-linecap:round; stroke-linejoin:round;">
<text x="53150" y="4580"
textLength="550" font-size="680" lengthAdjust="spacingAndGlyphs"
text-anchor="start" opacity="0">3</text>
<path d="M53250 4050
L53560 4050
L53390 4240
L53470 4240
L53520 4260
L53540 4290
L53560 4340
L53560 4460
L53540 4510
L53520 4530
L53470 4560
L53320 4560
L53270 4530
L53250 4510
" />
</g>
<g style="fill:#840000; fill-opacity:0.0; 
stroke:#840000; stroke-width:100; stroke-opacity:1; 
stroke-linecap:round; stroke-linejoin:round;">
</g>
<g style="fill:#840000; fill-opacity:0.0; 
stroke:#840000; stroke-width:60; stroke-opacity:1; 
stroke-linecap:round; stroke-linejoin:round;">
<text x="72830" y="4580"
textLength="550" font-size="680" lengthAdjust="spacingAndGlyphs"
text-anchor="start" opacity="0">4</text>
<path d="M73200 4220
L73200 4560
" />
<path d="M73070 4020
L72950 4390
L73270 4390
" />
</g>
<g style="fill:#840000; fill-opacity:0.0; 
stroke:#840000; stroke-width:100; stroke-opacity:1; 
stroke-linecap:round; stroke-linejoin:round;">
</g>
<g style="fill:#840000; fill-opacity:0.0; 
stroke:#840000; stroke-width:60; stroke-opacity:1; 
stroke-linecap:round; stroke-linejoin:round;">
<text x="92520" y="4580"
textLength="550" font-size="680" lengthAdjust="spacingAndGlyphs"
text-anchor="start" opacity="0">5</text>
<path d="M92910 4050
L92670 4050
L92640 4290
L92670 4260
L92720 4240
L92840 4240
L92890 4260
L92910 4290
L92930 4340
L92930 4460
L92910 4510
L92890 4530
L92840 4560
L92720 4560
L92670 4530
L92640 4510
" />
</g>
<g style="fill:#840000; fill-opacity:0.0; 
stroke:#840000; stroke-width:100; stroke-opacity:1; 
stroke-linecap:round; stroke-linejoin:round;">
</g>
<g style="fill:#840000; fill-opacity:0.0; 
stroke:#840000; stroke-width:60; stroke-opacity:1; 
stroke-linecap:round; stroke-linejoin:round;">
<text x="112200" y="4580"
textLength="550" font-size="680" lengthAdjust="spacingAndGlyphs"
text-anchor="start" opacity="0">6</text>
<path d="M112570 4050
L112470 4050
L112420 4070
L112400 4090
L112350 4170
L112320 4260
L112320 4460
L112350 4510
L112370 4530
L112420 4560
L112520 4560
L112570 4530
L112590 4510
L112610 4460
L112610 4340
L112590 4290
L112570 4260
L112520 4240
L112420 4240
L112370 4260
L112350 4290
L112320 4340
" />
</g>
<g style="fill:#840000; fill-opacity:0.0; 
stroke:#840000; stroke-width:100; stroke-opacity:1; 
stroke-linecap:round; stroke-linejoin:round;">
</g>
<g style="fill:#840000; fill-opacity:0.0; 
stroke:#840000; stroke-width:60; stroke-opacity:1; 
stroke-linecap:round; stroke-linejoin:round;">
<path d="M23620 77960
L23620 78740
" />
</g>
<g style="fill:#840000; fill-opacity:0.0; 
stroke:#840000; stroke-width:100; stroke-opacity:1; 
stroke-linecap:round; stroke-linejoin:round;">
</g>
<g style="fill:#840000; fill-opacity:0.0; 
stroke:#840000; stroke-width:60; stroke-opacity:1; 
stroke-linecap:round; stroke-linejoin:round;">
<path d="M43310 77960
L43310 78740
" />
</g>
<g style="fill:#840000; fill-opacity:0.0; 
stroke:#840000; stroke-width:100; stroke-opacity:1; 
stroke-linecap:round; stroke-linejoin:round;">
</g>
<g style="fill:#840000; fill-opacity:0.0; 
stroke:#840000; stroke-width:60; stroke-opacity:1; 
stroke-linecap:round; stroke-linejoin:round;">
<path d="M62990 77960
L62990 78740
" />
</g>
<g style="fill:#840000; fill-opacity:0.0; 
stroke:#840000; stroke-width:100; stroke-opacity:1; 
stroke-linecap:round; stroke-linejoin:round;">
</g>
<g style="fill:#840000; fill-opacity:0.0; 
stroke:#840000; stroke-width:60; stroke-opacity:1; 
stroke-linecap:round; stroke-linejoin:round;">
<path d="M82680 77960
L82680 78740
" />
</g>
<g style="fill:#840000; fill-opacity:0.0; 
stroke:#840000; stroke-width:100; stroke-opacity:1; 
stroke-linecap:round; stroke-linejoin:round;">
</g>
<g style="fill:#840000; fill-opacity:0.0; 
stroke:#840000; stroke-width:60; stroke-opacity:1; 
stroke-linecap:round; stroke-linejoin:round;">
<path d="M102360 77960
L102360 78740
" />
</g>
<g style="fill:#840000; fill-opacity:0.0; 
stroke:#840000; stroke-width:100; stroke-opacity:1; 
stroke-linecap:round; stroke-linejoin:round;">
</g>
<g style="fill:#840000; fill-opacity:0.0; 
stroke:#840000; stroke-width:60; stroke-opacity:1; 
stroke-linecap:round; stroke-linejoin:round;">
<text x="13780" y="78600"
textLength="550" font-size="680" lengthAdjust="spacingAndGlyphs"
text-anchor="start" opacity="0">1</text>
<path d="M14190 78580
L13900 78580
" />
<path d="M14050 78580
L14050 78070
L14000 78140
L13950 78190
L13900 78210
" />
</g>
<g style="fill:#840000; fill-opacity:0.0; 
stroke:#840000; stroke-width:100; stroke-opacity:1; 
stroke-linecap:round; stroke-linejoin:round;">
</g>
<g style="fill:#840000; fill-opacity:0.0; 
stroke:#840000; stroke-width:60; stroke-opacity:1; 
stroke-linecap:round; stroke-linejoin:round;">
<text x="33460" y="78600"
textLength="550" font-size="680" lengthAdjust="spacingAndGlyphs"
text-anchor="start" opacity="0">2</text>
<path d="M33580 78110
L33610 78090
L33660 78070
L33780 78070
L33830 78090
L33850 78110
L33870 78160
L33870 78210
L33850 78280
L33560 78580
L33870 78580
" />
</g>
<g style="fill:#840000; fill-opacity:0.0; 
stroke:#840000; stroke-width:100; stroke-opacity:1; 
stroke-linecap:round; stroke-linejoin:round;">
</g>
<g style="fill:#840000; fill-opacity:0.0; 
stroke:#840000; stroke-width:60; stroke-opacity:1; 
stroke-linecap:round; stroke-linejoin:round;">
<text x="53150" y="78600"
textLength="550" font-size="680" lengthAdjust="spacingAndGlyphs"
text-anchor="start" opacity="0">3</text>
<path d="M53250 78070
L53560 78070
L53390 78260
L53470 78260
L53520 78280
L53540 78310
L53560 78360
L53560 78480
L53540 78530
L53520 78550
L53470 78580
L53320 78580
L53270 78550
L53250 78530
" />
</g>
<g style="fill:#840000; fill-opacity:0.0; 
stroke:#840000; stroke-width:100; stroke-opacity:1; 
stroke-linecap:round; stroke-linejoin:round;">
</g>
<g style="fill:#840000; fill-opacity:0.0; 
stroke:#840000; stroke-width:60; stroke-opacity:1; 
stroke-linecap:round; stroke-linejoin:round;">
<text x="72830" y="78600"
textLength="550" font-size="680" lengthAdjust="spacingAndGlyphs"
text-anchor="start" opacity="0">4</text>
<path d="M73200 78240
L73200 78580
" />
<path d="M73070 78040
L72950 78410
L73270 78410
" />
</g>
<g style="fill:#840000; fill-opacity:0.0; 
stroke:#840000; stroke-width:100; stroke-opacity:1; 
stroke-linecap:round; stroke-linejoin:round;">
</g>
<g style="fill:#840000; fill-opacity:0.0; 
stroke:#840000; stroke-width:60; stroke-opacity:1; 
stroke-linecap:round; stroke-linejoin:round;">
<text x="92520" y="78600"
textLength="550" font-size="680" lengthAdjust="spacingAndGlyphs"
text-anchor="start" opacity="0">5</text>
<path d="M92910 78070
L92670 78070
L92640 78310
L92670 78280
L92720 78260
L92840 78260
L92890 78280
L92910 78310
L92930 78360
L92930 78480
L92910 78530
L92890 78550
L92840 78580
L92720 78580
L92670 78550
L92640 78530
" />
</g>
<g style="fill:#840000; fill-opacity:0.0; 
stroke:#840000; stroke-width:100; stroke-opacity:1; 
stroke-linecap:round; stroke-linejoin:round;">
</g>
<g style="fill:#840000; fill-opacity:0.0; 
stroke:#840000; stroke-width:60; stroke-opacity:1; 
stroke-linecap:round; stroke-linejoin:round;">
<text x="112200" y="78600"
textLength="550" font-size="680" lengthAdjust="spacingAndGlyphs"
text-anchor="start" opacity="0">6</text>
<path d="M112570 78070
L112470 78070
L112420 78090
L112400 78110
L112350 78190
L112320 78280
L112320 78480
L112350 78530
L112370 78550
L112420 78580
L112520 78580
L112570 78550
L112590 78530
L112610 78480
L112610 78360
L112590 78310
L112570 78280
L112520 78260
L112420 78260
L112370 78280
L112350 78310
L112320 78360
" />
</g>
<g style="fill:#840000; fill-opacity:0.0; 
stroke:#840000; stroke-width:100; stroke-opacity:1; 
stroke-linecap:round; stroke-linejoin:round;">
</g>
<g style="fill:#840000; fill-opacity:0.0; 
stroke:#840000; stroke-width:60; stroke-opacity:1; 
stroke-linecap:round; stroke-linejoin:round;">
<path d="M3940 23620
L4720 23620
" />
</g>
<g style="fill:#840000; fill-opacity:0.0; 
stroke:#840000; stroke-width:100; stroke-opacity:1; 
stroke-linecap:round; stroke-linejoin:round;">
</g>
<g style="fill:#840000; fill-opacity:0.0; 
stroke:#840000; stroke-width:60; stroke-opacity:1; 
stroke-linecap:round; stroke-linejoin:round;">
<path d="M3940 43310
L4720 43310
" />
</g>
<g style="fill:#840000; fill-opacity:0.0; 
stroke:#840000; stroke-width:100; stroke-opacity:1; 
stroke-linecap:round; stroke-linejoin:round;">
</g>
<g style="fill:#840000; fill-opacity:0.0; 
stroke:#840000; stroke-width:60; stroke-opacity:1; 
stroke-linecap:round; stroke-linejoin:round;">
<path d="M3940 62990
L4720 62990
" />
</g>
<g style="fill:#840000; fill-opacity:0.0; 
stroke:#840000; stroke-width:100; stroke-opacity:1; 
stroke-linecap:round; stroke-linejoin:round;">
</g>
<g style="fill:#840000; fill-opacity:0.0; 
stroke:#840000; stroke-width:60; stroke-opacity:1; 
stroke-linecap:round; stroke-linejoin:round;">
<text x="4330" y="14030"
textLength="500" font-size="680" lengthAdjust="spacingAndGlyphs"
text-anchor="middle" opacity="0">A</text>
<path d="M4200 13860
L4450 13860
" />
<path d="M4160 14010
L4330 13500
L4500 14010
" />
</g>
<g style="fill:#840000; fill-opacity:0.0; 
stroke:#840000; stroke-width:100; stroke-opacity:1; 
stroke-linecap:round; stroke-linejoin:round;">
</g>
<g style="fill:#840000; fill-opacity:0.0; 
stroke:#840000; stroke-width:60; stroke-opacity:1; 
stroke-linecap:round; stroke-linejoin:round;">
<text x="4330" y="33710"
textLength="570" font-size="680" lengthAdjust="spacingAndGlyphs"
text-anchor="middle" opacity="0">B</text>
<path d="M4360 33420
L4430 33440
L4460 33470
L4480 33520
L4480 33590
L4460 33640
L4430 33660
L4390 33690
L4190 33690
L4190 33180
L4360 33180
L4410 33200
L4430 33220
L4460 33270
L4460 33320
L4430 33370
L4410 33390
L4360 33420
L4190 33420
" />
</g>
<g style="fill:#840000; fill-opacity:0.0; 
stroke:#840000; stroke-width:100; stroke-opacity:1; 
stroke-linecap:round; stroke-linejoin:round;">
</g>
<g style="fill:#840000; fill-opacity:0.0; 
stroke:#840000; stroke-width:60; stroke-opacity:1; 
stroke-linecap:round; stroke-linejoin:round;">
<text x="4330" y="53400"
textLength="570" font-size="680" lengthAdjust="spacingAndGlyphs"
text-anchor="middle" opacity="0">C</text>
<path d="M4480 53330
L4460 53350
L4390 53380
L4340 53380
L4260 53350
L4220 53300
L4190 53250
L4170 53160
L4170 53080
L4190 52990
L4220 52940
L4260 52890
L4340 52870
L4390 52870
L4460 52890
L4480 52910
" />
</g>
<g style="fill:#840000; fill-opacity:0.0; 
stroke:#840000; stroke-width:100; stroke-opacity:1; 
stroke-linecap:round; stroke-linejoin:round;">
</g>
<g style="fill:#840000; fill-opacity:0.0; 
stroke:#840000; stroke-width:60; stroke-opacity:1; 
stroke-linecap:round; stroke-linejoin:round;">
<text x="4330" y="73080"
textLength="570" font-size="680" lengthAdjust="spacingAndGlyphs"
text-anchor="middle" opacity="0">D</text>
<path d="M4190 73060
L4190 72550
L4310 72550
L4390 72570
L4430 72620
L4460 72670
L4480 72760
L4480 72840
L4460 72930
L4430 72980
L4390 73030
L4310 73060
L4190 73060
" />
</g>
<g style="fill:#840000; fill-opacity:0.0; 
stroke:#840000; stroke-width:100; stroke-opacity:1; 
stroke-linecap:round; stroke-linejoin:round;">
</g>
<g style="fill:#840000; fill-opacity:0.0; 
stroke:#840000; stroke-width:60; stroke-opacity:1; 
stroke-linecap:round; stroke-linejoin:round;">
<path d="M112990 23620
L112210 23620
" />
</g>
<g style="fill:#840000; fill-opacity:0.0; 
stroke:#840000; stroke-width:100; stroke-opacity:1; 
stroke-linecap:round; stroke-linejoin:round;">
</g>
<g style="fill:#840000; fill-opacity:0.0; 
stroke:#840000; stroke-width:60; stroke-opacity:1; 
stroke-linecap:round; stroke-linejoin:round;">
<path d="M112990 43310
L112210 43310
" />
</g>
<g style="fill:#840000; fill-opacity:0.0; 
stroke:#840000; stroke-width:100; stroke-opacity:1; 
stroke-linecap:round; stroke-linejoin:round;">
</g>
<g style="fill:#840000; fill-opacity:0.0; 
stroke:#840000; stroke-width:60; stroke-opacity:1; 
stroke-linecap:round; stroke-linejoin:round;">
<path d="M112990 62990
L112210 62990
" />
</g>
<g style="fill:#840000; fill-opacity:0.0; 
stroke:#840000; stroke-width:100; stroke-opacity:1; 
stroke-linecap:round; stroke-linejoin:round;">
</g>
<g style="fill:#840000; fill-opacity:0.0; 
stroke:#840000; stroke-width:60; stroke-opacity:1; 
stroke-linecap:round; stroke-linejoin:round;">
<text x="112600" y="14030"
textLength="500" font-size="680" lengthAdjust="spacingAndGlyphs"
text-anchor="middle" opacity="0">A</text>
<path d="M112470 13860
L112720 13860
" />
<path d="M112430 14010
L112600 13500
L112770 14010
" />
</g>
<g style="fill:#840000; fill-opacity:0.0; 
stroke:#840000; stroke-width:100; stroke-opacity:1; 
stroke-linecap:round; stroke-linejoin:round;">
</g>
<g style="fill:#840000; fill-opacity:0.0; 
stroke:#840000; stroke-width:60; stroke-opacity:1; 
stroke-linecap:round; stroke-linejoin:round;">
<text x="112600" y="33710"
textLength="570" font-size="680" lengthAdjust="spacingAndGlyphs"
text-anchor="middle" opacity="0">B</text>
<path d="M112630 33420
L112700 33440
L112730 33470
L112750 33520
L112750 33590
L112730 33640
L112700 33660
L112660 33690
L112460 33690
L112460 33180
L112630 33180
L112680 33200
L112700 33220
L112730 33270
L112730 33320
L112700 33370
L112680 33390
L112630 33420
L112460 33420
" />
</g>
<g style="fill:#840000; fill-opacity:0.0; 
stroke:#840000; stroke-width:100; stroke-opacity:1; 
stroke-linecap:round; stroke-linejoin:round;">
</g>
<g style="fill:#840000; fill-opacity:0.0; 
stroke:#840000; stroke-width:60; stroke-opacity:1; 
stroke-linecap:round; stroke-linejoin:round;">
<text x="112600" y="53400"
textLength="570" font-size="680" lengthAdjust="spacingAndGlyphs"
text-anchor="middle" opacity="0">C</text>
<path d="M112750 53330
L112730 53350
L112660 53380
L112610 53380
L112530 53350
L112490 53300
L112460 53250
L112440 53160
L112440 53080
L112460 52990
L112490 52940
L112530 52890
L112610 52870
L112660 52870
L112730 52890
L112750 52910
" />
</g>
<g style="fill:#840000; fill-opacity:0.0; 
stroke:#840000; stroke-width:100; stroke-opacity:1; 
stroke-linecap:round; stroke-linejoin:round;">
</g>
<g style="fill:#840000; fill-opacity:0.0; 
stroke:#840000; stroke-width:60; stroke-opacity:1; 
stroke-linecap:round; stroke-linejoin:round;">
<text x="112600" y="73080"
textLength="570" font-size="680" lengthAdjust="spacingAndGlyphs"
text-anchor="middle" opacity="0">D</text>
<path d="M112460 73060
L112460 72550
L112580 72550
L112660 72570
L112700 72620
L112730 72670
L112750 72760
L112750 72840
L112730 72930
L112700 72980
L112660 73030
L112580 73060
L112460 73060
" />
</g>
<g style="fill:#840000; fill-opacity:0.0; 
stroke:#840000; stroke-width:100; stroke-opacity:1; 
stroke-linecap:round; stroke-linejoin:round;">
</g>
<g style="fill:#840000; fill-opacity:0.0; 
stroke:#840000; stroke-width:60; stroke-opacity:1; 
stroke-linecap:round; stroke-linejoin:round;">
<text x="78740" y="76320"
textLength="8710" font-size="780" lengthAdjust="spacingAndGlyphs"
text-anchor="start" opacity="0">Date: 2024-03-17</text>
<path d="M78910 76290
L78910 75700
L79050 75700
L79130 75730
L79190 75790
L79210 75840
L79240 75950
L79240 76040
L79210 76150
L79190 76210
L79130 76260
L79050 76290
L78910 76290
" />
<path d="M79750 76290
L79750 75980
L79720 75930
L79660 75900
L79550 75900
L79500 75930
" />
<path d="M79750 76260
L79690 76290
L79550 76290
L79500 76260
L79470 76210
L79470 76150
L79500 76100
L79550 76070
L79690 76070
L79750 76040
" />
<path d="M79950 75900
L80170 75900
" />
<path d="M80030 75700
L80030 76210
L80060 76260
L80110 76290
L80170 76290
" />
<path d="M80590 76260
L80540 76290
L80420 76290
L80370 76260
L80340 76210
L80340 75980
L80370 75930
L80420 75900
L80540 75900
L80590 75930
L80620 75980
L80620 76040
L80340 76100
" />
<path d="M80870 76240
L80900 76260
L80870 76290
L80840 76260
L80870 76240
L80870 76290
" />
<path d="M80870 75930
L80900 75950
L80870 75980
L80840 75950
L80870 75930
L80870 75980
" />
<path d="M81570 75760
L81600 75730
L81660 75700
L81800 75700
L81860 75730
L81880 75760
L81910 75810
L81910 75870
L81880 75950
L81550 76290
L81910 76290
" />
<path d="M82280 75700
L82330 75700
L82390 75730
L82420 75760
L82450 75810
L82470 75930
L82470 76070
L82450 76180
L82420 76240
L82390 76260
L82330 76290
L82280 76290
L82220 76260
L82190 76240
L82160 76180
L82140 76070
L82140 75930
L82160 75810
L82190 75760
L82220 75730
L82280 75700
" />
<path d="M82700 75760
L82730 75730
L82780 75700
L82920 75700
L82980 75730
L83010 75760
L83040 75810
L83040 75870
L83010 75950
L82670 76290
L83040 76290
" />
<path d="M83540 75900
L83540 76290
" />
<path d="M83400 75670
L83260 76100
L83630 76100
" />
<path d="M83850 76070
L84300 76070
" />
<path d="M84690 75700
L84750 75700
L84810 75730
L84830 75760
L84860 75810
L84890 75930
L84890 76070
L84860 76180
L84830 76240
L84810 76260
L84750 76290
L84690 76290
L84640 76260
L84610 76240
L84580 76180
L84550 76070
L84550 75930
L84580 75810
L84610 75760
L84640 75730
L84690 75700
" />
<path d="M85090 75700
L85450 75700
L85260 75930
L85340 75930
L85400 75950
L85420 75980
L85450 76040
L85450 76180
L85420 76240
L85400 76260
L85340 76290
L85170 76290
L85110 76260
L85090 76240
" />
<path d="M85700 76070
L86150 76070
" />
<path d="M86740 76290
L86410 76290
" />
<path d="M86580 76290
L86580 75700
L86520 75790
L86460 75840
L86410 75870
" />
<path d="M86940 75700
L87330 75700
L87080 76290
" />
</g>
<g style="fill:#840000; fill-opacity:0.0; 
stroke:#840000; stroke-width:100; stroke-opacity:1; 
stroke-linecap:round; stroke-linejoin:round;">
</g>
<g style="fill:#840000; fill-opacity:0.0; 
stroke:#840000; stroke-width:60; stroke-opacity:1; 
stroke-linecap:round; stroke-linejoin:round;">
<path d="M69690 76580
L112210 76580
" />
</g>
<g style="fill:#840000; fill-opacity:0.0; 
stroke:#840000; stroke-width:100; stroke-opacity:1; 
stroke-linecap:round; stroke-linejoin:round;">
</g>
<g style="fill:#840000; fill-opacity:0.0; 
stroke:#840000; stroke-width:60; stroke-opacity:1; 
stroke-linecap:round; stroke-linejoin:round;">
<text x="70080" y="77420"
textLength="18660" font-size="780" lengthAdjust="spacingAndGlyphs"
text-anchor="start" opacity="0">KiCad E.D.A.  kicad 5.1.5+dfsg1-2build2</text>
<path d="M70250 77390
L70250 76800
" />
<path d="M70580 77390
L70330 77050
" />
<path d="M70580 76800
L70250 77140
" />
<path d="M70840 77390
L70840 77000
" />
<path d="M70840 76800
L70810 76830
L70840 76860
L70860 76830
L70840 76800
L70840 76860
" />
<path d="M71450 77340
L71430 77360
L71340 77390
L71290 77390
L71200 77360
L71140 77310
L71120 77250
L71090 77140
L71090 77050
L71120 76940
L71140 76890
L71200 76830
L71290 76800
L71340 76800
L71430 76830
L71450 76860
" />
<path d="M71960 77390
L71960 77080
L71930 77030
L71880 77000
L71760 77000
L71710 77030
" />
<path d="M71960 77360
L71900 77390
L71760 77390
L71710 77360
L71680 77310
L71680 77250
L71710 77200
L71760 77170
L71900 77170
L71960 77140
" />
<path d="M72490 77390
L72490 76800
" />
<path d="M72490 77360
L72440 77390
L72320 77390
L72270 77360
L72240 77340
L72210 77280
L72210 77110
L72240 77050
L72270 77030
L72320 77000
L72440 77000
L72490 77030
" />
<path d="M73220 77080
L73420 77080
" />
<path d="M73500 77390
L73220 77390
L73220 76800
L73500 76800
" />
<path d="M73760 77340
L73790 77360
L73760 77390
L73730 77360
L73760 77340
L73760 77390
" />
<path d="M74040 77390
L74040 76800
L74180 76800
L74260 76830
L74320 76890
L74350 76940
L74380 77050
L74380 77140
L74350 77250
L74320 77310
L74260 77360
L74180 77390
L74040 77390
" />
<path d="M74630 77340
L74660 77360
L74630 77390
L74600 77360
L74630 77340
L74630 77390
" />
<path d="M74880 77220
L75160 77220
" />
<path d="M74830 77390
L75020 76800
L75220 77390
" />
<path d="M75420 77340
L75440 77360
L75420 77390
L75390 77360
L75420 77340
L75420 77390
" />
<path d="M76600 77390
L76600 76800
" />
<path d="M76650 77170
L76820 77390
" />
<path d="M76820 77000
L76600 77220
" />
<path d="M77070 77390
L77070 77000
" />
<path d="M77070 76800
L77040 76830
L77070 76860
L77100 76830
L77070 76800
L77070 76860
" />
<path d="M77610 77360
L77550 77390
L77440 77390
L77380 77360
L77350 77340
L77330 77280
L77330 77110
L77350 77050
L77380 77030
L77440 77000
L77550 77000
L77610 77030
" />
<path d="M78110 77390
L78110 77080
L78080 77030
L78030 77000
L77920 77000
L77860 77030
" />
<path d="M78110 77360
L78060 77390
L77920 77390
L77860 77360
L77830 77310
L77830 77250
L77860 77200
L77920 77170
L78060 77170
L78110 77140
" />
<path d="M78650 77390
L78650 76800
" />
<path d="M78650 77360
L78590 77390
L78480 77390
L78420 77360
L78390 77340
L78370 77280
L78370 77110
L78390 77050
L78420 77030
L78480 77000
L78590 77000
L78650 77030
" />
<path d="M79660 76800
L79380 76800
L79350 77080
L79380 77050
L79430 77030
L79570 77030
L79630 77050
L79660 77080
L79690 77140
L79690 77280
L79660 77340
L79630 77360
L79570 77390
L79430 77390
L79380 77360
L79350 77340
" />
<path d="M79940 77340
L79970 77360
L79940 77390
L79910 77360
L79940 77340
L79940 77390
" />
<path d="M80530 77390
L80190 77390
" />
<path d="M80360 77390
L80360 76800
L80300 76890
L80250 76940
L80190 76970
" />
<path d="M80780 77340
L80810 77360
L80780 77390
L80750 77360
L80780 77340
L80780 77390
" />
<path d="M81340 76800
L81060 76800
L81030 77080
L81060 77050
L81120 77030
L81260 77030
L81320 77050
L81340 77080
L81370 77140
L81370 77280
L81340 77340
L81320 77360
L81260 77390
L81120 77390
L81060 77360
L81030 77340
" />
<path d="M81620 77170
L82070 77170
" />
<path d="M81850 77390
L81850 76940
" />
<path d="M82610 77390
L82610 76800
" />
<path d="M82610 77360
L82550 77390
L82440 77390
L82380 77360
L82350 77340
L82330 77280
L82330 77110
L82350 77050
L82380 77030
L82440 77000
L82550 77000
L82610 77030
" />
<path d="M82800 77000
L83030 77000
" />
<path d="M82890 77390
L82890 76890
L82920 76830
L82970 76800
L83030 76800
" />
<path d="M83200 77360
L83250 77390
L83370 77390
L83420 77360
L83450 77310
L83450 77280
L83420 77220
L83370 77200
L83280 77200
L83230 77170
L83200 77110
L83200 77080
L83230 77030
L83280 77000
L83370 77000
L83420 77030
" />
<path d="M83960 77000
L83960 77480
L83930 77530
L83900 77560
L83840 77590
L83760 77590
L83700 77560
" />
<path d="M83960 77360
L83900 77390
L83790 77390
L83730 77360
L83700 77340
L83680 77280
L83680 77110
L83700 77050
L83730 77030
L83790 77000
L83900 77000
L83960 77030
" />
<path d="M84550 77390
L84210 77390
" />
<path d="M84380 77390
L84380 76800
L84320 76890
L84270 76940
L84210 76970
" />
<path d="M84800 77170
L85250 77170
" />
<path d="M85500 76860
L85530 76830
L85590 76800
L85730 76800
L85780 76830
L85810 76860
L85840 76910
L85840 76970
L85810 77050
L85470 77390
L85840 77390
" />
<path d="M86090 77390
L86090 76800
" />
<path d="M86090 77030
L86150 77000
L86260 77000
L86320 77030
L86340 77050
L86370 77110
L86370 77280
L86340 77340
L86320 77360
L86260 77390
L86150 77390
L86090 77360
" />
<path d="M86880 77000
L86880 77390
" />
<path d="M86630 77000
L86630 77310
L86650 77360
L86710 77390
L86790 77390
L86850 77360
L86880 77340
" />
<path d="M87160 77390
L87160 77000
" />
<path d="M87160 76800
L87130 76830
L87160 76860
L87190 76830
L87160 76800
L87160 76860
" />
<path d="M87520 77390
L87470 77360
L87440 77310
L87440 76800
" />
<path d="M88000 77390
L88000 76800
" />
<path d="M88000 77360
L87950 77390
L87830 77390
L87780 77360
L87750 77340
L87720 77280
L87720 77110
L87750 77050
L87780 77030
L87830 77000
L87950 77000
L88000 77030
" />
<path d="M88250 76860
L88280 76830
L88340 76800
L88480 76800
L88540 76830
L88560 76860
L88590 76910
L88590 76970
L88560 77050
L88230 77390
L88590 77390
" />
</g>
<g style="fill:#840000; fill-opacity:0.0; 
stroke:#840000; stroke-width:100; stroke-opacity:1; 
stroke-linecap:round; stroke-linejoin:round;">
</g>
<g style="fill:#840000; fill-opacity:0.0; 
stroke:#840000; stroke-width:60; stroke-opacity:1; 
stroke-linecap:round; stroke-linejoin:round;">
<path d="M69690 75400
L112210 75400
" />
</g>
<g style="fill:#840000; fill-opacity:0.0; 
stroke:#840000; stroke-width:100; stroke-opacity:1; 
stroke-linecap:round; stroke-linejoin:round;">
</g>
<g style="fill:#840000; fill-opacity:0.0; 
stroke:#840000; stroke-width:120; stroke-opacity:1; 
stroke-linecap:round; stroke-linejoin:round;">
<text x="103540" y="76320"
textLength="5710" font-size="780" lengthAdjust="spacingAndGlyphs"
text-anchor="start" opacity="0">Rev: 231006</text>
<path d="M104090 76290
L103890 76010
" />
<path d="M103750 76290
L103750 75700
L103980 75700
L104030 75730
L104060 75760
L104090 75810
L104090 75900
L104060 75950
L104030 75980
L103980 76010
L103750 76010
" />
<path d="M104570 76260
L104510 76290
L104400 76290
L104340 76260
L104320 76210
L104320 75980
L104340 75930
L104400 75900
L104510 75900
L104570 75930
L104600 75980
L104600 76040
L104320 76100
" />
<path d="M104790 75900
L104930 76290
L105070 75900
" />
<path d="M105300 76240
L105330 76260
L105300 76290
L105270 76260
L105300 76240
L105300 76290
" />
<path d="M105300 75930
L105330 75950
L105300 75980
L105270 75950
L105300 75930
L105300 75980
" />
<path d="M106000 75760
L106030 75730
L106090 75700
L106230 75700
L106280 75730
L106310 75760
L106340 75810
L106340 75870
L106310 75950
L105970 76290
L106340 76290
" />
<path d="M106530 75700
L106900 75700
L106700 75930
L106790 75930
L106840 75950
L106870 75980
L106900 76040
L106900 76180
L106870 76240
L106840 76260
L106790 76290
L106620 76290
L106560 76260
L106530 76240
" />
<path d="M107460 76290
L107120 76290
" />
<path d="M107290 76290
L107290 75700
L107240 75790
L107180 75840
L107120 75870
" />
<path d="M107830 75700
L107880 75700
L107940 75730
L107970 75760
L108000 75810
L108020 75930
L108020 76070
L108000 76180
L107970 76240
L107940 76260
L107880 76290
L107830 76290
L107770 76260
L107740 76240
L107710 76180
L107690 76070
L107690 75930
L107710 75810
L107740 75760
L107770 75730
L107830 75700
" />
<path d="M108390 75700
L108450 75700
L108500 75730
L108530 75760
L108560 75810
L108590 75930
L108590 76070
L108560 76180
L108530 76240
L108500 76260
L108450 76290
L108390 76290
L108330 76260
L108300 76240
L108280 76180
L108250 76070
L108250 75930
L108280 75810
L108300 75760
L108330 75730
L108390 75700
" />
<path d="M109090 75700
L108980 75700
L108920 75730
L108890 75760
L108840 75840
L108810 75950
L108810 76180
L108840 76240
L108870 76260
L108920 76290
L109040 76290
L109090 76260
L109120 76240
L109150 76180
L109150 76040
L109120 75980
L109090 75950
L109040 75930
L108920 75930
L108870 75950
L108840 75980
L108810 76040
" />
</g>
<g style="fill:#840000; fill-opacity:0.0; 
stroke:#840000; stroke-width:100; stroke-opacity:1; 
stroke-linecap:round; stroke-linejoin:round;">
</g>
<g style="fill:#840000; fill-opacity:0.0; 
stroke:#840000; stroke-width:60; stroke-opacity:1; 
stroke-linecap:round; stroke-linejoin:round;">
<text x="70080" y="76320"
textLength="3780" font-size="780" lengthAdjust="spacingAndGlyphs"
text-anchor="start" opacity="0">Size: A4</text>
<path d="M70220 76260
L70300 76290
L70440 76290
L70500 76260
L70530 76240
L70550 76180
L70550 76120
L70530 76070
L70500 76040
L70440 76010
L70330 75980
L70270 75950
L70250 75930
L70220 75870
L70220 75810
L70250 75760
L70270 75730
L70330 75700
L70470 75700
L70550 75730
" />
<path d="M70810 76290
L70810 75900
" />
<path d="M70810 75700
L70780 75730
L70810 75760
L70840 75730
L70810 75700
L70810 75760
" />
<path d="M71030 75900
L71340 75900
L71030 76290
L71340 76290
" />
<path d="M71790 76260
L71730 76290
L71620 76290
L71570 76260
L71540 76210
L71540 75980
L71570 75930
L71620 75900
L71730 75900
L71790 75930
L71820 75980
L71820 76040
L71540 76100
" />
<path d="M72070 76240
L72100 76260
L72070 76290
L72040 76260
L72070 76240
L72070 76290
" />
<path d="M72070 75930
L72100 75950
L72070 75980
L72040 75950
L72070 75930
L72070 75980
" />
<path d="M72770 76120
L73060 76120
" />
<path d="M72720 76290
L72910 75700
L73110 76290
" />
<path d="M73560 75900
L73560 76290
" />
<path d="M73420 75670
L73280 76100
L73650 76100
" />
</g>
<g style="fill:#840000; fill-opacity:0.0; 
stroke:#840000; stroke-width:100; stroke-opacity:1; 
stroke-linecap:round; stroke-linejoin:round;">
</g>
<g style="fill:#840000; fill-opacity:0.0; 
stroke:#840000; stroke-width:60; stroke-opacity:1; 
stroke-linecap:round; stroke-linejoin:round;">
<text x="103540" y="77420"
textLength="3350" font-size="780" lengthAdjust="spacingAndGlyphs"
text-anchor="start" opacity="0">Id: 1/1</text>
<path d="M103710 77390
L103710 76800
" />
<path d="M104240 77390
L104240 76800
" />
<path d="M104240 77360
L104180 77390
L104070 77390
L104010 77360
L103990 77340
L103960 77280
L103960 77110
L103990 77050
L104010 77030
L104070 77000
L104180 77000
L104240 77030
" />
<path d="M104520 77340
L104550 77360
L104520 77390
L104490 77360
L104520 77340
L104520 77390
" />
<path d="M104520 77030
L104550 77050
L104520 77080
L104490 77050
L104520 77030
L104520 77080
" />
<path d="M105560 77390
L105220 77390
" />
<path d="M105390 77390
L105390 76800
L105340 76890
L105280 76940
L105220 76970
" />
<path d="M106230 76770
L105730 77530
" />
<path d="M106740 77390
L106400 77390
" />
<path d="M106570 77390
L106570 76800
L106520 76890
L106460 76940
L106400 76970
" />
</g>
<g style="fill:#840000; fill-opacity:0.0; 
stroke:#840000; stroke-width:100; stroke-opacity:1; 
stroke-linecap:round; stroke-linejoin:round;">
</g>
<g style="fill:#840000; fill-opacity:0.0; 
stroke:#840000; stroke-width:60; stroke-opacity:1; 
stroke-linecap:round; stroke-linejoin:round;">
<path d="M69690 73820
L112210 73820
" />
</g>
<g style="fill:#840000; fill-opacity:0.0; 
stroke:#840000; stroke-width:100; stroke-opacity:1; 
stroke-linecap:round; stroke-linejoin:round;">
</g>
<g style="fill:#840000; fill-opacity:0.0; 
stroke:#840000; stroke-width:160; stroke-opacity:1; 
stroke-linecap:round; stroke-linejoin:round;">
<text x="70080" y="74920"
textLength="21730" font-size="1050" lengthAdjust="spacingAndGlyphs"
text-anchor="start" opacity="0">Title: MM7D RH/T measuring device</text>
<path d="M70360 74090
L70810 74090
" />
<path d="M70480 74880
L70580 74090
" />
<path d="M70970 74880
L71040 74360
" />
<path d="M71070 74090
L71030 74130
L71060 74170
L71110 74130
L71070 74090
L71060 74170
" />
<path d="M71300 74360
L71600 74360
" />
<path d="M71450 74090
L71360 74770
L71390 74840
L71460 74880
L71540 74880
" />
<path d="M71910 74880
L71840 74840
L71820 74770
L71900 74090
" />
<path d="M72520 74840
L72440 74880
L72290 74880
L72220 74840
L72190 74770
L72230 74470
L72280 74390
L72360 74360
L72510 74360
L72580 74390
L72610 74470
L72600 74540
L72210 74620
" />
<path d="M72900 74810
L72930 74840
L72890 74880
L72860 74840
L72900 74810
L72890 74880
" />
<path d="M72950 74390
L72990 74430
L72940 74470
L72910 74430
L72950 74390
L72940 74470
" />
<path d="M73870 74880
L73970 74090
L74160 74660
L74500 74090
L74400 74880
" />
<path d="M74770 74880
L74870 74090
L75060 74660
L75400 74090
L75300 74880
" />
<path d="M75700 74090
L76230 74090
L75790 74880
" />
<path d="M76430 74880
L76530 74090
L76720 74090
L76820 74130
L76890 74210
L76920 74280
L76940 74430
L76920 74540
L76870 74690
L76820 74770
L76730 74840
L76620 74880
L76430 74880
" />
<path d="M78270 74880
L78060 74510
" />
<path d="M77820 74880
L77920 74090
L78220 74090
L78290 74130
L78320 74170
L78350 74240
L78340 74360
L78290 74430
L78250 74470
L78170 74510
L77870 74510
" />
<path d="M78610 74880
L78710 74090
" />
<path d="M78660 74470
L79110 74470
" />
<path d="M79060 74880
L79160 74090
" />
<path d="M80110 74050
L79300 75070
" />
<path d="M80250 74090
L80700 74090
" />
<path d="M80380 74880
L80480 74090
" />
<path d="M81470 74880
L81540 74360
" />
<path d="M81530 74430
L81570 74390
L81650 74360
L81760 74360
L81830 74390
L81860 74470
L81810 74880
" />
<path d="M81860 74470
L81910 74390
L81990 74360
L82100 74360
L82170 74390
L82200 74470
L82150 74880
" />
<path d="M82830 74840
L82750 74880
L82600 74880
L82530 74840
L82500 74770
L82540 74470
L82580 74390
L82660 74360
L82810 74360
L82880 74390
L82910 74470
L82900 74540
L82520 74620
" />
<path d="M83540 74880
L83590 74470
L83560 74390
L83490 74360
L83340 74360
L83260 74390
" />
<path d="M83540 74840
L83460 74880
L83280 74880
L83200 74840
L83180 74770
L83190 74690
L83230 74620
L83310 74580
L83500 74580
L83580 74540
" />
<path d="M83880 74840
L83950 74880
L84100 74880
L84180 74840
L84230 74770
L84230 74730
L84210 74660
L84140 74620
L84020 74620
L83950 74580
L83920 74510
L83930 74470
L83980 74390
L84060 74360
L84170 74360
L84240 74390
" />
<path d="M84960 74360
L84890 74880
" />
<path d="M84620 74360
L84570 74770
L84600 74840
L84670 74880
L84780 74880
L84860 74840
L84900 74810
" />
<path d="M85270 74880
L85330 74360
" />
<path d="M85320 74510
L85360 74430
L85410 74390
L85490 74360
L85560 74360
" />
<path d="M85760 74880
L85820 74360
" />
<path d="M85860 74090
L85810 74130
L85850 74170
L85890 74130
L85860 74090
L85850 74170
" />
<path d="M86200 74360
L86130 74880
" />
<path d="M86190 74430
L86230 74390
L86310 74360
L86430 74360
L86500 74390
L86520 74470
L86470 74880
" />
<path d="M87250 74360
L87170 75000
L87130 75070
L87080 75110
L87000 75150
L86890 75150
L86820 75110
" />
<path d="M87190 74840
L87110 74880
L86960 74880
L86890 74840
L86860 74810
L86830 74730
L86860 74510
L86910 74430
L86950 74390
L87030 74360
L87180 74360
L87250 74390
" />
<path d="M88500 74880
L88600 74090
" />
<path d="M88510 74840
L88430 74880
L88280 74880
L88210 74840
L88180 74810
L88150 74730
L88180 74510
L88220 74430
L88260 74390
L88340 74360
L88490 74360
L88570 74390
" />
<path d="M89190 74840
L89110 74880
L88960 74880
L88890 74840
L88860 74770
L88890 74470
L88940 74390
L89020 74360
L89170 74360
L89240 74390
L89270 74470
L89260 74540
L88880 74620
" />
<path d="M89550 74360
L89670 74880
L89920 74360
" />
<path d="M90160 74880
L90230 74360
" />
<path d="M90260 74090
L90220 74130
L90250 74170
L90290 74130
L90260 74090
L90250 74170
" />
<path d="M90880 74840
L90800 74880
L90650 74880
L90580 74840
L90550 74810
L90520 74730
L90550 74510
L90590 74430
L90630 74390
L90710 74360
L90860 74360
L90940 74390
" />
<path d="M91520 74840
L91440 74880
L91290 74880
L91220 74840
L91190 74770
L91230 74470
L91270 74390
L91350 74360
L91500 74360
L91570 74390
L91600 74470
L91590 74540
L91210 74620
" />
</g>
<g style="fill:#840000; fill-opacity:0.0; 
stroke:#840000; stroke-width:100; stroke-opacity:1; 
stroke-linecap:round; stroke-linejoin:round;">
</g>
<g style="fill:#840000; fill-opacity:0.0; 
stroke:#840000; stroke-width:60; stroke-opacity:1; 
stroke-linecap:round; stroke-linejoin:round;">
<text x="70080" y="73400"
textLength="6950" font-size="780" lengthAdjust="spacingAndGlyphs"
text-anchor="start" opacity="0">File: wiring.sch</text>
<path d="M70440 73060
L70250 73060
" />
<path d="M70250 73370
L70250 72780
L70530 72780
" />
<path d="M70750 73370
L70750 72980
" />
<path d="M70750 72780
L70720 72810
L70750 72840
L70780 72810
L70750 72780
L70750 72840
" />
<path d="M71120 73370
L71060 73340
L71030 73290
L71030 72780
" />
<path d="M71570 73340
L71510 73370
L71400 73370
L71340 73340
L71310 73290
L71310 73060
L71340 73010
L71400 72980
L71510 72980
L71570 73010
L71590 73060
L71590 73120
L71310 73180
" />
<path d="M71850 73320
L71880 73340
L71850 73370
L71820 73340
L71850 73320
L71850 73370
" />
<path d="M71850 73010
L71880 73030
L71850 73060
L71820 73030
L71850 73010
L71850 73060
" />
<path d="M72520 72980
L72630 73370
L72750 73090
L72860 73370
L72970 72980
" />
<path d="M73200 73370
L73200 72980
" />
<path d="M73200 72780
L73170 72810
L73200 72840
L73220 72810
L73200 72780
L73200 72840
" />
<path d="M73480 73370
L73480 72980
" />
<path d="M73480 73090
L73500 73030
L73530 73010
L73590 72980
L73650 72980
" />
<path d="M73840 73370
L73840 72980
" />
<path d="M73840 72780
L73810 72810
L73840 72840
L73870 72810
L73840 72780
L73840 72840
" />
<path d="M74120 72980
L74120 73370
" />
<path d="M74120 73030
L74150 73010
L74210 72980
L74290 72980
L74350 73010
L74380 73060
L74380 73370
" />
<path d="M74910 72980
L74910 73460
L74880 73510
L74850 73540
L74800 73570
L74710 73570
L74660 73540
" />
<path d="M74910 73340
L74850 73370
L74740 73370
L74680 73340
L74660 73320
L74630 73260
L74630 73090
L74660 73030
L74680 73010
L74740 72980
L74850 72980
L74910 73010
" />
<path d="M75190 73320
L75220 73340
L75190 73370
L75160 73340
L75190 73320
L75190 73370
" />
<path d="M75440 73340
L75500 73370
L75610 73370
L75670 73340
L75700 73290
L75700 73260
L75670 73200
L75610 73180
L75530 73180
L75470 73150
L75440 73090
L75440 73060
L75470 73010
L75530 72980
L75610 72980
L75670 73010
" />
<path d="M76200 73340
L76150 73370
L76030 73370
L75980 73340
L75950 73320
L75920 73260
L75920 73090
L75950 73030
L75980 73010
L76030 72980
L76150 72980
L76200 73010
" />
<path d="M76450 73370
L76450 72780
" />
<path d="M76710 73370
L76710 73060
L76680 73010
L76620 72980
L76540 72980
L76480 73010
L76450 73030
" />
</g>
<g style="fill:#840000; fill-opacity:0.0; 
stroke:#840000; stroke-width:100; stroke-opacity:1; 
stroke-linecap:round; stroke-linejoin:round;">
</g>
<g style="fill:#840000; fill-opacity:0.0; 
stroke:#840000; stroke-width:60; stroke-opacity:1; 
stroke-linecap:round; stroke-linejoin:round;">
<path d="M69690 71460
L112210 71460
" />
</g>
<g style="fill:#840000; fill-opacity:0.0; 
stroke:#840000; stroke-width:100; stroke-opacity:1; 
stroke-linecap:round; stroke-linejoin:round;">
</g>
<g style="fill:#840000; fill-opacity:0.0; 
stroke:#840000; stroke-width:60; stroke-opacity:1; 
stroke-linecap:round; stroke-linejoin:round;">
<text x="70080" y="72340"
textLength="3850" font-size="780" lengthAdjust="spacingAndGlyphs"
text-anchor="start" opacity="0">Sheet: /</text>
<path d="M70220 72280
L70300 72310
L70440 72310
L70500 72280
L70530 72260
L70550 72200
L70550 72140
L70530 72090
L70500 72060
L70440 72030
L70330 72000
L70270 71970
L70250 71950
L70220 71890
L70220 71830
L70250 71780
L70270 71750
L70330 71720
L70470 71720
L70550 71750
" />
<path d="M70810 72310
L70810 71720
" />
<path d="M71060 72310
L71060 72000
L71030 71950
L70980 71920
L70890 71920
L70840 71950
L70810 71970
" />
<path d="M71570 72280
L71510 72310
L71400 72310
L71340 72280
L71310 72230
L71310 72000
L71340 71950
L71400 71920
L71510 71920
L71570 71950
L71590 72000
L71590 72060
L71310 72120
" />
<path d="M72070 72280
L72020 72310
L71900 72310
L71850 72280
L71820 72230
L71820 72000
L71850 71950
L71900 71920
L72020 71920
L72070 71950
L72100 72000
L72100 72060
L71820 72120
" />
<path d="M72270 71920
L72490 71920
" />
<path d="M72350 71720
L72350 72230
L72380 72280
L72440 72310
L72490 72310
" />
<path d="M72690 72260
L72720 72280
L72690 72310
L72660 72280
L72690 72260
L72690 72310
" />
<path d="M72690 71950
L72720 71970
L72690 72000
L72660 71970
L72690 71950
L72690 72000
" />
<path d="M73840 71690
L73340 72450
" />
</g>
<g style="fill:#840000; fill-opacity:0.0; 
stroke:#840000; stroke-width:100; stroke-opacity:1; 
stroke-linecap:round; stroke-linejoin:round;">
</g>
<g style="fill:#840000; fill-opacity:0.0; 
stroke:#840000; stroke-width:120; stroke-opacity:1; 
stroke-linecap:round; stroke-linejoin:round;">
<text x="70080" y="71160"
textLength="17960" font-size="780" lengthAdjust="spacingAndGlyphs"
text-anchor="start" opacity="0">Pozsar Zsolt - http://www.pozsarzs.hu</text>
<path d="M70290 71130
L70290 70540
L70520 70540
L70570 70570
L70600 70600
L70630 70650
L70630 70740
L70600 70790
L70570 70820
L70520 70850
L70290 70850
" />
<path d="M70970 71130
L70910 71100
L70880 71080
L70860 71020
L70860 70850
L70880 70790
L70910 70770
L70970 70740
L71050 70740
L71110 70770
L71140 70790
L71160 70850
L71160 71020
L71140 71080
L71110 71100
L71050 71130
L70970 71130
" />
<path d="M71360 70740
L71670 70740
L71360 71130
L71670 71130
" />
<path d="M71870 71100
L71920 71130
L72040 71130
L72090 71100
L72120 71050
L72120 71020
L72090 70960
L72040 70940
L71950 70940
L71890 70910
L71870 70850
L71870 70820
L71890 70770
L71950 70740
L72040 70740
L72090 70770
" />
<path d="M72630 71130
L72630 70820
L72600 70770
L72540 70740
L72430 70740
L72370 70770
" />
<path d="M72630 71100
L72570 71130
L72430 71130
L72370 71100
L72340 71050
L72340 70990
L72370 70940
L72430 70910
L72570 70910
L72630 70880
" />
<path d="M72910 71130
L72910 70740
" />
<path d="M72910 70850
L72930 70790
L72960 70770
L73020 70740
L73070 70740
" />
<path d="M73660 70540
L74060 70540
L73660 71130
L74060 71130
" />
<path d="M74250 71100
L74310 71130
L74420 71130
L74480 71100
L74510 71050
L74510 71020
L74480 70960
L74420 70940
L74340 70940
L74280 70910
L74250 70850
L74250 70820
L74280 70770
L74340 70740
L74420 70740
L74480 70770
" />
<path d="M74840 71130
L74790 71100
L74760 71080
L74730 71020
L74730 70850
L74760 70790
L74790 70770
L74840 70740
L74930 70740
L74990 70770
L75010 70790
L75040 70850
L75040 71020
L75010 71080
L74990 71100
L74930 71130
L74840 71130
" />
<path d="M75380 71130
L75320 71100
L75290 71050
L75290 70540
" />
<path d="M75520 70740
L75740 70740
" />
<path d="M75600 70540
L75600 71050
L75630 71100
L75690 71130
L75740 71130
" />
<path d="M76390 70910
L76840 70910
" />
<path d="M77570 71130
L77570 70540
" />
<path d="M77820 71130
L77820 70820
L77790 70770
L77740 70740
L77650 70740
L77600 70770
L77570 70790
" />
<path d="M78020 70740
L78240 70740
" />
<path d="M78100 70540
L78100 71050
L78130 71100
L78190 71130
L78240 71130
" />
<path d="M78360 70740
L78580 70740
" />
<path d="M78440 70540
L78440 71050
L78470 71100
L78530 71130
L78580 71130
" />
<path d="M78780 70740
L78780 71330
" />
<path d="M78780 70770
L78830 70740
L78950 70740
L79000 70770
L79030 70790
L79060 70850
L79060 71020
L79030 71080
L79000 71100
L78950 71130
L78830 71130
L78780 71100
" />
<path d="M79310 71080
L79340 71100
L79310 71130
L79280 71100
L79310 71080
L79310 71130
" />
<path d="M79310 70770
L79340 70790
L79310 70820
L79280 70790
L79310 70770
L79310 70820
" />
<path d="M80010 70510
L79510 71270
" />
<path d="M80630 70510
L80130 71270
" />
<path d="M80770 70740
L80890 71130
L81000 70850
L81110 71130
L81220 70740
" />
<path d="M81390 70740
L81500 71130
L81620 70850
L81730 71130
L81840 70740
" />
<path d="M82010 70740
L82120 71130
L82230 70850
L82350 71130
L82460 70740
" />
<path d="M82680 71080
L82710 71100
L82680 71130
L82660 71100
L82680 71080
L82680 71130
" />
<path d="M82960 70740
L82960 71330
" />
<path d="M82960 70770
L83020 70740
L83130 70740
L83190 70770
L83220 70790
L83250 70850
L83250 71020
L83220 71080
L83190 71100
L83130 71130
L83020 71130
L82960 71100
" />
<path d="M83580 71130
L83530 71100
L83500 71080
L83470 71020
L83470 70850
L83500 70790
L83530 70770
L83580 70740
L83670 70740
L83720 70770
L83750 70790
L83780 70850
L83780 71020
L83750 71080
L83720 71100
L83670 71130
L83580 71130
" />
<path d="M83980 70740
L84280 70740
L83980 71130
L84280 71130
" />
<path d="M84480 71100
L84540 71130
L84650 71130
L84710 71100
L84730 71050
L84730 71020
L84710 70960
L84650 70940
L84570 70940
L84510 70910
L84480 70850
L84480 70820
L84510 70770
L84570 70740
L84650 70740
L84710 70770
" />
<path d="M85240 71130
L85240 70820
L85210 70770
L85160 70740
L85040 70740
L84990 70770
" />
<path d="M85240 71100
L85180 71130
L85040 71130
L84990 71100
L84960 71050
L84960 70990
L84990 70940
L85040 70910
L85180 70910
L85240 70880
" />
<path d="M85520 71130
L85520 70740
" />
<path d="M85520 70850
L85550 70790
L85580 70770
L85630 70740
L85690 70740
" />
<path d="M85830 70740
L86140 70740
L85830 71130
L86140 71130
" />
<path d="M86340 71100
L86390 71130
L86500 71130
L86560 71100
L86590 71050
L86590 71020
L86560 70960
L86500 70940
L86420 70940
L86360 70910
L86340 70850
L86340 70820
L86360 70770
L86420 70740
L86500 70740
L86560 70770
" />
<path d="M86840 71080
L86870 71100
L86840 71130
L86810 71100
L86840 71080
L86840 71130
" />
<path d="M87120 71130
L87120 70540
" />
<path d="M87380 71130
L87380 70820
L87350 70770
L87290 70740
L87210 70740
L87150 70770
L87120 70790
" />
<path d="M87910 70740
L87910 71130
" />
<path d="M87660 70740
L87660 71050
L87680 71100
L87740 71130
L87820 71130
L87880 71100
L87910 71080
" />
</g>
<g style="fill:#840000; fill-opacity:0.0; 
stroke:#840000; stroke-width:100; stroke-opacity:1; 
stroke-linecap:round; stroke-linejoin:round;">
</g>
<g style="fill:#840000; fill-opacity:0.0; 
stroke:#840000; stroke-width:60; stroke-opacity:1; 
stroke-linecap:round; stroke-linejoin:round;">
<text x="70080" y="69980"
textLength="6620" font-size="780" lengthAdjust="spacingAndGlyphs"
text-anchor="start" opacity="0">Internal wiring</text>
<path d="M70250 69950
L70250 69360
" />
<path d="M70530 69560
L70530 69950
" />
<path d="M70530 69610
L70550 69590
L70610 69560
L70700 69560
L70750 69590
L70780 69640
L70780 69950
" />
<path d="M70980 69560
L71200 69560
" />
<path d="M71060 69360
L71060 69870
L71090 69920
L71140 69950
L71200 69950
" />
<path d="M71620 69920
L71570 69950
L71450 69950
L71400 69920
L71370 69870
L71370 69640
L71400 69590
L71450 69560
L71570 69560
L71620 69590
L71650 69640
L71650 69700
L71370 69760
" />
<path d="M71900 69950
L71900 69560
" />
<path d="M71900 69670
L71930 69610
L71960 69590
L72020 69560
L72070 69560
" />
<path d="M72270 69560
L72270 69950
" />
<path d="M72270 69610
L72300 69590
L72350 69560
L72440 69560
L72490 69590
L72520 69640
L72520 69950
" />
<path d="M73060 69950
L73060 69640
L73030 69590
L72970 69560
L72860 69560
L72800 69590
" />
<path d="M73060 69920
L73000 69950
L72860 69950
L72800 69920
L72770 69870
L72770 69810
L72800 69760
L72860 69730
L73000 69730
L73060 69700
" />
<path d="M73420 69950
L73360 69920
L73340 69870
L73340 69360
" />
<path d="M74040 69560
L74150 69950
L74260 69670
L74380 69950
L74490 69560
" />
<path d="M74710 69950
L74710 69560
" />
<path d="M74710 69360
L74680 69390
L74710 69420
L74740 69390
L74710 69360
L74710 69420
" />
<path d="M74990 69950
L74990 69560
" />
<path d="M74990 69670
L75020 69610
L75050 69590
L75110 69560
L75160 69560
" />
<path d="M75360 69950
L75360 69560
" />
<path d="M75360 69360
L75330 69390
L75360 69420
L75390 69390
L75360 69360
L75360 69420
" />
<path d="M75640 69560
L75640 69950
" />
<path d="M75640 69610
L75670 69590
L75720 69560
L75810 69560
L75860 69590
L75890 69640
L75890 69950
" />
<path d="M76430 69560
L76430 70040
L76400 70090
L76370 70120
L76310 70150
L76230 70150
L76170 70120
" />
<path d="M76430 69920
L76370 69950
L76260 69950
L76200 69920
L76170 69900
L76150 69840
L76150 69670
L76170 69610
L76200 69590
L76260 69560
L76370 69560
L76430 69590
" />
</g>
<g style="fill:#840000; fill-opacity:0.0; 
stroke:#840000; stroke-width:100; stroke-opacity:1; 
stroke-linecap:round; stroke-linejoin:round;">
</g>
<g style="fill:#840000; fill-opacity:0.0; 
stroke:#840000; stroke-width:60; stroke-opacity:1; 
stroke-linecap:round; stroke-linejoin:round;">
<path d="M77560 75400
L77560 76580
" />
</g>
<g style="fill:#840000; fill-opacity:0.0; 
stroke:#840000; stroke-width:100; stroke-opacity:1; 
stroke-linecap:round; stroke-linejoin:round;">
</g>
<g style="fill:#840000; fill-opacity:0.0; 
stroke:#840000; stroke-width:60; stroke-opacity:1; 
stroke-linecap:round; stroke-linejoin:round;">
<path d="M102760 75400
L102760 77960
" />
</g>
<g style="fill:#840000; fill-opacity:0.0; 
stroke:#840000; stroke-width:0; stroke-opacity:1; 
stroke-linecap:round; stroke-linejoin:round;">
<g >
</g>
<g style="fill:#840000; fill-opacity:0.0; 
stroke:#840000; stroke-width:200; stroke-opacity:1; 
stroke-linecap:round; stroke-linejoin:round;">
<path style="fill:#840000; fill-opacity:0.0; 
stroke:#840000; stroke-width:200; stroke-opacity:1; 
stroke-linecap:round; stroke-linejoin:round;fill:none"
d="M 47200,34700
47200,36300
" /> 
<path style="fill:#840000; fill-opacity:0.0; 
stroke:#840000; stroke-width:200; stroke-opacity:1; 
stroke-linecap:round; stroke-linejoin:round;fill:none"
d="M 47800,34700
47800,36300
" /> 
</g>
<g style="fill:#840000; fill-opacity:0.0; 
stroke:#840000; stroke-width:60; stroke-opacity:1; 
stroke-linecap:round; stroke-linejoin:round;">
<path d="M47900 35500
L49000 35500
" />
<path d="M47100 35500
L46000 35500
" />
</g>
<g style="fill:#008484; fill-opacity:0.0; 
stroke:#008484; stroke-width:60; stroke-opacity:1; 
stroke-linecap:round; stroke-linejoin:round;">
<text x="47520" y="33770"
textLength="1040" font-size="660" lengthAdjust="spacingAndGlyphs"
text-anchor="middle" opacity="0">C1</text>
<path d="M47430 33690
L47410 33720
L47340 33740
L47290 33740
L47220 33720
L47170 33670
L47150 33620
L47120 33530
L47120 33460
L47150 33360
L47170 33310
L47220 33270
L47290 33240
L47340 33240
L47410 33270
L47430 33290
" />
<path d="M47910 33740
L47620 33740
" />
<path d="M47770 33740
L47770 33240
L47720 33310
L47670 33360
L47620 33380
" />
<text x="47470" y="37770"
textLength="1940" font-size="660" lengthAdjust="spacingAndGlyphs"
text-anchor="middle" opacity="0">100n</text>
<path d="M46910 37740
L46620 37740
" />
<path d="M46760 37740
L46760 37240
L46720 37310
L46670 37360
L46620 37380
" />
<path d="M47220 37240
L47260 37240
L47310 37270
L47330 37290
L47360 37340
L47380 37430
L47380 37550
L47360 37650
L47330 37690
L47310 37720
L47260 37740
L47220 37740
L47170 37720
L47140 37690
L47120 37650
L47100 37550
L47100 37430
L47120 37340
L47140 37290
L47170 37270
L47220 37240
" />
<path d="M47690 37240
L47740 37240
L47790 37270
L47810 37290
L47830 37340
L47860 37430
L47860 37550
L47830 37650
L47810 37690
L47790 37720
L47740 37740
L47690 37740
L47640 37720
L47620 37690
L47600 37650
L47570 37550
L47570 37430
L47600 37340
L47620 37290
L47640 37270
L47690 37240
" />
<path d="M48070 37410
L48070 37740
" />
<path d="M48070 37460
L48100 37430
L48140 37410
L48220 37410
L48260 37430
L48290 37480
L48290 37740
" />
</g>
</g>
<g style="fill:#008484; fill-opacity:0.0; 
stroke:#008484; stroke-width:0; stroke-opacity:1; 
stroke-linecap:round; stroke-linejoin:round;">
<g >
</g>
<g style="fill:#840000; fill-opacity:0.0; 
stroke:#840000; stroke-width:0; stroke-opacity:1; 
stroke-linecap:round; stroke-linejoin:round;">
</g>
<g style="fill:#840000; fill-opacity:0.0; 
stroke:#840000; stroke-width:60; stroke-opacity:1; 
stroke-linecap:round; stroke-linejoin:round;">
<rect x="46450" y="44000" width="100" height="600" rx="0" />
<rect x="45450" y="44000" width="100" height="600" rx="0" />
<rect x="45000" y="44000" width="2000" height="1000" rx="0" />
<path d="M45500 44000
L45500 42500
" />
<g transform="rotate(-90 45400 43250)">
<text x="45400" y="43250"
textLength="540" font-size="660" lengthAdjust="spacingAndGlyphs"
text-anchor="middle" opacity="0">1</text>
</g>
<path d="M45370 43100
L45370 43390
" />
<path d="M45370 43250
L44870 43250
L44940 43290
L44990 43340
L45010 43390
" />
<path d="M46500 44000
L46500 42500
" />
<g transform="rotate(-90 46400 43250)">
<text x="46400" y="43250"
textLength="540" font-size="660" lengthAdjust="spacingAndGlyphs"
text-anchor="middle" opacity="0">2</text>
</g>
<path d="M45920 43390
L45900 43360
L45870 43320
L45870 43200
L45900 43150
L45920 43130
L45970 43100
L46010 43100
L46090 43130
L46370 43410
L46370 43100
" />
</g>
<g style="fill:#008484; fill-opacity:0.0; 
stroke:#008484; stroke-width:60; stroke-opacity:1; 
stroke-linecap:round; stroke-linejoin:round;">
<text x="45990" y="46270"
textLength="1990" font-size="660" lengthAdjust="spacingAndGlyphs"
text-anchor="middle" opacity="0">P101</text>
<path d="M45140 46240
L45140 45740
L45330 45740
L45380 45770
L45400 45790
L45430 45840
L45430 45910
L45400 45960
L45380 45980
L45330 46000
L45140 46000
" />
<path d="M45900 46240
L45620 46240
" />
<path d="M45760 46240
L45760 45740
L45710 45810
L45660 45860
L45620 45880
" />
<path d="M46210 45740
L46260 45740
L46310 45770
L46330 45790
L46350 45840
L46380 45930
L46380 46050
L46350 46150
L46330 46190
L46310 46220
L46260 46240
L46210 46240
L46160 46220
L46140 46190
L46120 46150
L46090 46050
L46090 45930
L46120 45840
L46140 45790
L46160 45770
L46210 45740
" />
<path d="M46850 46240
L46570 46240
" />
<path d="M46710 46240
L46710 45740
L46660 45810
L46620 45860
L46570 45880
" />
</g>
</g>
<g style="fill:#008484; fill-opacity:0.0; 
stroke:#008484; stroke-width:0; stroke-opacity:1; 
stroke-linecap:round; stroke-linejoin:round;">
<g >
</g>
<g style="fill:#840000; fill-opacity:0.0; 
stroke:#840000; stroke-width:0; stroke-opacity:1; 
stroke-linecap:round; stroke-linejoin:round;">
</g>
<g style="fill:#840000; fill-opacity:0.0; 
stroke:#840000; stroke-width:60; stroke-opacity:1; 
stroke-linecap:round; stroke-linejoin:round;">
<rect x="56450" y="44000" width="100" height="600" rx="0" />
<rect x="55450" y="44000" width="100" height="600" rx="0" />
<rect x="55000" y="44000" width="2000" height="1000" rx="0" />
<path d="M55500 44000
L55500 42500
" />
<g transform="rotate(-90 55400 43250)">
<text x="55400" y="43250"
textLength="540" font-size="660" lengthAdjust="spacingAndGlyphs"
text-anchor="middle" opacity="0">1</text>
</g>
<path d="M55370 43100
L55370 43390
" />
<path d="M55370 43250
L54870 43250
L54940 43290
L54990 43340
L55010 43390
" />
<path d="M56500 44000
L56500 42500
" />
<g transform="rotate(-90 56400 43250)">
<text x="56400" y="43250"
textLength="540" font-size="660" lengthAdjust="spacingAndGlyphs"
text-anchor="middle" opacity="0">2</text>
</g>
<path d="M55920 43390
L55900 43360
L55870 43320
L55870 43200
L55900 43150
L55920 43130
L55970 43100
L56010 43100
L56090 43130
L56370 43410
L56370 43100
" />
</g>
<g style="fill:#008484; fill-opacity:0.0; 
stroke:#008484; stroke-width:60; stroke-opacity:1; 
stroke-linecap:round; stroke-linejoin:round;">
<text x="55990" y="46270"
textLength="1990" font-size="660" lengthAdjust="spacingAndGlyphs"
text-anchor="middle" opacity="0">P102</text>
<path d="M55140 46240
L55140 45740
L55330 45740
L55380 45770
L55400 45790
L55430 45840
L55430 45910
L55400 45960
L55380 45980
L55330 46000
L55140 46000
" />
<path d="M55900 46240
L55620 46240
" />
<path d="M55760 46240
L55760 45740
L55710 45810
L55660 45860
L55620 45880
" />
<path d="M56210 45740
L56260 45740
L56310 45770
L56330 45790
L56350 45840
L56380 45930
L56380 46050
L56350 46150
L56330 46190
L56310 46220
L56260 46240
L56210 46240
L56160 46220
L56140 46190
L56120 46150
L56090 46050
L56090 45930
L56120 45840
L56140 45790
L56160 45770
L56210 45740
" />
<path d="M56570 45790
L56590 45770
L56640 45740
L56760 45740
L56810 45770
L56830 45790
L56850 45840
L56850 45880
L56830 45960
L56540 46240
L56850 46240
" />
</g>
</g>
<g style="fill:#008484; fill-opacity:0.0; 
stroke:#008484; stroke-width:0; stroke-opacity:1; 
stroke-linecap:round; stroke-linejoin:round;">
<g >
</g>
<g style="fill:#840000; fill-opacity:0.0; 
stroke:#840000; stroke-width:0; stroke-opacity:1; 
stroke-linecap:round; stroke-linejoin:round;">
</g>
<g style="fill:#840000; fill-opacity:0.0; 
stroke:#840000; stroke-width:60; stroke-opacity:1; 
stroke-linecap:round; stroke-linejoin:round;">
<circle cx="70500" cy="31700" r="300" /> 
<circle cx="68500" cy="31700" r="300" /> 
<circle cx="66500" cy="31700" r="300" /> 
<circle cx="64500" cy="31700" r="300" /> 
<circle cx="62500" cy="31700" r="300" /> 
<circle cx="69500" cy="30500" r="300" /> 
<circle cx="67500" cy="30500" r="300" /> 
<circle cx="65500" cy="30500" r="300" /> 
<circle cx="63500" cy="30500" r="300" /> 
</g>
<g style="fill:#840000; fill-opacity:0.0; 
stroke:#840000; stroke-width:80; stroke-opacity:1; 
stroke-linecap:round; stroke-linejoin:round;">
<path style="fill:#840000; fill-opacity:0.0; 
stroke:#840000; stroke-width:80; stroke-opacity:1; 
stroke-linecap:round; stroke-linejoin:round;fill:none"
d="M 71100,32500
61900,32500
" /> 
<path style="fill:#840000; fill-opacity:0.0; 
stroke:#840000; stroke-width:80; stroke-opacity:1; 
stroke-linecap:round; stroke-linejoin:round;fill:none"
d="M 71090,32500
71200,32400
" /> 
</g>
<g style="fill:#840000; fill-opacity:0.0; 
stroke:#840000; stroke-width:60; stroke-opacity:1; 
stroke-linecap:round; stroke-linejoin:round;">
<path style="fill:#840000; fill-opacity:0.0; 
stroke:#840000; stroke-width:60; stroke-opacity:1; 
stroke-linecap:round; stroke-linejoin:round;fill:none"
d="M 70500,32500
70500,32000
" /> 
<path style="fill:#840000; fill-opacity:0.0; 
stroke:#840000; stroke-width:60; stroke-opacity:1; 
stroke-linecap:round; stroke-linejoin:round;fill:none"
d="M 69500,32500
69500,30800
" /> 
<path style="fill:#840000; fill-opacity:0.0; 
stroke:#840000; stroke-width:60; stroke-opacity:1; 
stroke-linecap:round; stroke-linejoin:round;fill:none"
d="M 68500,32500
68500,32000
" /> 
<path style="fill:#840000; fill-opacity:0.0; 
stroke:#840000; stroke-width:60; stroke-opacity:1; 
stroke-linecap:round; stroke-linejoin:round;fill:none"
d="M 67500,32500
67500,30800
" /> 
<path style="fill:#840000; fill-opacity:0.0; 
stroke:#840000; stroke-width:60; stroke-opacity:1; 
stroke-linecap:round; stroke-linejoin:round;fill:none"
d="M 66500,32500
66500,32000
" /> 
<path style="fill:#840000; fill-opacity:0.0; 
stroke:#840000; stroke-width:60; stroke-opacity:1; 
stroke-linecap:round; stroke-linejoin:round;fill:none"
d="M 65500,32500
65500,30800
" /> 
<path style="fill:#840000; fill-opacity:0.0; 
stroke:#840000; stroke-width:60; stroke-opacity:1; 
stroke-linecap:round; stroke-linejoin:round;fill:none"
d="M 64500,32500
64500,32000
" /> 
<path style="fill:#840000; fill-opacity:0.0; 
stroke:#840000; stroke-width:60; stroke-opacity:1; 
stroke-linecap:round; stroke-linejoin:round;fill:none"
d="M 63500,32500
63500,30800
" /> 
<path style="fill:#840000; fill-opacity:0.0; 
stroke:#840000; stroke-width:60; stroke-opacity:1; 
stroke-linecap:round; stroke-linejoin:round;fill:none"
d="M 62500,32500
62500,32000
" /> 
</g>
<g style="fill:#840000; fill-opacity:0.0; 
stroke:#840000; stroke-width:80; stroke-opacity:1; 
stroke-linecap:round; stroke-linejoin:round;">
<path style="fill:#840000; fill-opacity:0.0; 
stroke:#840000; stroke-width:80; stroke-opacity:1; 
stroke-linecap:round; stroke-linejoin:round;fill:none"
d="M 71200,32400
71400,32100
" /> 
<path style="fill:#840000; fill-opacity:0.0; 
stroke:#840000; stroke-width:80; stroke-opacity:1; 
stroke-linecap:round; stroke-linejoin:round;fill:none"
d="M 61800,32400
61900,32500
" /> 
<path style="fill:#840000; fill-opacity:0.0; 
stroke:#840000; stroke-width:80; stroke-opacity:1; 
stroke-linecap:round; stroke-linejoin:round;fill:none"
d="M 61800,32400
61600,32000
" /> 
<path style="fill:#840000; fill-opacity:0.0; 
stroke:#840000; stroke-width:80; stroke-opacity:1; 
stroke-linecap:round; stroke-linejoin:round;fill:none"
d="M 71400,32100
71400,31500
" /> 
<path style="fill:#840000; fill-opacity:0.0; 
stroke:#840000; stroke-width:80; stroke-opacity:1; 
stroke-linecap:round; stroke-linejoin:round;fill:none"
d="M 61600,32000
61600,31700
" /> 
<path style="fill:#840000; fill-opacity:0.0; 
stroke:#840000; stroke-width:80; stroke-opacity:1; 
stroke-linecap:round; stroke-linejoin:round;fill:none"
d="M 62600,29710
61600,31700
" /> 
<path style="fill:#840000; fill-opacity:0.0; 
stroke:#840000; stroke-width:80; stroke-opacity:1; 
stroke-linecap:round; stroke-linejoin:round;fill:none"
d="M 62600,29710
62800,29500
" /> 
<path style="fill:#840000; fill-opacity:0.0; 
stroke:#840000; stroke-width:80; stroke-opacity:1; 
stroke-linecap:round; stroke-linejoin:round;fill:none"
d="M 70590,29600
71400,31500
" /> 
<path style="fill:#840000; fill-opacity:0.0; 
stroke:#840000; stroke-width:80; stroke-opacity:1; 
stroke-linecap:round; stroke-linejoin:round;fill:none"
d="M 70400,29500
70590,29600
" /> 
<path style="fill:#840000; fill-opacity:0.0; 
stroke:#840000; stroke-width:80; stroke-opacity:1; 
stroke-linecap:round; stroke-linejoin:round;fill:none"
d="M 62800,29500
70400,29500
" /> 
</g>
<g style="fill:#840000; fill-opacity:0.0; 
stroke:#840000; stroke-width:60; stroke-opacity:1; 
stroke-linecap:round; stroke-linejoin:round;">
<path d="M70500 32500
L70500 35500
" />
<g transform="rotate(-90 70400 34000)">
<text x="70400" y="34000"
textLength="540" font-size="660" lengthAdjust="spacingAndGlyphs"
text-anchor="middle" opacity="0">1</text>
</g>
<path d="M70370 33850
L70370 34140
" />
<path d="M70370 34000
L69870 34000
L69940 34040
L69990 34090
L70010 34140
" />
<path d="M68500 32500
L68500 35500
" />
<g transform="rotate(-90 68400 34000)">
<text x="68400" y="34000"
textLength="540" font-size="660" lengthAdjust="spacingAndGlyphs"
text-anchor="middle" opacity="0">2</text>
</g>
<path d="M67920 34140
L67900 34110
L67870 34070
L67870 33950
L67900 33900
L67920 33880
L67970 33850
L68010 33850
L68090 33880
L68370 34160
L68370 33850
" />
<path d="M66500 32500
L66500 35500
" />
<g transform="rotate(-90 66400 34000)">
<text x="66400" y="34000"
textLength="540" font-size="660" lengthAdjust="spacingAndGlyphs"
text-anchor="middle" opacity="0">3</text>
</g>
<path d="M65870 34160
L65870 33850
L66060 34020
L66060 33950
L66090 33900
L66110 33880
L66160 33850
L66280 33850
L66320 33880
L66350 33900
L66370 33950
L66370 34090
L66350 34140
L66320 34160
" />
<path d="M64500 32500
L64500 35500
" />
<g transform="rotate(-90 64400 34000)">
<text x="64400" y="34000"
textLength="540" font-size="660" lengthAdjust="spacingAndGlyphs"
text-anchor="middle" opacity="0">4</text>
</g>
<path d="M64040 33900
L64370 33900
" />
<path d="M63850 34020
L64200 34140
L64200 33830
" />
<path d="M62500 32500
L62500 35500
" />
<g transform="rotate(-90 62400 34000)">
<text x="62400" y="34000"
textLength="540" font-size="660" lengthAdjust="spacingAndGlyphs"
text-anchor="middle" opacity="0">5</text>
</g>
<path d="M61870 33880
L61870 34110
L62110 34140
L62090 34110
L62060 34070
L62060 33950
L62090 33900
L62110 33880
L62160 33850
L62280 33850
L62320 33880
L62350 33900
L62370 33950
L62370 34070
L62350 34110
L62320 34140
" />
<path d="M69500 32500
L69500 35500
" />
<g transform="rotate(-90 69400 34000)">
<text x="69400" y="34000"
textLength="540" font-size="660" lengthAdjust="spacingAndGlyphs"
text-anchor="middle" opacity="0">6</text>
</g>
<path d="M68870 33900
L68870 34000
L68900 34040
L68920 34070
L68990 34110
L69090 34140
L69280 34140
L69320 34110
L69350 34090
L69370 34040
L69370 33950
L69350 33900
L69320 33880
L69280 33850
L69160 33850
L69110 33880
L69090 33900
L69060 33950
L69060 34040
L69090 34090
L69110 34110
L69160 34140
" />
<path d="M67500 32500
L67500 35500
" />
<g transform="rotate(-90 67400 34000)">
<text x="67400" y="34000"
textLength="540" font-size="660" lengthAdjust="spacingAndGlyphs"
text-anchor="middle" opacity="0">7</text>
</g>
<path d="M66870 34160
L66870 33830
L67370 34040
" />
<path d="M65500 32500
L65500 35500
" />
<g transform="rotate(-90 65400 34000)">
<text x="65400" y="34000"
textLength="540" font-size="660" lengthAdjust="spacingAndGlyphs"
text-anchor="middle" opacity="0">8</text>
</g>
<path d="M65090 34040
L65060 34090
L65040 34110
L64990 34140
L64970 34140
L64920 34110
L64900 34090
L64870 34040
L64870 33950
L64900 33900
L64920 33880
L64970 33850
L64990 33850
L65040 33880
L65060 33900
L65090 33950
L65090 34040
L65110 34090
L65130 34110
L65180 34140
L65280 34140
L65320 34110
L65350 34090
L65370 34040
L65370 33950
L65350 33900
L65320 33880
L65280 33850
L65180 33850
L65130 33880
L65110 33900
L65090 33950
" />
<path d="M63500 32500
L63500 35500
" />
<g transform="rotate(-90 63400 34000)">
<text x="63400" y="34000"
textLength="540" font-size="660" lengthAdjust="spacingAndGlyphs"
text-anchor="middle" opacity="0">9</text>
</g>
<path d="M63370 34090
L63370 34000
L63350 33950
L63320 33920
L63250 33880
L63160 33850
L62970 33850
L62920 33880
L62900 33900
L62870 33950
L62870 34040
L62900 34090
L62920 34110
L62970 34140
L63090 34140
L63130 34110
L63160 34090
L63180 34040
L63180 33950
L63160 33900
L63130 33880
L63090 33850
" />
</g>
<g style="fill:#008484; fill-opacity:0.0; 
stroke:#008484; stroke-width:60; stroke-opacity:1; 
stroke-linecap:round; stroke-linejoin:round;">
<text x="60000" y="31220"
textLength="1040" font-size="660" lengthAdjust="spacingAndGlyphs"
text-anchor="middle" opacity="0">P2</text>
<path d="M59630 31190
L59630 30690
L59820 30690
L59860 30720
L59890 30740
L59910 30790
L59910 30860
L59890 30910
L59860 30930
L59820 30950
L59630 30950
" />
<path d="M60100 30740
L60130 30720
L60170 30690
L60290 30690
L60340 30720
L60360 30740
L60390 30790
L60390 30830
L60360 30910
L60080 31190
L60390 31190
" />
</g>
</g>
<g style="fill:#008484; fill-opacity:0.0; 
stroke:#008484; stroke-width:0; stroke-opacity:1; 
stroke-linecap:round; stroke-linejoin:round;">
<g >
</g>
<g style="fill:#840000; fill-opacity:0.0; 
stroke:#840000; stroke-width:0; stroke-opacity:1; 
stroke-linecap:round; stroke-linejoin:round;">
</g>
<g style="fill:#840000; fill-opacity:0.0; 
stroke:#840000; stroke-width:60; stroke-opacity:1; 
stroke-linecap:round; stroke-linejoin:round;">
<rect x="65450" y="44000" width="100" height="600" rx="0" />
<rect x="66450" y="44000" width="100" height="600" rx="0" />
<rect x="67450" y="44000" width="100" height="600" rx="0" />
<rect x="68450" y="44000" width="100" height="600" rx="0" />
<rect x="69450" y="44000" width="100" height="600" rx="0" />
<rect x="70450" y="44000" width="100" height="600" rx="0" />
<rect x="65000" y="44000" width="6000" height="1000" rx="0" />
<path d="M70500 44000
L70500 42500
" />
<g transform="rotate(-90 70400 43250)">
<text x="70400" y="43250"
textLength="540" font-size="660" lengthAdjust="spacingAndGlyphs"
text-anchor="middle" opacity="0">1</text>
</g>
<path d="M70370 43100
L70370 43390
" />
<path d="M70370 43250
L69870 43250
L69940 43290
L69990 43340
L70010 43390
" />
<path d="M69500 44000
L69500 42500
" />
<g transform="rotate(-90 69400 43250)">
<text x="69400" y="43250"
textLength="540" font-size="660" lengthAdjust="spacingAndGlyphs"
text-anchor="middle" opacity="0">2</text>
</g>
<path d="M68920 43390
L68900 43360
L68870 43320
L68870 43200
L68900 43150
L68920 43130
L68970 43100
L69010 43100
L69090 43130
L69370 43410
L69370 43100
" />
<path d="M68500 44000
L68500 42500
" />
<g transform="rotate(-90 68400 43250)">
<text x="68400" y="43250"
textLength="540" font-size="660" lengthAdjust="spacingAndGlyphs"
text-anchor="middle" opacity="0">3</text>
</g>
<path d="M67870 43410
L67870 43100
L68060 43270
L68060 43200
L68090 43150
L68110 43130
L68160 43100
L68280 43100
L68320 43130
L68350 43150
L68370 43200
L68370 43340
L68350 43390
L68320 43410
" />
<path d="M67500 44000
L67500 42500
" />
<g transform="rotate(-90 67400 43250)">
<text x="67400" y="43250"
textLength="540" font-size="660" lengthAdjust="spacingAndGlyphs"
text-anchor="middle" opacity="0">4</text>
</g>
<path d="M67040 43150
L67370 43150
" />
<path d="M66850 43270
L67200 43390
L67200 43080
" />
<path d="M66500 44000
L66500 42500
" />
<g transform="rotate(-90 66400 43250)">
<text x="66400" y="43250"
textLength="540" font-size="660" lengthAdjust="spacingAndGlyphs"
text-anchor="middle" opacity="0">5</text>
</g>
<path d="M65870 43130
L65870 43360
L66110 43390
L66090 43360
L66060 43320
L66060 43200
L66090 43150
L66110 43130
L66160 43100
L66280 43100
L66320 43130
L66350 43150
L66370 43200
L66370 43320
L66350 43360
L66320 43390
" />
<path d="M65500 44000
L65500 42500
" />
<g transform="rotate(-90 65400 43250)">
<text x="65400" y="43250"
textLength="540" font-size="660" lengthAdjust="spacingAndGlyphs"
text-anchor="middle" opacity="0">6</text>
</g>
<path d="M64870 43150
L64870 43250
L64900 43290
L64920 43320
L64990 43360
L65090 43390
L65280 43390
L65320 43360
L65350 43340
L65370 43290
L65370 43200
L65350 43150
L65320 43130
L65280 43100
L65160 43100
L65110 43130
L65090 43150
L65060 43200
L65060 43290
L65090 43340
L65110 43360
L65160 43390
" />
</g>
<g style="fill:#008484; fill-opacity:0.0; 
stroke:#008484; stroke-width:60; stroke-opacity:1; 
stroke-linecap:round; stroke-linejoin:round;">
<text x="68000" y="46270"
textLength="3990" font-size="660" lengthAdjust="spacingAndGlyphs"
text-anchor="middle" opacity="0">U101-JP1</text>
<path d="M66150 45740
L66150 46150
L66170 46190
L66200 46220
L66250 46240
L66340 46240
L66390 46220
L66410 46190
L66440 46150
L66440 45740
" />
<path d="M66940 46240
L66650 46240
" />
<path d="M66790 46240
L66790 45740
L66750 45810
L66700 45860
L66650 45880
" />
<path d="M67250 45740
L67290 45740
L67340 45770
L67360 45790
L67390 45840
L67410 45930
L67410 46050
L67390 46150
L67360 46190
L67340 46220
L67290 46240
L67250 46240
L67200 46220
L67170 46190
L67150 46150
L67130 46050
L67130 45930
L67150 45840
L67170 45790
L67200 45770
L67250 45740
" />
<path d="M67890 46240
L67600 46240
" />
<path d="M67750 46240
L67750 45740
L67700 45810
L67650 45860
L67600 45880
" />
<path d="M68100 46050
L68480 46050
" />
<path d="M68860 45740
L68860 46100
L68840 46170
L68790 46220
L68720 46240
L68670 46240
" />
<path d="M69100 46240
L69100 45740
L69290 45740
L69340 45770
L69360 45790
L69390 45840
L69390 45910
L69360 45960
L69340 45980
L69290 46000
L69100 46000
" />
<path d="M69860 46240
L69580 46240
" />
<path d="M69720 46240
L69720 45740
L69670 45810
L69630 45860
L69580 45880
" />
</g>
</g>
<g style="fill:#008484; fill-opacity:0.0; 
stroke:#008484; stroke-width:0; stroke-opacity:1; 
stroke-linecap:round; stroke-linejoin:round;">
<g >
</g>
<g style="fill:#840000; fill-opacity:0.0; 
stroke:#840000; stroke-width:0; stroke-opacity:1; 
stroke-linecap:round; stroke-linejoin:round;">
</g>
<g style="fill:#840000; fill-opacity:0.0; 
stroke:#840000; stroke-width:100; stroke-opacity:1; 
stroke-linecap:round; stroke-linejoin:round;">
<rect x="55000" y="37050" width="2000" height="1450" rx="0" />
<rect x="55750" y="37250" width="500" height="1050" rx="0" />
</g>
<g style="fill:#840000; fill-opacity:0.0; 
stroke:#840000; stroke-width:60; stroke-opacity:1; 
stroke-linecap:round; stroke-linejoin:round;">
<path style="fill:#840000; fill-opacity:0.0; 
stroke:#840000; stroke-width:60; stroke-opacity:1; 
stroke-linecap:round; stroke-linejoin:round;fill:none"
d="M 56400,38150
56400,37350
" /> 
<path style="fill:#840000; fill-opacity:0.0; 
stroke:#840000; stroke-width:60; stroke-opacity:1; 
stroke-linecap:round; stroke-linejoin:round;fill:none"
d="M 55600,38150
55600,37350
" /> 
<path style="fill:#840000; fill-opacity:0.0; 
stroke:#840000; stroke-width:60; stroke-opacity:1; 
stroke-linecap:round; stroke-linejoin:round;fill:none"
d="M 56400,37750
56700,37750
" /> 
<path style="fill:#840000; fill-opacity:0.0; 
stroke:#840000; stroke-width:60; stroke-opacity:1; 
stroke-linecap:round; stroke-linejoin:round;fill:none"
d="M 55600,37750
55300,37750
" /> 
</g>
<g style="fill:#840000; fill-opacity:0.0; 
stroke:#840000; stroke-width:100; stroke-opacity:1; 
stroke-linecap:round; stroke-linejoin:round;">
<path style="fill:#840000; fill-opacity:0.0; 
stroke:#840000; stroke-width:100; stroke-opacity:1; 
stroke-linecap:round; stroke-linejoin:round;fill:none"
d="M 55000,37050
54000,36050
58000,36050
57000,37050
" /> 
</g>
<g style="fill:#840000; fill-opacity:0.0; 
stroke:#840000; stroke-width:60; stroke-opacity:1; 
stroke-linecap:round; stroke-linejoin:round;">
<path d="M55500 38500
L55500 39500
" />
<g transform="rotate(-90 55600 39000)">
<text x="55600" y="39500"
textLength="540" font-size="660" lengthAdjust="spacingAndGlyphs"
text-anchor="middle" opacity="0">1</text>
</g>
<path d="M56070 38850
L56070 39140
" />
<path d="M56070 39000
L55570 39000
L55640 39040
L55690 39090
L55710 39140
" />
<path d="M56500 38500
L56500 39500
" />
<g transform="rotate(-90 56600 39000)">
<text x="56600" y="39500"
textLength="540" font-size="660" lengthAdjust="spacingAndGlyphs"
text-anchor="middle" opacity="0">2</text>
</g>
<path d="M56620 39140
L56600 39110
L56570 39070
L56570 38950
L56600 38900
L56620 38880
L56670 38850
L56710 38850
L56790 38880
L57070 39160
L57070 38850
" />
</g>
<g style="fill:#008484; fill-opacity:0.0; 
stroke:#008484; stroke-width:60; stroke-opacity:1; 
stroke-linecap:round; stroke-linejoin:round;">
<text x="55960" y="35470"
textLength="1420" font-size="660" lengthAdjust="spacingAndGlyphs"
text-anchor="middle" opacity="0">LS1</text>
<path d="M55630 35440
L55400 35440
L55400 34940
" />
<path d="M55780 35420
L55850 35440
L55970 35440
L56010 35420
L56040 35390
L56060 35350
L56060 35300
L56040 35250
L56010 35230
L55970 35200
L55870 35180
L55820 35160
L55800 35130
L55780 35080
L55780 35040
L55800 34990
L55820 34970
L55870 34940
L55990 34940
L56060 34970
" />
<path d="M56540 35440
L56250 35440
" />
<path d="M56400 35440
L56400 34940
L56350 35010
L56300 35060
L56250 35080
" />
</g>
</g>
<g style="fill:#008484; fill-opacity:0.0; 
stroke:#008484; stroke-width:0; stroke-opacity:1; 
stroke-linecap:round; stroke-linejoin:round;">
<g >
</g>
<g style="fill:#840000; fill-opacity:0.0; 
stroke:#840000; stroke-width:0; stroke-opacity:1; 
stroke-linecap:round; stroke-linejoin:round;">
</g>
<g style="fill:#840000; fill-opacity:0.0; 
stroke:#840000; stroke-width:80; stroke-opacity:1; 
stroke-linecap:round; stroke-linejoin:round;">
<circle cx="45500" cy="31000" r="200" /> 
</g>
<g style="fill:#840000; fill-opacity:0.0; 
stroke:#840000; stroke-width:120; stroke-opacity:1; 
stroke-linecap:round; stroke-linejoin:round;">
<circle cx="45500" cy="31000" r="700" /> 
</g>
<g style="fill:#840000; fill-opacity:0.0; 
stroke:#840000; stroke-width:60; stroke-opacity:1; 
stroke-linecap:round; stroke-linejoin:round;">
<path d="M45700 31000
L47000 31000
" />
<text x="46350" y="30900"
textLength="440" font-size="530" lengthAdjust="spacingAndGlyphs"
text-anchor="middle" opacity="0">1</text>
<path d="M46460 30880
L46230 30880
" />
<path d="M46350 30880
L46350 30480
L46310 30530
L46270 30570
L46230 30590
" />
<path d="M45500 31700
L45500 33000
" />
<g transform="rotate(-90 45400 32350)">
<text x="45400" y="32350"
textLength="440" font-size="530" lengthAdjust="spacingAndGlyphs"
text-anchor="middle" opacity="0">2</text>
</g>
<path d="M45010 32460
L45000 32440
L44980 32400
L44980 32310
L45000 32270
L45010 32250
L45050 32230
L45090 32230
L45150 32250
L45380 32480
L45380 32230
" />
</g>
<g style="fill:#008484; fill-opacity:0.0; 
stroke:#008484; stroke-width:60; stroke-opacity:1; 
stroke-linecap:round; stroke-linejoin:round;">
<text x="45500" y="29270"
textLength="1040" font-size="660" lengthAdjust="spacingAndGlyphs"
text-anchor="middle" opacity="0">P1</text>
<path d="M45130 29240
L45130 28740
L45320 28740
L45360 28770
L45390 28790
L45410 28840
L45410 28910
L45390 28960
L45360 28980
L45320 29000
L45130 29000
" />
<path d="M45890 29240
L45600 29240
" />
<path d="M45750 29240
L45750 28740
L45700 28810
L45650 28860
L45600 28880
" />
</g>
</g>
<g style="fill:#008484; fill-opacity:0.0; 
stroke:#008484; stroke-width:60; stroke-opacity:1; 
stroke-linecap:round; stroke-linejoin:round;">
</g>
<g style="fill:#008400; fill-opacity:0.0; 
stroke:#008400; stroke-width:60; stroke-opacity:1; 
stroke-linecap:round; stroke-linejoin:round;">
<path d="M56500 39500
L56500 42500
" />
<path d="M49500 35500
L49500 42000
" />
<path d="M69500 42500
L69500 39000
" />
<path d="M69500 39000
L66500 39000
" />
<path d="M66500 39000
L66500 35500
" />
<path d="M68500 35500
L68500 42500
" />
<path d="M65500 42500
L65500 39000
" />
<path d="M65500 39000
L62500 39000
" />
<path d="M62500 39000
L62500 35500
" />
<path d="M45500 35500
L45500 42500
" />
<path d="M55500 42500
L55500 39500
" />
<path d="M49500 31000
L47000 31000
" />
<path d="M49500 35500
L49000 35500
" />
<path d="M49500 31000
L49500 35500
" />
<path d="M49500 42000
L46500 42000
" />
<path d="M46500 42500
L46500 42000
" />
<path d="M45500 33000
L45500 35500
" />
<path d="M46000 35500
L45500 35500
" />
</g>
<g style="fill:#0000C2; fill-opacity:0.0; 
stroke:#0000C2; stroke-width:60; stroke-opacity:1; 
stroke-linecap:round; stroke-linejoin:round;">
<text x="47000" y="30900"
textLength="800" font-size="800" lengthAdjust="spacingAndGlyphs"
text-anchor="start" opacity="0">+</text>
<path d="M47170 30640
L47630 30640
" />
<path d="M47400 30870
L47400 30410
" />
<text x="64500" y="27900"
textLength="3600" font-size="800" lengthAdjust="spacingAndGlyphs"
text-anchor="start" opacity="0">Console</text>
<path d="M65010 27810
L64980 27840
L64900 27870
L64840 27870
L64750 27840
L64700 27780
L64670 27720
L64640 27610
L64640 27520
L64670 27410
L64700 27350
L64750 27300
L64840 27270
L64900 27270
L64980 27300
L65010 27320
" />
<path d="M65350 27870
L65300 27840
L65270 27810
L65240 27750
L65240 27580
L65270 27520
L65300 27500
L65350 27470
L65440 27470
L65500 27500
L65530 27520
L65550 27580
L65550 27750
L65530 27810
L65500 27840
L65440 27870
L65350 27870
" />
<path d="M65810 27470
L65810 27870
" />
<path d="M65810 27520
L65840 27500
L65900 27470
L65980 27470
L66040 27500
L66070 27550
L66070 27870
" />
<path d="M66330 27840
L66380 27870
L66500 27870
L66550 27840
L66580 27780
L66580 27750
L66550 27700
L66500 27670
L66410 27670
L66350 27640
L66330 27580
L66330 27550
L66350 27500
L66410 27470
L66500 27470
L66550 27500
" />
<path d="M66930 27870
L66870 27840
L66840 27810
L66810 27750
L66810 27580
L66840 27520
L66870 27500
L66930 27470
L67010 27470
L67070 27500
L67100 27520
L67130 27580
L67130 27750
L67100 27810
L67070 27840
L67010 27870
L66930 27870
" />
<path d="M67470 27870
L67410 27840
L67380 27780
L67380 27270
" />
<path d="M67930 27840
L67870 27870
L67750 27870
L67700 27840
L67670 27780
L67670 27550
L67700 27500
L67750 27470
L67870 27470
L67930 27500
L67950 27550
L67950 27610
L67670 27670
" />
<text x="44500" y="27900"
textLength="2800" font-size="800" lengthAdjust="spacingAndGlyphs"
text-anchor="start" opacity="0">5V DC</text>
<path d="M44950 27270
L44670 27270
L44640 27550
L44670 27520
L44730 27500
L44870 27500
L44930 27520
L44950 27550
L44980 27610
L44980 27750
L44950 27810
L44930 27840
L44870 27870
L44730 27870
L44670 27840
L44640 27810
" />
<path d="M45150 27270
L45350 27870
L45550 27270
" />
<path d="M46210 27870
L46210 27270
L46350 27270
L46440 27300
L46500 27350
L46530 27410
L46550 27520
L46550 27610
L46530 27720
L46500 27780
L46440 27840
L46350 27870
L46210 27870
" />
<path d="M47150 27810
L47130 27840
L47040 27870
L46980 27870
L46900 27840
L46840 27780
L46810 27720
L46780 27610
L46780 27520
L46810 27410
L46840 27350
L46900 27300
L46980 27270
L47040 27270
L47130 27300
L47150 27320
" />
</g>
<g style="fill:#0000C2; fill-opacity:0.0; 
stroke:#0000C2; stroke-width:0; stroke-opacity:1; 
stroke-linecap:round; stroke-linejoin:round;">
</g>
<g style="fill:#008400; fill-opacity:0.0; 
stroke:#008400; stroke-width:0; stroke-opacity:1; 
stroke-linecap:round; stroke-linejoin:round;">
</g>
<g style="fill:#008400; fill-opacity:1.0; 
stroke:#008400; stroke-width:100; stroke-opacity:1; 
stroke-linecap:round; stroke-linejoin:round;">
<circle cx="49500" cy="35500" r="200" /> 
</g>
<g style="fill:#008400; fill-opacity:1.0; 
stroke:#008400; stroke-width:0; stroke-opacity:1; 
stroke-linecap:round; stroke-linejoin:round;">
</g>
<g style="fill:#008400; fill-opacity:1.0; 
stroke:#008400; stroke-width:100; stroke-opacity:1; 
stroke-linecap:round; stroke-linejoin:round;">
<circle cx="45500" cy="35500" r="200" /> 
</g>
<g style="fill:#008400; fill-opacity:1.0; 
stroke:#008400; stroke-width:60; stroke-opacity:1; 
stroke-linecap:round; stroke-linejoin:round;">
</g>
<g style="fill:#000084; fill-opacity:1.0; 
stroke:#000084; stroke-width:60; stroke-opacity:1; 
stroke-linecap:round; stroke-linejoin:round;">
</g>
<g style="fill:#000084; fill-opacity:0.0; 
stroke:#000084; stroke-width:60; stroke-opacity:1; 
stroke-linecap:round; stroke-linejoin:round;">
<path d="M64260 35260
L64740 35740
" />
<path d="M64740 35260
L64260 35740
" />
<path d="M65260 35260
L65740 35740
" />
<path d="M65740 35260
L65260 35740
" />
<path d="M67260 35260
L67740 35740
" />
<path d="M67740 35260
L67260 35740
" />
<path d="M69260 35260
L69740 35740
" />
<path d="M69740 35260
L69260 35740
" />
<path d="M70260 35260
L70740 35740
" />
<path d="M70740 35260
L70260 35740
" />
<path d="M63260 35260
L63740 35740
" />
<path d="M63740 35260
L63260 35740
" />
<path d="M70260 42260
L70740 42740
" />
<path d="M70740 42260
L70260 42740
" />
<path d="M67260 42260
L67740 42740
" />
<path d="M67740 42260
L67260 42740
" />
<path d="M66260 42260
L66740 42740
" />
<path d="M66740 42260
L66260 42740
" />
</g> 
</svg>
