<?xml version="1.0" standalone="no"?>
 <!DOCTYPE svg PUBLIC "-//W3C//DTD SVG 1.1//EN" 
 "http://www.w3.org/Graphics/SVG/1.1/DTD/svg11.dtd"> 
<svg xmlns="http://www.w3.org/2000/svg" version="1.1" 
    width="29.7002cm" height="21.0007cm" viewBox="0 0 116929 82679 ">
<title>SVG Picture created as connectors.sch.svg date 2020/07/15 18:52:22 </title>
  <desc>Picture generated by Eeschema-SVG </desc>
<g style="fill:#000000; fill-opacity:1;stroke:#000000; stroke-opacity:1;
stroke-linecap:round; stroke-linejoin:round; "
 transform="translate(0 0) scale(1 1)">
</g>
<g style="fill:#000000; fill-opacity:0.0; 
stroke:#000000; stroke-width:-10; stroke-opacity:1; 
stroke-linecap:round; stroke-linejoin:round;">
</g>
<g style="fill:#000000; fill-opacity:0.0; 
stroke:#000000; stroke-width:100; stroke-opacity:1; 
stroke-linecap:round; stroke-linejoin:round;">
</g>
<g style="fill:#000000; fill-opacity:0.0; 
stroke:#000000; stroke-width:60; stroke-opacity:1; 
stroke-linecap:round; stroke-linejoin:round;">
<rect x="69690" y="65360" width="42520" height="12600" rx="0" />
</g>
<g style="fill:#000000; fill-opacity:0.0; 
stroke:#000000; stroke-width:100; stroke-opacity:1; 
stroke-linecap:round; stroke-linejoin:round;">
</g>
<g style="fill:#000000; fill-opacity:0.0; 
stroke:#000000; stroke-width:60; stroke-opacity:1; 
stroke-linecap:round; stroke-linejoin:round;">
<rect x="3940" y="3940" width="109050" height="74800" rx="0" />
</g>
<g style="fill:#000000; fill-opacity:0.0; 
stroke:#000000; stroke-width:100; stroke-opacity:1; 
stroke-linecap:round; stroke-linejoin:round;">
</g>
<g style="fill:#000000; fill-opacity:0.0; 
stroke:#000000; stroke-width:60; stroke-opacity:1; 
stroke-linecap:round; stroke-linejoin:round;">
<rect x="4720" y="4720" width="107490" height="73240" rx="0" />
</g>
<g style="fill:#000000; fill-opacity:0.0; 
stroke:#000000; stroke-width:100; stroke-opacity:1; 
stroke-linecap:round; stroke-linejoin:round;">
</g>
<g style="fill:#000000; fill-opacity:0.0; 
stroke:#000000; stroke-width:60; stroke-opacity:1; 
stroke-linecap:round; stroke-linejoin:round;">
<path d="M23620 4720
L23620 3940
" />
</g>
<g style="fill:#000000; fill-opacity:0.0; 
stroke:#000000; stroke-width:100; stroke-opacity:1; 
stroke-linecap:round; stroke-linejoin:round;">
</g>
<g style="fill:#000000; fill-opacity:0.0; 
stroke:#000000; stroke-width:60; stroke-opacity:1; 
stroke-linecap:round; stroke-linejoin:round;">
<path d="M43310 4720
L43310 3940
" />
</g>
<g style="fill:#000000; fill-opacity:0.0; 
stroke:#000000; stroke-width:100; stroke-opacity:1; 
stroke-linecap:round; stroke-linejoin:round;">
</g>
<g style="fill:#000000; fill-opacity:0.0; 
stroke:#000000; stroke-width:60; stroke-opacity:1; 
stroke-linecap:round; stroke-linejoin:round;">
<path d="M62990 4720
L62990 3940
" />
</g>
<g style="fill:#000000; fill-opacity:0.0; 
stroke:#000000; stroke-width:100; stroke-opacity:1; 
stroke-linecap:round; stroke-linejoin:round;">
</g>
<g style="fill:#000000; fill-opacity:0.0; 
stroke:#000000; stroke-width:60; stroke-opacity:1; 
stroke-linecap:round; stroke-linejoin:round;">
<path d="M82680 4720
L82680 3940
" />
</g>
<g style="fill:#000000; fill-opacity:0.0; 
stroke:#000000; stroke-width:100; stroke-opacity:1; 
stroke-linecap:round; stroke-linejoin:round;">
</g>
<g style="fill:#000000; fill-opacity:0.0; 
stroke:#000000; stroke-width:60; stroke-opacity:1; 
stroke-linecap:round; stroke-linejoin:round;">
<path d="M102360 4720
L102360 3940
" />
</g>
<g style="fill:#000000; fill-opacity:0.0; 
stroke:#000000; stroke-width:100; stroke-opacity:1; 
stroke-linecap:round; stroke-linejoin:round;">
</g>
<g style="fill:#000000; fill-opacity:0.0; 
stroke:#000000; stroke-width:60; stroke-opacity:1; 
stroke-linecap:round; stroke-linejoin:round;">
<path d="M14170 4560
L13880 4560
" />
<path d="M14020 4560
L14020 4050
L13970 4120
L13930 4170
L13880 4190
" />
</g>
<g style="fill:#000000; fill-opacity:0.0; 
stroke:#000000; stroke-width:100; stroke-opacity:1; 
stroke-linecap:round; stroke-linejoin:round;">
</g>
<g style="fill:#000000; fill-opacity:0.0; 
stroke:#000000; stroke-width:60; stroke-opacity:1; 
stroke-linecap:round; stroke-linejoin:round;">
<path d="M33560 4090
L33580 4070
L33630 4050
L33750 4050
L33800 4070
L33820 4090
L33850 4140
L33850 4190
L33820 4260
L33530 4560
L33850 4560
" />
</g>
<g style="fill:#000000; fill-opacity:0.0; 
stroke:#000000; stroke-width:100; stroke-opacity:1; 
stroke-linecap:round; stroke-linejoin:round;">
</g>
<g style="fill:#000000; fill-opacity:0.0; 
stroke:#000000; stroke-width:60; stroke-opacity:1; 
stroke-linecap:round; stroke-linejoin:round;">
<path d="M53220 4050
L53540 4050
L53370 4240
L53440 4240
L53490 4260
L53510 4290
L53540 4340
L53540 4460
L53510 4510
L53490 4530
L53440 4560
L53300 4560
L53250 4530
L53220 4510
" />
</g>
<g style="fill:#000000; fill-opacity:0.0; 
stroke:#000000; stroke-width:100; stroke-opacity:1; 
stroke-linecap:round; stroke-linejoin:round;">
</g>
<g style="fill:#000000; fill-opacity:0.0; 
stroke:#000000; stroke-width:60; stroke-opacity:1; 
stroke-linecap:round; stroke-linejoin:round;">
<path d="M73170 4220
L73170 4560
" />
<path d="M73050 4020
L72930 4390
L73240 4390
" />
</g>
<g style="fill:#000000; fill-opacity:0.0; 
stroke:#000000; stroke-width:100; stroke-opacity:1; 
stroke-linecap:round; stroke-linejoin:round;">
</g>
<g style="fill:#000000; fill-opacity:0.0; 
stroke:#000000; stroke-width:60; stroke-opacity:1; 
stroke-linecap:round; stroke-linejoin:round;">
<path d="M92880 4050
L92640 4050
L92620 4290
L92640 4260
L92690 4240
L92810 4240
L92860 4260
L92880 4290
L92910 4340
L92910 4460
L92880 4510
L92860 4530
L92810 4560
L92690 4560
L92640 4530
L92620 4510
" />
</g>
<g style="fill:#000000; fill-opacity:0.0; 
stroke:#000000; stroke-width:100; stroke-opacity:1; 
stroke-linecap:round; stroke-linejoin:round;">
</g>
<g style="fill:#000000; fill-opacity:0.0; 
stroke:#000000; stroke-width:60; stroke-opacity:1; 
stroke-linecap:round; stroke-linejoin:round;">
<path d="M112540 4050
L112440 4050
L112390 4070
L112370 4090
L112320 4170
L112300 4260
L112300 4460
L112320 4510
L112350 4530
L112390 4560
L112490 4560
L112540 4530
L112560 4510
L112590 4460
L112590 4340
L112560 4290
L112540 4260
L112490 4240
L112390 4240
L112350 4260
L112320 4290
L112300 4340
" />
</g>
<g style="fill:#000000; fill-opacity:0.0; 
stroke:#000000; stroke-width:100; stroke-opacity:1; 
stroke-linecap:round; stroke-linejoin:round;">
</g>
<g style="fill:#000000; fill-opacity:0.0; 
stroke:#000000; stroke-width:60; stroke-opacity:1; 
stroke-linecap:round; stroke-linejoin:round;">
<path d="M23620 77960
L23620 78740
" />
</g>
<g style="fill:#000000; fill-opacity:0.0; 
stroke:#000000; stroke-width:100; stroke-opacity:1; 
stroke-linecap:round; stroke-linejoin:round;">
</g>
<g style="fill:#000000; fill-opacity:0.0; 
stroke:#000000; stroke-width:60; stroke-opacity:1; 
stroke-linecap:round; stroke-linejoin:round;">
<path d="M43310 77960
L43310 78740
" />
</g>
<g style="fill:#000000; fill-opacity:0.0; 
stroke:#000000; stroke-width:100; stroke-opacity:1; 
stroke-linecap:round; stroke-linejoin:round;">
</g>
<g style="fill:#000000; fill-opacity:0.0; 
stroke:#000000; stroke-width:60; stroke-opacity:1; 
stroke-linecap:round; stroke-linejoin:round;">
<path d="M62990 77960
L62990 78740
" />
</g>
<g style="fill:#000000; fill-opacity:0.0; 
stroke:#000000; stroke-width:100; stroke-opacity:1; 
stroke-linecap:round; stroke-linejoin:round;">
</g>
<g style="fill:#000000; fill-opacity:0.0; 
stroke:#000000; stroke-width:60; stroke-opacity:1; 
stroke-linecap:round; stroke-linejoin:round;">
<path d="M82680 77960
L82680 78740
" />
</g>
<g style="fill:#000000; fill-opacity:0.0; 
stroke:#000000; stroke-width:100; stroke-opacity:1; 
stroke-linecap:round; stroke-linejoin:round;">
</g>
<g style="fill:#000000; fill-opacity:0.0; 
stroke:#000000; stroke-width:60; stroke-opacity:1; 
stroke-linecap:round; stroke-linejoin:round;">
<path d="M102360 77960
L102360 78740
" />
</g>
<g style="fill:#000000; fill-opacity:0.0; 
stroke:#000000; stroke-width:100; stroke-opacity:1; 
stroke-linecap:round; stroke-linejoin:round;">
</g>
<g style="fill:#000000; fill-opacity:0.0; 
stroke:#000000; stroke-width:60; stroke-opacity:1; 
stroke-linecap:round; stroke-linejoin:round;">
<path d="M14170 78580
L13880 78580
" />
<path d="M14020 78580
L14020 78070
L13970 78140
L13930 78190
L13880 78210
" />
</g>
<g style="fill:#000000; fill-opacity:0.0; 
stroke:#000000; stroke-width:100; stroke-opacity:1; 
stroke-linecap:round; stroke-linejoin:round;">
</g>
<g style="fill:#000000; fill-opacity:0.0; 
stroke:#000000; stroke-width:60; stroke-opacity:1; 
stroke-linecap:round; stroke-linejoin:round;">
<path d="M33560 78110
L33580 78090
L33630 78070
L33750 78070
L33800 78090
L33820 78110
L33850 78160
L33850 78210
L33820 78280
L33530 78580
L33850 78580
" />
</g>
<g style="fill:#000000; fill-opacity:0.0; 
stroke:#000000; stroke-width:100; stroke-opacity:1; 
stroke-linecap:round; stroke-linejoin:round;">
</g>
<g style="fill:#000000; fill-opacity:0.0; 
stroke:#000000; stroke-width:60; stroke-opacity:1; 
stroke-linecap:round; stroke-linejoin:round;">
<path d="M53220 78070
L53540 78070
L53370 78260
L53440 78260
L53490 78280
L53510 78310
L53540 78360
L53540 78480
L53510 78530
L53490 78550
L53440 78580
L53300 78580
L53250 78550
L53220 78530
" />
</g>
<g style="fill:#000000; fill-opacity:0.0; 
stroke:#000000; stroke-width:100; stroke-opacity:1; 
stroke-linecap:round; stroke-linejoin:round;">
</g>
<g style="fill:#000000; fill-opacity:0.0; 
stroke:#000000; stroke-width:60; stroke-opacity:1; 
stroke-linecap:round; stroke-linejoin:round;">
<path d="M73170 78240
L73170 78580
" />
<path d="M73050 78040
L72930 78410
L73240 78410
" />
</g>
<g style="fill:#000000; fill-opacity:0.0; 
stroke:#000000; stroke-width:100; stroke-opacity:1; 
stroke-linecap:round; stroke-linejoin:round;">
</g>
<g style="fill:#000000; fill-opacity:0.0; 
stroke:#000000; stroke-width:60; stroke-opacity:1; 
stroke-linecap:round; stroke-linejoin:round;">
<path d="M92880 78070
L92640 78070
L92620 78310
L92640 78280
L92690 78260
L92810 78260
L92860 78280
L92880 78310
L92910 78360
L92910 78480
L92880 78530
L92860 78550
L92810 78580
L92690 78580
L92640 78550
L92620 78530
" />
</g>
<g style="fill:#000000; fill-opacity:0.0; 
stroke:#000000; stroke-width:100; stroke-opacity:1; 
stroke-linecap:round; stroke-linejoin:round;">
</g>
<g style="fill:#000000; fill-opacity:0.0; 
stroke:#000000; stroke-width:60; stroke-opacity:1; 
stroke-linecap:round; stroke-linejoin:round;">
<path d="M112540 78070
L112440 78070
L112390 78090
L112370 78110
L112320 78190
L112300 78280
L112300 78480
L112320 78530
L112350 78550
L112390 78580
L112490 78580
L112540 78550
L112560 78530
L112590 78480
L112590 78360
L112560 78310
L112540 78280
L112490 78260
L112390 78260
L112350 78280
L112320 78310
L112300 78360
" />
</g>
<g style="fill:#000000; fill-opacity:0.0; 
stroke:#000000; stroke-width:100; stroke-opacity:1; 
stroke-linecap:round; stroke-linejoin:round;">
</g>
<g style="fill:#000000; fill-opacity:0.0; 
stroke:#000000; stroke-width:60; stroke-opacity:1; 
stroke-linecap:round; stroke-linejoin:round;">
<path d="M3940 23620
L4720 23620
" />
</g>
<g style="fill:#000000; fill-opacity:0.0; 
stroke:#000000; stroke-width:100; stroke-opacity:1; 
stroke-linecap:round; stroke-linejoin:round;">
</g>
<g style="fill:#000000; fill-opacity:0.0; 
stroke:#000000; stroke-width:60; stroke-opacity:1; 
stroke-linecap:round; stroke-linejoin:round;">
<path d="M3940 43310
L4720 43310
" />
</g>
<g style="fill:#000000; fill-opacity:0.0; 
stroke:#000000; stroke-width:100; stroke-opacity:1; 
stroke-linecap:round; stroke-linejoin:round;">
</g>
<g style="fill:#000000; fill-opacity:0.0; 
stroke:#000000; stroke-width:60; stroke-opacity:1; 
stroke-linecap:round; stroke-linejoin:round;">
<path d="M3940 62990
L4720 62990
" />
</g>
<g style="fill:#000000; fill-opacity:0.0; 
stroke:#000000; stroke-width:100; stroke-opacity:1; 
stroke-linecap:round; stroke-linejoin:round;">
</g>
<g style="fill:#000000; fill-opacity:0.0; 
stroke:#000000; stroke-width:60; stroke-opacity:1; 
stroke-linecap:round; stroke-linejoin:round;">
<path d="M4210 13860
L4450 13860
" />
<path d="M4160 14010
L4330 13500
L4500 14010
" />
</g>
<g style="fill:#000000; fill-opacity:0.0; 
stroke:#000000; stroke-width:100; stroke-opacity:1; 
stroke-linecap:round; stroke-linejoin:round;">
</g>
<g style="fill:#000000; fill-opacity:0.0; 
stroke:#000000; stroke-width:60; stroke-opacity:1; 
stroke-linecap:round; stroke-linejoin:round;">
<path d="M4370 33420
L4440 33440
L4470 33470
L4490 33520
L4490 33590
L4470 33640
L4440 33660
L4400 33690
L4200 33690
L4200 33180
L4370 33180
L4420 33200
L4440 33220
L4470 33270
L4470 33320
L4440 33370
L4420 33390
L4370 33420
L4200 33420
" />
</g>
<g style="fill:#000000; fill-opacity:0.0; 
stroke:#000000; stroke-width:100; stroke-opacity:1; 
stroke-linecap:round; stroke-linejoin:round;">
</g>
<g style="fill:#000000; fill-opacity:0.0; 
stroke:#000000; stroke-width:60; stroke-opacity:1; 
stroke-linecap:round; stroke-linejoin:round;">
<path d="M4490 53330
L4470 53350
L4400 53380
L4350 53380
L4270 53350
L4230 53300
L4200 53250
L4180 53160
L4180 53080
L4200 52990
L4230 52940
L4270 52890
L4350 52870
L4400 52870
L4470 52890
L4490 52910
" />
</g>
<g style="fill:#000000; fill-opacity:0.0; 
stroke:#000000; stroke-width:100; stroke-opacity:1; 
stroke-linecap:round; stroke-linejoin:round;">
</g>
<g style="fill:#000000; fill-opacity:0.0; 
stroke:#000000; stroke-width:60; stroke-opacity:1; 
stroke-linecap:round; stroke-linejoin:round;">
<path d="M4200 73060
L4200 72550
L4320 72550
L4400 72570
L4440 72620
L4470 72670
L4490 72760
L4490 72840
L4470 72930
L4440 72980
L4400 73030
L4320 73060
L4200 73060
" />
</g>
<g style="fill:#000000; fill-opacity:0.0; 
stroke:#000000; stroke-width:100; stroke-opacity:1; 
stroke-linecap:round; stroke-linejoin:round;">
</g>
<g style="fill:#000000; fill-opacity:0.0; 
stroke:#000000; stroke-width:60; stroke-opacity:1; 
stroke-linecap:round; stroke-linejoin:round;">
<path d="M112990 23620
L112210 23620
" />
</g>
<g style="fill:#000000; fill-opacity:0.0; 
stroke:#000000; stroke-width:100; stroke-opacity:1; 
stroke-linecap:round; stroke-linejoin:round;">
</g>
<g style="fill:#000000; fill-opacity:0.0; 
stroke:#000000; stroke-width:60; stroke-opacity:1; 
stroke-linecap:round; stroke-linejoin:round;">
<path d="M112990 43310
L112210 43310
" />
</g>
<g style="fill:#000000; fill-opacity:0.0; 
stroke:#000000; stroke-width:100; stroke-opacity:1; 
stroke-linecap:round; stroke-linejoin:round;">
</g>
<g style="fill:#000000; fill-opacity:0.0; 
stroke:#000000; stroke-width:60; stroke-opacity:1; 
stroke-linecap:round; stroke-linejoin:round;">
<path d="M112990 62990
L112210 62990
" />
</g>
<g style="fill:#000000; fill-opacity:0.0; 
stroke:#000000; stroke-width:100; stroke-opacity:1; 
stroke-linecap:round; stroke-linejoin:round;">
</g>
<g style="fill:#000000; fill-opacity:0.0; 
stroke:#000000; stroke-width:60; stroke-opacity:1; 
stroke-linecap:round; stroke-linejoin:round;">
<path d="M112480 13860
L112720 13860
" />
<path d="M112430 14010
L112600 13500
L112770 14010
" />
</g>
<g style="fill:#000000; fill-opacity:0.0; 
stroke:#000000; stroke-width:100; stroke-opacity:1; 
stroke-linecap:round; stroke-linejoin:round;">
</g>
<g style="fill:#000000; fill-opacity:0.0; 
stroke:#000000; stroke-width:60; stroke-opacity:1; 
stroke-linecap:round; stroke-linejoin:round;">
<path d="M112640 33420
L112710 33440
L112740 33470
L112760 33520
L112760 33590
L112740 33640
L112710 33660
L112670 33690
L112470 33690
L112470 33180
L112640 33180
L112690 33200
L112710 33220
L112740 33270
L112740 33320
L112710 33370
L112690 33390
L112640 33420
L112470 33420
" />
</g>
<g style="fill:#000000; fill-opacity:0.0; 
stroke:#000000; stroke-width:100; stroke-opacity:1; 
stroke-linecap:round; stroke-linejoin:round;">
</g>
<g style="fill:#000000; fill-opacity:0.0; 
stroke:#000000; stroke-width:60; stroke-opacity:1; 
stroke-linecap:round; stroke-linejoin:round;">
<path d="M112760 53330
L112740 53350
L112670 53380
L112620 53380
L112540 53350
L112500 53300
L112470 53250
L112450 53160
L112450 53080
L112470 52990
L112500 52940
L112540 52890
L112620 52870
L112670 52870
L112740 52890
L112760 52910
" />
</g>
<g style="fill:#000000; fill-opacity:0.0; 
stroke:#000000; stroke-width:100; stroke-opacity:1; 
stroke-linecap:round; stroke-linejoin:round;">
</g>
<g style="fill:#000000; fill-opacity:0.0; 
stroke:#000000; stroke-width:60; stroke-opacity:1; 
stroke-linecap:round; stroke-linejoin:round;">
<path d="M112470 73060
L112470 72550
L112590 72550
L112670 72570
L112710 72620
L112740 72670
L112760 72760
L112760 72840
L112740 72930
L112710 72980
L112670 73030
L112590 73060
L112470 73060
" />
</g>
<g style="fill:#000000; fill-opacity:0.0; 
stroke:#000000; stroke-width:100; stroke-opacity:1; 
stroke-linecap:round; stroke-linejoin:round;">
</g>
<g style="fill:#000000; fill-opacity:0.0; 
stroke:#000000; stroke-width:60; stroke-opacity:1; 
stroke-linecap:round; stroke-linejoin:round;">
<path d="M78880 76290
L78880 75700
L79020 75700
L79110 75730
L79160 75790
L79190 75840
L79220 75950
L79220 76040
L79190 76150
L79160 76210
L79110 76260
L79020 76290
L78880 76290
" />
<path d="M79720 76290
L79720 75980
L79700 75930
L79640 75900
L79530 75900
L79470 75930
" />
<path d="M79720 76260
L79670 76290
L79530 76290
L79470 76260
L79440 76210
L79440 76150
L79470 76100
L79530 76070
L79670 76070
L79720 76040
" />
<path d="M79920 75900
L80140 75900
" />
<path d="M80000 75700
L80000 76210
L80030 76260
L80080 76290
L80140 76290
" />
<path d="M80570 76260
L80510 76290
L80400 76290
L80340 76260
L80310 76210
L80310 75980
L80340 75930
L80400 75900
L80510 75900
L80570 75930
L80590 75980
L80590 76040
L80310 76100
" />
<path d="M80850 76240
L80880 76260
L80850 76290
L80820 76260
L80850 76240
L80850 76290
" />
<path d="M80850 75930
L80880 75950
L80850 75980
L80820 75950
L80850 75930
L80850 75980
" />
<path d="M81550 75760
L81580 75730
L81640 75700
L81780 75700
L81830 75730
L81860 75760
L81890 75810
L81890 75870
L81860 75950
L81520 76290
L81890 76290
" />
<path d="M82250 75700
L82310 75700
L82370 75730
L82390 75760
L82420 75810
L82450 75930
L82450 76070
L82420 76180
L82390 76240
L82370 76260
L82310 76290
L82250 76290
L82200 76260
L82170 76240
L82140 76180
L82110 76070
L82110 75930
L82140 75810
L82170 75760
L82200 75730
L82250 75700
" />
<path d="M82670 75760
L82700 75730
L82760 75700
L82900 75700
L82950 75730
L82980 75760
L83010 75810
L83010 75870
L82980 75950
L82640 76290
L83010 76290
" />
<path d="M83370 75700
L83430 75700
L83490 75730
L83510 75760
L83540 75810
L83570 75930
L83570 76070
L83540 76180
L83510 76240
L83490 76260
L83430 76290
L83370 76290
L83320 76260
L83290 76240
L83260 76180
L83230 76070
L83230 75930
L83260 75810
L83290 75760
L83320 75730
L83370 75700
" />
<path d="M83820 76070
L84270 76070
" />
<path d="M84660 75700
L84720 75700
L84780 75730
L84800 75760
L84830 75810
L84860 75930
L84860 76070
L84830 76180
L84800 76240
L84780 76260
L84720 76290
L84660 76290
L84610 76260
L84580 76240
L84550 76180
L84520 76070
L84520 75930
L84550 75810
L84580 75760
L84610 75730
L84660 75700
" />
<path d="M85360 75700
L85250 75700
L85190 75730
L85170 75760
L85110 75840
L85080 75950
L85080 76180
L85110 76240
L85140 76260
L85190 76290
L85310 76290
L85360 76260
L85390 76240
L85420 76180
L85420 76040
L85390 75980
L85360 75950
L85310 75930
L85190 75930
L85140 75950
L85110 75980
L85080 76040
" />
<path d="M85670 76070
L86120 76070
" />
<path d="M86370 75760
L86400 75730
L86460 75700
L86600 75700
L86650 75730
L86680 75760
L86710 75810
L86710 75870
L86680 75950
L86340 76290
L86710 76290
" />
<path d="M87070 75700
L87130 75700
L87190 75730
L87210 75760
L87240 75810
L87270 75930
L87270 76070
L87240 76180
L87210 76240
L87190 76260
L87130 76290
L87070 76290
L87020 76260
L86990 76240
L86960 76180
L86930 76070
L86930 75930
L86960 75810
L86990 75760
L87020 75730
L87070 75700
" />
</g>
<g style="fill:#000000; fill-opacity:0.0; 
stroke:#000000; stroke-width:100; stroke-opacity:1; 
stroke-linecap:round; stroke-linejoin:round;">
</g>
<g style="fill:#000000; fill-opacity:0.0; 
stroke:#000000; stroke-width:60; stroke-opacity:1; 
stroke-linecap:round; stroke-linejoin:round;">
<path d="M69690 76580
L112210 76580
" />
</g>
<g style="fill:#000000; fill-opacity:0.0; 
stroke:#000000; stroke-width:100; stroke-opacity:1; 
stroke-linecap:round; stroke-linejoin:round;">
</g>
<g style="fill:#000000; fill-opacity:0.0; 
stroke:#000000; stroke-width:60; stroke-opacity:1; 
stroke-linecap:round; stroke-linejoin:round;">
<path d="M70220 77390
L70220 76800
" />
<path d="M70560 77390
L70300 77050
" />
<path d="M70560 76800
L70220 77140
" />
<path d="M70810 77390
L70810 77000
" />
<path d="M70810 76800
L70780 76830
L70810 76860
L70840 76830
L70810 76800
L70810 76860
" />
<path d="M71430 77340
L71400 77360
L71320 77390
L71260 77390
L71170 77360
L71120 77310
L71090 77250
L71060 77140
L71060 77050
L71090 76940
L71120 76890
L71170 76830
L71260 76800
L71320 76800
L71400 76830
L71430 76860
" />
<path d="M71930 77390
L71930 77080
L71910 77030
L71850 77000
L71740 77000
L71680 77030
" />
<path d="M71930 77360
L71880 77390
L71740 77390
L71680 77360
L71650 77310
L71650 77250
L71680 77200
L71740 77170
L71880 77170
L71930 77140
" />
<path d="M72460 77390
L72460 76800
" />
<path d="M72460 77360
L72410 77390
L72290 77390
L72240 77360
L72210 77340
L72180 77280
L72180 77110
L72210 77050
L72240 77030
L72290 77000
L72410 77000
L72460 77030
" />
<path d="M73190 77080
L73390 77080
" />
<path d="M73470 77390
L73190 77390
L73190 76800
L73470 76800
" />
<path d="M73720 77340
L73750 77360
L73720 77390
L73690 77360
L73720 77340
L73720 77390
" />
<path d="M74000 77390
L74000 76800
L74140 76800
L74230 76830
L74280 76890
L74310 76940
L74340 77050
L74340 77140
L74310 77250
L74280 77310
L74230 77360
L74140 77390
L74000 77390
" />
<path d="M74590 77340
L74620 77360
L74590 77390
L74560 77360
L74590 77340
L74590 77390
" />
<path d="M74840 77220
L75120 77220
" />
<path d="M74790 77390
L74980 76800
L75180 77390
" />
<path d="M75380 77340
L75410 77360
L75380 77390
L75350 77360
L75380 77340
L75380 77390
" />
<path d="M76560 77390
L76560 76800
" />
<path d="M76620 77170
L76790 77390
" />
<path d="M76790 77000
L76560 77220
" />
<path d="M77040 77390
L77040 77000
" />
<path d="M77040 76800
L77010 76830
L77040 76860
L77070 76830
L77040 76800
L77040 76860
" />
<path d="M77570 77360
L77520 77390
L77400 77390
L77350 77360
L77320 77340
L77290 77280
L77290 77110
L77320 77050
L77350 77030
L77400 77000
L77520 77000
L77570 77030
" />
<path d="M78080 77390
L78080 77080
L78060 77030
L78000 77000
L77890 77000
L77830 77030
" />
<path d="M78080 77360
L78030 77390
L77890 77390
L77830 77360
L77800 77310
L77800 77250
L77830 77200
L77890 77170
L78030 77170
L78080 77140
" />
<path d="M78610 77390
L78610 76800
" />
<path d="M78610 77360
L78560 77390
L78440 77390
L78390 77360
L78360 77340
L78330 77280
L78330 77110
L78360 77050
L78390 77030
L78440 77000
L78560 77000
L78610 77030
" />
<path d="M79590 77000
L79590 77390
" />
<path d="M79450 76770
L79310 77200
L79680 77200
" />
<path d="M79900 77340
L79930 77360
L79900 77390
L79870 77360
L79900 77340
L79900 77390
" />
<path d="M80290 76800
L80350 76800
L80410 76830
L80430 76860
L80460 76910
L80490 77030
L80490 77170
L80460 77280
L80430 77340
L80410 77360
L80350 77390
L80290 77390
L80240 77360
L80210 77340
L80180 77280
L80150 77170
L80150 77030
L80180 76910
L80210 76860
L80240 76830
L80290 76800
" />
<path d="M80740 77340
L80770 77360
L80740 77390
L80710 77360
L80740 77340
L80740 77390
" />
<path d="M81300 76800
L81020 76800
L80990 77080
L81020 77050
L81080 77030
L81220 77030
L81270 77050
L81300 77080
L81330 77140
L81330 77280
L81300 77340
L81270 77360
L81220 77390
L81080 77390
L81020 77360
L80990 77340
" />
<path d="M81580 77170
L82030 77170
" />
<path d="M81810 77390
L81810 76940
" />
<path d="M82560 77390
L82560 76800
" />
<path d="M82560 77360
L82510 77390
L82390 77390
L82340 77360
L82310 77340
L82280 77280
L82280 77110
L82310 77050
L82340 77030
L82390 77000
L82510 77000
L82560 77030
" />
<path d="M82760 77000
L82980 77000
" />
<path d="M82840 77390
L82840 76890
L82870 76830
L82920 76800
L82980 76800
" />
<path d="M83150 77360
L83210 77390
L83320 77390
L83380 77360
L83410 77310
L83410 77280
L83380 77220
L83320 77200
L83240 77200
L83180 77170
L83150 77110
L83150 77080
L83180 77030
L83240 77000
L83320 77000
L83380 77030
" />
<path d="M83910 77000
L83910 77480
L83890 77530
L83860 77560
L83800 77590
L83720 77590
L83660 77560
" />
<path d="M83910 77360
L83860 77390
L83740 77390
L83690 77360
L83660 77340
L83630 77280
L83630 77110
L83660 77050
L83690 77030
L83740 77000
L83860 77000
L83910 77030
" />
<path d="M84500 77390
L84160 77390
" />
<path d="M84330 77390
L84330 76800
L84270 76890
L84220 76940
L84160 76970
" />
<path d="M84750 77170
L85200 77170
" />
<path d="M85730 77000
L85730 77390
" />
<path d="M85590 76770
L85450 77200
L85820 77200
" />
</g>
<g style="fill:#000000; fill-opacity:0.0; 
stroke:#000000; stroke-width:100; stroke-opacity:1; 
stroke-linecap:round; stroke-linejoin:round;">
</g>
<g style="fill:#000000; fill-opacity:0.0; 
stroke:#000000; stroke-width:60; stroke-opacity:1; 
stroke-linecap:round; stroke-linejoin:round;">
<path d="M69690 75400
L112210 75400
" />
</g>
<g style="fill:#000000; fill-opacity:0.0; 
stroke:#000000; stroke-width:100; stroke-opacity:1; 
stroke-linecap:round; stroke-linejoin:round;">
</g>
<g style="fill:#000000; fill-opacity:0.0; 
stroke:#000000; stroke-width:120; stroke-opacity:1; 
stroke-linecap:round; stroke-linejoin:round;">
<path d="M104020 76290
L103820 76010
" />
<path d="M103680 76290
L103680 75700
L103910 75700
L103960 75730
L103990 75760
L104020 75810
L104020 75900
L103990 75950
L103960 75980
L103910 76010
L103680 76010
" />
<path d="M104500 76260
L104440 76290
L104330 76290
L104270 76260
L104240 76210
L104240 75980
L104270 75930
L104330 75900
L104440 75900
L104500 75930
L104520 75980
L104520 76040
L104240 76100
" />
<path d="M104720 75900
L104860 76290
L105010 75900
" />
<path d="M105230 76240
L105260 76260
L105230 76290
L105200 76260
L105230 76240
L105230 76290
" />
<path d="M105230 75930
L105260 75950
L105230 75980
L105200 75950
L105230 75930
L105230 75980
" />
<path d="M105930 75760
L105960 75730
L106020 75700
L106160 75700
L106210 75730
L106240 75760
L106270 75810
L106270 75870
L106240 75950
L105900 76290
L106270 76290
" />
<path d="M106630 75700
L106690 75700
L106750 75730
L106770 75760
L106800 75810
L106830 75930
L106830 76070
L106800 76180
L106770 76240
L106750 76260
L106690 76290
L106630 76290
L106580 76260
L106550 76240
L106520 76180
L106490 76070
L106490 75930
L106520 75810
L106550 75760
L106580 75730
L106630 75700
" />
<path d="M107190 75700
L107250 75700
L107310 75730
L107330 75760
L107360 75810
L107390 75930
L107390 76070
L107360 76180
L107330 76240
L107310 76260
L107250 76290
L107190 76290
L107140 76260
L107110 76240
L107080 76180
L107050 76070
L107050 75930
L107080 75810
L107110 75760
L107140 75730
L107190 75700
" />
<path d="M107890 75700
L107780 75700
L107720 75730
L107700 75760
L107640 75840
L107610 75950
L107610 76180
L107640 76240
L107670 76260
L107720 76290
L107840 76290
L107890 76260
L107920 76240
L107950 76180
L107950 76040
L107920 75980
L107890 75950
L107840 75930
L107720 75930
L107670 75950
L107640 75980
L107610 76040
" />
<path d="M108170 75760
L108200 75730
L108260 75700
L108400 75700
L108450 75730
L108480 75760
L108510 75810
L108510 75870
L108480 75950
L108140 76290
L108510 76290
" />
<path d="M108870 75700
L108930 75700
L108990 75730
L109010 75760
L109040 75810
L109070 75930
L109070 76070
L109040 76180
L109010 76240
L108990 76260
L108930 76290
L108870 76290
L108820 76260
L108790 76240
L108760 76180
L108730 76070
L108730 75930
L108760 75810
L108790 75760
L108820 75730
L108870 75700
" />
</g>
<g style="fill:#000000; fill-opacity:0.0; 
stroke:#000000; stroke-width:100; stroke-opacity:1; 
stroke-linecap:round; stroke-linejoin:round;">
</g>
<g style="fill:#000000; fill-opacity:0.0; 
stroke:#000000; stroke-width:60; stroke-opacity:1; 
stroke-linecap:round; stroke-linejoin:round;">
<path d="M70190 76260
L70280 76290
L70420 76290
L70470 76260
L70500 76240
L70530 76180
L70530 76120
L70500 76070
L70470 76040
L70420 76010
L70300 75980
L70250 75950
L70220 75930
L70190 75870
L70190 75810
L70220 75760
L70250 75730
L70300 75700
L70450 75700
L70530 75730
" />
<path d="M70780 76290
L70780 75900
" />
<path d="M70780 75700
L70750 75730
L70780 75760
L70810 75730
L70780 75700
L70780 75760
" />
<path d="M71000 75900
L71310 75900
L71000 76290
L71310 76290
" />
<path d="M71770 76260
L71710 76290
L71600 76290
L71540 76260
L71510 76210
L71510 75980
L71540 75930
L71600 75900
L71710 75900
L71770 75930
L71790 75980
L71790 76040
L71510 76100
" />
<path d="M72050 76240
L72080 76260
L72050 76290
L72020 76260
L72050 76240
L72050 76290
" />
<path d="M72050 75930
L72080 75950
L72050 75980
L72020 75950
L72050 75930
L72050 75980
" />
<path d="M72750 76120
L73030 76120
" />
<path d="M72700 76290
L72890 75700
L73090 76290
" />
<path d="M73540 75900
L73540 76290
" />
<path d="M73400 75670
L73260 76100
L73630 76100
" />
</g>
<g style="fill:#000000; fill-opacity:0.0; 
stroke:#000000; stroke-width:100; stroke-opacity:1; 
stroke-linecap:round; stroke-linejoin:round;">
</g>
<g style="fill:#000000; fill-opacity:0.0; 
stroke:#000000; stroke-width:60; stroke-opacity:1; 
stroke-linecap:round; stroke-linejoin:round;">
<path d="M103680 77390
L103680 76800
" />
<path d="M104210 77390
L104210 76800
" />
<path d="M104210 77360
L104160 77390
L104040 77390
L103990 77360
L103960 77340
L103930 77280
L103930 77110
L103960 77050
L103990 77030
L104040 77000
L104160 77000
L104210 77030
" />
<path d="M104490 77340
L104520 77360
L104490 77390
L104460 77360
L104490 77340
L104490 77390
" />
<path d="M104490 77030
L104520 77050
L104490 77080
L104460 77050
L104490 77030
L104490 77080
" />
<path d="M105530 77390
L105190 77390
" />
<path d="M105360 77390
L105360 76800
L105300 76890
L105250 76940
L105190 76970
" />
<path d="M106200 76770
L105700 77530
" />
<path d="M106710 77390
L106370 77390
" />
<path d="M106540 77390
L106540 76800
L106480 76890
L106430 76940
L106370 76970
" />
</g>
<g style="fill:#000000; fill-opacity:0.0; 
stroke:#000000; stroke-width:100; stroke-opacity:1; 
stroke-linecap:round; stroke-linejoin:round;">
</g>
<g style="fill:#000000; fill-opacity:0.0; 
stroke:#000000; stroke-width:60; stroke-opacity:1; 
stroke-linecap:round; stroke-linejoin:round;">
<path d="M69690 73820
L112210 73820
" />
</g>
<g style="fill:#000000; fill-opacity:0.0; 
stroke:#000000; stroke-width:100; stroke-opacity:1; 
stroke-linecap:round; stroke-linejoin:round;">
</g>
<g style="fill:#000000; fill-opacity:0.0; 
stroke:#000000; stroke-width:160; stroke-opacity:1; 
stroke-linecap:round; stroke-linejoin:round;">
<path d="M70260 74090
L70710 74090
" />
<path d="M70390 74880
L70480 74090
" />
<path d="M70880 74880
L70940 74360
" />
<path d="M70970 74090
L70930 74130
L70960 74170
L71010 74130
L70970 74090
L70960 74170
" />
<path d="M71210 74360
L71510 74360
" />
<path d="M71350 74090
L71270 74770
L71300 74840
L71370 74880
L71450 74880
" />
<path d="M71820 74880
L71750 74840
L71720 74770
L71800 74090
" />
<path d="M72420 74840
L72340 74880
L72190 74880
L72120 74840
L72090 74770
L72130 74470
L72180 74390
L72250 74360
L72400 74360
L72480 74390
L72510 74470
L72500 74540
L72110 74620
" />
<path d="M72800 74810
L72840 74840
L72800 74880
L72760 74840
L72800 74810
L72800 74880
" />
<path d="M72860 74390
L72890 74430
L72850 74470
L72810 74430
L72860 74390
L72850 74470
" />
<path d="M73780 74880
L73870 74090
L74060 74660
L74390 74090
L74300 74880
" />
<path d="M74680 74880
L74770 74090
L74960 74660
L75290 74090
L75200 74880
" />
<path d="M75590 74090
L76120 74090
L75690 74880
" />
<path d="M76330 74880
L76420 74090
L76610 74090
L76720 74130
L76780 74210
L76810 74280
L76830 74430
L76820 74540
L76760 74690
L76710 74770
L76630 74840
L76520 74880
L76330 74880
" />
<path d="M77700 74660
L78080 74660
" />
<path d="M77610 74880
L77960 74090
L78130 74880
" />
<path d="M78400 74880
L78460 74360
" />
<path d="M78490 74090
L78450 74130
L78480 74170
L78530 74130
L78490 74090
L78480 74170
" />
<path d="M78780 74880
L78840 74360
" />
<path d="M78820 74510
L78870 74430
L78910 74390
L78990 74360
L79060 74360
" />
<path d="M80270 74360
L80170 75150
" />
<path d="M80210 74840
L80130 74880
L79980 74880
L79910 74840
L79870 74810
L79840 74730
L79870 74510
L79920 74430
L79970 74390
L80040 74360
L80190 74360
L80270 74390
" />
<path d="M80980 74360
L80920 74880
" />
<path d="M80640 74360
L80590 74770
L80620 74840
L80690 74880
L80800 74880
L80880 74840
L80920 74810
" />
<path d="M81630 74880
L81680 74470
L81650 74390
L81570 74360
L81420 74360
L81350 74390
" />
<path d="M81630 74840
L81550 74880
L81360 74880
L81290 74840
L81260 74770
L81270 74690
L81320 74620
L81390 74580
L81580 74580
L81670 74540
" />
<path d="M82110 74880
L82040 74840
L82010 74770
L82090 74090
" />
<path d="M82410 74880
L82470 74360
" />
<path d="M82500 74090
L82460 74130
L82490 74170
L82540 74130
L82500 74090
L82490 74170
" />
<path d="M82740 74360
L83040 74360
" />
<path d="M82880 74090
L82800 74770
L82830 74840
L82900 74880
L82980 74880
" />
<path d="M83220 74360
L83350 74880
" />
<path d="M83600 74360
L83350 74880
L83250 75070
L83210 75110
L83120 75150
" />
<path d="M84440 74880
L84500 74360
" />
<path d="M84490 74430
L84540 74390
L84610 74360
L84720 74360
L84800 74390
L84830 74470
L84780 74880
" />
<path d="M84830 74470
L84870 74390
L84950 74360
L85060 74360
L85140 74390
L85170 74470
L85120 74880
" />
<path d="M85790 74840
L85710 74880
L85560 74880
L85490 74840
L85460 74770
L85500 74470
L85550 74390
L85620 74360
L85770 74360
L85850 74390
L85880 74470
L85870 74540
L85480 74620
" />
<path d="M86510 74880
L86560 74470
L86530 74390
L86450 74360
L86300 74360
L86230 74390
" />
<path d="M86510 74840
L86430 74880
L86240 74880
L86170 74840
L86140 74770
L86150 74690
L86200 74620
L86270 74580
L86460 74580
L86550 74540
" />
<path d="M86840 74840
L86920 74880
L87070 74880
L87140 74840
L87190 74770
L87190 74730
L87160 74660
L87100 74620
L86980 74620
L86910 74580
L86880 74510
L86890 74470
L86940 74390
L87010 74360
L87130 74360
L87200 74390
" />
<path d="M87920 74360
L87860 74880
" />
<path d="M87580 74360
L87530 74770
L87560 74840
L87630 74880
L87740 74880
L87820 74840
L87860 74810
" />
<path d="M88230 74880
L88290 74360
" />
<path d="M88270 74510
L88320 74430
L88360 74390
L88440 74360
L88510 74360
" />
<path d="M88720 74880
L88780 74360
" />
<path d="M88810 74090
L88770 74130
L88800 74170
L88850 74130
L88810 74090
L88800 74170
" />
<path d="M89160 74360
L89100 74880
" />
<path d="M89150 74430
L89200 74390
L89270 74360
L89380 74360
L89460 74390
L89490 74470
L89440 74880
" />
<path d="M90210 74360
L90130 75000
L90080 75070
L90040 75110
L89960 75150
L89840 75150
L89780 75110
" />
<path d="M90150 74840
L90070 74880
L89920 74880
L89850 74840
L89810 74810
L89780 74730
L89810 74510
L89860 74430
L89910 74390
L89980 74360
L90130 74360
L90210 74390
" />
<path d="M91460 74880
L91550 74090
" />
<path d="M91460 74840
L91380 74880
L91230 74880
L91160 74840
L91120 74810
L91090 74730
L91120 74510
L91170 74430
L91220 74390
L91290 74360
L91440 74360
L91520 74390
" />
<path d="M92130 74840
L92050 74880
L91900 74880
L91830 74840
L91800 74770
L91840 74470
L91890 74390
L91960 74360
L92110 74360
L92190 74390
L92220 74470
L92210 74540
L91820 74620
" />
<path d="M92490 74360
L92620 74880
L92870 74360
" />
<path d="M93110 74880
L93170 74360
" />
<path d="M93200 74090
L93160 74130
L93190 74170
L93240 74130
L93200 74090
L93190 74170
" />
<path d="M93830 74840
L93750 74880
L93600 74880
L93530 74840
L93490 74810
L93460 74730
L93490 74510
L93540 74430
L93590 74390
L93660 74360
L93810 74360
L93890 74390
" />
<path d="M94470 74840
L94390 74880
L94240 74880
L94170 74840
L94140 74770
L94180 74470
L94230 74390
L94300 74360
L94450 74360
L94530 74390
L94560 74470
L94550 74540
L94160 74620
" />
</g>
<g style="fill:#000000; fill-opacity:0.0; 
stroke:#000000; stroke-width:100; stroke-opacity:1; 
stroke-linecap:round; stroke-linejoin:round;">
</g>
<g style="fill:#000000; fill-opacity:0.0; 
stroke:#000000; stroke-width:60; stroke-opacity:1; 
stroke-linecap:round; stroke-linejoin:round;">
<path d="M70420 73060
L70220 73060
" />
<path d="M70220 73370
L70220 72780
L70500 72780
" />
<path d="M70730 73370
L70730 72980
" />
<path d="M70730 72780
L70700 72810
L70730 72840
L70760 72810
L70730 72780
L70730 72840
" />
<path d="M71090 73370
L71040 73340
L71010 73290
L71010 72780
" />
<path d="M71550 73340
L71490 73370
L71380 73370
L71320 73340
L71290 73290
L71290 73060
L71320 73010
L71380 72980
L71490 72980
L71550 73010
L71570 73060
L71570 73120
L71290 73180
" />
<path d="M71830 73320
L71860 73340
L71830 73370
L71800 73340
L71830 73320
L71830 73370
" />
<path d="M71830 73010
L71860 73030
L71830 73060
L71800 73030
L71830 73010
L71830 73060
" />
<path d="M72810 73340
L72760 73370
L72640 73370
L72590 73340
L72560 73320
L72530 73260
L72530 73090
L72560 73030
L72590 73010
L72640 72980
L72760 72980
L72810 73010
" />
<path d="M73150 73370
L73100 73340
L73070 73320
L73040 73260
L73040 73090
L73070 73030
L73100 73010
L73150 72980
L73240 72980
L73300 73010
L73320 73030
L73350 73090
L73350 73260
L73320 73320
L73300 73340
L73240 73370
L73150 73370
" />
<path d="M73600 72980
L73600 73370
" />
<path d="M73600 73030
L73630 73010
L73680 72980
L73770 72980
L73830 73010
L73850 73060
L73850 73370
" />
<path d="M74130 72980
L74130 73370
" />
<path d="M74130 73030
L74160 73010
L74210 72980
L74300 72980
L74360 73010
L74380 73060
L74380 73370
" />
<path d="M74890 73340
L74830 73370
L74720 73370
L74660 73340
L74630 73290
L74630 73060
L74660 73010
L74720 72980
L74830 72980
L74890 73010
L74910 73060
L74910 73120
L74630 73180
" />
<path d="M75420 73340
L75370 73370
L75250 73370
L75200 73340
L75170 73320
L75140 73260
L75140 73090
L75170 73030
L75200 73010
L75250 72980
L75370 72980
L75420 73010
" />
<path d="M75600 72980
L75820 72980
" />
<path d="M75680 72780
L75680 73290
L75710 73340
L75760 73370
L75820 73370
" />
<path d="M76100 73370
L76050 73340
L76020 73320
L75990 73260
L75990 73090
L76020 73030
L76050 73010
L76100 72980
L76190 72980
L76250 73010
L76270 73030
L76300 73090
L76300 73260
L76270 73320
L76250 73340
L76190 73370
L76100 73370
" />
<path d="M76550 73370
L76550 72980
" />
<path d="M76550 73090
L76580 73030
L76610 73010
L76660 72980
L76720 72980
" />
<path d="M76890 73340
L76950 73370
L77060 73370
L77120 73340
L77150 73290
L77150 73260
L77120 73200
L77060 73180
L76980 73180
L76920 73150
L76890 73090
L76890 73060
L76920 73010
L76980 72980
L77060 72980
L77120 73010
" />
<path d="M77400 73320
L77430 73340
L77400 73370
L77370 73340
L77400 73320
L77400 73370
" />
<path d="M77650 73340
L77710 73370
L77820 73370
L77880 73340
L77910 73290
L77910 73260
L77880 73200
L77820 73180
L77740 73180
L77680 73150
L77650 73090
L77650 73060
L77680 73010
L77740 72980
L77820 72980
L77880 73010
" />
<path d="M78410 73340
L78360 73370
L78240 73370
L78190 73340
L78160 73320
L78130 73260
L78130 73090
L78160 73030
L78190 73010
L78240 72980
L78360 72980
L78410 73010
" />
<path d="M78670 73370
L78670 72780
" />
<path d="M78920 73370
L78920 73060
L78900 73010
L78840 72980
L78750 72980
L78700 73010
L78670 73030
" />
</g>
<g style="fill:#000000; fill-opacity:0.0; 
stroke:#000000; stroke-width:100; stroke-opacity:1; 
stroke-linecap:round; stroke-linejoin:round;">
</g>
<g style="fill:#000000; fill-opacity:0.0; 
stroke:#000000; stroke-width:60; stroke-opacity:1; 
stroke-linecap:round; stroke-linejoin:round;">
<path d="M69690 71460
L112210 71460
" />
</g>
<g style="fill:#000000; fill-opacity:0.0; 
stroke:#000000; stroke-width:100; stroke-opacity:1; 
stroke-linecap:round; stroke-linejoin:round;">
</g>
<g style="fill:#000000; fill-opacity:0.0; 
stroke:#000000; stroke-width:60; stroke-opacity:1; 
stroke-linecap:round; stroke-linejoin:round;">
<path d="M70190 72280
L70280 72310
L70420 72310
L70470 72280
L70500 72260
L70530 72200
L70530 72140
L70500 72090
L70470 72060
L70420 72030
L70300 72000
L70250 71970
L70220 71950
L70190 71890
L70190 71830
L70220 71780
L70250 71750
L70300 71720
L70450 71720
L70530 71750
" />
<path d="M70780 72310
L70780 71720
" />
<path d="M71030 72310
L71030 72000
L71010 71950
L70950 71920
L70860 71920
L70810 71950
L70780 71970
" />
<path d="M71540 72280
L71480 72310
L71370 72310
L71310 72280
L71280 72230
L71280 72000
L71310 71950
L71370 71920
L71480 71920
L71540 71950
L71560 72000
L71560 72060
L71280 72120
" />
<path d="M72050 72280
L71990 72310
L71880 72310
L71820 72280
L71790 72230
L71790 72000
L71820 71950
L71880 71920
L71990 71920
L72050 71950
L72070 72000
L72070 72060
L71790 72120
" />
<path d="M72250 71920
L72470 71920
" />
<path d="M72330 71720
L72330 72230
L72360 72280
L72410 72310
L72470 72310
" />
<path d="M72670 72260
L72700 72280
L72670 72310
L72640 72280
L72670 72260
L72670 72310
" />
<path d="M72670 71950
L72700 71970
L72670 72000
L72640 71970
L72670 71950
L72670 72000
" />
<path d="M73820 71690
L73320 72450
" />
</g>
<g style="fill:#000000; fill-opacity:0.0; 
stroke:#000000; stroke-width:100; stroke-opacity:1; 
stroke-linecap:round; stroke-linejoin:round;">
</g>
<g style="fill:#000000; fill-opacity:0.0; 
stroke:#000000; stroke-width:120; stroke-opacity:1; 
stroke-linecap:round; stroke-linejoin:round;">
<path d="M70220 71130
L70220 70540
L70450 70540
L70500 70570
L70530 70600
L70560 70650
L70560 70740
L70530 70790
L70500 70820
L70450 70850
L70220 70850
" />
<path d="M70890 71130
L70840 71100
L70810 71080
L70780 71020
L70780 70850
L70810 70790
L70840 70770
L70890 70740
L70980 70740
L71040 70770
L71060 70790
L71090 70850
L71090 71020
L71060 71080
L71040 71100
L70980 71130
L70890 71130
" />
<path d="M71280 70740
L71590 70740
L71280 71130
L71590 71130
" />
<path d="M71790 71100
L71850 71130
L71960 71130
L72020 71100
L72050 71050
L72050 71020
L72020 70960
L71960 70940
L71880 70940
L71820 70910
L71790 70850
L71790 70820
L71820 70770
L71880 70740
L71960 70740
L72020 70770
" />
<path d="M72550 71130
L72550 70820
L72530 70770
L72470 70740
L72360 70740
L72300 70770
" />
<path d="M72550 71100
L72500 71130
L72360 71130
L72300 71100
L72270 71050
L72270 70990
L72300 70940
L72360 70910
L72500 70910
L72550 70880
" />
<path d="M72830 71130
L72830 70740
" />
<path d="M72830 70850
L72860 70790
L72890 70770
L72940 70740
L73000 70740
" />
<path d="M73590 70540
L73990 70540
L73590 71130
L73990 71130
" />
<path d="M74180 71100
L74240 71130
L74350 71130
L74410 71100
L74440 71050
L74440 71020
L74410 70960
L74350 70940
L74270 70940
L74210 70910
L74180 70850
L74180 70820
L74210 70770
L74270 70740
L74350 70740
L74410 70770
" />
<path d="M74770 71130
L74720 71100
L74690 71080
L74660 71020
L74660 70850
L74690 70790
L74720 70770
L74770 70740
L74860 70740
L74920 70770
L74940 70790
L74970 70850
L74970 71020
L74940 71080
L74920 71100
L74860 71130
L74770 71130
" />
<path d="M75300 71130
L75250 71100
L75220 71050
L75220 70540
" />
<path d="M75450 70740
L75670 70740
" />
<path d="M75530 70540
L75530 71050
L75560 71100
L75610 71130
L75670 71130
" />
<path d="M76320 70910
L76770 70910
" />
<path d="M77500 71130
L77500 70540
" />
<path d="M77750 71130
L77750 70820
L77730 70770
L77670 70740
L77580 70740
L77530 70770
L77500 70790
" />
<path d="M77950 70740
L78170 70740
" />
<path d="M78030 70540
L78030 71050
L78060 71100
L78110 71130
L78170 71130
" />
<path d="M78290 70740
L78510 70740
" />
<path d="M78370 70540
L78370 71050
L78400 71100
L78450 71130
L78510 71130
" />
<path d="M78710 70740
L78710 71330
" />
<path d="M78710 70770
L78770 70740
L78880 70740
L78940 70770
L78960 70790
L78990 70850
L78990 71020
L78960 71080
L78940 71100
L78880 71130
L78770 71130
L78710 71100
" />
<path d="M79240 71080
L79270 71100
L79240 71130
L79210 71100
L79240 71080
L79240 71130
" />
<path d="M79240 70770
L79270 70790
L79240 70820
L79210 70790
L79240 70770
L79240 70820
" />
<path d="M79940 70510
L79440 71270
" />
<path d="M80560 70510
L80060 71270
" />
<path d="M80700 70740
L80820 71130
L80930 70850
L81040 71130
L81150 70740
" />
<path d="M81320 70740
L81440 71130
L81550 70850
L81660 71130
L81770 70740
" />
<path d="M81940 70740
L82060 71130
L82170 70850
L82280 71130
L82390 70740
" />
<path d="M82620 71080
L82650 71100
L82620 71130
L82590 71100
L82620 71080
L82620 71130
" />
<path d="M82870 71100
L82930 71130
L83040 71130
L83100 71100
L83130 71050
L83130 71020
L83100 70960
L83040 70940
L82960 70940
L82900 70910
L82870 70850
L82870 70820
L82900 70770
L82960 70740
L83040 70740
L83100 70770
" />
<path d="M83320 70740
L83630 70740
L83320 71130
L83630 71130
" />
<path d="M84090 71100
L84030 71130
L83920 71130
L83860 71100
L83830 71050
L83830 70820
L83860 70770
L83920 70740
L84030 70740
L84090 70770
L84110 70820
L84110 70880
L83830 70940
" />
<path d="M84370 71130
L84370 70740
" />
<path d="M84370 70850
L84400 70790
L84430 70770
L84480 70740
L84540 70740
" />
<path d="M84990 71130
L84990 70820
L84970 70770
L84910 70740
L84800 70740
L84740 70770
" />
<path d="M84990 71100
L84940 71130
L84800 71130
L84740 71100
L84710 71050
L84710 70990
L84740 70940
L84800 70910
L84940 70910
L84990 70880
" />
<path d="M85190 70740
L85410 70740
" />
<path d="M85270 71130
L85270 70630
L85300 70570
L85350 70540
L85410 70540
" />
<path d="M85610 71130
L85610 70740
" />
<path d="M85610 70540
L85580 70570
L85610 70600
L85640 70570
L85610 70540
L85610 70600
" />
<path d="M85890 70740
L85890 71130
" />
<path d="M85890 70790
L85920 70770
L85970 70740
L86060 70740
L86120 70770
L86140 70820
L86140 71130
" />
<path d="M86670 70740
L86670 71220
L86650 71270
L86620 71300
L86560 71330
L86480 71330
L86420 71300
" />
<path d="M86670 71100
L86620 71130
L86500 71130
L86450 71100
L86420 71080
L86390 71020
L86390 70850
L86420 70790
L86450 70770
L86500 70740
L86620 70740
L86670 70770
" />
<path d="M87030 71130
L86980 71100
L86950 71080
L86920 71020
L86920 70850
L86950 70790
L86980 70770
L87030 70740
L87120 70740
L87180 70770
L87200 70790
L87230 70850
L87230 71020
L87200 71080
L87180 71100
L87120 71130
L87030 71130
" />
<path d="M87480 71130
L87480 70740
" />
<path d="M87480 70790
L87510 70770
L87560 70740
L87650 70740
L87710 70770
L87730 70820
L87730 71130
" />
<path d="M87730 70820
L87760 70770
L87820 70740
L87900 70740
L87960 70770
L87990 70820
L87990 71130
" />
<path d="M88270 71130
L88270 70540
" />
<path d="M88270 70770
L88330 70740
L88440 70740
L88500 70770
L88520 70790
L88550 70850
L88550 71020
L88520 71080
L88500 71100
L88440 71130
L88330 71130
L88270 71100
" />
<path d="M89050 71130
L89050 70820
L89030 70770
L88970 70740
L88860 70740
L88800 70770
" />
<path d="M89050 71100
L89000 71130
L88860 71130
L88800 71100
L88770 71050
L88770 70990
L88800 70940
L88860 70910
L89000 70910
L89050 70880
" />
<path d="M89330 71080
L89360 71100
L89330 71130
L89300 71100
L89330 71080
L89330 71130
" />
<path d="M89610 71130
L89610 70540
" />
<path d="M89860 71130
L89860 70820
L89840 70770
L89780 70740
L89690 70740
L89640 70770
L89610 70790
" />
<path d="M90390 70740
L90390 71130
" />
<path d="M90140 70740
L90140 71050
L90170 71100
L90220 71130
L90310 71130
L90370 71100
L90390 71080
" />
</g>
<g style="fill:#000000; fill-opacity:0.0; 
stroke:#000000; stroke-width:100; stroke-opacity:1; 
stroke-linecap:round; stroke-linejoin:round;">
</g>
<g style="fill:#000000; fill-opacity:0.0; 
stroke:#000000; stroke-width:60; stroke-opacity:1; 
stroke-linecap:round; stroke-linejoin:round;">
<path d="M70560 69900
L70530 69920
L70450 69950
L70390 69950
L70300 69920
L70250 69870
L70220 69810
L70190 69700
L70190 69610
L70220 69500
L70250 69450
L70300 69390
L70390 69360
L70450 69360
L70530 69390
L70560 69420
" />
<path d="M70890 69950
L70840 69920
L70810 69900
L70780 69840
L70780 69670
L70810 69610
L70840 69590
L70890 69560
L70980 69560
L71040 69590
L71060 69610
L71090 69670
L71090 69840
L71060 69900
L71040 69920
L70980 69950
L70890 69950
" />
<path d="M71340 69560
L71340 69950
" />
<path d="M71340 69610
L71370 69590
L71420 69560
L71510 69560
L71570 69590
L71590 69640
L71590 69950
" />
<path d="M71870 69560
L71870 69950
" />
<path d="M71870 69610
L71900 69590
L71950 69560
L72040 69560
L72100 69590
L72120 69640
L72120 69950
" />
<path d="M72630 69920
L72570 69950
L72460 69950
L72400 69920
L72370 69870
L72370 69640
L72400 69590
L72460 69560
L72570 69560
L72630 69590
L72650 69640
L72650 69700
L72370 69760
" />
<path d="M73160 69920
L73110 69950
L72990 69950
L72940 69920
L72910 69900
L72880 69840
L72880 69670
L72910 69610
L72940 69590
L72990 69560
L73110 69560
L73160 69590
" />
<path d="M73340 69560
L73560 69560
" />
<path d="M73420 69360
L73420 69870
L73450 69920
L73500 69950
L73560 69950
" />
<path d="M73840 69950
L73790 69920
L73760 69900
L73730 69840
L73730 69670
L73760 69610
L73790 69590
L73840 69560
L73930 69560
L73990 69590
L74010 69610
L74040 69670
L74040 69840
L74010 69900
L73990 69920
L73930 69950
L73840 69950
" />
<path d="M74290 69950
L74290 69560
" />
<path d="M74290 69670
L74320 69610
L74350 69590
L74400 69560
L74460 69560
" />
<path d="M74630 69920
L74690 69950
L74800 69950
L74860 69920
L74890 69870
L74890 69840
L74860 69780
L74800 69760
L74720 69760
L74660 69730
L74630 69670
L74630 69640
L74660 69590
L74720 69560
L74800 69560
L74860 69590
" />
</g>
<g style="fill:#000000; fill-opacity:0.0; 
stroke:#000000; stroke-width:100; stroke-opacity:1; 
stroke-linecap:round; stroke-linejoin:round;">
</g>
<g style="fill:#000000; fill-opacity:0.0; 
stroke:#000000; stroke-width:60; stroke-opacity:1; 
stroke-linecap:round; stroke-linejoin:round;">
<path d="M70220 66400
L70220 65810
L70360 65810
L70450 65840
L70500 65900
L70530 65950
L70560 66060
L70560 66150
L70530 66260
L70500 66320
L70450 66370
L70360 66400
L70220 66400
" />
<path d="M70810 66400
L70810 66010
" />
<path d="M70810 66120
L70840 66060
L70870 66040
L70920 66010
L70980 66010
" />
<path d="M71430 66400
L71430 66090
L71410 66040
L71350 66010
L71240 66010
L71180 66040
" />
<path d="M71430 66370
L71380 66400
L71240 66400
L71180 66370
L71150 66320
L71150 66260
L71180 66210
L71240 66180
L71380 66180
L71430 66150
" />
<path d="M71650 66010
L71770 66400
L71880 66120
L71990 66400
L72100 66010
" />
<path d="M72780 66010
L72780 66400
" />
<path d="M72780 66060
L72810 66040
L72860 66010
L72950 66010
L73010 66040
L73030 66090
L73030 66400
" />
<path d="M73390 66400
L73340 66370
L73310 66350
L73280 66290
L73280 66120
L73310 66060
L73340 66040
L73390 66010
L73480 66010
L73540 66040
L73560 66060
L73590 66120
L73590 66290
L73560 66350
L73540 66370
L73480 66400
L73390 66400
" />
<path d="M73840 66350
L73870 66370
L73840 66400
L73810 66370
L73840 66350
L73840 66400
" />
<path d="M74120 66350
L74150 66370
L74120 66400
L74090 66370
L74120 66350
L74120 66400
" />
<path d="M74120 66040
L74150 66060
L74120 66090
L74090 66060
L74120 66040
L74120 66090
" />
<path d="M75130 65810
L74850 65810
L74820 66090
L74850 66060
L74910 66040
L75050 66040
L75100 66060
L75130 66090
L75160 66150
L75160 66290
L75130 66350
L75100 66370
L75050 66400
L74910 66400
L74850 66370
L74820 66350
" />
<path d="M75440 66400
L75550 66400
L75610 66370
L75640 66350
L75690 66260
L75720 66150
L75720 65920
L75690 65870
L75660 65840
L75610 65810
L75490 65810
L75440 65840
L75410 65870
L75380 65920
L75380 66060
L75410 66120
L75440 66150
L75490 66180
L75610 66180
L75660 66150
L75690 66120
L75720 66060
" />
<path d="M76390 65780
L75890 66540
" />
<path d="M76900 66400
L76560 66400
" />
<path d="M76730 66400
L76730 65810
L76670 65900
L76620 65950
L76560 65980
" />
<path d="M77120 65870
L77150 65840
L77210 65810
L77350 65810
L77400 65840
L77430 65870
L77460 65920
L77460 65980
L77430 66060
L77090 66400
L77460 66400
" />
<path d="M78130 65780
L77630 66540
" />
<path d="M78580 65810
L78470 65810
L78410 65840
L78390 65870
L78330 65950
L78300 66060
L78300 66290
L78330 66350
L78360 66370
L78410 66400
L78530 66400
L78580 66370
L78610 66350
L78640 66290
L78640 66150
L78610 66090
L78580 66060
L78530 66040
L78410 66040
L78360 66060
L78330 66090
L78300 66150
" />
</g>
<g style="fill:#000000; fill-opacity:0.0; 
stroke:#000000; stroke-width:100; stroke-opacity:1; 
stroke-linecap:round; stroke-linejoin:round;">
</g>
<g style="fill:#000000; fill-opacity:0.0; 
stroke:#000000; stroke-width:60; stroke-opacity:1; 
stroke-linecap:round; stroke-linejoin:round;">
<path d="M77560 75400
L77560 76580
" />
</g>
<g style="fill:#000000; fill-opacity:0.0; 
stroke:#000000; stroke-width:100; stroke-opacity:1; 
stroke-linecap:round; stroke-linejoin:round;">
</g>
<g style="fill:#000000; fill-opacity:0.0; 
stroke:#000000; stroke-width:60; stroke-opacity:1; 
stroke-linecap:round; stroke-linejoin:round;">
<path d="M102760 75400
L102760 77960
" />
</g>
<g style="fill:#000000; fill-opacity:0.0; 
stroke:#000000; stroke-width:0; stroke-opacity:1; 
stroke-linecap:round; stroke-linejoin:round;">
</g>
<g style="fill:#000000; fill-opacity:0.0; 
stroke:#000000; stroke-width:80; stroke-opacity:1; 
stroke-linecap:round; stroke-linejoin:round;">
<circle cx="45500" cy="31000" r="200" /> 
</g>
<g style="fill:#000000; fill-opacity:0.0; 
stroke:#000000; stroke-width:120; stroke-opacity:1; 
stroke-linecap:round; stroke-linejoin:round;">
<circle cx="45500" cy="31000" r="700" /> 
</g>
<g style="fill:#000000; fill-opacity:0.0; 
stroke:#000000; stroke-width:60; stroke-opacity:1; 
stroke-linecap:round; stroke-linejoin:round;">
<path d="M45700 31000
L47000 31000
" />
<path d="M46460 30880
L46240 30880
" />
<path d="M46350 30880
L46350 30480
L46310 30540
L46270 30580
L46240 30600
" />
<path d="M45500 31700
L45500 33000
" />
<path d="M45020 32460
L45000 32440
L44980 32410
L44980 32310
L45000 32270
L45020 32250
L45060 32240
L45100 32240
L45150 32250
L45380 32480
L45380 32240
" />
<path d="M45030 30060
L45030 29560
L45220 29560
L45270 29580
L45290 29600
L45310 29650
L45310 29720
L45290 29770
L45270 29790
L45220 29820
L45030 29820
" />
<path d="M45790 30060
L45510 30060
" />
<path d="M45650 30060
L45650 29560
L45600 29630
L45550 29680
L45510 29700
" />
</g>
<g style="fill:#000000; fill-opacity:0.0; 
stroke:#000000; stroke-width:0; stroke-opacity:1; 
stroke-linecap:round; stroke-linejoin:round;">
</g>
<g style="fill:#000000; fill-opacity:0.0; 
stroke:#000000; stroke-width:200; stroke-opacity:1; 
stroke-linecap:round; stroke-linejoin:round;">
<polyline fill="none;"
points="47200,34700
47200,36300
" /> 
<polyline fill="none;"
points="47800,34700
47800,36300
" /> 
</g>
<g style="fill:#000000; fill-opacity:0.0; 
stroke:#000000; stroke-width:60; stroke-opacity:1; 
stroke-linecap:round; stroke-linejoin:round;">
<path d="M47900 35500
L49000 35500
" />
<path d="M47100 35500
L46000 35500
" />
<path d="M47400 33710
L47380 33730
L47310 33760
L47260 33760
L47190 33730
L47140 33680
L47120 33640
L47100 33540
L47100 33470
L47120 33380
L47140 33330
L47190 33280
L47260 33260
L47310 33260
L47380 33280
L47400 33300
" />
<path d="M47880 33760
L47600 33760
" />
<path d="M47740 33760
L47740 33260
L47690 33330
L47640 33380
L47600 33400
" />
<path d="M46880 37760
L46600 37760
" />
<path d="M46740 37760
L46740 37260
L46690 37330
L46640 37380
L46600 37400
" />
<path d="M47190 37260
L47240 37260
L47290 37280
L47310 37300
L47340 37350
L47360 37450
L47360 37570
L47340 37660
L47310 37710
L47290 37730
L47240 37760
L47190 37760
L47150 37730
L47120 37710
L47100 37660
L47080 37570
L47080 37450
L47100 37350
L47120 37300
L47150 37280
L47190 37260
" />
<path d="M47670 37260
L47720 37260
L47770 37280
L47790 37300
L47820 37350
L47840 37450
L47840 37570
L47820 37660
L47790 37710
L47770 37730
L47720 37760
L47670 37760
L47630 37730
L47600 37710
L47580 37660
L47560 37570
L47560 37450
L47580 37350
L47600 37300
L47630 37280
L47670 37260
" />
<path d="M48060 37420
L48060 37760
" />
<path d="M48060 37470
L48080 37450
L48130 37420
L48200 37420
L48250 37450
L48270 37490
L48270 37760
" />
</g>
<g style="fill:#000000; fill-opacity:0.0; 
stroke:#000000; stroke-width:0; stroke-opacity:1; 
stroke-linecap:round; stroke-linejoin:round;">
</g>
<g style="fill:#000000; fill-opacity:0.0; 
stroke:#000000; stroke-width:60; stroke-opacity:1; 
stroke-linecap:round; stroke-linejoin:round;">
<rect x="46450" y="44000" width="100" height="600" rx="0" />
<rect x="45450" y="44000" width="100" height="600" rx="0" />
<rect x="45000" y="44000" width="2000" height="1000" rx="0" />
<path d="M45500 44000
L45500 42500
" />
<path d="M45380 43110
L45380 43390
" />
<path d="M45380 43250
L44880 43250
L44950 43300
L45000 43350
L45020 43390
" />
<path d="M46500 44000
L46500 42500
" />
<path d="M45920 43390
L45900 43370
L45880 43320
L45880 43200
L45900 43160
L45920 43130
L45970 43110
L46020 43110
L46090 43130
L46380 43420
L46380 43110
" />
<path d="M45150 46260
L45150 45760
L45340 45760
L45390 45780
L45410 45800
L45430 45850
L45430 45920
L45410 45970
L45390 45990
L45340 46020
L45150 46020
" />
<path d="M45910 46260
L45630 46260
" />
<path d="M45770 46260
L45770 45760
L45720 45830
L45670 45880
L45630 45900
" />
<path d="M46220 45760
L46270 45760
L46320 45780
L46340 45800
L46370 45850
L46390 45950
L46390 46070
L46370 46160
L46340 46210
L46320 46230
L46270 46260
L46220 46260
L46180 46230
L46150 46210
L46130 46160
L46110 46070
L46110 45950
L46130 45850
L46150 45800
L46180 45780
L46220 45760
" />
<path d="M46870 46260
L46590 46260
" />
<path d="M46730 46260
L46730 45760
L46680 45830
L46630 45880
L46590 45900
" />
</g>
<g style="fill:#000000; fill-opacity:0.0; 
stroke:#000000; stroke-width:0; stroke-opacity:1; 
stroke-linecap:round; stroke-linejoin:round;">
</g>
<g style="fill:#000000; fill-opacity:0.0; 
stroke:#000000; stroke-width:60; stroke-opacity:1; 
stroke-linecap:round; stroke-linejoin:round;">
<rect x="56450" y="44000" width="100" height="600" rx="0" />
<rect x="55450" y="44000" width="100" height="600" rx="0" />
<rect x="55000" y="44000" width="2000" height="1000" rx="0" />
<path d="M55500 44000
L55500 42500
" />
<path d="M55380 43110
L55380 43390
" />
<path d="M55380 43250
L54880 43250
L54950 43300
L55000 43350
L55020 43390
" />
<path d="M56500 44000
L56500 42500
" />
<path d="M55920 43390
L55900 43370
L55880 43320
L55880 43200
L55900 43160
L55920 43130
L55970 43110
L56020 43110
L56090 43130
L56380 43420
L56380 43110
" />
<path d="M55150 46260
L55150 45760
L55340 45760
L55390 45780
L55410 45800
L55430 45850
L55430 45920
L55410 45970
L55390 45990
L55340 46020
L55150 46020
" />
<path d="M55910 46260
L55630 46260
" />
<path d="M55770 46260
L55770 45760
L55720 45830
L55670 45880
L55630 45900
" />
<path d="M56220 45760
L56270 45760
L56320 45780
L56340 45800
L56370 45850
L56390 45950
L56390 46070
L56370 46160
L56340 46210
L56320 46230
L56270 46260
L56220 46260
L56180 46230
L56150 46210
L56130 46160
L56110 46070
L56110 45950
L56130 45850
L56150 45800
L56180 45780
L56220 45760
" />
<path d="M56590 45800
L56610 45780
L56660 45760
L56780 45760
L56820 45780
L56850 45800
L56870 45850
L56870 45900
L56850 45970
L56560 46260
L56870 46260
" />
</g>
<g style="fill:#000000; fill-opacity:0.0; 
stroke:#000000; stroke-width:0; stroke-opacity:1; 
stroke-linecap:round; stroke-linejoin:round;">
</g>
<g style="fill:#000000; fill-opacity:0.0; 
stroke:#000000; stroke-width:60; stroke-opacity:1; 
stroke-linecap:round; stroke-linejoin:round;">
<circle cx="70500" cy="31700" r="300" /> 
<circle cx="68500" cy="31700" r="300" /> 
<circle cx="66500" cy="31700" r="300" /> 
<circle cx="64500" cy="31700" r="300" /> 
<circle cx="62500" cy="31700" r="300" /> 
<circle cx="69500" cy="30500" r="300" /> 
<circle cx="67500" cy="30500" r="300" /> 
<circle cx="65500" cy="30500" r="300" /> 
<circle cx="63500" cy="30500" r="300" /> 
</g>
<g style="fill:#000000; fill-opacity:0.0; 
stroke:#000000; stroke-width:80; stroke-opacity:1; 
stroke-linecap:round; stroke-linejoin:round;">
<polyline fill="none;"
points="71100,32500
61900,32500
" /> 
<polyline fill="none;"
points="71090,32500
71200,32400
" /> 
</g>
<g style="fill:#000000; fill-opacity:0.0; 
stroke:#000000; stroke-width:60; stroke-opacity:1; 
stroke-linecap:round; stroke-linejoin:round;">
<polyline fill="none;"
points="70500,32500
70500,32000
" /> 
<polyline fill="none;"
points="69500,32500
69500,30800
" /> 
<polyline fill="none;"
points="68500,32500
68500,32000
" /> 
<polyline fill="none;"
points="67500,32500
67500,30800
" /> 
<polyline fill="none;"
points="66500,32500
66500,32000
" /> 
<polyline fill="none;"
points="65500,32500
65500,30800
" /> 
<polyline fill="none;"
points="64500,32500
64500,32000
" /> 
<polyline fill="none;"
points="63500,32500
63500,30800
" /> 
<polyline fill="none;"
points="62500,32500
62500,32000
" /> 
</g>
<g style="fill:#000000; fill-opacity:0.0; 
stroke:#000000; stroke-width:80; stroke-opacity:1; 
stroke-linecap:round; stroke-linejoin:round;">
<polyline fill="none;"
points="71200,32400
71400,32100
" /> 
<polyline fill="none;"
points="61800,32400
61900,32500
" /> 
<polyline fill="none;"
points="61800,32400
61600,32000
" /> 
<polyline fill="none;"
points="71400,32100
71400,31500
" /> 
<polyline fill="none;"
points="61600,32000
61600,31700
" /> 
<polyline fill="none;"
points="62600,29710
61600,31700
" /> 
<polyline fill="none;"
points="62600,29710
62800,29500
" /> 
<polyline fill="none;"
points="70590,29600
71400,31500
" /> 
<polyline fill="none;"
points="70400,29500
70590,29600
" /> 
<polyline fill="none;"
points="62800,29500
70400,29500
" /> 
</g>
<g style="fill:#000000; fill-opacity:0.0; 
stroke:#000000; stroke-width:60; stroke-opacity:1; 
stroke-linecap:round; stroke-linejoin:round;">
<path d="M70500 32500
L70500 35500
" />
<path d="M70380 33860
L70380 34140
" />
<path d="M70380 34000
L69880 34000
L69950 34050
L70000 34100
L70020 34140
" />
<path d="M68500 32500
L68500 35500
" />
<path d="M67920 34140
L67900 34120
L67880 34070
L67880 33950
L67900 33910
L67920 33880
L67970 33860
L68020 33860
L68090 33880
L68380 34170
L68380 33860
" />
<path d="M66500 32500
L66500 35500
" />
<path d="M65880 34170
L65880 33860
L66070 34030
L66070 33950
L66090 33910
L66110 33880
L66160 33860
L66280 33860
L66330 33880
L66350 33910
L66380 33950
L66380 34100
L66350 34140
L66330 34170
" />
<path d="M64500 32500
L64500 35500
" />
<path d="M64040 33910
L64380 33910
" />
<path d="M63850 34030
L64210 34140
L64210 33840
" />
<path d="M62500 32500
L62500 35500
" />
<path d="M61880 33880
L61880 34120
L62110 34140
L62090 34120
L62070 34070
L62070 33950
L62090 33910
L62110 33880
L62160 33860
L62280 33860
L62330 33880
L62350 33910
L62380 33950
L62380 34070
L62350 34120
L62330 34140
" />
<path d="M69500 32500
L69500 35500
" />
<path d="M68880 33910
L68880 34000
L68900 34050
L68920 34070
L69000 34120
L69090 34140
L69280 34140
L69330 34120
L69350 34100
L69380 34050
L69380 33950
L69350 33910
L69330 33880
L69280 33860
L69160 33860
L69110 33880
L69090 33910
L69070 33950
L69070 34050
L69090 34100
L69110 34120
L69160 34140
" />
<path d="M67500 32500
L67500 35500
" />
<path d="M66880 34170
L66880 33840
L67380 34050
" />
<path d="M65500 32500
L65500 35500
" />
<path d="M65090 34050
L65070 34100
L65040 34120
L65000 34140
L64970 34140
L64920 34120
L64900 34100
L64880 34050
L64880 33950
L64900 33910
L64920 33880
L64970 33860
L65000 33860
L65040 33880
L65070 33910
L65090 33950
L65090 34050
L65110 34100
L65140 34120
L65190 34140
L65280 34140
L65330 34120
L65350 34100
L65380 34050
L65380 33950
L65350 33910
L65330 33880
L65280 33860
L65190 33860
L65140 33880
L65110 33910
L65090 33950
" />
<path d="M63500 32500
L63500 35500
" />
<path d="M63380 34100
L63380 34000
L63350 33950
L63330 33930
L63260 33880
L63160 33860
L62970 33860
L62920 33880
L62900 33910
L62880 33950
L62880 34050
L62900 34100
L62920 34120
L62970 34140
L63090 34140
L63140 34120
L63160 34100
L63190 34050
L63190 33950
L63160 33910
L63140 33880
L63090 33860
" />
<path d="M59630 31190
L59630 30690
L59820 30690
L59870 30710
L59890 30730
L59910 30780
L59910 30850
L59890 30900
L59870 30920
L59820 30950
L59630 30950
" />
<path d="M60110 30730
L60130 30710
L60180 30690
L60300 30690
L60340 30710
L60370 30730
L60390 30780
L60390 30830
L60370 30900
L60080 31190
L60390 31190
" />
</g>
<g style="fill:#000000; fill-opacity:0.0; 
stroke:#000000; stroke-width:0; stroke-opacity:1; 
stroke-linecap:round; stroke-linejoin:round;">
</g>
<g style="fill:#000000; fill-opacity:0.0; 
stroke:#000000; stroke-width:60; stroke-opacity:1; 
stroke-linecap:round; stroke-linejoin:round;">
<rect x="65450" y="44000" width="100" height="600" rx="0" />
<rect x="66450" y="44000" width="100" height="600" rx="0" />
<rect x="67450" y="44000" width="100" height="600" rx="0" />
<rect x="68450" y="44000" width="100" height="600" rx="0" />
<rect x="69450" y="44000" width="100" height="600" rx="0" />
<rect x="70450" y="44000" width="100" height="600" rx="0" />
<rect x="65000" y="44000" width="6000" height="1000" rx="0" />
<path d="M70500 44000
L70500 42500
" />
<path d="M70380 43110
L70380 43390
" />
<path d="M70380 43250
L69880 43250
L69950 43300
L70000 43350
L70020 43390
" />
<path d="M69500 44000
L69500 42500
" />
<path d="M68920 43390
L68900 43370
L68880 43320
L68880 43200
L68900 43160
L68920 43130
L68970 43110
L69020 43110
L69090 43130
L69380 43420
L69380 43110
" />
<path d="M68500 44000
L68500 42500
" />
<path d="M67880 43420
L67880 43110
L68070 43280
L68070 43200
L68090 43160
L68110 43130
L68160 43110
L68280 43110
L68330 43130
L68350 43160
L68380 43200
L68380 43350
L68350 43390
L68330 43420
" />
<path d="M67500 44000
L67500 42500
" />
<path d="M67040 43160
L67380 43160
" />
<path d="M66850 43280
L67210 43390
L67210 43090
" />
<path d="M66500 44000
L66500 42500
" />
<path d="M65880 43130
L65880 43370
L66110 43390
L66090 43370
L66070 43320
L66070 43200
L66090 43160
L66110 43130
L66160 43110
L66280 43110
L66330 43130
L66350 43160
L66380 43200
L66380 43320
L66350 43370
L66330 43390
" />
<path d="M65500 44000
L65500 42500
" />
<path d="M64880 43160
L64880 43250
L64900 43300
L64920 43320
L65000 43370
L65090 43390
L65280 43390
L65330 43370
L65350 43350
L65380 43300
L65380 43200
L65350 43160
L65330 43130
L65280 43110
L65160 43110
L65110 43130
L65090 43160
L65070 43200
L65070 43300
L65090 43350
L65110 43370
L65160 43390
" />
<path d="M66150 45760
L66150 46160
L66170 46210
L66200 46230
L66240 46260
L66340 46260
L66390 46230
L66410 46210
L66430 46160
L66430 45760
" />
<path d="M66930 46260
L66650 46260
" />
<path d="M66790 46260
L66790 45760
L66740 45830
L66690 45880
L66650 45900
" />
<path d="M67240 45760
L67290 45760
L67340 45780
L67360 45800
L67390 45850
L67410 45950
L67410 46070
L67390 46160
L67360 46210
L67340 46230
L67290 46260
L67240 46260
L67200 46230
L67170 46210
L67150 46160
L67130 46070
L67130 45950
L67150 45850
L67170 45800
L67200 45780
L67240 45760
" />
<path d="M67890 46260
L67610 46260
" />
<path d="M67750 46260
L67750 45760
L67700 45830
L67650 45880
L67610 45900
" />
<path d="M68110 46070
L68490 46070
" />
<path d="M68870 45760
L68870 46110
L68850 46180
L68800 46230
L68730 46260
L68680 46260
" />
<path d="M69110 46260
L69110 45760
L69300 45760
L69350 45780
L69370 45800
L69390 45850
L69390 45920
L69370 45970
L69350 45990
L69300 46020
L69110 46020
" />
<path d="M69870 46260
L69590 46260
" />
<path d="M69730 46260
L69730 45760
L69680 45830
L69630 45880
L69590 45900
" />
</g>
<g style="fill:#000000; fill-opacity:0.0; 
stroke:#000000; stroke-width:0; stroke-opacity:1; 
stroke-linecap:round; stroke-linejoin:round;">
</g>
<g style="fill:#000000; fill-opacity:0.0; 
stroke:#000000; stroke-width:100; stroke-opacity:1; 
stroke-linecap:round; stroke-linejoin:round;">
<rect x="55000" y="37050" width="2000" height="1450" rx="0" />
<rect x="55750" y="37250" width="500" height="1050" rx="0" />
</g>
<g style="fill:#000000; fill-opacity:0.0; 
stroke:#000000; stroke-width:60; stroke-opacity:1; 
stroke-linecap:round; stroke-linejoin:round;">
<polyline fill="none;"
points="56400,38150
56400,37350
" /> 
<polyline fill="none;"
points="55600,38150
55600,37350
" /> 
<polyline fill="none;"
points="56400,37750
56700,37750
" /> 
<polyline fill="none;"
points="55600,37750
55300,37750
" /> 
</g>
<g style="fill:#000000; fill-opacity:0.0; 
stroke:#000000; stroke-width:100; stroke-opacity:1; 
stroke-linecap:round; stroke-linejoin:round;">
<polyline fill="none;"
points="55000,37050
54000,36050
58000,36050
57000,37050
" /> 
</g>
<g style="fill:#000000; fill-opacity:0.0; 
stroke:#000000; stroke-width:60; stroke-opacity:1; 
stroke-linecap:round; stroke-linejoin:round;">
<path d="M55500 38500
L55500 39500
" />
<path d="M56080 38860
L56080 39140
" />
<path d="M56080 39000
L55580 39000
L55650 39050
L55700 39100
L55720 39140
" />
<path d="M56500 38500
L56500 39500
" />
<path d="M56620 39140
L56600 39120
L56580 39070
L56580 38950
L56600 38910
L56620 38880
L56670 38860
L56720 38860
L56790 38880
L57080 39170
L57080 38860
" />
<path d="M55610 35440
L55370 35440
L55370 34940
" />
<path d="M55750 35410
L55820 35440
L55940 35440
L55980 35410
L56010 35390
L56030 35340
L56030 35290
L56010 35250
L55980 35220
L55940 35200
L55840 35170
L55790 35150
L55770 35130
L55750 35080
L55750 35030
L55770 34980
L55790 34960
L55840 34940
L55960 34940
L56030 34960
" />
<path d="M56510 35440
L56230 35440
" />
<path d="M56370 35440
L56370 34940
L56320 35010
L56270 35060
L56230 35080
" />
<path d="M45500 33000
L45500 42500
" />
<path d="M46000 35500
L45500 35500
" />
</g>
<g style="fill:#000000; fill-opacity:0.0; 
stroke:#000000; stroke-width:0; stroke-opacity:1; 
stroke-linecap:round; stroke-linejoin:round;">
</g>
<g style="fill:#000000; fill-opacity:1.0; 
stroke:#000000; stroke-width:100; stroke-opacity:1; 
stroke-linecap:round; stroke-linejoin:round;">
<circle cx="45500" cy="35500" r="200" /> 
</g>
<g style="fill:#000000; fill-opacity:1.0; 
stroke:#000000; stroke-width:60; stroke-opacity:1; 
stroke-linecap:round; stroke-linejoin:round;">
</g>
<g style="fill:#000000; fill-opacity:0.0; 
stroke:#000000; stroke-width:60; stroke-opacity:1; 
stroke-linecap:round; stroke-linejoin:round;">
<path d="M46500 42500
L46500 42000
" />
<path d="M49500 42000
L46500 42000
" />
<path d="M49500 31000
L49500 42000
" />
<path d="M49500 35500
L49000 35500
" />
<path d="M49500 31000
L47000 31000
" />
</g>
<g style="fill:#000000; fill-opacity:0.0; 
stroke:#000000; stroke-width:0; stroke-opacity:1; 
stroke-linecap:round; stroke-linejoin:round;">
</g>
<g style="fill:#000000; fill-opacity:1.0; 
stroke:#000000; stroke-width:100; stroke-opacity:1; 
stroke-linecap:round; stroke-linejoin:round;">
<circle cx="49500" cy="35500" r="200" /> 
</g>
<g style="fill:#000000; fill-opacity:1.0; 
stroke:#000000; stroke-width:60; stroke-opacity:1; 
stroke-linecap:round; stroke-linejoin:round;">
</g>
<g style="fill:#000000; fill-opacity:0.0; 
stroke:#000000; stroke-width:60; stroke-opacity:1; 
stroke-linecap:round; stroke-linejoin:round;">
<path d="M55500 42500
L55500 39500
" />
<path d="M56500 39500
L56500 42500
" />
<path d="M69500 42500
L69500 39000
" />
<path d="M69500 39000
L66500 39000
" />
<path d="M66500 39000
L66500 35500
" />
<path d="M68500 35500
L68500 42500
" />
<path d="M65500 42500
L65500 39000
" />
<path d="M65500 39000
L62500 39000
" />
<path d="M62500 39000
L62500 35500
" />
<path d="M66260 42260
L66740 42740
" />
<path d="M66740 42260
L66260 42740
" />
<path d="M67260 42260
L67740 42740
" />
<path d="M67740 42260
L67260 42740
" />
<path d="M70260 42260
L70740 42740
" />
<path d="M70740 42260
L70260 42740
" />
<path d="M63260 35260
L63740 35740
" />
<path d="M63740 35260
L63260 35740
" />
<path d="M64260 35260
L64740 35740
" />
<path d="M64740 35260
L64260 35740
" />
<path d="M65260 35260
L65740 35740
" />
<path d="M65740 35260
L65260 35740
" />
<path d="M67260 35260
L67740 35740
" />
<path d="M67740 35260
L67260 35740
" />
<path d="M69260 35260
L69740 35740
" />
<path d="M69740 35260
L69260 35740
" />
<path d="M70260 35260
L70740 35740
" />
<path d="M70740 35260
L70260 35740
" />
<path d="M44930 27370
L44640 27370
L44610 27660
L44640 27630
L44700 27600
L44840 27600
L44900 27630
L44930 27660
L44960 27710
L44960 27860
L44930 27910
L44900 27940
L44840 27970
L44700 27970
L44640 27940
L44610 27910
" />
<path d="M45130 27370
L45330 27970
L45530 27370
" />
<path d="M46180 27970
L46180 27370
L46330 27370
L46410 27400
L46470 27460
L46500 27510
L46530 27630
L46530 27710
L46500 27830
L46470 27890
L46410 27940
L46330 27970
L46180 27970
" />
<path d="M47130 27910
L47100 27940
L47010 27970
L46950 27970
L46870 27940
L46810 27890
L46780 27830
L46750 27710
L46750 27630
L46780 27510
L46810 27460
L46870 27400
L46950 27370
L47010 27370
L47100 27400
L47130 27430
" />
<path d="M64990 27910
L64960 27940
L64870 27970
L64810 27970
L64730 27940
L64670 27890
L64640 27830
L64610 27710
L64610 27630
L64640 27510
L64670 27460
L64730 27400
L64810 27370
L64870 27370
L64960 27400
L64990 27430
" />
<path d="M65330 27970
L65270 27940
L65240 27910
L65210 27860
L65210 27690
L65240 27630
L65270 27600
L65330 27570
L65410 27570
L65470 27600
L65500 27630
L65530 27690
L65530 27860
L65500 27910
L65470 27940
L65410 27970
L65330 27970
" />
<path d="M65780 27570
L65780 27970
" />
<path d="M65780 27630
L65810 27600
L65870 27570
L65950 27570
L66010 27600
L66040 27660
L66040 27970
" />
<path d="M66290 27940
L66350 27970
L66470 27970
L66520 27940
L66550 27890
L66550 27860
L66520 27800
L66470 27770
L66380 27770
L66320 27740
L66290 27690
L66290 27660
L66320 27600
L66380 27570
L66470 27570
L66520 27600
" />
<path d="M66900 27970
L66840 27940
L66810 27910
L66780 27860
L66780 27690
L66810 27630
L66840 27600
L66900 27570
L66980 27570
L67040 27600
L67070 27630
L67100 27690
L67100 27860
L67070 27910
L67040 27940
L66980 27970
L66900 27970
" />
<path d="M67440 27970
L67380 27940
L67350 27890
L67350 27370
" />
<path d="M67890 27940
L67830 27970
L67720 27970
L67660 27940
L67630 27890
L67630 27660
L67660 27600
L67720 27570
L67830 27570
L67890 27600
L67920 27660
L67920 27710
L67630 27770
" />
</g> 
</svg>
