999
dxfrw 0.6.3
  0
SECTION
  2
HEADER
  9
$ACADVER
  1
AC1021
  9
$DWGCODEPAGE
  3
ANSI_1252
  9
$INSBASE
 10
0
 20
0
 30
0
  9
$EXTMIN
 10
-59.9924
 20
-56.995
 30
0
  9
$EXTMAX
 10
130
 20
219.9924
 30
0
  9
$LIMMIN
 10
0
 20
0
  9
$LIMMAX
 10
420
 20
297
  9
$ORTHOMODE
 70
    0
  9
$REGENMODE
 70
    1
  9
$FILLMODE
 70
    1
  9
$QTEXTMODE
 70
    0
  9
$MIRRTEXT
 70
    0
  9
$LTSCALE
 40
1
  9
$ATTMODE
 70
    0
  9
$TEXTSIZE
 40
2.5
  9
$TRACEWID
 40
15.68
  9
$TEXTSTYLE
  7
STANDARD
  9
$CLAYER
  8
0
  9
$CELTYPE
  6
BYLAYER
  9
$CECOLOR
 62
  256
  9
$CELTSCALE
 40
1
  9
$DISPSILH
 70
    0
  9
$DIMSCALE
 40
1
  9
$DIMASZ
 40
2.5
  9
$DIMEXO
 40
0.625
  9
$DIMDLI
 40
3.75
  9
$DIMRND
 40
0
  9
$DIMDLE
 40
0
  9
$DIMEXE
 40
1.25
  9
$DIMTP
 40
0
  9
$DIMTM
 40
0
  9
$DIMTXT
 40
2.5
  9
$DIMCEN
 40
2.5
  9
$DIMTSZ
 40
0
  9
$DIMTOL
 70
    0
  9
$DIMLIM
 70
    0
  9
$DIMTIH
 70
    0
  9
$DIMTOH
 70
    0
  9
$DIMSE1
 70
    0
  9
$DIMSE2
 70
    0
  9
$DIMTAD
 70
    1
  9
$DIMZIN
 70
    8
  9
$DIMBLK
  1

  9
$DIMASO
 70
    1
  9
$DIMSHO
 70
    1
  9
$DIMPOST
  1

  9
$DIMAPOST
  1

  9
$DIMALT
 70
    0
  9
$DIMALTD
 70
    3
  9
$DIMALTF
 40
0.03937
  9
$DIMLFAC
 40
1
  9
$DIMTOFL
 70
    1
  9
$DIMTVP
 40
0
  9
$DIMTIX
 70
    0
  9
$DIMSOXD
 70
    0
  9
$DIMSAH
 70
    0
  9
$DIMBLK1
  1

  9
$DIMBLK2
  1

  9
$DIMSTYLE
  2
STANDARD
  9
$DIMCLRD
 70
    0
  9
$DIMCLRE
 70
    0
  9
$DIMCLRT
 70
    0
  9
$DIMTFAC
 40
1
  9
$DIMGAP
 40
0.625
  9
$DIMJUST
 70
    0
  9
$DIMSD1
 70
    0
  9
$DIMSD2
 70
    0
  9
$DIMTOLJ
 70
    0
  9
$DIMTZIN
 70
    8
  9
$DIMALTZ
 70
    0
  9
$DIMALTTZ
 70
    0
  9
$DIMUPT
 70
    0
  9
$DIMDEC
 70
    1
  9
$DIMTDEC
 70
    2
  9
$DIMALTU
 70
    2
  9
$DIMALTTD
 70
    3
  9
$DIMTXSTY
  7
standard
  9
$DIMAUNIT
 70
    0
  9
$DIMADEC
 70
    1
  9
$DIMALTRND
 40
0
  9
$DIMAZIN
 70
    0
  9
$DIMDSEP
 70
   44
  9
$DIMATFIT
 70
    3
  9
$DIMFRAC
 70
    0
  9
$DIMLDRBLK
  1
STANDARD
  9
$DIMLUNIT
 70
    2
  9
$DIMLWD
 70
   -2
  9
$DIMLWE
 70
   -2
  9
$DIMTMOVE
 70
    0
  9
$DIMFXL
 40
1
  9
$DIMFXLON
 70
    0
  9
$DIMJOGANG
 40
0.7854
  9
$DIMTFILL
 70
    0
  9
$DIMTFILLCLR
 70
    0
  9
$DIMARCSYM
 70
    0
  9
$DIMLTYPE
  6

  9
$DIMLTEX1
  6

  9
$DIMLTEX2
  6

  9
$LUNITS
 70
    2
  9
$LUPREC
 70
    1
  9
$SKETCHINC
 40
1
  9
$FILLETRAD
 40
0
  9
$AUNITS
 70
    0
  9
$AUPREC
 70
    1
  9
$MENU
  1
.
  9
$ELEVATION
 40
0
  9
$PELEVATION
 40
0
  9
$THICKNESS
 40
0
  9
$LIMCHECK
 70
    0
  9
$CHAMFERA
 40
0
  9
$CHAMFERB
 40
0
  9
$CHAMFERC
 40
0
  9
$CHAMFERD
 40
0
  9
$SKPOLY
 70
    0
  9
$USRTIMER
 70
    1
  9
$ANGBASE
 50
0
  9
$ANGDIR
 70
    0
  9
$PDMODE
 70
   34
  9
$PDSIZE
 40
0
  9
$PLINEWID
 40
0
  9
$SPLFRAME
 70
    0
  9
$SPLINETYPE
 70
    2
  9
$SPLINESEGS
 70
    8
  9
$HANDSEED
  5
20000
  9
$SURFTAB1
 70
    6
  9
$SURFTAB2
 70
    6
  9
$SURFTYPE
 70
    6
  9
$SURFU
 70
    6
  9
$SURFV
 70
    6
  9
$UCSBASE
  2

  9
$UCSNAME
  2

  9
$UCSORG
 10
0
 20
0
 30
0
  9
$UCSXDIR
 10
1
 20
0
 30
0
  9
$UCSYDIR
 10
0
 20
1
 30
0
  9
$UCSORTHOREF
  2

  9
$UCSORTHOVIEW
 70
    0
  9
$UCSORGTOP
 10
0
 20
0
 30
0
  9
$UCSORGBOTTOM
 10
0
 20
0
 30
0
  9
$UCSORGLEFT
 10
0
 20
0
 30
0
  9
$UCSORGRIGHT
 10
0
 20
0
 30
0
  9
$UCSORGFRONT
 10
0
 20
0
 30
0
  9
$UCSORGBACK
 10
0
 20
0
 30
0
  9
$PUCSBASE
  2

  9
$PUCSNAME
  2

  9
$PUCSORG
 10
0
 20
0
 30
0
  9
$PUCSXDIR
 10
1
 20
0
 30
0
  9
$PUCSYDIR
 10
0
 20
1
 30
0
  9
$PUCSORTHOREF
  2

  9
$PUCSORTHOVIEW
 70
    0
  9
$PUCSORGTOP
 10
0
 20
0
 30
0
  9
$PUCSORGBOTTOM
 10
0
 20
0
 30
0
  9
$PUCSORGLEFT
 10
0
 20
0
 30
0
  9
$PUCSORGRIGHT
 10
0
 20
0
 30
0
  9
$PUCSORGFRONT
 10
0
 20
0
 30
0
  9
$PUCSORGBACK
 10
0
 20
0
 30
0
  9
$USERI1
 70
    0
  9
$USERI2
 70
    0
  9
$USERI3
 70
    0
  9
$USERI4
 70
    0
  9
$USERI5
 70
    0
  9
$USERR1
 40
0
  9
$USERR2
 40
0
  9
$USERR3
 40
0
  9
$USERR4
 40
0
  9
$USERR5
 40
0
  9
$WORLDVIEW
 70
    1
  9
$SHADEDGE
 70
    3
  9
$SHADEDIF
 70
   70
  9
$TILEMODE
 70
    1
  9
$MAXACTVP
 70
   64
  9
$PINSBASE
 10
70.91598927114978
 20
69.14282834471277
 30
0
  9
$PLIMCHECK
 70
    0
  9
$PEXTMIN
 10
0
 20
0
 30
0
  9
$PEXTMAX
 10
0
 20
0
 30
0
  9
$GRIDMODE
 70
    1
  9
$SNAPSTYLE
 70
    0
  9
$GRIDUNIT
 10
0
 20
0
  9
$PLIMMIN
 10
0
 20
0
  9
$PLIMMAX
 10
210
 20
297
  9
$UNITMODE
 70
    0
  9
$VISRETAIN
 70
    1
  9
$PLINEGEN
 70
    0
  9
$PSLTSCALE
 70
    1
  9
$TREEDEPTH
 70
 3020
  9
$CMLSTYLE
  2
Standard
  9
$CMLJUST
 70
    0
  9
$CMLSCALE
 40
20
  9
$PROXYGRAPHICS
 70
    1
  9
$MEASUREMENT
 70
    1
  9
$CELWEIGHT
370
   -1
  9
$ENDCAPS
280
    0
  9
$JOINSTYLE
280
    0
  9
$LWDISPLAY
290
    0
  9
$INSUNITS
 70
    4
  9
$HYPERLINKBASE
  1

  9
$STYLESHEET
  1

  9
$XEDIT
290
    1
  9
$CEPSNTYPE
380
    0
  9
$PSTYLEMODE
290
    1
  9
$EXTNAMES
290
    1
  9
$PSVPSCALE
 40
0.9737193156700649
  9
$OLESTARTUP
290
    0
  9
$SORTENTS
280
  127
  9
$INDEXCTL
280
    0
  9
$HIDETEXT
280
    1
  9
$XCLIPFRAME
290
    0
  9
$HALOGAP
280
    0
  9
$OBSCOLOR
 70
  257
  9
$OBSLTYPE
280
    0
  9
$INTERSECTIONDISPLAY
280
    0
  9
$INTERSECTIONCOLOR
 70
  257
  9
$DIMASSOC
280
    1
  9
$PROJECTNAME
  1

  9
$CAMERADISPLAY
290
    0
  9
$LENSLENGTH
 40
50
  9
$CAMERAHEIGHT
 40
0
  9
$STEPSPERSEC
 40
2
  9
$STEPSIZE
 40
50
  9
$3DDWFPREC
 40
2
  9
$PSOLWIDTH
 40
5
  9
$PSOLHEIGHT
 40
80
  9
$LOFTANG1
 40
1.570796326794897
  9
$LOFTANG2
 40
1.570796326794897
  9
$LOFTMAG1
 40
0
  9
$LOFTMAG2
 40
0
  9
$LOFTPARAM
 70
    7
  9
$LOFTNORMALS
280
    1
  9
$LATITUDE
 40
1
  9
$LONGITUDE
 40
1
  9
$NORTHDIRECTION
 40
0
  9
$TIMEZONE
 70
-8000
  9
$LIGHTGLYPHDISPLAY
280
    1
  9
$TILEMODELIGHTSYNCH
280
    1
  9
$SOLIDHIST
280
    1
  9
$SHOWHIST
280
    1
  9
$DWFFRAME
280
    2
  9
$DGNFRAME
280
    0
  9
$REALWORLDSCALE
290
    1
  9
$INTERFERECOLOR
 62
    1
  9
$CSHADOW
280
    0
  9
$SHADOWPLANELOCATION
 40
0
  0
ENDSEC
  0
SECTION
  2
CLASSES
  0
ENDSEC
  0
SECTION
  2
TABLES
  0
TABLE
  2
VPORT
  5
8
330
0
100
AcDbSymbolTable
 70
    1
  0
VPORT
  5
31
330
2
100
AcDbSymbolTableRecord
100
AcDbViewportTableRecord
  2
*ACTIVE
 70
    0
 10
0
 20
0
 11
1
 21
1
 12
131.019551332903
 22
95.424644323386
 13
0
 23
0
 14
10
 24
10
 15
10
 25
10
 16
0
 26
0
 36
1
 17
0
 27
0
 37
0
 40
276.6809793080187
 41
1.642335766423358
 42
50
 43
0
 44
0
 50
0
 51
0
 71
    0
 72
  100
 73
    1
 74
    3
 75
    0
 76
    1
 77
    0
 78
    0
281
    0
 65
    1
110
0
120
0
130
0
111
1
121
0
131
0
112
0
122
1
132
0
 79
    0
146
0
348
10020
 60
    7
 61
    5
292
1
282
    1
141
0
142
0
 63
  250
421
3358443
  0
ENDTAB
  0
TABLE
  2
LTYPE
  5
5
330
0
100
AcDbSymbolTable
 70
    4
  0
LTYPE
  5
14
330
5
100
AcDbSymbolTableRecord
100
AcDbLinetypeTableRecord
  2
ByBlock
 70
    0
  3

 72
   65
 73
    0
 40
0
  0
LTYPE
  5
15
330
5
100
AcDbSymbolTableRecord
100
AcDbLinetypeTableRecord
  2
ByLayer
 70
    0
  3

 72
   65
 73
    0
 40
0
  0
LTYPE
  5
16
330
5
100
AcDbSymbolTableRecord
100
AcDbLinetypeTableRecord
  2
Continuous
 70
    0
  3
Solid line
 72
   65
 73
    0
 40
0
  0
LTYPE
  5
32
330
5
100
AcDbSymbolTableRecord
100
AcDbLinetypeTableRecord
  2
DOT
 70
    0
  3
Dot . . . . . . . . . . . . . . . . . . . . . .
 72
   65
 73
    2
 40
6.35
 49
0
 74
    0
 49
-6.35
 74
    0
  0
LTYPE
  5
33
330
5
100
AcDbSymbolTableRecord
100
AcDbLinetypeTableRecord
  2
DOTTINY
 70
    0
  3
Dot (.15x) .....................................
 72
   65
 73
    2
 40
0.9525
 49
0
 74
    0
 49
-0.9525
 74
    0
  0
LTYPE
  5
34
330
5
100
AcDbSymbolTableRecord
100
AcDbLinetypeTableRecord
  2
DOT2
 70
    0
  3
Dot (.5x) .....................................
 72
   65
 73
    2
 40
3.175
 49
0
 74
    0
 49
-3.175
 74
    0
  0
LTYPE
  5
35
330
5
100
AcDbSymbolTableRecord
100
AcDbLinetypeTableRecord
  2
DOTX2
 70
    0
  3
Dot (2x) .  .  .  .  .  .  .  .  .  .  .  .  .
 72
   65
 73
    2
 40
12.7
 49
0
 74
    0
 49
-12.7
 74
    0
  0
LTYPE
  5
36
330
5
100
AcDbSymbolTableRecord
100
AcDbLinetypeTableRecord
  2
DASHED
 70
    0
  3
Dashed _ _ _ _ _ _ _ _ _ _ _ _ _ _ _ _ _
 72
   65
 73
    2
 40
19.05
 49
12.7
 74
    0
 49
-6.35
 74
    0
  0
LTYPE
  5
37
330
5
100
AcDbSymbolTableRecord
100
AcDbLinetypeTableRecord
  2
DASHEDTINY
 70
    0
  3
Dashed (.15x) _ _ _ _ _ _ _ _ _ _ _ _ _ _ _ _ _
 72
   65
 73
    2
 40
2.8575
 49
1.905
 74
    0
 49
-0.9525
 74
    0
  0
LTYPE
  5
38
330
5
100
AcDbSymbolTableRecord
100
AcDbLinetypeTableRecord
  2
DASHED2
 70
    0
  3
Dashed (.5x) _ _ _ _ _ _ _ _ _ _ _ _ _ _ _ _ _
 72
   65
 73
    2
 40
9.524999999999999
 49
6.35
 74
    0
 49
-3.175
 74
    0
  0
LTYPE
  5
39
330
5
100
AcDbSymbolTableRecord
100
AcDbLinetypeTableRecord
  2
DASHEDX2
 70
    0
  3
Dashed (2x) ____  ____  ____  ____  ____  ___
 72
   65
 73
    2
 40
38.09999999999999
 49
25.4
 74
    0
 49
-12.7
 74
    0
  0
LTYPE
  5
3A
330
5
100
AcDbSymbolTableRecord
100
AcDbLinetypeTableRecord
  2
DASHDOT
 70
    0
  3
Dash dot __ . __ . __ . __ . __ . __ . __ . __
 72
   65
 73
    4
 40
25.4
 49
12.7
 74
    0
 49
-6.35
 74
    0
 49
0
 74
    0
 49
-6.35
 74
    0
  0
LTYPE
  5
3B
330
5
100
AcDbSymbolTableRecord
100
AcDbLinetypeTableRecord
  2
DASHDOTTINY
 70
    0
  3
Dash dot (.15x) _._._._._._._._._._._._._._._.
 72
   65
 73
    4
 40
3.81
 49
1.905
 74
    0
 49
-0.9525
 74
    0
 49
0
 74
    0
 49
-0.9525
 74
    0
  0
LTYPE
  5
3C
330
5
100
AcDbSymbolTableRecord
100
AcDbLinetypeTableRecord
  2
DASHDOT2
 70
    0
  3
Dash dot (.5x) _._._._._._._._._._._._._._._.
 72
   65
 73
    4
 40
12.7
 49
6.35
 74
    0
 49
-3.175
 74
    0
 49
0
 74
    0
 49
-3.175
 74
    0
  0
LTYPE
  5
3D
330
5
100
AcDbSymbolTableRecord
100
AcDbLinetypeTableRecord
  2
DASHDOTX2
 70
    0
  3
Dash dot (2x) ____  .  ____  .  ____  .  ___
 72
   65
 73
    4
 40
50.8
 49
25.4
 74
    0
 49
-12.7
 74
    0
 49
0
 74
    0
 49
-12.7
 74
    0
  0
LTYPE
  5
3E
330
5
100
AcDbSymbolTableRecord
100
AcDbLinetypeTableRecord
  2
DIVIDE
 70
    0
  3
Divide ____ . . ____ . . ____ . . ____ . . ____
 72
   65
 73
    6
 40
31.75
 49
12.7
 74
    0
 49
-6.35
 74
    0
 49
0
 74
    0
 49
-6.35
 74
    0
 49
0
 74
    0
 49
-6.35
 74
    0
  0
LTYPE
  5
3F
330
5
100
AcDbSymbolTableRecord
100
AcDbLinetypeTableRecord
  2
DIVIDETINY
 70
    0
  3
Divide (.15x) __..__..__..__..__..__..__..__.._
 72
   65
 73
    6
 40
4.7625
 49
1.905
 74
    0
 49
-0.9525
 74
    0
 49
0
 74
    0
 49
-0.9525
 74
    0
 49
0
 74
    0
 49
-0.9525
 74
    0
  0
LTYPE
  5
40
330
5
100
AcDbSymbolTableRecord
100
AcDbLinetypeTableRecord
  2
DIVIDE2
 70
    0
  3
Divide (.5x) __..__..__..__..__..__..__..__.._
 72
   65
 73
    6
 40
15.875
 49
6.35
 74
    0
 49
-3.175
 74
    0
 49
0
 74
    0
 49
-3.175
 74
    0
 49
0
 74
    0
 49
-3.175
 74
    0
  0
LTYPE
  5
41
330
5
100
AcDbSymbolTableRecord
100
AcDbLinetypeTableRecord
  2
DIVIDEX2
 70
    0
  3
Divide (2x) ________  .  .  ________  .  .  _
 72
   65
 73
    6
 40
63.5
 49
25.4
 74
    0
 49
-12.7
 74
    0
 49
0
 74
    0
 49
-12.7
 74
    0
 49
0
 74
    0
 49
-12.7
 74
    0
  0
LTYPE
  5
42
330
5
100
AcDbSymbolTableRecord
100
AcDbLinetypeTableRecord
  2
BORDER
 70
    0
  3
Border __ __ . __ __ . __ __ . __ __ . __ __ .
 72
   65
 73
    6
 40
44.45
 49
12.7
 74
    0
 49
-6.35
 74
    0
 49
12.7
 74
    0
 49
-6.35
 74
    0
 49
0
 74
    0
 49
-6.35
 74
    0
  0
LTYPE
  5
43
330
5
100
AcDbSymbolTableRecord
100
AcDbLinetypeTableRecord
  2
BORDERTINY
 70
    0
  3
Border (.15x) __.__.__.__.__.__.__.__.__.__.__.
 72
   65
 73
    6
 40
6.6675
 49
1.905
 74
    0
 49
-0.9525
 74
    0
 49
1.905
 74
    0
 49
-0.9525
 74
    0
 49
0
 74
    0
 49
-0.9525
 74
    0
  0
LTYPE
  5
44
330
5
100
AcDbSymbolTableRecord
100
AcDbLinetypeTableRecord
  2
BORDER2
 70
    0
  3
Border (.5x) __.__.__.__.__.__.__.__.__.__.__.
 72
   65
 73
    6
 40
22.225
 49
6.35
 74
    0
 49
-3.175
 74
    0
 49
6.35
 74
    0
 49
-3.175
 74
    0
 49
0
 74
    0
 49
-3.175
 74
    0
  0
LTYPE
  5
45
330
5
100
AcDbSymbolTableRecord
100
AcDbLinetypeTableRecord
  2
BORDERX2
 70
    0
  3
Border (2x) ____  ____  .  ____  ____  .  ___
 72
   65
 73
    6
 40
88.89999999999999
 49
25.4
 74
    0
 49
-12.7
 74
    0
 49
25.4
 74
    0
 49
-12.7
 74
    0
 49
0
 74
    0
 49
-12.7
 74
    0
  0
LTYPE
  5
46
330
5
100
AcDbSymbolTableRecord
100
AcDbLinetypeTableRecord
  2
CENTER
 70
    0
  3
Center ____ _ ____ _ ____ _ ____ _ ____ _ ____
 72
   65
 73
    4
 40
50.8
 49
31.75
 74
    0
 49
-6.35
 74
    0
 49
6.35
 74
    0
 49
-6.35
 74
    0
  0
LTYPE
  5
47
330
5
100
AcDbSymbolTableRecord
100
AcDbLinetypeTableRecord
  2
CENTERTINY
 70
    0
  3
Center (.15x) ___ _ ___ _ ___ _ ___ _ ___ _ ___
 72
   65
 73
    4
 40
7.619999999999999
 49
4.7625
 74
    0
 49
-0.9525
 74
    0
 49
0.9525
 74
    0
 49
-0.9525
 74
    0
  0
LTYPE
  5
48
330
5
100
AcDbSymbolTableRecord
100
AcDbLinetypeTableRecord
  2
CENTER2
 70
    0
  3
Center (.5x) ___ _ ___ _ ___ _ ___ _ ___ _ ___
 72
   65
 73
    4
 40
28.575
 49
19.05
 74
    0
 49
-3.175
 74
    0
 49
3.175
 74
    0
 49
-3.175
 74
    0
  0
LTYPE
  5
49
330
5
100
AcDbSymbolTableRecord
100
AcDbLinetypeTableRecord
  2
CENTERX2
 70
    0
  3
Center (2x) ________  __  ________  __  _____
 72
   65
 73
    4
 40
101.6
 49
63.5
 74
    0
 49
-12.7
 74
    0
 49
12.7
 74
    0
 49
-12.7
 74
    0
  0
ENDTAB
  0
TABLE
  2
LAYER
  5
2
330
0
100
AcDbSymbolTable
 70
    1
  0
LAYER
  5
10
330
2
100
AcDbSymbolTableRecord
100
AcDbLayerTableRecord
  2
0
 70
    0
 62
    7
  6
CONTINUOUS
370
    0
390
F
  0
LAYER
  5
4A
330
2
100
AcDbSymbolTableRecord
100
AcDbLayerTableRecord
  2
frame
 70
    4
 62
    7
  6
CONTINUOUS
370
   -3
390
F
  0
LAYER
  5
4B
330
2
100
AcDbSymbolTableRecord
100
AcDbLayerTableRecord
  2
text
 70
    4
 62
    7
  6
CONTINUOUS
370
    0
390
F
  0
ENDTAB
  0
TABLE
  2
STYLE
  5
3
330
0
100
AcDbSymbolTable
 70
    3
  0
STYLE
  5
4C
330
2
100
AcDbSymbolTableRecord
100
AcDbTextStyleTableRecord
  2
iso
 70
    0
 40
0
 41
1
 50
0
 71
    0
 42
1
  3
iso
  4

  0
STYLE
  5
4D
330
2
100
AcDbSymbolTableRecord
100
AcDbTextStyleTableRecord
  2
standard
 70
    0
 40
0
 41
1
 50
0
 71
    0
 42
1
  3
standard
  4

  0
ENDTAB
  0
TABLE
  2
VIEW
  5
6
330
0
100
AcDbSymbolTable
 70
    0
  0
ENDTAB
  0
TABLE
  2
UCS
  5
7
330
0
100
AcDbSymbolTable
 70
    0
  0
ENDTAB
  0
TABLE
  2
APPID
  5
9
330
0
100
AcDbSymbolTable
 70
    1
  0
APPID
  5
12
330
9
100
AcDbSymbolTableRecord
100
AcDbRegAppTableRecord
  2
ACAD
 70
    0
  0
APPID
  5
4E
330
9
100
AcDbSymbolTableRecord
100
AcDbRegAppTableRecord
  2
LibreCad
 70
    0
  0
ENDTAB
  0
TABLE
  2
DIMSTYLE
  5
A
330
0
100
AcDbSymbolTable
 70
    1
100
AcDbDimStyleTable
 71
    1
  0
DIMSTYLE
105
4F
330
A
100
AcDbSymbolTableRecord
100
AcDbDimStyleTableRecord
  2
Standard
 70
    0
 40
1
 41
2.5
 42
0.625
 43
0.38
 44
1.25
 45
0
 46
0
 47
0
 48
0
 49
1
140
2.5
141
0.09
142
0
143
25.4
144
1
145
0
146
1
147
0.625
148
0
 71
    0
 72
    0
 73
    0
 74
    1
 75
    0
 76
    0
 77
    0
 78
    8
 79
    0
170
    0
171
    2
172
    0
173
    0
174
    0
175
    0
176
    0
177
    0
178
    0
179
    1
271
    1
272
    4
273
    2
274
    2
275
    0
276
    0
277
    2
278
   44
279
    0
280
    0
281
    0
282
    0
283
    1
284
    0
285
    0
286
    0
288
    0
289
    3
340
standard
341

371
   -2
372
   -2
  0
ENDTAB
  0
TABLE
  2
BLOCK_RECORD
  5
1
330
0
100
AcDbSymbolTable
 70
    2
  0
BLOCK_RECORD
  5
1F
330
1
100
AcDbSymbolTableRecord
100
AcDbBlockTableRecord
  2
*Model_Space
 70
    0
280
    1
281
    0
  0
BLOCK_RECORD
  5
1E
330
1
100
AcDbSymbolTableRecord
100
AcDbBlockTableRecord
  2
*Paper_Space
 70
    0
280
    1
281
    0
  0
BLOCK_RECORD
  5
50
330
1
100
AcDbSymbolTableRecord
100
AcDbBlockTableRecord
  2
*D6
 70
    0
280
    1
281
    0
  0
BLOCK_RECORD
  5
53
330
1
100
AcDbSymbolTableRecord
100
AcDbBlockTableRecord
  2
*D8
 70
    0
280
    1
281
    0
  0
BLOCK_RECORD
  5
56
330
1
100
AcDbSymbolTableRecord
100
AcDbBlockTableRecord
  2
*D3
 70
    0
280
    1
281
    0
  0
BLOCK_RECORD
  5
59
330
1
100
AcDbSymbolTableRecord
100
AcDbBlockTableRecord
  2
*D13
 70
    0
280
    1
281
    0
  0
BLOCK_RECORD
  5
5C
330
1
100
AcDbSymbolTableRecord
100
AcDbBlockTableRecord
  2
*D9
 70
    0
280
    1
281
    0
  0
BLOCK_RECORD
  5
5F
330
1
100
AcDbSymbolTableRecord
100
AcDbBlockTableRecord
  2
*D10
 70
    0
280
    1
281
    0
  0
BLOCK_RECORD
  5
62
330
1
100
AcDbSymbolTableRecord
100
AcDbBlockTableRecord
  2
*D12
 70
    0
280
    1
281
    0
  0
BLOCK_RECORD
  5
65
330
1
100
AcDbSymbolTableRecord
100
AcDbBlockTableRecord
  2
*D16
 70
    0
280
    1
281
    0
  0
BLOCK_RECORD
  5
68
330
1
100
AcDbSymbolTableRecord
100
AcDbBlockTableRecord
  2
*D14
 70
    0
280
    1
281
    0
  0
BLOCK_RECORD
  5
6B
330
1
100
AcDbSymbolTableRecord
100
AcDbBlockTableRecord
  2
*D17
 70
    0
280
    1
281
    0
  0
BLOCK_RECORD
  5
6E
330
1
100
AcDbSymbolTableRecord
100
AcDbBlockTableRecord
  2
*D2
 70
    0
280
    1
281
    0
  0
BLOCK_RECORD
  5
71
330
1
100
AcDbSymbolTableRecord
100
AcDbBlockTableRecord
  2
*D4
 70
    0
280
    1
281
    0
  0
BLOCK_RECORD
  5
74
330
1
100
AcDbSymbolTableRecord
100
AcDbBlockTableRecord
  2
*D11
 70
    0
280
    1
281
    0
  0
BLOCK_RECORD
  5
77
330
1
100
AcDbSymbolTableRecord
100
AcDbBlockTableRecord
  2
*D5
 70
    0
280
    1
281
    0
  0
BLOCK_RECORD
  5
7A
330
1
100
AcDbSymbolTableRecord
100
AcDbBlockTableRecord
  2
*D15
 70
    0
280
    1
281
    0
  0
BLOCK_RECORD
  5
7D
330
1
100
AcDbSymbolTableRecord
100
AcDbBlockTableRecord
  2
*D1
 70
    0
280
    1
281
    0
  0
BLOCK_RECORD
  5
80
330
1
100
AcDbSymbolTableRecord
100
AcDbBlockTableRecord
  2
*D7
 70
    0
280
    1
281
    0
  0
ENDTAB
  0
ENDSEC
  0
SECTION
  2
BLOCKS
  0
BLOCK
  5
20
330
1F
100
AcDbEntity
  8
0
100
AcDbBlockBegin
  2
*Model_Space
 70
    0
 10
0
 20
0
 30
0
  3
*Model_Space
  1

  0
ENDBLK
  5
21
330
1F
100
AcDbEntity
  8
0
100
AcDbBlockEnd
  0
BLOCK
  5
1C
330
1B
100
AcDbEntity
  8
0
100
AcDbBlockBegin
  2
*Paper_Space
 70
    0
 10
0
 20
0
 30
0
  3
*Paper_Space
  1

  0
ENDBLK
  5
1D
330
1F
100
AcDbEntity
  8
0
100
AcDbBlockEnd
  0
BLOCK
  5
51
330
50
100
AcDbEntity
  8
0
100
AcDbBlockBegin
  2
*D6
 70
    1
 10
0
 20
0
  3
*D6
  1

  0
LINE
  5
83
100
AcDbEntity
  8
0
  6
ByBlock
 62
    0
370
   -2
100
AcDbLine
 10
-16.2371431286339
 20
138.2655206605166
 11
-16.2371431286339
 21
161.7655206605166
  0
SOLID
  5
84
100
AcDbEntity
  8
0
  6
ByBlock
 62
    0
370
   -2
100
AcDbTrace
 10
-16.2371431286339
 20
138.2655206605166
 30
0
 11
-16.65342778640674
 21
140.7655206605166
 31
0
 12
-15.82085847086106
 22
140.7655206605166
 32
0
 13
-15.82085847086106
 23
140.7655206605166
 33
0
  0
SOLID
  5
85
100
AcDbEntity
  8
0
  6
ByBlock
 62
    0
370
   -2
100
AcDbTrace
 10
-16.2371431286339
 20
161.7655206605166
 30
0
 11
-15.82085847086106
 21
159.2655206605166
 31
0
 12
-16.65342778640674
 22
159.2655206605166
 32
0
 13
-16.65342778640674
 23
159.2655206605166
 33
0
  0
MTEXT
  5
86
100
AcDbEntity
  8
0
  6
CONTINUOUS
 62
    0
370
   -2
100
AcDbMText
 10
-18.1121431286339
 20
150.0155206605166
 30
0
 40
2.5
 41
5.972222222222534
 71
    5
 72
    1
  1
23,5
  7
standard
210
0
220
0
230
1
 50
90
 73
    2
 44
1
  0
LINE
  5
87
100
AcDbEntity
  8
0
  6
ByBlock
 62
    0
370
   -2
100
AcDbLine
 10
-6.968811556962685
 20
138.2655206605166
 11
-17.4871431286339
 21
138.2655206605166
  0
LINE
  5
88
100
AcDbEntity
  8
0
  6
ByBlock
 62
    0
370
   -2
100
AcDbLine
 10
-4.968811556962685
 20
161.7655206605166
 11
-17.4871431286339
 21
161.7655206605166
  0
ENDBLK
  5
52
330
50
100
AcDbEntity
  8
0
100
AcDbBlockEnd
  0
BLOCK
  5
54
330
53
100
AcDbEntity
  8
0
100
AcDbBlockBegin
  2
*D8
 70
    1
 10
0
 20
0
  3
*D8
  1

  0
LINE
  5
89
100
AcDbEntity
  8
0
  6
ByBlock
 62
    0
370
   -2
100
AcDbLine
 10
-5.46509815945689
 20
10.68929576593573
 11
16.53490184054311
 21
10.68929576593573
  0
SOLID
  5
8A
100
AcDbEntity
  8
0
  6
ByBlock
 62
    0
370
   -2
100
AcDbTrace
 10
-5.46509815945689
 20
10.68929576593573
 30
0
 11
-2.96509815945689
 21
11.10558042370857
 31
0
 12
-2.96509815945689
 22
10.27301110816289
 32
0
 13
-2.96509815945689
 23
10.27301110816289
 33
0
  0
SOLID
  5
8B
100
AcDbEntity
  8
0
  6
ByBlock
 62
    0
370
   -2
100
AcDbTrace
 10
16.53490184054311
 20
10.68929576593573
 30
0
 11
14.03490184054311
 21
10.27301110816289
 31
0
 12
14.03490184054311
 22
11.10558042370857
 32
0
 13
14.03490184054311
 23
11.10558042370857
 33
0
  0
MTEXT
  5
8C
100
AcDbEntity
  8
0
  6
CONTINUOUS
 62
    0
370
   -2
100
AcDbMText
 10
5.53490184054311
 20
12.56429576593573
 30
0
 40
2.5
 41
3.055555555555556
 71
    5
 72
    1
  1
22
  7
standard
210
0
220
0
230
1
 50
0
 73
    2
 44
1
  0
LINE
  5
8D
100
AcDbEntity
  8
0
  6
ByBlock
 62
    0
370
   -2
100
AcDbLine
 10
-5.46509815945689
 20
20.10332759085478
 11
-5.46509815945689
 21
9.43929576593573
  0
LINE
  5
8E
100
AcDbEntity
  8
0
  6
ByBlock
 62
    0
370
   -2
100
AcDbLine
 10
16.53490184054311
 20
32.10332759085478
 11
16.53490184054311
 21
9.43929576593573
  0
ENDBLK
  5
55
330
53
100
AcDbEntity
  8
0
100
AcDbBlockEnd
  0
BLOCK
  5
57
330
56
100
AcDbEntity
  8
0
100
AcDbBlockBegin
  2
*D3
 70
    1
 10
0
 20
0
  3
*D3
  1

  0
LINE
  5
8F
100
AcDbEntity
  8
0
  6
ByBlock
 62
    0
370
   -2
100
AcDbLine
 10
-6.343811556962686
 20
128.236950875718
 11
8.656188443037314
 21
128.236950875718
  0
SOLID
  5
90
100
AcDbEntity
  8
0
  6
ByBlock
 62
    0
370
   -2
100
AcDbTrace
 10
-6.343811556962686
 20
128.236950875718
 30
0
 11
-3.843811556962686
 21
128.6532355334909
 31
0
 12
-3.843811556962686
 22
127.8206662179452
 32
0
 13
-3.843811556962686
 23
127.8206662179452
 33
0
  0
SOLID
  5
91
100
AcDbEntity
  8
0
  6
ByBlock
 62
    0
370
   -2
100
AcDbTrace
 10
8.656188443037314
 20
128.236950875718
 30
0
 11
6.156188443037314
 21
127.8206662179452
 31
0
 12
6.156188443037314
 22
128.6532355334909
 32
0
 13
6.156188443037314
 23
128.6532355334909
 33
0
  0
MTEXT
  5
92
100
AcDbEntity
  8
0
  6
CONTINUOUS
 62
    0
370
   -2
100
AcDbMText
 10
1.156188443037314
 20
130.111950875718
 30
0
 40
2.5
 41
2.500000000000155
 71
    5
 72
    1
  1
15
  7
standard
210
0
220
0
230
1
 50
0
 73
    2
 44
1
  0
LINE
  5
93
100
AcDbEntity
  8
0
  6
ByBlock
 62
    0
370
   -2
100
AcDbLine
 10
-6.343811556962685
 20
137.6405206605166
 11
-6.343811556962686
 21
126.986950875718
  0
LINE
  5
94
100
AcDbEntity
  8
0
  6
ByBlock
 62
    0
370
   -2
100
AcDbLine
 10
8.656188443037314
 20
152.6405206605166
 11
8.656188443037314
 21
126.986950875718
  0
ENDBLK
  5
58
330
56
100
AcDbEntity
  8
0
100
AcDbBlockEnd
  0
BLOCK
  5
5A
330
59
100
AcDbEntity
  8
0
100
AcDbBlockBegin
  2
*D13
 70
    1
 10
0
 20
0
  3
*D13
  1

  0
LINE
  5
95
100
AcDbEntity
  8
0
  6
ByBlock
 62
    0
370
   -2
100
AcDbLine
 10
16.50781182541811
 20
60.13397029157926
 11
41.4810388363403
 21
60.13397029157926
  0
SOLID
  5
96
100
AcDbEntity
  8
0
  6
ByBlock
 62
    0
370
   -2
100
AcDbTrace
 10
16.50781182541811
 20
60.13397029157926
 30
0
 11
19.00781182541811
 21
60.5502549493521
 31
0
 12
19.00781182541811
 22
59.71768563380642
 32
0
 13
19.00781182541811
 23
59.71768563380642
 33
0
  0
SOLID
  5
97
100
AcDbEntity
  8
0
  6
ByBlock
 62
    0
370
   -2
100
AcDbTrace
 10
41.4810388363403
 20
60.13397029157926
 30
0
 11
38.9810388363403
 21
59.71768563380642
 31
0
 12
38.9810388363403
 22
60.5502549493521
 32
0
 13
38.9810388363403
 23
60.5502549493521
 33
0
  0
MTEXT
  5
98
100
AcDbEntity
  8
0
  6
CONTINUOUS
 62
    0
370
   -2
100
AcDbMText
 10
28.99442533087921
 20
62.00897029157926
 30
0
 40
2.5
 41
3.055555555555711
 71
    5
 72
    1
  1
25
  7
standard
210
0
220
0
230
1
 50
0
 73
    2
 44
1
  0
LINE
  5
99
100
AcDbEntity
  8
0
  6
ByBlock
 62
    0
370
   -2
100
AcDbLine
 10
16.50781182541811
 20
24.88311232738087
 11
16.50781182541811
 21
61.38397029157926
  0
LINE
  5
9A
100
AcDbEntity
  8
0
  6
ByBlock
 62
    0
370
   -2
100
AcDbLine
 10
41.4810388363403
 20
24.70662309055459
 11
41.4810388363403
 21
61.38397029157926
  0
ENDBLK
  5
5B
330
59
100
AcDbEntity
  8
0
100
AcDbBlockEnd
  0
BLOCK
  5
5D
330
5C
100
AcDbEntity
  8
0
100
AcDbBlockBegin
  2
*D9
 70
    1
 10
0
 20
0
  3
*D9
  1

  0
LINE
  5
9B
100
AcDbEntity
  8
0
  6
ByBlock
 62
    0
370
   -2
100
AcDbLine
 10
22.33195664068617
 20
10.66844109175537
 11
35.83338325789851
 21
10.66844109175537
  0
SOLID
  5
9C
100
AcDbEntity
  8
0
  6
ByBlock
 62
    0
370
   -2
100
AcDbTrace
 10
22.33195664068617
 20
10.66844109175537
 30
0
 11
24.83195664068617
 21
11.08472574952821
 31
0
 12
24.83195664068617
 22
10.25215643398253
 32
0
 13
24.83195664068617
 23
10.25215643398253
 33
0
  0
SOLID
  5
9D
100
AcDbEntity
  8
0
  6
ByBlock
 62
    0
370
   -2
100
AcDbTrace
 10
35.83338325789851
 20
10.66844109175537
 30
0
 11
33.33338325789851
 21
10.25215643398253
 31
0
 12
33.33338325789851
 22
11.08472574952821
 32
0
 13
33.33338325789851
 23
11.08472574952821
 33
0
  0
MTEXT
  5
9E
100
AcDbEntity
  8
0
  6
CONTINUOUS
 62
    0
370
   -2
100
AcDbMText
 10
29.08266994929234
 20
12.54344109175537
 30
0
 40
2.5
 41
5.416666666666977
 71
    5
 72
    1
  1
13,5
  7
standard
210
0
220
0
230
1
 50
0
 73
    2
 44
1
  0
LINE
  5
9F
100
AcDbEntity
  8
0
  6
ByBlock
 62
    0
370
   -2
100
AcDbLine
 10
22.33195664068617
 20
23.10364461690196
 11
22.33195664068617
 21
9.418441091755369
  0
LINE
  5
A0
100
AcDbEntity
  8
0
  6
ByBlock
 62
    0
370
   -2
100
AcDbLine
 10
35.83338325789851
 20
23.28013385372827
 11
35.83338325789851
 21
9.418441091755369
  0
ENDBLK
  5
5E
330
5C
100
AcDbEntity
  8
0
100
AcDbBlockEnd
  0
BLOCK
  5
60
330
5F
100
AcDbEntity
  8
0
100
AcDbBlockBegin
  2
*D10
 70
    1
 10
0
 20
0
  3
*D10
  1

  0
LINE
  5
A1
100
AcDbEntity
  8
0
  6
ByBlock
 62
    0
370
   -2
100
AcDbLine
 10
20.56706427242312
 20
4.844296276487313
 11
37.59827562616157
 21
4.844296276487313
  0
SOLID
  5
A2
100
AcDbEntity
  8
0
  6
ByBlock
 62
    0
370
   -2
100
AcDbTrace
 10
20.56706427242312
 20
4.844296276487313
 30
0
 11
23.06706427242312
 21
5.260580934260153
 31
0
 12
23.06706427242312
 22
4.428011618714472
 32
0
 13
23.06706427242312
 23
4.428011618714472
 33
0
  0
SOLID
  5
A3
100
AcDbEntity
  8
0
  6
ByBlock
 62
    0
370
   -2
100
AcDbTrace
 10
37.59827562616157
 20
4.844296276487313
 30
0
 11
35.09827562616157
 21
4.428011618714472
 31
0
 12
35.09827562616157
 22
5.260580934260154
 32
0
 13
35.09827562616157
 23
5.260580934260154
 33
0
  0
MTEXT
  5
A4
100
AcDbEntity
  8
0
  6
CONTINUOUS
 62
    0
370
   -2
100
AcDbMText
 10
29.08266994929234
 20
6.719296276487313
 30
0
 40
2.5
 41
2.5
 71
    5
 72
    1
  1
17
  7
standard
210
0
220
0
230
1
 50
0
 73
    2
 44
1
  0
LINE
  5
A5
100
AcDbEntity
  8
0
  6
ByBlock
 62
    0
370
   -2
100
AcDbLine
 10
20.56706427242312
 20
25.30976007723078
 11
20.56706427242312
 21
3.594296276487313
  0
LINE
  5
A6
100
AcDbEntity
  8
0
  6
ByBlock
 62
    0
370
   -2
100
AcDbLine
 10
37.59827562616157
 20
25.13327084040446
 11
37.59827562616157
 21
3.594296276487313
  0
ENDBLK
  5
61
330
5F
100
AcDbEntity
  8
0
100
AcDbBlockEnd
  0
BLOCK
  5
63
330
62
100
AcDbEntity
  8
0
100
AcDbBlockBegin
  2
*D12
 70
    1
 10
0
 20
0
  3
*D12
  1

  0
LINE
  5
A7
100
AcDbEntity
  8
0
  6
ByBlock
 62
    0
370
   -2
100
AcDbLine
 10
19.51810049334598
 20
55.23840596795584
 11
38.48125127800358
 21
55.23840596795584
  0
SOLID
  5
A8
100
AcDbEntity
  8
0
  6
ByBlock
 62
    0
370
   -2
100
AcDbTrace
 10
19.51810049334598
 20
55.23840596795584
 30
0
 11
22.01810049334598
 21
55.65469062572868
 31
0
 12
22.01810049334598
 22
54.822121310183
 32
0
 13
22.01810049334598
 23
54.822121310183
 33
0
  0
SOLID
  5
A9
100
AcDbEntity
  8
0
  6
ByBlock
 62
    0
370
   -2
100
AcDbTrace
 10
38.48125127800358
 20
55.23840596795584
 30
0
 11
35.98125127800358
 21
54.822121310183
 31
0
 12
35.98125127800358
 22
55.65469062572868
 32
0
 13
35.98125127800358
 23
55.65469062572868
 33
0
  0
MTEXT
  5
AA
100
AcDbEntity
  8
0
  6
CONTINUOUS
 62
    0
370
   -2
100
AcDbMText
 10
28.99967588567478
 20
57.11340596795584
 30
0
 40
2.5
 41
2.5
 71
    5
 72
    1
  1
19
  7
standard
210
0
220
0
230
1
 50
0
 73
    2
 44
1
  0
LINE
  5
AB
100
AcDbEntity
  8
0
  6
ByBlock
 62
    0
370
   -2
100
AcDbLine
 10
19.51810049334598
 20
31.78807722897324
 11
19.51810049334598
 21
56.48840596795584
  0
LINE
  5
AC
100
AcDbEntity
  8
0
  6
ByBlock
 62
    0
370
   -2
100
AcDbLine
 10
38.48125127800358
 20
31.98874549124474
 11
38.48125127800358
 21
56.48840596795584
  0
ENDBLK
  5
64
330
62
100
AcDbEntity
  8
0
100
AcDbBlockEnd
  0
BLOCK
  5
66
330
65
100
AcDbEntity
  8
0
100
AcDbBlockBegin
  2
*D16
 70
    1
 10
0
 20
0
  3
*D16
  1

  0
LINE
  5
AD
100
AcDbEntity
  8
0
  6
ByBlock
 62
    0
370
   -2
100
AcDbLine
 10
8.024622695463895
 20
23.8413400958365
 11
8.024622695463895
 21
33.82892188265285
  0
SOLID
  5
AE
100
AcDbEntity
  8
0
  6
ByBlock
 62
    0
370
   -2
100
AcDbTrace
 10
8.024622695463895
 20
23.8413400958365
 30
0
 11
7.608338037691055
 21
26.3413400958365
 31
0
 12
8.440907353236737
 22
26.3413400958365
 32
0
 13
8.440907353236737
 23
26.3413400958365
 33
0
  0
SOLID
  5
AF
100
AcDbEntity
  8
0
  6
ByBlock
 62
    0
370
   -2
100
AcDbTrace
 10
8.024622695463895
 20
33.82892188265285
 30
0
 11
8.440907353236735
 21
31.32892188265285
 31
0
 12
7.608338037691055
 22
31.32892188265285
 32
0
 13
7.608338037691055
 23
31.32892188265285
 33
0
  0
MTEXT
  5
B0
100
AcDbEntity
  8
0
  6
CONTINUOUS
 62
    0
370
   -2
100
AcDbMText
 10
6.149622695463895
 20
28.83513098924467
 30
0
 40
2.5
 41
2.5
 71
    5
 72
    1
  1
10
  7
standard
210
0
220
0
230
1
 50
90
 73
    2
 44
1
  0
LINE
  5
B1
100
AcDbEntity
  8
0
  6
ByBlock
 62
    0
370
   -2
100
AcDbLine
 10
21.66759667663011
 20
23.8413400958365
 11
6.774622695463895
 21
23.8413400958365
  0
LINE
  5
B2
100
AcDbEntity
  8
0
  6
ByBlock
 62
    0
370
   -2
100
AcDbLine
 10
21.53788782225588
 20
33.82892188265285
 11
6.774622695463895
 21
33.82892188265285
  0
ENDBLK
  5
67
330
65
100
AcDbEntity
  8
0
100
AcDbBlockEnd
  0
BLOCK
  5
69
330
68
100
AcDbEntity
  8
0
100
AcDbBlockBegin
  2
*D14
 70
    1
 10
0
 20
0
  3
*D14
  1

  0
LINE
  5
B3
100
AcDbEntity
  8
0
  6
ByBlock
 62
    0
370
   -2
100
AcDbLine
 10
-5.465098159456886
 20
0.3640374540993605
 11
65.48564518325149
 21
0.3640374540993605
  0
SOLID
  5
B4
100
AcDbEntity
  8
0
  6
ByBlock
 62
    0
370
   -2
100
AcDbTrace
 10
-5.465098159456886
 20
0.3640374540993605
 30
0
 11
-2.965098159456886
 21
0.7803221118722008
 31
0
 12
-2.965098159456886
 22
-0.05224720367348029
 32
0
 13
-2.965098159456886
 23
-0.05224720367348029
 33
0
  0
SOLID
  5
B5
100
AcDbEntity
  8
0
  6
ByBlock
 62
    0
370
   -2
100
AcDbTrace
 10
65.48564518325149
 20
0.3640374540993605
 30
0
 11
62.98564518325149
 21
-0.0522472036734799
 31
0
 12
62.98564518325149
 22
0.7803221118722009
 32
0
 13
62.98564518325149
 23
0.7803221118722009
 33
0
  0
MTEXT
  5
B6
100
AcDbEntity
  8
0
  6
CONTINUOUS
 62
    0
370
   -2
100
AcDbMText
 10
30.0102735118973
 20
2.239037454099361
 30
0
 40
2.5
 41
2.5
 71
    5
 72
    1
  1
71
  7
standard
210
0
220
0
230
1
 50
0
 73
    2
 44
1
  0
LINE
  5
B7
100
AcDbEntity
  8
0
  6
ByBlock
 62
    0
370
   -2
100
AcDbLine
 10
-5.46509815945689
 20
20.10332759085478
 11
-5.465098159456886
 21
-0.8859625459006395
  0
LINE
  5
B8
100
AcDbEntity
  8
0
  6
ByBlock
 62
    0
370
   -2
100
AcDbLine
 10
65.48564518325149
 20
20.10332759085478
 11
65.48564518325149
 21
-0.8859625459006395
  0
ENDBLK
  5
6A
330
68
100
AcDbEntity
  8
0
100
AcDbBlockEnd
  0
BLOCK
  5
6C
330
6B
100
AcDbEntity
  8
0
100
AcDbBlockBegin
  2
*D17
 70
    1
 10
0
 20
0
  3
*D17
  1

  0
LINE
  5
B9
100
AcDbEntity
  8
0
  6
ByBlock
 62
    0
370
   -2
100
AcDbLine
 10
-15.97151536377019
 20
20.858036445229
 11
-15.97151536377019
 21
44.20563023259191
  0
SOLID
  5
BA
100
AcDbEntity
  8
0
  6
ByBlock
 62
    0
370
   -2
100
AcDbTrace
 10
-15.97151536377019
 20
20.858036445229
 30
0
 11
-16.38780002154303
 21
23.358036445229
 31
0
 12
-15.55523070599735
 22
23.358036445229
 32
0
 13
-15.55523070599735
 23
23.358036445229
 33
0
  0
SOLID
  5
BB
100
AcDbEntity
  8
0
  6
ByBlock
 62
    0
370
   -2
100
AcDbTrace
 10
-15.97151536377019
 20
44.20563023259191
 30
0
 11
-15.55523070599735
 21
41.70563023259191
 31
0
 12
-16.38780002154303
 22
41.70563023259191
 32
0
 13
-16.38780002154303
 23
41.70563023259191
 33
0
  0
MTEXT
  5
BC
100
AcDbEntity
  8
0
  6
CONTINUOUS
 62
    0
370
   -2
100
AcDbMText
 10
-17.84651536377019
 20
32.53183333891046
 30
0
 40
2.5
 41
5.972222222222534
 71
    5
 72
    1
  1
23,3
  7
standard
210
0
220
0
230
1
 50
90
 73
    2
 44
1
  0
LINE
  5
BD
100
AcDbEntity
  8
0
  6
ByBlock
 62
    0
370
   -2
100
AcDbLine
 10
-6.219807013831129
 20
20.858036445229
 11
-17.22151536377019
 21
20.858036445229
  0
LINE
  5
BE
100
AcDbEntity
  8
0
  6
ByBlock
 62
    0
370
   -2
100
AcDbLine
 10
-3.885047635094838
 20
44.20563023259191
 11
-17.22151536377019
 21
44.20563023259191
  0
ENDBLK
  5
6D
330
6B
100
AcDbEntity
  8
0
100
AcDbBlockEnd
  0
BLOCK
  5
6F
330
6E
100
AcDbEntity
  8
0
100
AcDbBlockBegin
  2
*D2
 70
    1
 10
0
 20
0
  3
*D2
  1

  0
SOLID
  5
BF
100
AcDbEntity
  8
0
  6
ByBlock
 62
    0
370
   -2
100
AcDbTrace
 10
10.00996363336974
 20
147.737693454057
 30
0
 11
11.39576114751451
 21
149.8596873668869
 31
0
 12
12.00860409505596
 22
149.296131525078
 32
0
 13
12.00860409505596
 23
149.296131525078
 33
0
  0
LINE
  5
C0
100
AcDbEntity
  8
0
  6
ByBlock
 62
    0
370
   -2
100
AcDbLine
 10
8.656188443037314
 20
146.2655206605166
 11
14.14649893716318
 21
152.235999212097
  0
MTEXT
  5
C1
100
AcDbEntity
  8
0
  6
CONTINUOUS
 62
    0
370
   -2
100
AcDbMText
 10
10.69806929132242
 20
151.2560105740136
 30
0
 40
2.5
 41
1.111111111111111
 71
    5
 72
    1
  1
2
  7
standard
210
0
220
0
230
1
 50
47.39909509765759
 73
    2
 44
1
  0
ENDBLK
  5
70
330
6E
100
AcDbEntity
  8
0
100
AcDbBlockEnd
  0
BLOCK
  5
72
330
71
100
AcDbEntity
  8
0
100
AcDbBlockBegin
  2
*D4
 70
    1
 10
0
 20
0
  3
*D4
  1

  0
LINE
  5
C2
100
AcDbEntity
  8
0
  6
ByBlock
 62
    0
370
   -2
100
AcDbLine
 10
-6.343811556962685
 20
123.5176239181658
 11
33.65618844303732
 21
123.5176239181658
  0
SOLID
  5
C3
100
AcDbEntity
  8
0
  6
ByBlock
 62
    0
370
   -2
100
AcDbTrace
 10
-6.343811556962685
 20
123.5176239181658
 30
0
 11
-3.843811556962685
 21
123.9339085759386
 31
0
 12
-3.843811556962685
 22
123.101339260393
 32
0
 13
-3.843811556962685
 23
123.101339260393
 33
0
  0
SOLID
  5
C4
100
AcDbEntity
  8
0
  6
ByBlock
 62
    0
370
   -2
100
AcDbTrace
 10
33.65618844303732
 20
123.5176239181658
 30
0
 11
31.15618844303732
 21
123.101339260393
 31
0
 12
31.15618844303732
 22
123.9339085759386
 32
0
 13
31.15618844303732
 23
123.9339085759386
 33
0
  0
MTEXT
  5
C5
100
AcDbEntity
  8
0
  6
CONTINUOUS
 62
    0
370
   -2
100
AcDbMText
 10
13.65618844303732
 20
125.3926239181658
 30
0
 40
2.5
 41
3.333333333333333
 71
    5
 72
    1
  1
40
  7
standard
210
0
220
0
230
1
 50
0
 73
    2
 44
1
  0
LINE
  5
C6
100
AcDbEntity
  8
0
  6
ByBlock
 62
    0
370
   -2
100
AcDbLine
 10
-6.343811556962685
 20
137.6405206605166
 11
-6.343811556962685
 21
122.2676239181658
  0
LINE
  5
C7
100
AcDbEntity
  8
0
  6
ByBlock
 62
    0
370
   -2
100
AcDbLine
 10
33.65618844303732
 20
152.6405206605166
 11
33.65618844303732
 21
122.2676239181658
  0
ENDBLK
  5
73
330
71
100
AcDbEntity
  8
0
100
AcDbBlockEnd
  0
BLOCK
  5
75
330
74
100
AcDbEntity
  8
0
100
AcDbBlockBegin
  2
*D11
 70
    1
 10
0
 20
0
  3
*D11
  1

  0
LINE
  5
C8
100
AcDbEntity
  8
0
  6
ByBlock
 62
    0
370
   -2
100
AcDbLine
 10
21.4661969938975
 20
50.52756453817386
 11
36.44527470167098
 21
50.52756453817386
  0
SOLID
  5
C9
100
AcDbEntity
  8
0
  6
ByBlock
 62
    0
370
   -2
100
AcDbTrace
 10
21.4661969938975
 20
50.52756453817386
 30
0
 11
23.9661969938975
 21
50.9438491959467
 31
0
 12
23.9661969938975
 22
50.11127988040102
 32
0
 13
23.9661969938975
 23
50.11127988040102
 33
0
  0
SOLID
  5
CA
100
AcDbEntity
  8
0
  6
ByBlock
 62
    0
370
   -2
100
AcDbTrace
 10
36.44527470167098
 20
50.52756453817386
 30
0
 11
33.94527470167098
 21
50.11127988040102
 31
0
 12
33.94527470167098
 22
50.9438491959467
 32
0
 13
33.94527470167098
 23
50.9438491959467
 33
0
  0
MTEXT
  5
CB
100
AcDbEntity
  8
0
  6
CONTINUOUS
 62
    0
370
   -2
100
AcDbMText
 10
28.95573584778424
 20
52.40256453817386
 30
0
 40
2.5
 41
2.500000000000155
 71
    5
 72
    1
  1
15
  7
standard
210
0
220
0
230
1
 50
0
 73
    2
 44
1
  0
LINE
  5
CC
100
AcDbEntity
  8
0
  6
ByBlock
 62
    0
370
   -2
100
AcDbLine
 10
21.4661969938975
 20
34.46972206035591
 11
21.4661969938975
 21
51.77756453817386
  0
LINE
  5
CD
100
AcDbEntity
  8
0
  6
ByBlock
 62
    0
370
   -2
100
AcDbLine
 10
36.44527470167098
 20
34.54733386195059
 11
36.44527470167098
 21
51.77756453817386
  0
ENDBLK
  5
76
330
74
100
AcDbEntity
  8
0
100
AcDbBlockEnd
  0
BLOCK
  5
78
330
77
100
AcDbEntity
  8
0
100
AcDbBlockBegin
  2
*D5
 70
    1
 10
0
 20
0
  3
*D5
  1

  0
LINE
  5
CE
100
AcDbEntity
  8
0
  6
ByBlock
 62
    0
370
   -2
100
AcDbLine
 10
-6.343811556962692
 20
118.2083810909195
 11
64.65618844303732
 21
118.2083810909195
  0
SOLID
  5
CF
100
AcDbEntity
  8
0
  6
ByBlock
 62
    0
370
   -2
100
AcDbTrace
 10
-6.343811556962692
 20
118.2083810909195
 30
0
 11
-3.843811556962692
 21
118.6246657486923
 31
0
 12
-3.843811556962692
 22
117.7920964331467
 32
0
 13
-3.843811556962692
 23
117.7920964331467
 33
0
  0
SOLID
  5
D0
100
AcDbEntity
  8
0
  6
ByBlock
 62
    0
370
   -2
100
AcDbTrace
 10
64.65618844303732
 20
118.2083810909195
 30
0
 11
62.15618844303732
 21
117.7920964331467
 31
0
 12
62.15618844303732
 22
118.6246657486923
 32
0
 13
62.15618844303732
 23
118.6246657486923
 33
0
  0
MTEXT
  5
D1
100
AcDbEntity
  8
0
  6
CONTINUOUS
 62
    0
370
   -2
100
AcDbMText
 10
29.15618844303732
 20
120.0833810909195
 30
0
 40
2.5
 41
2.5
 71
    5
 72
    1
  1
71
  7
standard
210
0
220
0
230
1
 50
0
 73
    2
 44
1
  0
LINE
  5
D2
100
AcDbEntity
  8
0
  6
ByBlock
 62
    0
370
   -2
100
AcDbLine
 10
-6.343811556962685
 20
137.6405206605166
 11
-6.343811556962692
 21
116.9583810909195
  0
LINE
  5
D3
100
AcDbEntity
  8
0
  6
ByBlock
 62
    0
370
   -2
100
AcDbLine
 10
64.65618844303732
 20
137.6405206605166
 11
64.65618844303732
 21
116.9583810909195
  0
ENDBLK
  5
79
330
77
100
AcDbEntity
  8
0
100
AcDbBlockEnd
  0
BLOCK
  5
7B
330
7A
100
AcDbEntity
  8
0
100
AcDbBlockBegin
  2
*D15
 70
    1
 10
0
 20
0
  3
*D15
  1

  0
LINE
  5
D4
100
AcDbEntity
  8
0
  6
ByBlock
 62
    0
370
   -2
100
AcDbLine
 10
74.82468269819665
 20
20.858036445229
 11
74.82468269819665
 21
28.89998541643178
  0
SOLID
  5
D5
100
AcDbEntity
  8
0
  6
ByBlock
 62
    0
370
   -2
100
AcDbTrace
 10
74.82468269819665
 20
20.858036445229
 30
0
 11
74.40839804042382
 21
23.358036445229
 31
0
 12
75.24096735596949
 22
23.358036445229
 32
0
 13
75.24096735596949
 23
23.358036445229
 33
0
  0
SOLID
  5
D6
100
AcDbEntity
  8
0
  6
ByBlock
 62
    0
370
   -2
100
AcDbTrace
 10
74.82468269819665
 20
28.89998541643178
 30
0
 11
75.24096735596949
 21
26.39998541643178
 31
0
 12
74.40839804042382
 22
26.39998541643178
 32
0
 13
74.40839804042382
 23
26.39998541643178
 33
0
  0
MTEXT
  5
D7
100
AcDbEntity
  8
0
  6
CONTINUOUS
 62
    0
370
   -2
100
AcDbMText
 10
72.94968269819665
 20
24.87901093083039
 30
0
 40
2.5
 41
1.111111111111111
 71
    5
 72
    1
  1
8
  7
standard
210
0
220
0
230
1
 50
90
 73
    2
 44
1
  0
LINE
  5
D8
100
AcDbEntity
  8
0
  6
ByBlock
 62
    0
370
   -2
100
AcDbLine
 10
65.98093632887725
 20
20.858036445229
 11
76.07468269819665
 21
20.858036445229
  0
LINE
  5
D9
100
AcDbEntity
  8
0
  6
ByBlock
 62
    0
370
   -2
100
AcDbLine
 10
11.50321749169714
 20
28.89998541643178
 11
76.07468269819665
 21
28.89998541643178
  0
ENDBLK
  5
7C
330
7A
100
AcDbEntity
  8
0
100
AcDbBlockEnd
  0
BLOCK
  5
7E
330
7D
100
AcDbEntity
  8
0
100
AcDbBlockBegin
  2
*D1
 70
    1
 10
0
 20
0
  3
*D1
  1

  0
SOLID
  5
DA
100
AcDbEntity
  8
0
  6
ByBlock
 62
    0
370
   -2
100
AcDbTrace
 10
36.27810682165453
 20
149.2863721987206
 30
0
 11
37.60242227109932
 21
151.4472705088359
 31
0
 12
38.23118934548123
 22
150.9015383113604
 32
0
 13
38.23118934548123
 23
150.9015383113604
 33
0
  0
LINE
  5
DB
100
AcDbEntity
  8
0
  6
ByBlock
 62
    0
370
   -2
100
AcDbLine
 10
33.65618844303732
 20
146.2655206605166
 11
40.46589312083475
 21
154.1113434055742
  0
MTEXT
  5
DC
100
AcDbEntity
  8
0
  6
CONTINUOUS
 62
    0
370
   -2
100
AcDbMText
 10
36.95597581271154
 20
152.9278820421242
 30
0
 40
2.5
 41
1.388888888888889
 71
    5
 72
    1
  1
4
  7
standard
210
0
220
0
230
1
 50
49.04397462931342
 73
    2
 44
1
  0
ENDBLK
  5
7F
330
7D
100
AcDbEntity
  8
0
100
AcDbBlockEnd
  0
BLOCK
  5
81
330
80
100
AcDbEntity
  8
0
100
AcDbBlockBegin
  2
*D7
 70
    1
 10
0
 20
0
  3
*D7
  1

  0
LINE
  5
DD
100
AcDbEntity
  8
0
  6
ByBlock
 62
    0
370
   -2
100
AcDbLine
 10
74.11312055710263
 20
138.2655206605166
 11
74.11312055710263
 21
146.2655206605166
  0
SOLID
  5
DE
100
AcDbEntity
  8
0
  6
ByBlock
 62
    0
370
   -2
100
AcDbTrace
 10
74.11312055710263
 20
138.2655206605166
 30
0
 11
73.6968358993298
 21
140.7655206605166
 31
0
 12
74.52940521487547
 22
140.7655206605166
 32
0
 13
74.52940521487547
 23
140.7655206605166
 33
0
  0
SOLID
  5
DF
100
AcDbEntity
  8
0
  6
ByBlock
 62
    0
370
   -2
100
AcDbTrace
 10
74.11312055710263
 20
146.2655206605166
 30
0
 11
74.52940521487547
 21
143.7655206605166
 31
0
 12
73.6968358993298
 22
143.7655206605166
 32
0
 13
73.6968358993298
 23
143.7655206605166
 33
0
  0
MTEXT
  5
E0
100
AcDbEntity
  8
0
  6
CONTINUOUS
 62
    0
370
   -2
100
AcDbMText
 10
72.23812055710263
 20
142.2655206605166
 30
0
 40
2.5
 41
1.111111111111111
 71
    5
 72
    1
  1
8
  7
standard
210
0
220
0
230
1
 50
90
 73
    2
 44
1
  0
LINE
  5
E1
100
AcDbEntity
  8
0
  6
ByBlock
 62
    0
370
   -2
100
AcDbLine
 10
65.28118844303732
 20
138.2655206605166
 11
75.36312055710263
 21
138.2655206605166
  0
LINE
  5
E2
100
AcDbEntity
  8
0
  6
ByBlock
 62
    0
370
   -2
100
AcDbLine
 10
4.281188443037314
 20
146.2655206605166
 11
75.36312055710263
 21
146.2655206605166
  0
ENDBLK
  5
82
330
80
100
AcDbEntity
  8
0
100
AcDbBlockEnd
  0
ENDSEC
  0
SECTION
  2
ENTITIES
  0
LINE
  5
E3
100
AcDbEntity
  8
frame
  6
ByLayer
 62
  256
370
   -1
100
AcDbLine
 10
20.0176
 20
-23.00899999999999
 11
20.0176
 21
-55.01299999999998
  0
LINE
  5
E4
100
AcDbEntity
  8
frame
  6
ByLayer
 62
  256
370
   -1
100
AcDbLine
 10
20.0176
 20
-55.01299999999998
 11
128.018
 21
-55.01299999999998
  0
LINE
  5
E5
100
AcDbEntity
  8
frame
  6
ByLayer
 62
  256
370
   -1
100
AcDbLine
 10
128.018
 20
-55.01299999999998
 11
128.018
 21
-23.00899999999999
  0
LINE
  5
E6
100
AcDbEntity
  8
frame
  6
ByLayer
 62
  256
370
   -1
100
AcDbLine
 10
128.018
 20
-23.00899999999999
 11
20.0176
 21
-23.00899999999999
  0
LINE
  5
E7
100
AcDbEntity
  8
frame
  6
ByLayer
 62
  256
370
   -1
100
AcDbLine
 10
-59.9924
 20
219.9924
 11
-59.9924
 21
-56.995
  0
LINE
  5
E8
100
AcDbEntity
  8
frame
  6
ByLayer
 62
  256
370
   -1
100
AcDbLine
 10
-59.9924
 20
-56.995
 11
130
 21
-56.995
  0
LINE
  5
E9
100
AcDbEntity
  8
frame
  6
ByLayer
 62
  256
370
   -1
100
AcDbLine
 10
130
 20
-56.995
 11
130
 21
219.9924
  0
LINE
  5
EA
100
AcDbEntity
  8
frame
  6
ByLayer
 62
  256
370
   -1
100
AcDbLine
 10
130
 20
219.9924
 11
-59.9924
 21
219.9924
  0
LINE
  5
EB
100
AcDbEntity
  8
frame
  6
ByLayer
 62
  256
370
   -1
100
AcDbLine
 10
-58.0112
 20
218.0112
 11
-58.0112
 21
-55.01299999999998
  0
LINE
  5
EC
100
AcDbEntity
  8
frame
  6
ByLayer
 62
  256
370
   -1
100
AcDbLine
 10
-58.0112
 20
-55.01299999999998
 11
128.018
 21
-55.01299999999998
  0
LINE
  5
ED
100
AcDbEntity
  8
frame
  6
ByLayer
 62
  256
370
   -1
100
AcDbLine
 10
128.018
 20
-55.01299999999998
 11
128.018
 21
218.0112
  0
LINE
  5
EE
100
AcDbEntity
  8
frame
  6
ByLayer
 62
  256
370
   -1
100
AcDbLine
 10
128.018
 20
218.0112
 11
-58.0112
 21
218.0112
  0
LINE
  5
EF
100
AcDbEntity
  8
frame
  6
ByLayer
 62
  256
370
   -1
100
AcDbLine
 10
-10.0052
 20
218.0112
 11
-10.0052
 21
219.9924
  0
LINE
  5
F0
100
AcDbEntity
  8
frame
  6
ByLayer
 62
  256
370
   -1
100
AcDbLine
 10
40.00700000000001
 20
218.0112
 11
40.00700000000001
 21
219.9924
  0
LINE
  5
F1
100
AcDbEntity
  8
frame
  6
ByLayer
 62
  256
370
   -1
100
AcDbLine
 10
89.995
 20
218.0112
 11
89.995
 21
219.9924
  0
LINE
  5
F2
100
AcDbEntity
  8
frame
  6
ByLayer
 62
  256
370
   -1
100
AcDbLine
 10
-34.0082
 20
218.4176
 11
-34.7448
 21
218.4176
  0
LINE
  5
F3
100
AcDbEntity
  8
frame
  6
ByLayer
 62
  256
370
   -1
100
AcDbLine
 10
-34.3892
 20
218.4176
 11
-34.3892
 21
219.713
  0
LINE
  5
F4
100
AcDbEntity
  8
frame
  6
ByLayer
 62
  256
370
   -1
100
AcDbLine
 10
-34.3892
 20
219.713
 11
-34.5162
 21
219.5352
  0
LINE
  5
F5
100
AcDbEntity
  8
frame
  6
ByLayer
 62
  256
370
   -1
100
AcDbLine
 10
-34.5162
 20
219.5352
 11
-34.6178
 21
219.4082
  0
LINE
  5
F6
100
AcDbEntity
  8
frame
  6
ByLayer
 62
  256
370
   -1
100
AcDbLine
 10
-34.6178
 20
219.4082
 11
-34.7448
 21
219.3574
  0
LINE
  5
F7
100
AcDbEntity
  8
frame
  6
ByLayer
 62
  256
370
   -1
100
AcDbLine
 10
15.2424
 20
219.6114
 11
15.2932
 21
219.6622
  0
LINE
  5
F8
100
AcDbEntity
  8
frame
  6
ByLayer
 62
  256
370
   -1
100
AcDbLine
 10
15.2932
 20
219.6622
 11
15.42019999999999
 21
219.713
  0
LINE
  5
F9
100
AcDbEntity
  8
frame
  6
ByLayer
 62
  256
370
   -1
100
AcDbLine
 10
15.42019999999999
 20
219.713
 11
15.72499999999999
 21
219.713
  0
LINE
  5
FA
100
AcDbEntity
  8
frame
  6
ByLayer
 62
  256
370
   -1
100
AcDbLine
 10
15.72499999999999
 20
219.713
 11
15.852
 21
219.6622
  0
LINE
  5
FB
100
AcDbEntity
  8
frame
  6
ByLayer
 62
  256
370
   -1
100
AcDbLine
 10
15.852
 20
219.6622
 11
15.9028
 21
219.6114
  0
LINE
  5
FC
100
AcDbEntity
  8
frame
  6
ByLayer
 62
  256
370
   -1
100
AcDbLine
 10
15.9028
 20
219.6114
 11
15.979
 21
219.4844
  0
LINE
  5
FD
100
AcDbEntity
  8
frame
  6
ByLayer
 62
  256
370
   -1
100
AcDbLine
 10
15.979
 20
219.4844
 11
15.979
 21
219.3574
  0
LINE
  5
FE
100
AcDbEntity
  8
frame
  6
ByLayer
 62
  256
370
   -1
100
AcDbLine
 10
15.979
 20
219.3574
 11
15.9028
 21
219.1796
  0
LINE
  5
FF
100
AcDbEntity
  8
frame
  6
ByLayer
 62
  256
370
   -1
100
AcDbLine
 10
15.9028
 20
219.1796
 11
15.1662
 21
218.4176
  0
LINE
  5
100
100
AcDbEntity
  8
frame
  6
ByLayer
 62
  256
370
   -1
100
AcDbLine
 10
15.1662
 20
218.4176
 11
15.979
 21
218.4176
  0
LINE
  5
101
100
AcDbEntity
  8
frame
  6
ByLayer
 62
  256
370
   -1
100
AcDbLine
 10
65.179
 20
219.713
 11
65.99199999999999
 21
219.713
  0
LINE
  5
102
100
AcDbEntity
  8
frame
  6
ByLayer
 62
  256
370
   -1
100
AcDbLine
 10
65.99199999999999
 20
219.713
 11
65.56
 21
219.2304
  0
LINE
  5
103
100
AcDbEntity
  8
frame
  6
ByLayer
 62
  256
370
   -1
100
AcDbLine
 10
65.56
 20
219.2304
 11
65.738
 21
219.2304
  0
LINE
  5
104
100
AcDbEntity
  8
frame
  6
ByLayer
 62
  256
370
   -1
100
AcDbLine
 10
65.738
 20
219.2304
 11
65.86500000000001
 21
219.1796
  0
LINE
  5
105
100
AcDbEntity
  8
frame
  6
ByLayer
 62
  256
370
   -1
100
AcDbLine
 10
65.86500000000001
 20
219.1796
 11
65.91499999999999
 21
219.1034
  0
LINE
  5
106
100
AcDbEntity
  8
frame
  6
ByLayer
 62
  256
370
   -1
100
AcDbLine
 10
65.91499999999999
 20
219.1034
 11
65.99199999999999
 21
218.9764
  0
LINE
  5
107
100
AcDbEntity
  8
frame
  6
ByLayer
 62
  256
370
   -1
100
AcDbLine
 10
65.99199999999999
 20
218.9764
 11
65.99199999999999
 21
218.6716
  0
LINE
  5
108
100
AcDbEntity
  8
frame
  6
ByLayer
 62
  256
370
   -1
100
AcDbLine
 10
65.99199999999999
 20
218.6716
 11
65.91499999999999
 21
218.5446
  0
LINE
  5
109
100
AcDbEntity
  8
frame
  6
ByLayer
 62
  256
370
   -1
100
AcDbLine
 10
65.91499999999999
 20
218.5446
 11
65.86500000000001
 21
218.4938
  0
LINE
  5
10A
100
AcDbEntity
  8
frame
  6
ByLayer
 62
  256
370
   -1
100
AcDbLine
 10
65.86500000000001
 20
218.4938
 11
65.738
 21
218.4176
  0
LINE
  5
10B
100
AcDbEntity
  8
frame
  6
ByLayer
 62
  256
370
   -1
100
AcDbLine
 10
65.738
 20
218.4176
 11
65.38200000000001
 21
218.4176
  0
LINE
  5
10C
100
AcDbEntity
  8
frame
  6
ByLayer
 62
  256
370
   -1
100
AcDbLine
 10
65.38200000000001
 20
218.4176
 11
65.255
 21
218.4938
  0
LINE
  5
10D
100
AcDbEntity
  8
frame
  6
ByLayer
 62
  256
370
   -1
100
AcDbLine
 10
65.255
 20
218.4938
 11
65.179
 21
218.5446
  0
LINE
  5
10E
100
AcDbEntity
  8
frame
  6
ByLayer
 62
  256
370
   -1
100
AcDbLine
 10
115.852
 20
219.2812
 11
115.852
 21
218.4176
  0
LINE
  5
10F
100
AcDbEntity
  8
frame
  6
ByLayer
 62
  256
370
   -1
100
AcDbLine
 10
115.547
 20
219.7892
 11
115.242
 21
218.8494
  0
LINE
  5
110
100
AcDbEntity
  8
frame
  6
ByLayer
 62
  256
370
   -1
100
AcDbLine
 10
115.242
 20
218.8494
 11
116.03
 21
218.8494
  0
LINE
  5
111
100
AcDbEntity
  8
frame
  6
ByLayer
 62
  256
370
   -1
100
AcDbLine
 10
-10.0052
 20
-55.01299999999998
 11
-10.0052
 21
-56.995
  0
LINE
  5
112
100
AcDbEntity
  8
frame
  6
ByLayer
 62
  256
370
   -1
100
AcDbLine
 10
40.00700000000001
 20
-55.01299999999998
 11
40.00700000000001
 21
-56.995
  0
LINE
  5
113
100
AcDbEntity
  8
frame
  6
ByLayer
 62
  256
370
   -1
100
AcDbLine
 10
-34.0082
 20
-56.58800000000002
 11
-34.7448
 21
-56.58800000000002
  0
LINE
  5
114
100
AcDbEntity
  8
frame
  6
ByLayer
 62
  256
370
   -1
100
AcDbLine
 10
-34.3892
 20
-56.58800000000002
 11
-34.3892
 21
-55.29300000000001
  0
LINE
  5
115
100
AcDbEntity
  8
frame
  6
ByLayer
 62
  256
370
   -1
100
AcDbLine
 10
-34.3892
 20
-55.29300000000001
 11
-34.5162
 21
-55.471
  0
LINE
  5
116
100
AcDbEntity
  8
frame
  6
ByLayer
 62
  256
370
   -1
100
AcDbLine
 10
-34.5162
 20
-55.471
 11
-34.6178
 21
-55.59800000000001
  0
LINE
  5
117
100
AcDbEntity
  8
frame
  6
ByLayer
 62
  256
370
   -1
100
AcDbLine
 10
-34.6178
 20
-55.59800000000001
 11
-34.7448
 21
-55.64800000000002
  0
LINE
  5
118
100
AcDbEntity
  8
frame
  6
ByLayer
 62
  256
370
   -1
100
AcDbLine
 10
15.2424
 20
-55.39400000000001
 11
15.2932
 21
-55.34399999999999
  0
LINE
  5
119
100
AcDbEntity
  8
frame
  6
ByLayer
 62
  256
370
   -1
100
AcDbLine
 10
15.2932
 20
-55.34399999999999
 11
15.42019999999999
 21
-55.29300000000001
  0
LINE
  5
11A
100
AcDbEntity
  8
frame
  6
ByLayer
 62
  256
370
   -1
100
AcDbLine
 10
15.42019999999999
 20
-55.29300000000001
 11
15.72499999999999
 21
-55.29300000000001
  0
LINE
  5
11B
100
AcDbEntity
  8
frame
  6
ByLayer
 62
  256
370
   -1
100
AcDbLine
 10
15.72499999999999
 20
-55.29300000000001
 11
15.852
 21
-55.34399999999999
  0
LINE
  5
11C
100
AcDbEntity
  8
frame
  6
ByLayer
 62
  256
370
   -1
100
AcDbLine
 10
15.852
 20
-55.34399999999999
 11
15.9028
 21
-55.39400000000001
  0
LINE
  5
11D
100
AcDbEntity
  8
frame
  6
ByLayer
 62
  256
370
   -1
100
AcDbLine
 10
15.9028
 20
-55.39400000000001
 11
15.979
 21
-55.52100000000002
  0
LINE
  5
11E
100
AcDbEntity
  8
frame
  6
ByLayer
 62
  256
370
   -1
100
AcDbLine
 10
15.979
 20
-55.52100000000002
 11
15.979
 21
-55.64800000000002
  0
LINE
  5
11F
100
AcDbEntity
  8
frame
  6
ByLayer
 62
  256
370
   -1
100
AcDbLine
 10
15.979
 20
-55.64800000000002
 11
15.9028
 21
-55.82600000000002
  0
LINE
  5
120
100
AcDbEntity
  8
frame
  6
ByLayer
 62
  256
370
   -1
100
AcDbLine
 10
15.9028
 20
-55.82600000000002
 11
15.1662
 21
-56.58800000000002
  0
LINE
  5
121
100
AcDbEntity
  8
frame
  6
ByLayer
 62
  256
370
   -1
100
AcDbLine
 10
15.1662
 20
-56.58800000000002
 11
15.979
 21
-56.58800000000002
  0
LINE
  5
122
100
AcDbEntity
  8
frame
  6
ByLayer
 62
  256
370
   -1
100
AcDbLine
 10
65.179
 20
-55.29300000000001
 11
65.99199999999999
 21
-55.29300000000001
  0
LINE
  5
123
100
AcDbEntity
  8
frame
  6
ByLayer
 62
  256
370
   -1
100
AcDbLine
 10
65.99199999999999
 20
-55.29300000000001
 11
65.56
 21
-55.77499999999998
  0
LINE
  5
124
100
AcDbEntity
  8
frame
  6
ByLayer
 62
  256
370
   -1
100
AcDbLine
 10
65.56
 20
-55.77499999999998
 11
65.738
 21
-55.77499999999998
  0
LINE
  5
125
100
AcDbEntity
  8
frame
  6
ByLayer
 62
  256
370
   -1
100
AcDbLine
 10
65.738
 20
-55.77499999999998
 11
65.86500000000001
 21
-55.82600000000002
  0
LINE
  5
126
100
AcDbEntity
  8
frame
  6
ByLayer
 62
  256
370
   -1
100
AcDbLine
 10
65.86500000000001
 20
-55.82600000000002
 11
65.91499999999999
 21
-55.90199999999999
  0
LINE
  5
127
100
AcDbEntity
  8
frame
  6
ByLayer
 62
  256
370
   -1
100
AcDbLine
 10
65.91499999999999
 20
-55.90199999999999
 11
65.99199999999999
 21
-56.029
  0
LINE
  5
128
100
AcDbEntity
  8
frame
  6
ByLayer
 62
  256
370
   -1
100
AcDbLine
 10
65.99199999999999
 20
-56.029
 11
65.99199999999999
 21
-56.334
  0
LINE
  5
129
100
AcDbEntity
  8
frame
  6
ByLayer
 62
  256
370
   -1
100
AcDbLine
 10
65.99199999999999
 20
-56.334
 11
65.91499999999999
 21
-56.46100000000001
  0
LINE
  5
12A
100
AcDbEntity
  8
frame
  6
ByLayer
 62
  256
370
   -1
100
AcDbLine
 10
65.91499999999999
 20
-56.46100000000001
 11
65.86500000000001
 21
-56.512
  0
LINE
  5
12B
100
AcDbEntity
  8
frame
  6
ByLayer
 62
  256
370
   -1
100
AcDbLine
 10
65.86500000000001
 20
-56.512
 11
65.738
 21
-56.58800000000002
  0
LINE
  5
12C
100
AcDbEntity
  8
frame
  6
ByLayer
 62
  256
370
   -1
100
AcDbLine
 10
65.738
 20
-56.58800000000002
 11
65.38200000000001
 21
-56.58800000000002
  0
LINE
  5
12D
100
AcDbEntity
  8
frame
  6
ByLayer
 62
  256
370
   -1
100
AcDbLine
 10
65.38200000000001
 20
-56.58800000000002
 11
65.255
 21
-56.512
  0
LINE
  5
12E
100
AcDbEntity
  8
frame
  6
ByLayer
 62
  256
370
   -1
100
AcDbLine
 10
65.255
 20
-56.512
 11
65.179
 21
-56.46100000000001
  0
LINE
  5
12F
100
AcDbEntity
  8
frame
  6
ByLayer
 62
  256
370
   -1
100
AcDbLine
 10
115.852
 20
-55.72500000000002
 11
115.852
 21
-56.58800000000002
  0
LINE
  5
130
100
AcDbEntity
  8
frame
  6
ByLayer
 62
  256
370
   -1
100
AcDbLine
 10
115.547
 20
-55.21699999999998
 11
115.242
 21
-56.15600000000001
  0
LINE
  5
131
100
AcDbEntity
  8
frame
  6
ByLayer
 62
  256
370
   -1
100
AcDbLine
 10
115.242
 20
-56.15600000000001
 11
116.03
 21
-56.15600000000001
  0
LINE
  5
132
100
AcDbEntity
  8
frame
  6
ByLayer
 62
  256
370
   -1
100
AcDbLine
 10
-59.9924
 20
170.0052
 11
-58.0112
 21
170.0052
  0
LINE
  5
133
100
AcDbEntity
  8
frame
  6
ByLayer
 62
  256
370
   -1
100
AcDbLine
 10
-59.9924
 20
119.993
 11
-58.0112
 21
119.993
  0
LINE
  5
134
100
AcDbEntity
  8
frame
  6
ByLayer
 62
  256
370
   -1
100
AcDbLine
 10
-59.9924
 20
70.005
 11
-58.0112
 21
70.005
  0
LINE
  5
135
100
AcDbEntity
  8
frame
  6
ByLayer
 62
  256
370
   -1
100
AcDbLine
 10
-59.9924
 20
19.99299999999999
 11
-58.0112
 21
19.99299999999999
  0
LINE
  5
136
100
AcDbEntity
  8
frame
  6
ByLayer
 62
  256
370
   -1
100
AcDbLine
 10
-59.9924
 20
-29.99400000000003
 11
-58.0112
 21
-29.99400000000003
  0
LINE
  5
137
100
AcDbEntity
  8
frame
  6
ByLayer
 62
  256
370
   -1
100
AcDbLine
 10
-59.3066
 20
194.7956
 11
-58.697
 21
194.7956
  0
LINE
  5
138
100
AcDbEntity
  8
frame
  6
ByLayer
 62
  256
370
   -1
100
AcDbLine
 10
-59.4336
 20
194.4146
 11
-59.0018
 21
195.71
  0
LINE
  5
139
100
AcDbEntity
  8
frame
  6
ByLayer
 62
  256
370
   -1
100
AcDbLine
 10
-59.0018
 20
195.71
 11
-58.57
 21
194.4146
  0
LINE
  5
13A
100
AcDbEntity
  8
frame
  6
ByLayer
 62
  256
370
   -1
100
AcDbLine
 10
-58.9002
 20
145.1132
 11
-58.7224
 21
145.0624
  0
LINE
  5
13B
100
AcDbEntity
  8
frame
  6
ByLayer
 62
  256
370
   -1
100
AcDbLine
 10
-58.7224
 20
145.0624
 11
-58.6462
 21
144.9862
  0
LINE
  5
13C
100
AcDbEntity
  8
frame
  6
ByLayer
 62
  256
370
   -1
100
AcDbLine
 10
-58.6462
 20
144.9862
 11
-58.5954
 21
144.8592
  0
LINE
  5
13D
100
AcDbEntity
  8
frame
  6
ByLayer
 62
  256
370
   -1
100
AcDbLine
 10
-58.5954
 20
144.8592
 11
-58.5954
 21
144.6814
  0
LINE
  5
13E
100
AcDbEntity
  8
frame
  6
ByLayer
 62
  256
370
   -1
100
AcDbLine
 10
-58.5954
 20
144.6814
 11
-58.6462
 21
144.5544
  0
LINE
  5
13F
100
AcDbEntity
  8
frame
  6
ByLayer
 62
  256
370
   -1
100
AcDbLine
 10
-58.6462
 20
144.5544
 11
-58.7224
 21
144.5036
  0
LINE
  5
140
100
AcDbEntity
  8
frame
  6
ByLayer
 62
  256
370
   -1
100
AcDbLine
 10
-58.7224
 20
144.5036
 11
-58.824
 21
144.4274
  0
LINE
  5
141
100
AcDbEntity
  8
frame
  6
ByLayer
 62
  256
370
   -1
100
AcDbLine
 10
-58.824
 20
144.4274
 11
-59.332
 21
144.4274
  0
LINE
  5
142
100
AcDbEntity
  8
frame
  6
ByLayer
 62
  256
370
   -1
100
AcDbLine
 10
-59.332
 20
144.4274
 11
-59.332
 21
145.7228
  0
LINE
  5
143
100
AcDbEntity
  8
frame
  6
ByLayer
 62
  256
370
   -1
100
AcDbLine
 10
-59.332
 20
145.7228
 11
-58.9002
 21
145.7228
  0
LINE
  5
144
100
AcDbEntity
  8
frame
  6
ByLayer
 62
  256
370
   -1
100
AcDbLine
 10
-58.9002
 20
145.7228
 11
-58.7732
 21
145.672
  0
LINE
  5
145
100
AcDbEntity
  8
frame
  6
ByLayer
 62
  256
370
   -1
100
AcDbLine
 10
-58.7732
 20
145.672
 11
-58.7224
 21
145.6212
  0
LINE
  5
146
100
AcDbEntity
  8
frame
  6
ByLayer
 62
  256
370
   -1
100
AcDbLine
 10
-58.7224
 20
145.6212
 11
-58.6462
 21
145.4942
  0
LINE
  5
147
100
AcDbEntity
  8
frame
  6
ByLayer
 62
  256
370
   -1
100
AcDbLine
 10
-58.6462
 20
145.4942
 11
-58.6462
 21
145.3672
  0
LINE
  5
148
100
AcDbEntity
  8
frame
  6
ByLayer
 62
  256
370
   -1
100
AcDbLine
 10
-58.6462
 20
145.3672
 11
-58.7224
 21
145.2402
  0
LINE
  5
149
100
AcDbEntity
  8
frame
  6
ByLayer
 62
  256
370
   -1
100
AcDbLine
 10
-58.7224
 20
145.2402
 11
-58.7732
 21
145.1894
  0
LINE
  5
14A
100
AcDbEntity
  8
frame
  6
ByLayer
 62
  256
370
   -1
100
AcDbLine
 10
-58.7732
 20
145.1894
 11
-58.9002
 21
145.1132
  0
LINE
  5
14B
100
AcDbEntity
  8
frame
  6
ByLayer
 62
  256
370
   -1
100
AcDbLine
 10
-58.9002
 20
145.1132
 11
-59.332
 21
145.1132
  0
LINE
  5
14C
100
AcDbEntity
  8
frame
  6
ByLayer
 62
  256
370
   -1
100
AcDbLine
 10
-58.5954
 20
94.542
 11
-58.6462
 21
94.49100000000001
  0
LINE
  5
14D
100
AcDbEntity
  8
frame
  6
ByLayer
 62
  256
370
   -1
100
AcDbLine
 10
-58.6462
 20
94.49100000000001
 11
-58.824
 21
94.41499999999999
  0
LINE
  5
14E
100
AcDbEntity
  8
frame
  6
ByLayer
 62
  256
370
   -1
100
AcDbLine
 10
-58.824
 20
94.41499999999999
 11
-58.951
 21
94.41499999999999
  0
LINE
  5
14F
100
AcDbEntity
  8
frame
  6
ByLayer
 62
  256
370
   -1
100
AcDbLine
 10
-58.951
 20
94.41499999999999
 11
-59.1542
 21
94.49100000000001
  0
LINE
  5
150
100
AcDbEntity
  8
frame
  6
ByLayer
 62
  256
370
   -1
100
AcDbLine
 10
-59.1542
 20
94.49100000000001
 11
-59.2558
 21
94.61799999999999
  0
LINE
  5
151
100
AcDbEntity
  8
frame
  6
ByLayer
 62
  256
370
   -1
100
AcDbLine
 10
-59.2558
 20
94.61799999999999
 11
-59.332
 21
94.745
  0
LINE
  5
152
100
AcDbEntity
  8
frame
  6
ByLayer
 62
  256
370
   -1
100
AcDbLine
 10
-59.332
 20
94.745
 11
-59.3828
 21
94.97399999999999
  0
LINE
  5
153
100
AcDbEntity
  8
frame
  6
ByLayer
 62
  256
370
   -1
100
AcDbLine
 10
-59.3828
 20
94.97399999999999
 11
-59.3828
 21
95.17699999999999
  0
LINE
  5
154
100
AcDbEntity
  8
frame
  6
ByLayer
 62
  256
370
   -1
100
AcDbLine
 10
-59.3828
 20
95.17699999999999
 11
-59.332
 21
95.405
  0
LINE
  5
155
100
AcDbEntity
  8
frame
  6
ByLayer
 62
  256
370
   -1
100
AcDbLine
 10
-59.332
 20
95.405
 11
-59.2558
 21
95.53200000000001
  0
LINE
  5
156
100
AcDbEntity
  8
frame
  6
ByLayer
 62
  256
370
   -1
100
AcDbLine
 10
-59.2558
 20
95.53200000000001
 11
-59.1542
 21
95.65899999999999
  0
LINE
  5
157
100
AcDbEntity
  8
frame
  6
ByLayer
 62
  256
370
   -1
100
AcDbLine
 10
-59.1542
 20
95.65899999999999
 11
-58.951
 21
95.71000000000001
  0
LINE
  5
158
100
AcDbEntity
  8
frame
  6
ByLayer
 62
  256
370
   -1
100
AcDbLine
 10
-58.951
 20
95.71000000000001
 11
-58.824
 21
95.71000000000001
  0
LINE
  5
159
100
AcDbEntity
  8
frame
  6
ByLayer
 62
  256
370
   -1
100
AcDbLine
 10
-58.824
 20
95.71000000000001
 11
-58.6462
 21
95.65899999999999
  0
LINE
  5
15A
100
AcDbEntity
  8
frame
  6
ByLayer
 62
  256
370
   -1
100
AcDbLine
 10
-58.6462
 20
95.65899999999999
 11
-58.5954
 21
95.60900000000001
  0
LINE
  5
15B
100
AcDbEntity
  8
frame
  6
ByLayer
 62
  256
370
   -1
100
AcDbLine
 10
-59.332
 20
44.428
 11
-59.332
 21
45.72300000000001
  0
LINE
  5
15C
100
AcDbEntity
  8
frame
  6
ByLayer
 62
  256
370
   -1
100
AcDbLine
 10
-59.332
 20
45.72300000000001
 11
-59.0272
 21
45.72300000000001
  0
LINE
  5
15D
100
AcDbEntity
  8
frame
  6
ByLayer
 62
  256
370
   -1
100
AcDbLine
 10
-59.0272
 20
45.72300000000001
 11
-58.824
 21
45.672
  0
LINE
  5
15E
100
AcDbEntity
  8
frame
  6
ByLayer
 62
  256
370
   -1
100
AcDbLine
 10
-58.824
 20
45.672
 11
-58.7224
 21
45.54499999999999
  0
LINE
  5
15F
100
AcDbEntity
  8
frame
  6
ByLayer
 62
  256
370
   -1
100
AcDbLine
 10
-58.7224
 20
45.54499999999999
 11
-58.6462
 21
45.41800000000001
  0
LINE
  5
160
100
AcDbEntity
  8
frame
  6
ByLayer
 62
  256
370
   -1
100
AcDbLine
 10
-58.6462
 20
45.41800000000001
 11
-58.5954
 21
45.19
  0
LINE
  5
161
100
AcDbEntity
  8
frame
  6
ByLayer
 62
  256
370
   -1
100
AcDbLine
 10
-58.5954
 20
45.19
 11
-58.5954
 21
44.98599999999999
  0
LINE
  5
162
100
AcDbEntity
  8
frame
  6
ByLayer
 62
  256
370
   -1
100
AcDbLine
 10
-58.5954
 20
44.98599999999999
 11
-58.6462
 21
44.75800000000001
  0
LINE
  5
163
100
AcDbEntity
  8
frame
  6
ByLayer
 62
  256
370
   -1
100
AcDbLine
 10
-58.6462
 20
44.75800000000001
 11
-58.7224
 21
44.631
  0
LINE
  5
164
100
AcDbEntity
  8
frame
  6
ByLayer
 62
  256
370
   -1
100
AcDbLine
 10
-58.7224
 20
44.631
 11
-58.824
 21
44.50399999999999
  0
LINE
  5
165
100
AcDbEntity
  8
frame
  6
ByLayer
 62
  256
370
   -1
100
AcDbLine
 10
-58.824
 20
44.50399999999999
 11
-59.0272
 21
44.428
  0
LINE
  5
166
100
AcDbEntity
  8
frame
  6
ByLayer
 62
  256
370
   -1
100
AcDbLine
 10
-59.0272
 20
44.428
 11
-59.332
 21
44.428
  0
LINE
  5
167
100
AcDbEntity
  8
frame
  6
ByLayer
 62
  256
370
   -1
100
AcDbLine
 10
-59.2812
 20
-4.899000000000001
 11
-58.8494
 21
-4.899000000000001
  0
LINE
  5
168
100
AcDbEntity
  8
frame
  6
ByLayer
 62
  256
370
   -1
100
AcDbLine
 10
-58.6716
 20
-5.585000000000008
 11
-59.2812
 21
-5.585000000000008
  0
LINE
  5
169
100
AcDbEntity
  8
frame
  6
ByLayer
 62
  256
370
   -1
100
AcDbLine
 10
-59.2812
 20
-5.585000000000008
 11
-59.2812
 21
-4.289999999999992
  0
LINE
  5
16A
100
AcDbEntity
  8
frame
  6
ByLayer
 62
  256
370
   -1
100
AcDbLine
 10
-59.2812
 20
-4.289999999999992
 11
-58.6716
 21
-4.289999999999992
  0
LINE
  5
16B
100
AcDbEntity
  8
frame
  6
ByLayer
 62
  256
370
   -1
100
AcDbLine
 10
-58.824
 20
-54.88600000000002
 11
-59.2558
 21
-54.88600000000002
  0
LINE
  5
16C
100
AcDbEntity
  8
frame
  6
ByLayer
 62
  256
370
   -1
100
AcDbLine
 10
-59.2558
 20
-55.572
 11
-59.2558
 21
-54.27699999999999
  0
LINE
  5
16D
100
AcDbEntity
  8
frame
  6
ByLayer
 62
  256
370
   -1
100
AcDbLine
 10
-59.2558
 20
-54.27699999999999
 11
-58.6462
 21
-54.27699999999999
  0
LINE
  5
16E
100
AcDbEntity
  8
frame
  6
ByLayer
 62
  256
370
   -1
100
AcDbLine
 10
130
 20
170.0052
 11
128.018
 21
170.0052
  0
LINE
  5
16F
100
AcDbEntity
  8
frame
  6
ByLayer
 62
  256
370
   -1
100
AcDbLine
 10
130
 20
119.993
 11
128.018
 21
119.993
  0
LINE
  5
170
100
AcDbEntity
  8
frame
  6
ByLayer
 62
  256
370
   -1
100
AcDbLine
 10
130
 20
70.005
 11
128.018
 21
70.005
  0
LINE
  5
171
100
AcDbEntity
  8
frame
  6
ByLayer
 62
  256
370
   -1
100
AcDbLine
 10
130
 20
19.99299999999999
 11
128.018
 21
19.99299999999999
  0
LINE
  5
172
100
AcDbEntity
  8
frame
  6
ByLayer
 62
  256
370
   -1
100
AcDbLine
 10
130
 20
-29.99400000000003
 11
128.018
 21
-29.99400000000003
  0
LINE
  5
173
100
AcDbEntity
  8
frame
  6
ByLayer
 62
  256
370
   -1
100
AcDbLine
 10
128.704
 20
194.7956
 11
129.314
 21
194.7956
  0
LINE
  5
174
100
AcDbEntity
  8
frame
  6
ByLayer
 62
  256
370
   -1
100
AcDbLine
 10
128.577
 20
194.4146
 11
129.009
 21
195.71
  0
LINE
  5
175
100
AcDbEntity
  8
frame
  6
ByLayer
 62
  256
370
   -1
100
AcDbLine
 10
129.009
 20
195.71
 11
129.441
 21
194.4146
  0
LINE
  5
176
100
AcDbEntity
  8
frame
  6
ByLayer
 62
  256
370
   -1
100
AcDbLine
 10
129.111
 20
145.1132
 11
129.288
 21
145.0624
  0
LINE
  5
177
100
AcDbEntity
  8
frame
  6
ByLayer
 62
  256
370
   -1
100
AcDbLine
 10
129.288
 20
145.0624
 11
129.365
 21
144.9862
  0
LINE
  5
178
100
AcDbEntity
  8
frame
  6
ByLayer
 62
  256
370
   -1
100
AcDbLine
 10
129.365
 20
144.9862
 11
129.415
 21
144.8592
  0
LINE
  5
179
100
AcDbEntity
  8
frame
  6
ByLayer
 62
  256
370
   -1
100
AcDbLine
 10
129.415
 20
144.8592
 11
129.415
 21
144.6814
  0
LINE
  5
17A
100
AcDbEntity
  8
frame
  6
ByLayer
 62
  256
370
   -1
100
AcDbLine
 10
129.415
 20
144.6814
 11
129.365
 21
144.5544
  0
LINE
  5
17B
100
AcDbEntity
  8
frame
  6
ByLayer
 62
  256
370
   -1
100
AcDbLine
 10
129.365
 20
144.5544
 11
129.288
 21
144.5036
  0
LINE
  5
17C
100
AcDbEntity
  8
frame
  6
ByLayer
 62
  256
370
   -1
100
AcDbLine
 10
129.288
 20
144.5036
 11
129.187
 21
144.4274
  0
LINE
  5
17D
100
AcDbEntity
  8
frame
  6
ByLayer
 62
  256
370
   -1
100
AcDbLine
 10
129.187
 20
144.4274
 11
128.679
 21
144.4274
  0
LINE
  5
17E
100
AcDbEntity
  8
frame
  6
ByLayer
 62
  256
370
   -1
100
AcDbLine
 10
128.679
 20
144.4274
 11
128.679
 21
145.7228
  0
LINE
  5
17F
100
AcDbEntity
  8
frame
  6
ByLayer
 62
  256
370
   -1
100
AcDbLine
 10
128.679
 20
145.7228
 11
129.111
 21
145.7228
  0
LINE
  5
180
100
AcDbEntity
  8
frame
  6
ByLayer
 62
  256
370
   -1
100
AcDbLine
 10
129.111
 20
145.7228
 11
129.238
 21
145.672
  0
LINE
  5
181
100
AcDbEntity
  8
frame
  6
ByLayer
 62
  256
370
   -1
100
AcDbLine
 10
129.238
 20
145.672
 11
129.288
 21
145.6212
  0
LINE
  5
182
100
AcDbEntity
  8
frame
  6
ByLayer
 62
  256
370
   -1
100
AcDbLine
 10
129.288
 20
145.6212
 11
129.365
 21
145.4942
  0
LINE
  5
183
100
AcDbEntity
  8
frame
  6
ByLayer
 62
  256
370
   -1
100
AcDbLine
 10
129.365
 20
145.4942
 11
129.365
 21
145.3672
  0
LINE
  5
184
100
AcDbEntity
  8
frame
  6
ByLayer
 62
  256
370
   -1
100
AcDbLine
 10
129.365
 20
145.3672
 11
129.288
 21
145.2402
  0
LINE
  5
185
100
AcDbEntity
  8
frame
  6
ByLayer
 62
  256
370
   -1
100
AcDbLine
 10
129.288
 20
145.2402
 11
129.238
 21
145.1894
  0
LINE
  5
186
100
AcDbEntity
  8
frame
  6
ByLayer
 62
  256
370
   -1
100
AcDbLine
 10
129.238
 20
145.1894
 11
129.111
 21
145.1132
  0
LINE
  5
187
100
AcDbEntity
  8
frame
  6
ByLayer
 62
  256
370
   -1
100
AcDbLine
 10
129.111
 20
145.1132
 11
128.679
 21
145.1132
  0
LINE
  5
188
100
AcDbEntity
  8
frame
  6
ByLayer
 62
  256
370
   -1
100
AcDbLine
 10
129.415
 20
94.542
 11
129.365
 21
94.49100000000001
  0
LINE
  5
189
100
AcDbEntity
  8
frame
  6
ByLayer
 62
  256
370
   -1
100
AcDbLine
 10
129.365
 20
94.49100000000001
 11
129.187
 21
94.41499999999999
  0
LINE
  5
18A
100
AcDbEntity
  8
frame
  6
ByLayer
 62
  256
370
   -1
100
AcDbLine
 10
129.187
 20
94.41499999999999
 11
129.06
 21
94.41499999999999
  0
LINE
  5
18B
100
AcDbEntity
  8
frame
  6
ByLayer
 62
  256
370
   -1
100
AcDbLine
 10
129.06
 20
94.41499999999999
 11
128.857
 21
94.49100000000001
  0
LINE
  5
18C
100
AcDbEntity
  8
frame
  6
ByLayer
 62
  256
370
   -1
100
AcDbLine
 10
128.857
 20
94.49100000000001
 11
128.755
 21
94.61799999999999
  0
LINE
  5
18D
100
AcDbEntity
  8
frame
  6
ByLayer
 62
  256
370
   -1
100
AcDbLine
 10
128.755
 20
94.61799999999999
 11
128.679
 21
94.745
  0
LINE
  5
18E
100
AcDbEntity
  8
frame
  6
ByLayer
 62
  256
370
   -1
100
AcDbLine
 10
128.679
 20
94.745
 11
128.628
 21
94.97399999999999
  0
LINE
  5
18F
100
AcDbEntity
  8
frame
  6
ByLayer
 62
  256
370
   -1
100
AcDbLine
 10
128.628
 20
94.97399999999999
 11
128.628
 21
95.17699999999999
  0
LINE
  5
190
100
AcDbEntity
  8
frame
  6
ByLayer
 62
  256
370
   -1
100
AcDbLine
 10
128.628
 20
95.17699999999999
 11
128.679
 21
95.405
  0
LINE
  5
191
100
AcDbEntity
  8
frame
  6
ByLayer
 62
  256
370
   -1
100
AcDbLine
 10
128.679
 20
95.405
 11
128.755
 21
95.53200000000001
  0
LINE
  5
192
100
AcDbEntity
  8
frame
  6
ByLayer
 62
  256
370
   -1
100
AcDbLine
 10
128.755
 20
95.53200000000001
 11
128.857
 21
95.65899999999999
  0
LINE
  5
193
100
AcDbEntity
  8
frame
  6
ByLayer
 62
  256
370
   -1
100
AcDbLine
 10
128.857
 20
95.65899999999999
 11
129.06
 21
95.71000000000001
  0
LINE
  5
194
100
AcDbEntity
  8
frame
  6
ByLayer
 62
  256
370
   -1
100
AcDbLine
 10
129.06
 20
95.71000000000001
 11
129.187
 21
95.71000000000001
  0
LINE
  5
195
100
AcDbEntity
  8
frame
  6
ByLayer
 62
  256
370
   -1
100
AcDbLine
 10
129.187
 20
95.71000000000001
 11
129.365
 21
95.65899999999999
  0
LINE
  5
196
100
AcDbEntity
  8
frame
  6
ByLayer
 62
  256
370
   -1
100
AcDbLine
 10
129.365
 20
95.65899999999999
 11
129.415
 21
95.60900000000001
  0
LINE
  5
197
100
AcDbEntity
  8
frame
  6
ByLayer
 62
  256
370
   -1
100
AcDbLine
 10
128.679
 20
44.428
 11
128.679
 21
45.72300000000001
  0
LINE
  5
198
100
AcDbEntity
  8
frame
  6
ByLayer
 62
  256
370
   -1
100
AcDbLine
 10
128.679
 20
45.72300000000001
 11
128.984
 21
45.72300000000001
  0
LINE
  5
199
100
AcDbEntity
  8
frame
  6
ByLayer
 62
  256
370
   -1
100
AcDbLine
 10
128.984
 20
45.72300000000001
 11
129.187
 21
45.672
  0
LINE
  5
19A
100
AcDbEntity
  8
frame
  6
ByLayer
 62
  256
370
   -1
100
AcDbLine
 10
129.187
 20
45.672
 11
129.288
 21
45.54499999999999
  0
LINE
  5
19B
100
AcDbEntity
  8
frame
  6
ByLayer
 62
  256
370
   -1
100
AcDbLine
 10
129.288
 20
45.54499999999999
 11
129.365
 21
45.41800000000001
  0
LINE
  5
19C
100
AcDbEntity
  8
frame
  6
ByLayer
 62
  256
370
   -1
100
AcDbLine
 10
129.365
 20
45.41800000000001
 11
129.415
 21
45.19
  0
LINE
  5
19D
100
AcDbEntity
  8
frame
  6
ByLayer
 62
  256
370
   -1
100
AcDbLine
 10
129.415
 20
45.19
 11
129.415
 21
44.98599999999999
  0
LINE
  5
19E
100
AcDbEntity
  8
frame
  6
ByLayer
 62
  256
370
   -1
100
AcDbLine
 10
129.415
 20
44.98599999999999
 11
129.365
 21
44.75800000000001
  0
LINE
  5
19F
100
AcDbEntity
  8
frame
  6
ByLayer
 62
  256
370
   -1
100
AcDbLine
 10
129.365
 20
44.75800000000001
 11
129.288
 21
44.631
  0
LINE
  5
1A0
100
AcDbEntity
  8
frame
  6
ByLayer
 62
  256
370
   -1
100
AcDbLine
 10
129.288
 20
44.631
 11
129.187
 21
44.50399999999999
  0
LINE
  5
1A1
100
AcDbEntity
  8
frame
  6
ByLayer
 62
  256
370
   -1
100
AcDbLine
 10
129.187
 20
44.50399999999999
 11
128.984
 21
44.428
  0
LINE
  5
1A2
100
AcDbEntity
  8
frame
  6
ByLayer
 62
  256
370
   -1
100
AcDbLine
 10
128.984
 20
44.428
 11
128.679
 21
44.428
  0
LINE
  5
1A3
100
AcDbEntity
  8
frame
  6
ByLayer
 62
  256
370
   -1
100
AcDbLine
 10
128.73
 20
-4.899000000000001
 11
129.161
 21
-4.899000000000001
  0
LINE
  5
1A4
100
AcDbEntity
  8
frame
  6
ByLayer
 62
  256
370
   -1
100
AcDbLine
 10
129.339
 20
-5.585000000000008
 11
128.73
 21
-5.585000000000008
  0
LINE
  5
1A5
100
AcDbEntity
  8
frame
  6
ByLayer
 62
  256
370
   -1
100
AcDbLine
 10
128.73
 20
-5.585000000000008
 11
128.73
 21
-4.289999999999992
  0
LINE
  5
1A6
100
AcDbEntity
  8
frame
  6
ByLayer
 62
  256
370
   -1
100
AcDbLine
 10
128.73
 20
-4.289999999999992
 11
129.339
 21
-4.289999999999992
  0
LINE
  5
1A7
100
AcDbEntity
  8
frame
  6
ByLayer
 62
  256
370
   -1
100
AcDbLine
 10
129.187
 20
-54.88600000000002
 11
128.755
 21
-54.88600000000002
  0
LINE
  5
1A8
100
AcDbEntity
  8
frame
  6
ByLayer
 62
  256
370
   -1
100
AcDbLine
 10
128.755
 20
-55.572
 11
128.755
 21
-54.27699999999999
  0
LINE
  5
1A9
100
AcDbEntity
  8
frame
  6
ByLayer
 62
  256
370
   -1
100
AcDbLine
 10
128.755
 20
-54.27699999999999
 11
129.365
 21
-54.27699999999999
  0
LINE
  5
1AA
100
AcDbEntity
  8
frame
  6
ByLayer
 62
  256
370
   -1
100
AcDbLine
 10
20.0176
 20
-51.50799999999998
 11
128.018
 21
-51.50799999999998
  0
LINE
  5
1AB
100
AcDbEntity
  8
frame
  6
ByLayer
 62
  256
370
   -1
100
AcDbLine
 10
20.0176
 20
-48.51100000000002
 11
128.018
 21
-48.51100000000002
  0
LINE
  5
1AC
100
AcDbEntity
  8
frame
  6
ByLayer
 62
  256
370
   -1
100
AcDbLine
 10
20.0176
 20
-44.49799999999999
 11
128.018
 21
-44.49799999999999
  0
LINE
  5
1AD
100
AcDbEntity
  8
frame
  6
ByLayer
 62
  256
370
   -1
100
AcDbLine
 10
20.0176
 20
-38.50299999999999
 11
128.018
 21
-38.50299999999999
  0
LINE
  5
1AE
100
AcDbEntity
  8
frame
  6
ByLayer
 62
  256
370
   -1
100
AcDbLine
 10
40.00700000000001
 20
-48.51100000000002
 11
40.00700000000001
 21
-51.50799999999998
  0
LINE
  5
1AF
100
AcDbEntity
  8
frame
  6
ByLayer
 62
  256
370
   -1
100
AcDbLine
 10
104.015
 20
-48.51100000000002
 11
104.015
 21
-55.01299999999998
  0
MTEXT
  5
1B0
100
AcDbEntity
  8
text
  6
ByLayer
 62
  256
370
   -1
100
AcDbMText
 10
21
 20
-49
 30
0
 40
2
 41
12.38888846488459
 71
    1
 72
    1
  1
Size: A/4
  7
standard
210
0
220
0
230
1
 50
0
 73
    2
 44
1
  0
MTEXT
  5
1B1
100
AcDbEntity
  8
text
  6
ByLayer
 62
  256
370
   -1
100
AcDbMText
 10
21
 20
-52
 30
0
 40
2
 41
19.94444444444466
 71
    1
 72
    1
  1
LibreCAD v2.1.2
  7
standard
210
0
220
0
230
1
 50
0
 73
    2
 44
1
  0
MTEXT
  5
1B2
100
AcDbEntity
  8
text
  6
ByLayer
 62
  256
370
   -1
100
AcDbMText
 10
21
 20
-39
 30
0
 40
2
 41
10.83333290932913
 71
    1
 72
    1
  1
Sheet: /
  7
standard
210
0
220
0
230
1
 50
0
 73
    2
 44
1
  0
MTEXT
  5
1B3
100
AcDbEntity
  8
text
  6
ByLayer
 62
  256
370
   -1
100
AcDbMText
 10
41
 20
-49
 30
0
 40
2
 41
25.16666666666701
 71
    1
 72
    1
  1
Date: 2020. 06. 20.
  7
standard
210
0
220
0
230
1
 50
0
 73
    2
 44
1
  0
MTEXT
  5
1B4
100
AcDbEntity
  8
text
  6
ByLayer
 62
  256
370
   -1
100
AcDbMText
 10
105
 20
-49
 30
0
 40
2
 41
15.27777777777803
 71
    1
 72
    1
  1
Rev: 231006
  7
standard
210
0
220
0
230
1
 50
0
 73
    2
 44
1
  0
MTEXT
  5
1B5
100
AcDbEntity
  8
text
  6
ByLayer
 62
  256
370
   -1
100
AcDbMText
 10
105
 20
-52
 30
0
 40
2
 41
7.5
 71
    1
 72
    1
  1
Id: 1/1
  7
standard
210
0
220
0
230
1
 50
0
 73
    2
 44
1
  0
MTEXT
  5
1B6
100
AcDbEntity
  8
text
  6
ByLayer
 62
  256
370
   -1
100
AcDbMText
 10
21
 20
-35
 30
0
 40
2
 41
54.05555966985351
 71
    1
 72
    1
  1
Pozsar Zsolt - http://www.pozsarzs.hu
  7
standard
210
0
220
0
230
1
 50
0
 73
    2
 44
1
  0
MTEXT
  5
1B7
100
AcDbEntity
  8
text
  6
ByLayer
 62
  256
370
   -1
100
AcDbMText
 10
21
 20
-45
 30
0
 40
2
 41
48.00000102857489
 71
    1
 72
    1
  1
Title: MM7D RH/T measuring device
  7
standard
210
0
220
0
230
1
 50
0
 73
    2
 44
1
  0
MTEXT
  5
1B8
100
AcDbEntity
  8
text
  6
ByLayer
 62
  256
370
   -1
100
AcDbMText
 10
21
 20
-29
 30
0
 40
2
 41
5.722222222222222
 71
    1
 72
    1
  1
M 1:1
  7
standard
210
0
220
0
230
1
 50
0
 73
    2
 44
1
  0
MTEXT
  5
1B9
100
AcDbEntity
  8
text
  6
ByLayer
 62
  256
370
   -1
100
AcDbMText
 10
21
 20
-24
 30
0
 40
2
 41
0
 71
    1
 72
    1
  1

  7
standard
210
0
220
0
230
1
 50
0
 73
    2
 44
1
  0
MTEXT
  5
1BA
100
AcDbEntity
  8
text
  6
ByLayer
 62
  256
370
   -1
100
AcDbMText
 10
21
 20
-32
 30
0
 40
2
 41
43.50000102857507
 71
    1
 72
    1
  1
Drilling drawing for side of box
  7
standard
210
0
220
0
230
1
 50
0
 73
    2
 44
1
  0
MTEXT
  5
1BB
100
AcDbEntity
  8
text
  6
ByLayer
 62
  256
370
   -1
100
AcDbMText
 10
21
 20
-42
 30
0
 40
2
 41
16.61111213968551
 71
    1
 72
    1
  1
File: side.dxf
  7
standard
210
0
220
0
230
1
 50
0
 73
    2
 44
1
  0
LINE
  5
1BC
100
AcDbEntity
  8
0
  6
CONTINUOUS
 62
  256
370
  100
100
AcDbLine
 10
-6.343811556962685
 20
138.2655206605166
 11
64.65618844303732
 21
138.2655206605166
  0
LINE
  5
1BD
100
AcDbEntity
  8
0
  6
CONTINUOUS
 62
  256
370
  100
100
AcDbLine
 10
64.65618844303732
 20
138.2655206605166
 11
64.65618844303732
 21
159.7655206605166
  0
LINE
  5
1BE
100
AcDbEntity
  8
0
  6
CONTINUOUS
 62
  256
370
  100
100
AcDbLine
 10
62.65618844303732
 20
161.7655206605166
 11
-4.343811556962685
 21
161.7655206605166
  0
ARC
  5
1BF
100
AcDbEntity
  8
0
  6
CONTINUOUS
 62
  256
370
  100
100
AcDbCircle
 10
-4.343811556962685
 20
159.7655206605166
 40
2
100
AcDbArc
 50
91.70171436824855
 51
176.5683246624295
  0
ARC
  5
1C0
100
AcDbEntity
  8
0
  6
CONTINUOUS
 62
  256
370
  100
100
AcDbCircle
 10
62.65618844303732
 20
159.7655206605166
 40
2
100
AcDbArc
 50
5.594716057502449
 51
81.78754683153132
  0
LINE
  5
1C1
100
AcDbEntity
  8
0
  6
CONTINUOUS
 62
  256
370
  100
100
AcDbLine
 10
-6.343811556962685
 20
138.2655206605166
 11
-6.343811556962685
 21
159.7655206605166
  0
CIRCLE
  5
1C2
100
AcDbEntity
  8
0
  6
CONTINUOUS
 62
  256
370
  100
100
AcDbCircle
 10
8.656188443037314
 20
146.2655206605166
 40
2
  0
CIRCLE
  5
1C3
100
AcDbEntity
  8
0
  6
CONTINUOUS
 62
  256
370
  100
100
AcDbCircle
 10
33.65618844303732
 20
146.2655206605166
 40
4
  0
DIMENSION
  5
1C4
100
AcDbEntity
  8
0
  6
CONTINUOUS
 62
  256
370
   50
100
AcDbDimension
  2
*D1
 10
33.65618844303732
 20
146.2655206605166
 30
0
 11
36.95597581271154
 21
152.9278820421242
 31
0
 70
   36
 71
    5
 72
    0
  3
Standard
 53
0
210
0
220
0
230
1
100
AcDbRadialDimension
 15
36.27810682165453
 25
149.2863721987206
 35
0
 40
0
  0
DIMENSION
  5
1C5
100
AcDbEntity
  8
0
  6
CONTINUOUS
 62
  256
370
   50
100
AcDbDimension
  2
*D2
 10
8.656188443037314
 20
146.2655206605166
 30
0
 11
10.69806929132242
 21
151.2560105740136
 31
0
 70
   36
 71
    5
 72
    0
  3
Standard
 53
0
210
0
220
0
230
1
100
AcDbRadialDimension
 15
10.00996363336974
 25
147.737693454057
 35
0
 40
0
  0
DIMENSION
  5
1C6
100
AcDbEntity
  8
0
  6
CONTINUOUS
 62
  256
370
   50
100
AcDbDimension
  2
*D3
 10
8.656188443037314
 20
128.236950875718
 30
0
 11
1.156188443037314
 21
130.111950875718
 31
0
 70
   32
 71
    5
 72
    0
  3
Standard
 53
0
210
0
220
0
230
1
100
AcDbAlignedDimension
 13
-6.343811556962685
 23
138.2655206605166
 33
0
 14
8.656188443037314
 24
153.2655206605166
 34
0
100
AcDbRotatedDimension
  0
DIMENSION
  5
1C7
100
AcDbEntity
  8
0
  6
CONTINUOUS
 62
  256
370
   50
100
AcDbDimension
  2
*D4
 10
33.65618844303732
 20
123.5176239181658
 30
0
 11
13.65618844303732
 21
125.3926239181658
 31
0
 70
   32
 71
    5
 72
    0
  3
Standard
 53
0
210
0
220
0
230
1
100
AcDbAlignedDimension
 13
-6.343811556962685
 23
138.2655206605166
 33
0
 14
33.65618844303732
 24
153.2655206605166
 34
0
100
AcDbRotatedDimension
  0
DIMENSION
  5
1C8
100
AcDbEntity
  8
0
  6
CONTINUOUS
 62
  256
370
   50
100
AcDbDimension
  2
*D5
 10
64.65618844303732
 20
118.2083810909195
 30
0
 11
29.15618844303732
 21
120.0833810909195
 31
0
 70
   32
 71
    5
 72
    0
  3
Standard
 53
0
210
0
220
0
230
1
100
AcDbAlignedDimension
 13
-6.343811556962685
 23
138.2655206605166
 33
0
 14
64.65618844303732
 24
138.2655206605166
 34
0
100
AcDbRotatedDimension
  0
DIMENSION
  5
1C9
100
AcDbEntity
  8
0
  6
CONTINUOUS
 62
  256
370
   50
100
AcDbDimension
  2
*D6
 10
-16.2371431286339
 20
161.7655206605166
 30
0
 11
-18.1121431286339
 21
150.0155206605166
 31
0
 70
   32
 71
    5
 72
    0
  3
Standard
 53
0
210
0
220
0
230
1
100
AcDbAlignedDimension
 13
-6.343811556962685
 23
138.2655206605166
 33
0
 14
-4.343811556962685
 24
161.7655206605166
 34
0
 50
90
100
AcDbRotatedDimension
  0
DIMENSION
  5
1CA
100
AcDbEntity
  8
0
  6
CONTINUOUS
 62
  256
370
   50
100
AcDbDimension
  2
*D7
 10
74.11312055710263
 20
146.2655206605166
 30
0
 11
72.23812055710263
 21
142.2655206605166
 31
0
 70
   32
 71
    5
 72
    0
  3
Standard
 53
0
210
0
220
0
230
1
100
AcDbAlignedDimension
 13
64.65618844303732
 23
138.2655206605166
 33
0
 14
3.656188443037314
 24
146.2655206605166
 34
0
 50
90
100
AcDbRotatedDimension
  0
TEXT
  5
1CB
100
AcDbEntity
  8
0
  6
CONTINUOUS
 62
  256
370
   50
100
AcDbText
 10
12.67645242496952
 20
169.0999865354411
 30
0
 40
5
  1
left side
 50
0
 41
1
 51
0
  7
iso
 71
    0
210
0
220
0
230
1
100
AcDbText
  0
LINE
  5
1CC
100
AcDbEntity
  8
0
  6
CONTINUOUS
 62
  256
370
  100
100
AcDbLine
 10
-5.46509815945689
 20
20.72832759085478
 11
65.53490184054311
 21
20.72832759085478
  0
LINE
  5
1CD
100
AcDbEntity
  8
0
  6
CONTINUOUS
 62
  256
370
  100
100
AcDbLine
 10
65.53490184054311
 20
20.72832759085478
 11
65.53490184054311
 21
42.22832759085478
  0
LINE
  5
1CE
100
AcDbEntity
  8
0
  6
CONTINUOUS
 62
  256
370
  100
100
AcDbLine
 10
63.53490184054311
 20
44.22832759085478
 11
-3.46509815945689
 21
44.22832759085478
  0
LINE
  5
1CF
100
AcDbEntity
  8
0
  6
CONTINUOUS
 62
  256
370
  100
100
AcDbLine
 10
-5.46509815945689
 20
20.72832759085478
 11
-5.46509815945689
 21
42.22832759085478
  0
ARC
  5
1D0
100
AcDbEntity
  8
0
  6
CONTINUOUS
 62
  256
370
  100
100
AcDbCircle
 10
-3.46509815945689
 20
42.22832759085478
 40
2
100
AcDbArc
 50
89.47081892192863
 51
180.0422203184094
  0
ARC
  5
1D1
100
AcDbEntity
  8
0
  6
CONTINUOUS
 62
  256
370
  100
100
AcDbCircle
 10
63.53490184054311
 20
42.22832759085478
 40
2
100
AcDbArc
 50
359.9547191649974
 51
90.08832532115558
  0
CIRCLE
  5
1D2
100
AcDbEntity
  8
0
  6
CONTINUOUS
 62
  256
370
  100
100
AcDbCircle
 10
16.53490184054311
 20
28.72832759085478
 40
1.5
  0
CIRCLE
  5
1D3
100
AcDbEntity
  8
0
  6
CONTINUOUS
 62
  256
370
  100
100
AcDbCircle
 10
41.53490184054311
 20
28.72832759085478
 40
1.5
  0
LINE
  5
1D4
100
AcDbEntity
  8
0
  6
CONTINUOUS
 62
  256
370
  100
100
AcDbLine
 10
21.54408333076066
 20
33.80730650252133
 11
36.54408333076066
 21
33.80730650252133
  0
LINE
  5
1D5
100
AcDbEntity
  8
0
  6
CONTINUOUS
 62
  256
370
  100
100
AcDbLine
 10
36.54408333076066
 20
33.80730650252133
 11
38.54408333076066
 21
31.20730650252131
  0
LINE
  5
1D6
100
AcDbEntity
  8
0
  6
CONTINUOUS
 62
  256
370
  100
100
AcDbLine
 10
19.54408333076066
 20
31.20730650252131
 11
21.54408333076066
 21
33.80730650252133
  0
LINE
  5
1D7
100
AcDbEntity
  8
0
  6
CONTINUOUS
 62
  256
370
  100
100
AcDbLine
 10
22.29408333076066
 20
23.80730650252133
 11
35.79408333076066
 21
23.80730650252133
  0
LINE
  5
1D8
100
AcDbEntity
  8
0
  6
CONTINUOUS
 62
  256
370
  100
100
AcDbLine
 10
20.54408333076066
 20
26.00730650252132
 11
22.19993487199113
 21
23.8602247938592
  0
LINE
  5
1D9
100
AcDbEntity
  8
0
  6
CONTINUOUS
 62
  256
370
  100
100
AcDbLine
 10
20.52386982217993
 20
26.04639659796078
 11
19.56012488335108
 21
31.21289930206262
  0
CIRCLE
  5
1DA
100
AcDbEntity
  8
0
  6
CONTINUOUS
 62
  256
370
  100
100
AcDbCircle
 10
16.54408333076066
 20
28.80730650252133
 40
1.6
  0
CIRCLE
  5
1DB
100
AcDbEntity
  8
0
  6
CONTINUOUS
 62
  256
370
  100
100
AcDbCircle
 10
41.54408333076066
 20
28.80730650252133
 40
1.6
  0
DIMENSION
  5
1DC
100
AcDbEntity
  8
0
  6
CONTINUOUS
 62
  256
370
   50
100
AcDbDimension
  2
*D8
 10
16.53490184054311
 20
10.68929576593573
 30
0
 11
5.53490184054311
 21
12.56429576593573
 31
0
 70
   32
 71
    5
 72
    0
  3
Standard
 53
0
210
0
220
0
230
1
100
AcDbAlignedDimension
 13
-5.46509815945689
 23
20.72832759085478
 33
0
 14
16.53490184054311
 24
32.72832759085478
 34
0
100
AcDbRotatedDimension
  0
DIMENSION
  5
1DD
100
AcDbEntity
  8
0
  6
CONTINUOUS
 62
  256
370
   50
100
AcDbDimension
  2
*D9
 10
35.83338325789851
 20
10.66844109175537
 30
0
 11
29.08266994929234
 21
12.54344109175537
 31
0
 70
   32
 71
    5
 72
    0
  3
Standard
 53
0
210
0
220
0
230
1
100
AcDbAlignedDimension
 13
22.33195664068617
 23
23.72864461690196
 33
0
 14
35.83338325789851
 24
23.90513385372827
 34
0
100
AcDbRotatedDimension
  0
DIMENSION
  5
1DE
100
AcDbEntity
  8
0
  6
CONTINUOUS
 62
  256
370
   50
100
AcDbDimension
  2
*D10
 10
37.59827562616157
 20
4.844296276487313
 30
0
 11
29.08266994929234
 21
6.719296276487313
 31
0
 70
   32
 71
    5
 72
    0
  3
Standard
 53
0
210
0
220
0
230
1
100
AcDbAlignedDimension
 13
20.56706427242312
 23
25.93476007723078
 33
0
 14
37.59827562616157
 24
25.75827084040446
 34
0
100
AcDbRotatedDimension
  0
DIMENSION
  5
1DF
100
AcDbEntity
  8
0
  6
CONTINUOUS
 62
  256
370
   50
100
AcDbDimension
  2
*D11
 10
36.44527470167098
 20
50.52756453817386
 30
0
 11
28.95573584778424
 21
52.40256453817386
 31
0
 70
   32
 71
    5
 72
    0
  3
Standard
 53
0
210
0
220
0
230
1
100
AcDbAlignedDimension
 13
21.4661969938975
 23
33.84472206035591
 33
0
 14
36.44527470167098
 24
33.92233386195059
 34
0
100
AcDbRotatedDimension
  0
DIMENSION
  5
1E0
100
AcDbEntity
  8
0
  6
CONTINUOUS
 62
  256
370
   50
100
AcDbDimension
  2
*D12
 10
38.48125127800358
 20
55.23840596795584
 30
0
 11
28.99967588567478
 21
57.11340596795584
 31
0
 70
   32
 71
    5
 72
    0
  3
Standard
 53
0
210
0
220
0
230
1
100
AcDbAlignedDimension
 13
19.51810049334598
 23
31.16307722897324
 33
0
 14
38.48125127800358
 24
31.36374549124474
 34
0
100
AcDbRotatedDimension
  0
DIMENSION
  5
1E1
100
AcDbEntity
  8
0
  6
CONTINUOUS
 62
  256
370
   50
100
AcDbDimension
  2
*D13
 10
41.4810388363403
 20
60.13397029157926
 30
0
 11
28.99442533087921
 21
62.00897029157926
 31
0
 70
   32
 71
    5
 72
    0
  3
Standard
 53
0
210
0
220
0
230
1
100
AcDbAlignedDimension
 13
16.50781182541811
 23
24.25811232738087
 33
0
 14
41.4810388363403
 24
24.08162309055459
 34
0
100
AcDbRotatedDimension
  0
LINE
  5
1E2
100
AcDbEntity
  8
0
  6
CONTINUOUS
 62
  256
370
  100
100
AcDbLine
 10
37.42082275934242
 20
25.79295063269393
 11
38.5709731184155
 21
31.07306142713151
  0
LINE
  5
1E3
100
AcDbEntity
  8
0
  6
CONTINUOUS
 62
  256
370
  100
100
AcDbLine
 10
35.79530008733795
 20
23.82316918177969
 11
37.29829155671728
 21
25.62957569586041
  0
DIMENSION
  5
1E4
100
AcDbEntity
  8
0
  6
CONTINUOUS
 62
  256
370
   50
100
AcDbDimension
  2
*D14
 10
65.48564518325149
 20
0.3640374540993605
 30
0
 11
30.0102735118973
 21
2.239037454099361
 31
0
 70
   32
 71
    5
 72
    0
  3
Standard
 53
0
210
0
220
0
230
1
100
AcDbAlignedDimension
 13
-5.46509815945689
 23
20.72832759085478
 33
0
 14
65.48564518325149
 24
20.72832759085478
 34
0
100
AcDbRotatedDimension
  0
DIMENSION
  5
1E5
100
AcDbEntity
  8
0
  6
CONTINUOUS
 62
  256
370
   50
100
AcDbDimension
  2
*D15
 10
74.82468269819665
 20
28.89998541643178
 30
0
 11
72.94968269819665
 21
24.87901093083039
 31
0
 70
   32
 71
    5
 72
    0
  3
Standard
 53
0
210
0
220
0
230
1
100
AcDbAlignedDimension
 13
65.35593632887725
 23
20.858036445229
 33
0
 14
10.87821749169714
 24
28.89998541643178
 34
0
 50
90
100
AcDbRotatedDimension
  0
DIMENSION
  5
1E6
100
AcDbEntity
  8
0
  6
CONTINUOUS
 62
  256
370
   50
100
AcDbDimension
  2
*D16
 10
8.024622695463895
 20
33.82892188265285
 30
0
 11
6.149622695463895
 21
28.83513098924467
 31
0
 70
   32
 71
    5
 72
    0
  3
Standard
 53
0
210
0
220
0
230
1
100
AcDbAlignedDimension
 13
22.29259667663011
 23
23.8413400958365
 33
0
 14
22.16288782225588
 24
33.82892188265285
 34
0
 50
90
100
AcDbRotatedDimension
  0
DIMENSION
  5
1E7
100
AcDbEntity
  8
0
  6
CONTINUOUS
 62
  256
370
   50
100
AcDbDimension
  2
*D17
 10
-15.97151536377019
 20
44.20563023259191
 30
0
 11
-17.84651536377019
 21
32.53183333891046
 31
0
 70
   32
 71
    5
 72
    0
  3
Standard
 53
0
210
0
220
0
230
1
100
AcDbAlignedDimension
 13
-5.594807013831129
 23
20.858036445229
 33
0
 14
-3.260047635094838
 24
44.20563023259191
 34
0
 50
90
100
AcDbRotatedDimension
  0
TEXT
  5
1E8
100
AcDbEntity
  8
0
  6
CONTINUOUS
 62
  256
370
   50
100
AcDbText
 10
10.89852450152831
 20
73.86777717702522
 30
0
 40
5
  1
lower side
 50
0
 41
1
 51
0
  7
iso
 71
    0
210
0
220
0
230
1
100
AcDbText
  0
ENDSEC
  0
SECTION
  2
OBJECTS
  0
DICTIONARY
  5
C
330
0
100
AcDbDictionary
281
    1
  3
ACAD_GROUP
350
D
  0
DICTIONARY
  5
D
330
C
100
AcDbDictionary
281
    1
  0
ENDSEC
  0
EOF
